<?xml version="1.0" encoding="UTF-8"?>
<svg width="18px" height="18px" viewBox="0 0 18 18" version="1.1" xmlns="http://www.w3.org/2000/svg" xmlns:xlink="http://www.w3.org/1999/xlink">
    <title>add</title>
    <g id="Page-1" stroke="none" stroke-width="1" fill="none" fill-rule="evenodd">
        <g id="menu-mobile" transform="translate(-179.000000, -121.000000)" fill="#000000" fill-rule="nonzero">
            <g id="add" transform="translate(179.679798, 121.566667)">
                <path d="M14.8916303,7.0047619 L10.0344874,7.0047619 C9.87670281,7.0047619 9.74877313,6.87683223 9.74877313,6.71904762 L9.74877313,1.86190476 C9.74877313,1.07298176 9.1091247,0.433333333 8.3202017,0.433333333 C7.5312787,0.433333333 6.89163027,1.07298176 6.89163027,1.86190476 L6.89163027,6.71904762 C6.89163027,6.87683223 6.76370059,7.0047619 6.60591599,7.0047619 L1.74877313,7.0047619 C0.95985013,7.0047619 0.320201702,7.64441033 0.320201702,8.43333333 C0.320201702,9.22225633 0.95985013,9.86190476 1.74877313,9.86190476 L6.60591599,9.86190476 C6.76370059,9.86190476 6.89163027,9.98983444 6.89163027,10.147619 L6.89163027,15.0047619 C6.89163027,15.7936849 7.5312787,16.4333333 8.3202017,16.4333333 C9.1091247,16.4333333 9.74877313,15.7936849 9.74877313,15.0047619 L9.74877313,10.147619 C9.74877313,9.98983444 9.87670281,9.86190476 10.0344874,9.86190476 L14.8916303,9.86190476 C15.6805533,9.86190476 16.3202017,9.22225633 16.3202017,8.43333333 C16.3202017,7.64441033 15.6805533,7.0047619 14.8916303,7.0047619 Z" id="Path"></path>
            </g>
        </g>
    </g>
</svg>