<?xml version="1.0" encoding="utf-8"?>
<!-- Generator: Adobe Illustrator 24.0.3, SVG Export Plug-In . SVG Version: 6.00 Build 0)  -->
<svg version="1.1" id="Capa_1" xmlns="http://www.w3.org/2000/svg" xmlns:xlink="http://www.w3.org/1999/xlink" x="0px" y="0px"
	 viewBox="0 0 70 70" style="enable-background:new 0 0 70 70;" xml:space="preserve">
<style type="text/css">
	.st0{fill:#FFFFFF;stroke:#FB8E32;stroke-width:2;stroke-miterlimit:10;}
	.st1{fill:#FB8E32;}
</style>
<circle class="st0" cx="35" cy="35" r="33.8"/>
<g>
	<g>
		<path class="st1" d="M52.5,33.5C52.5,33.5,52.5,33.5,52.5,33.5L42.2,23.3c-0.8-0.8-2-0.8-2.8,0c-0.8,0.8-0.8,2,0,2.8l6.9,6.9H18.9
			c-1.1,0-2,0.9-2,2s0.9,2,2,2h27.5l-6.9,6.9c-0.8,0.8-0.8,2,0,2.8c0.8,0.8,2,0.8,2.8,0l10.3-10.2c0,0,0,0,0,0
			C53.3,35.5,53.3,34.3,52.5,33.5z"/>
	</g>
</g>
</svg>
