<?xml version="1.0" encoding="UTF-8"?>
<svg width="16px" height="20px" viewBox="0 0 16 20" version="1.1" xmlns="http://www.w3.org/2000/svg" xmlns:xlink="http://www.w3.org/1999/xlink">
    <title>bookmark</title>
    <g id="Page-1" stroke="none" stroke-width="1" fill="none" fill-rule="evenodd">
        <g id="Favorites-view-" transform="translate(-820.000000, -484.000000)" fill="#000000" fill-rule="nonzero">
            <g id="bookmark" transform="translate(820.000000, 484.000000)">
                <path d="M13.4673578,0 L1.93320158,0 C0.993826585,0 0.169014085,0.777472813 0.169014085,1.69774483 L0.169014085,18.8638314 C0.169014085,19.1718778 0.254232835,19.4286145 0.391576585,19.6269677 C0.555826585,19.8640861 0.820295335,20 1.10388908,20 C1.37201408,20 1.65748283,19.8798374 1.92110783,19.6532828 L7.08148283,15.245277 C7.24085783,15.1083256 7.46979533,15.029852 7.70782658,15.029852 C7.94576408,15.029852 8.17423283,15.1083256 8.33407658,15.2456542 L13.4772016,19.6526225 C13.7417641,19.8798374 14.0075453,20 14.2752016,20 C14.7278266,20 15.1690141,19.6487555 15.1690141,18.8639258 L15.1690141,1.69774483 C15.1690141,0.777472813 14.4067328,0 13.4673578,0 Z" id="Path"></path>
            </g>
        </g>
    </g>
</svg>