<?xml version="1.0" encoding="UTF-8"?>
<svg width="212px" height="140px" viewBox="0 0 212 140" version="1.1" xmlns="http://www.w3.org/2000/svg" xmlns:xlink="http://www.w3.org/1999/xlink">
    <title>Data analytics _Flatline</title>
    <g id="Page-1" stroke="none" stroke-width="1" fill="none" fill-rule="evenodd">
        <g id="About-view-" transform="translate(-859.000000, -801.000000)" fill-rule="nonzero">
            <g id="Data-analytics-_Flatline" transform="translate(859.728682, 801.000000)">
                <path d="M209.911004,133 L16.6316313,133 C16.4326357,133 16.2713178,132.839869 16.2713178,132.642339 L16.2713178,0.357661486 C16.2713178,0.160130501 16.4326357,0 16.6316313,0 C16.830627,0 16.9919448,0.160130501 16.9919448,0.357661486 L16.9919448,132.284677 L209.911004,132.284677 C210.11,132.284677 210.271318,132.444808 210.271318,132.642339 C210.271318,132.839869 210.11,133 209.911004,133 Z" id="Path" fill="#D1D3D4"></path>
                <rect id="Rectangle" fill="#FFFFFF" x="83.2713178" y="39" width="40" height="93"></rect>
                <path d="M123.56013,38.7262274 L123.56013,133.273773 L83.982506,133.273773 L83.982506,38.7262274 L123.56013,38.7262274 M123.56013,38 L83.982506,38 C83.5897276,38 83.2713178,38.3251431 83.2713178,38.7262274 L83.2713178,133.273773 C83.2713178,133.674857 83.5897276,134 83.982506,134 L123.56013,134 C123.952908,134 124.271318,133.674857 124.271318,133.273773 L124.271318,38.7262274 C124.271318,38.3251431 123.952908,38 123.56013,38 Z" id="Shape" fill="#231F20"></path>
                <rect id="Rectangle" fill="#FFFFFF" x="29.2713178" y="70" width="40" height="62"></rect>
                <path d="M68.560253,69.7143667 L68.560253,131.285633 L28.9823827,131.285633 L28.9823827,69.7143667 L68.560253,69.7143667 M68.560253,69 L28.9823827,69 C28.5896724,69 28.2713178,69.3198329 28.2713178,69.7143667 L28.2713178,131.285633 C28.2713178,131.680167 28.5896724,132 28.9823827,132 L68.560253,132 C68.9529632,132 69.2713178,131.680167 69.2713178,131.285633 L69.2713178,69.7143667 C69.2713178,69.3198329 68.9529632,69 68.560253,69 Z" id="Shape" fill="#231F20"></path>
                <rect id="Rectangle" fill="#FFFFFF" x="139.271318" y="2" width="40" height="130"></rect>
                <path d="M179.56013,1.71541696 L179.56013,131.284583 L139.982506,131.284583 L139.982506,1.71541696 L179.56013,1.71541696 M179.56013,1 L139.982506,1 C139.589728,1 139.271318,1.32030308 139.271318,1.71541696 L139.271318,131.284583 C139.271318,131.679697 139.589728,132 139.982506,132 L179.56013,132 C179.952908,132 180.271318,131.679697 180.271318,131.284583 L180.271318,1.71541696 C180.271318,1.32030308 179.952908,1 179.56013,1 Z" id="Shape" fill="#231F20"></path>
                <polygon id="Path" fill="#F99E3B" points="163.323175 22 155.271318 25.3244916 165.271318 30"></polygon>
                <path d="M110.524939,120.104689 C111.938192,118.832515 113.536532,117.785501 115.264467,117 C115.405315,122.09651 113.348937,126.788986 111.447492,130 L105.271318,130" id="Path" fill="#FFFFFF"></path>
                <path d="M112.010829,131 L105.63483,131 C105.434068,131 105.271318,130.837751 105.271318,130.637607 C105.271318,130.437463 105.434068,130.275214 105.63483,130.275214 L111.785451,130.275214 C113.544849,127.281847 115.558705,122.79542 115.573245,117.903113 C114.019121,118.676522 112.57437,119.651348 111.276534,120.802258 C111.135185,120.940381 110.908967,120.940381 110.767618,120.802258 C110.6988,120.734213 110.660092,120.641586 110.660092,120.544959 C110.660092,120.448331 110.6988,120.355705 110.767618,120.28766 C112.254322,118.954681 113.939184,117.859346 115.762271,117.040617 C115.86713,116.986461 115.991843,116.986461 116.096702,117.040617 C116.195612,117.105157 116.257724,117.212845 116.263918,117.330532 C116.416593,122.708446 114.177359,127.636992 112.272557,130.818803 C112.219682,130.917703 112.122254,130.985153 112.010829,131 L112.010829,131 Z" id="Path" fill="#231F20"></path>
                <path d="M101.271318,121.269497 C102.954934,113.12537 109.845289,108 109.845289,108 C111.126302,111.834947 111.550678,115.872447 111.092412,119.865087 C110.746769,123.317321 109.961843,126.719349 108.754056,130 L101.403825,130" id="Path" fill="#FFFFFF"></path>
                <path d="M108.539189,131 L101.711625,131 C101.511691,131 101.349612,130.835758 101.349612,130.633155 C101.349612,130.430552 101.511691,130.26631 101.711625,130.26631 L108.28578,130.26631 C109.356342,127.057098 110.05845,123.733577 110.378215,120.361493 C110.777012,116.549617 110.445116,112.695564 109.40078,109.011306 C107.952728,110.309938 103.282761,115.056913 101.993995,121.880231 C101.9539,122.079393 101.764238,122.209694 101.56682,122.173707 C101.370282,122.133077 101.241697,121.940883 101.27721,121.74083 C102.848346,113.450132 109.292176,108.138215 109.357338,108.07952 C109.449483,108.006441 109.570356,107.981944 109.68315,108.013487 C109.797356,108.049269 109.886768,108.139875 109.922078,108.255605 C111.133853,112.188208 111.535542,116.331132 111.10224,120.427525 C110.76803,123.945025 110.024356,127.41011 108.886721,130.750545 C108.834634,130.899837 108.695451,130.999741 108.539189,131 Z" id="Path" fill="#231F20"></path>
                <path d="M98.0566125,130 L104.26599,130 C104.32541,128.282168 103.909471,125.674123 101.918905,122.294097 C101.777783,122.064589 101.651515,121.84899 101.517821,121.640347 C97.9229178,115.937422 94.6325419,116 94.6325419,116 C93.2436022,122.001995 96.1774588,127.350226 98.0566125,130 Z" id="Path" fill="#FFFFFF"></path>
                <path d="M104.885172,129.999983 L98.5277537,129.999983 C98.4022864,130.000228 98.2851014,129.941529 98.2159665,129.84379 C96.2615927,127.089418 93.196952,121.538082 94.6494244,115.283956 C94.6874732,115.122662 94.8376318,115.005851 95.0144436,115 C95.1589304,115 98.6418223,115 102.398479,120.927577 L102.809125,121.637467 C104.946009,125.250805 105.326237,128.026473 105.2654,129.694713 C105.23869,129.871126 105.076021,130.001719 104.885172,129.999983 Z M98.7330771,129.290076 L104.512548,129.290076 C104.39573,126.696952 103.582468,124.172849 102.147528,121.949818 L101.744486,121.289621 C98.8699593,116.746328 96.2007561,115.90156 95.3262309,115.745384 C94.1475229,121.502588 96.8775626,126.62799 98.7102634,129.290076 L98.7330771,129.290076 Z" id="Shape" fill="#231F20"></path>
                <polygon id="Path" fill="#231F20" points="100.098729 140 111.450829 140 113.271318 130 98.2713178 130"></polygon>
                <path d="M23.9148116,133 L0.627824068,133 C0.430931109,133 0.271317829,132.776142 0.271317829,132.5 C0.271317829,132.223858 0.430931109,132 0.627824068,132 L23.9148116,132 C24.1117045,132 24.2713178,132.223858 24.2713178,132.5 C24.2713178,132.776142 24.1117045,133 23.9148116,133 Z" id="Path" fill="#D1D3D4"></path>
                <path d="M18.356905,131 C18.1462834,131.00188 17.9397692,130.941393 17.7635365,130.825948 C17.2632568,130.499126 17.120953,129.829165 17.4451437,129.326966 L49.3857367,79.7808965 C49.567709,79.4992208 49.8695108,79.3174736 50.2034275,79.2884773 C50.5369812,79.2563316 50.8663425,79.3822765 51.0934803,79.6288259 L76.2392802,106.87844 L105.364991,53.3930163 C105.537471,53.0738295 105.857829,52.8619135 106.218863,52.8281824 C106.578956,52.7970749 106.931123,52.9461768 107.159569,53.2264627 L132.848084,84.8354356 L164.260434,33.5152085 C164.574842,33.0062426 165.24136,32.8475867 165.751092,33.160377 C165.998433,33.3087918 166.175507,33.5507627 166.242245,33.8315357 C166.308982,34.1123087 166.259742,34.4081507 166.105666,34.6521178 L133.897333,87.3264979 C133.713673,87.627122 133.394901,87.8190647 133.043461,87.8406415 C132.692625,87.8657698 132.351824,87.7168994 132.1317,87.4423612 L106.493838,55.9058029 L77.418781,109.297088 C77.2516475,109.603698 76.9473817,109.81118 76.6010903,109.85468 C76.2539545,109.892845 75.9088622,109.767022 75.6676203,109.514331 L50.4494584,82.1705783 L19.2686664,130.543531 C19.0585932,130.836848 18.7174321,131.007553 18.356905,131 Z" id="Path" fill="#F99E3B"></path>
                <polygon id="Rectangle" fill="#231F20" transform="translate(184.372185, 87.231043) rotate(152.920000) translate(-184.372185, -87.231043) " points="180.763303 57.1062316 187.94011 57.1111059 187.981067 117.355854 180.80426 117.35098"></polygon>
                <path d="M195.264406,115.865113 L167.300062,61.6800127 C167.235059,61.5533534 167.283923,61.3984497 167.410158,61.3309943 L173.920492,58.0298623 C173.983593,57.9971329 174.05736,57.9910274 174.125069,58.01293 C174.192778,58.0348327 174.248693,58.0828882 174.280138,58.1462018 L202.237142,112.331302 C202.272631,112.391374 202.280914,112.463482 202.259958,112.529917 C202.239001,112.596352 202.190747,112.650957 202.127046,112.680321 L195.616712,115.981453 C195.553013,116.006182 195.482239,116.006182 195.41854,115.981453 C195.353441,115.964824 195.297868,115.922878 195.264406,115.865113 L195.264406,115.865113 Z M173.927831,58.6188308 L167.88724,61.6727415 L195.609373,115.392484 L201.649964,112.338574 L173.927831,58.6188308 Z" id="Shape" fill="#231F20"></path>
                <path d="M193.258695,79.9751058 C196.981063,79.977634 199.998008,82.9945771 200.000539,86.7169452 L200.024911,122.566951 C200.027437,126.282786 197.017206,129.297113 193.301372,129.299639 C193.298324,129.299641 193.295276,129.299641 193.292228,129.299639 C189.56986,129.297111 186.552915,126.280168 186.550384,122.557799 L186.526012,86.7077937 C186.523485,82.991959 189.533717,79.977632 193.249551,79.9751058 C193.252599,79.9751038 193.255647,79.9751038 193.258695,79.9751058 Z" id="Rectangle" fill="#231F20" transform="translate(193.275461, 104.637372) rotate(152.920000) translate(-193.275461, -104.637372) "></path>
                <path d="M159.778412,80.9998688 C141.888528,81.0023852 126.488248,68.3669007 122.996295,50.8210728 C119.504342,33.2752448 128.893345,15.7061919 145.421043,8.85904599 C161.948742,2.01190008 181.011602,7.79382759 190.950887,22.6686348 C200.890173,37.5434421 198.93745,57.3679819 186.286993,70.0176796 C179.272082,77.0717476 169.72667,81.0262504 159.778412,80.9998688 Z M159.778412,6.73357693 C144.903644,6.73166889 131.492503,15.6906342 125.798963,29.4326673 C120.105423,43.1747004 123.250814,58.9933387 133.768356,69.511927 L133.768356,69.511927 C145.53734,81.2709111 163.73578,83.6620688 178.142945,75.3424618 C192.55011,67.0228548 199.575707,50.065745 195.273972,33.9946999 C190.972237,17.9236549 176.41517,6.74360954 159.778412,6.73357693 L159.778412,6.73357693 Z" id="Shape" fill="#231F20"></path>
                <path d="M133.277904,70.0401392 C120.614817,57.3989955 118.647104,37.572093 128.578512,22.6885377 C138.50992,7.80498237 157.57328,2.01175023 174.106585,8.85285055 C190.639889,15.6939509 200.036494,33.2632612 196.548028,50.8127574 C193.059562,68.3622536 177.658009,81.0021538 159.765268,81 C149.833257,80.9980115 140.307567,77.0565002 133.277904,70.0401392 L133.277904,70.0401392 Z" id="Path" fill="#FFFFFF"></path>
                <path d="M159.747275,80.9997456 C141.858732,80.9872871 126.469703,68.340912 122.99091,50.7938915 C119.512117,33.2468711 128.912372,15.6858884 145.443217,8.84986073 C161.974062,2.01383307 181.03181,7.806531 190.962239,22.6855955 C200.892668,37.5646601 198.930246,57.3864093 186.275036,70.0294187 C179.254736,77.0857013 169.700888,81.0365201 159.747275,80.9997456 Z M159.747275,6.72891356 C142.202079,6.73917934 127.106937,19.1407428 123.692138,36.3504185 C120.277338,53.5600942 129.493773,70.7856363 145.705833,77.4940722 C161.917892,84.202508 180.611127,78.5257912 190.35511,63.935087 C200.099093,49.3443827 198.180492,29.902652 185.772481,17.4980094 C178.875782,10.5886247 169.509643,6.7129821 159.747275,6.72891356 Z" id="Shape" fill="#231F20"></path>
                <path d="M179.072414,23.2044893 C172.000494,16.1303359 161.691591,13.3662105 152.02897,15.9533324 C142.366349,18.5404543 134.817991,26.0857782 132.227291,35.7470534 C129.636591,45.4083285 132.397136,55.7177775 139.469057,62.7919306 L139.9308,63.239447 C142.451692,65.6646538 145.412511,67.5862098 148.654194,68.9008844 C160.991379,73.9646381 175.187927,69.6209223 182.579056,58.5208989 C189.970185,47.4208756 188.50276,32.6479514 179.072414,23.2186961 L179.072414,23.2044893 Z" id="Path" fill="#FFFFFF"></path>
                <path d="M159.762961,14.7522853 C171.37255,14.772003 181.83211,21.7704157 186.281494,32.4956359 C190.730878,43.2208561 188.297672,55.5699316 180.112491,63.804732 C171.927309,72.0395325 159.595066,74.5454157 148.846069,70.1579963 C145.517229,68.7980775 142.478625,66.8149183 139.893488,64.3150529 L139.418841,63.8549211 C131.190414,55.624901 128.728897,43.2476206 133.18209,32.4945836 C137.635283,21.7415467 148.126206,14.7303743 159.762961,14.7303743 M159.762961,14.0000032 C147.835959,14.0042038 137.08484,21.1910357 132.519213,32.2117147 C127.953586,43.2323938 130.471767,55.9185312 138.90038,64.3588749 L139.396934,64.8336141 C142.047449,67.3836199 145.160409,69.4039644 148.568583,70.7861127 C159.594797,75.3169095 172.263778,72.7636517 180.675266,64.3154554 C189.086753,55.8672591 191.586775,43.1853146 187.011007,32.1759212 C182.43524,21.1665277 171.683428,13.9944903 159.762961,14.0000032 L159.762961,14.0000032 Z" id="Shape" fill="#231F20"></path>
                <path d="M173.271318,28.3852537 L171.891189,59.0521097 C171.870382,59.5311162 171.588903,59.9642975 171.150139,60.1925452 C170.711376,60.4207928 170.180013,60.4104571 169.751221,60.1653343 L160.379637,54.7906576 L149.310838,70 C145.950733,68.6831995 142.882768,66.7628023 140.271318,64.3416992 L151.103983,49.4514339 L141.097788,43.7789518 C140.652002,43.523843 140.386997,43.0549947 140.406997,42.5568019 C140.426998,42.058609 140.728804,41.6107707 141.193718,41.3894188 L171.23444,27.1373077 C171.677506,26.9300822 172.200801,26.9589458 172.616279,27.2135264 C173.031757,27.4681071 173.279734,27.9118342 173.271318,28.3852537 L173.271318,28.3852537 Z" id="Path" fill="#F99E3B"></path>
                <circle id="Oval" fill="#F99E3B" cx="107.771318" cy="54.5" r="5.5"></circle>
                <circle id="Oval" fill="#F99E3B" cx="50.7713178" cy="80.5" r="5.5"></circle>
                <path d="M54.9155514,47 L31.6270842,47 C31.4321894,46.9946799 31.2751033,46.7739085 31.2713178,46.5 C31.2713178,46.2238576 31.4305999,46 31.6270842,46 L54.9155514,46 C55.1120358,46 55.2713178,46.2238576 55.2713178,46.5 C55.2675324,46.7739085 55.1104463,46.9946799 54.9155514,47 Z" id="Path" fill="#D1D3D4"></path>
                <path d="M68.9133001,39 L31.6293355,39 C31.4332074,38.9946799 31.2751272,38.7739085 31.2713178,38.5 C31.2713178,38.2238576 31.4316078,38 31.6293355,38 L68.9133001,38 C69.1110278,38 69.2713178,38.2238576 69.2713178,38.5 C69.2675084,38.7739085 69.1094283,38.9946799 68.9133001,39 L68.9133001,39 Z" id="Path" fill="#D1D3D4"></path>
                <path d="M68.9133001,31 L31.6293355,31 C31.4316078,31 31.2713178,30.7761424 31.2713178,30.5 C31.2713178,30.2238576 31.4316078,30 31.6293355,30 L68.9133001,30 C69.1110278,30 69.2713178,30.2238576 69.2713178,30.5 C69.2713178,30.7761424 69.1110278,31 68.9133001,31 Z" id="Path" fill="#D1D3D4"></path>
                <path d="M68.9133001,24 L31.6293355,24 C31.4316078,24 31.2713178,23.7761424 31.2713178,23.5 C31.2713178,23.2238576 31.4316078,23 31.6293355,23 L68.9133001,23 C69.1110278,23 69.2713178,23.2238576 69.2713178,23.5 C69.2713178,23.7761424 69.1110278,24 68.9133001,24 Z" id="Path" fill="#D1D3D4"></path>
                <path d="M68.9133001,16 L31.6293355,16 C31.4316078,16 31.2713178,15.7761424 31.2713178,15.5 C31.2751272,15.2260915 31.4332074,15.0053201 31.6293355,15 L68.9133001,15 C69.1094283,15.0053201 69.2675084,15.2260915 69.2713178,15.5 C69.2713178,15.7761424 69.1110278,16 68.9133001,16 L68.9133001,16 Z" id="Path" fill="#D1D3D4"></path>
            </g>
        </g>
    </g>
</svg>