<?xml version="1.0" encoding="UTF-8"?>
<svg width="409px" height="338px" viewBox="0 0 409 338" version="1.1" xmlns="http://www.w3.org/2000/svg" xmlns:xlink="http://www.w3.org/1999/xlink">
    <title>Email campaign_Flatline</title>
    <g id="Page-1" stroke="none" stroke-width="1" fill="none" fill-rule="evenodd">
        <g id="Contact-view-" transform="translate(-500.000000, -605.000000)" fill-rule="nonzero">
            <g id="Email-campaign_Flatline" transform="translate(500.000000, 605.000000)">
                <polygon id="Path" fill="#E6E7E8" points="53 142.093066 197 51 341 142.093066 341 275 53 275"></polygon>
                <path d="M341.278209,275.997569 L52.6686066,275.997569 C52.2995007,275.997569 52.0001365,275.698979 52.0001365,275.330649 L52.0001365,142.587032 C51.9954342,142.358977 52.1125447,142.145573 52.3077109,142.02682 L196.612512,51.0990422 C196.830113,50.9669859 197.103335,50.9669859 197.320937,51.0990422 L341.679204,142.093512 C341.87749,142.210891 342,142.423659 342,142.653724 L342,275.397341 C341.964711,275.7609 341.642924,276.028491 341.278209,275.997569 Z M53.2968324,274.66373 L340.676716,274.66373 L340.676716,142.960507 L196.973408,52.4328808 L53.2968324,142.960507 L53.2968324,274.66373 Z" id="Shape" fill="#231F20"></path>
                <path d="M232.342408,106.05772 C237.140811,98.1539062 238.357119,88.5440417 237.91604,79.3207042 C237.595811,69.2298033 234.928174,59.3511931 230.123648,50.4644534 C228.172429,46.6480921 225.307766,43.3702978 221.783249,40.9212314 C217.452658,38.255527 214.498766,40.0548775 210.261737,39.3351373 C206.679642,38.7220253 202.937155,36.1762775 198.967446,35.5231799 C189.809752,33.9619313 180.399135,35.924518 172.636379,41.0145311 C159.056499,50.1712259 152.787833,67.6715757 138.753508,76.175173 C124.99987,84.4655138 107.396816,81.9730802 91.9724244,86.5580918 C85.46182,88.5038537 79.3956416,91.7004898 74.1154163,95.9680286 C70.4676493,98.7527991 67.4825864,102.307528 65.3740366,106.377605 C61.7518441,113.921548 62.7008318,122.904972 65.3740366,130.8621 C68.0472414,139.045813 72.5649575,146.856327 79.5687541,151.934494 C85.4364386,156.159635 92.6407256,158.1056 99.7648163,159.385138 C109.455184,161.131174 119.493068,161.784272 129.170069,159.691694 C136.312069,158.254416 142.968623,155.02493 148.510706,150.308414 C150.889858,148.189179 152.199728,145.29689 154.418488,143.190983 C157.479308,140.298694 162.250978,138.526 165.833073,136.313466 C171.433437,132.834721 177.047167,129.129392 183.436126,127.476655 C199.66248,123.264842 222.558479,122.118589 232.342408,106.05772 Z" id="Path" fill="#FFFFFF"></path>
                <path d="M115.777213,161.996042 C110.204051,161.948725 104.646263,161.40571 99.170057,160.373466 C93.0024476,159.269582 85.1127136,157.40761 78.7448572,152.845778 C72.3770008,148.283945 67.4242236,140.875955 64.3537688,131.566093 C62.1644009,124.916192 60.3488276,115.114237 64.4472174,106.682163 C66.5710413,102.515234 69.6099442,98.8785728 73.3381867,96.0423205 C78.6702231,91.7344427 84.7973559,88.5083973 91.3737716,86.5462614 C97.5975696,84.9085026 103.954611,83.8225515 110.370542,83.3011095 C120.329496,82.2105257 129.741108,81.1731411 137.937887,76.2389144 C145.093382,71.9297783 150.313155,65.0670801 155.372731,58.4304786 C160.16531,52.139672 165.131437,45.6360685 171.75294,41.1407352 C179.617343,35.9665007 189.15874,33.9560535 198.452548,35.5149187 C200.578062,35.9625883 202.640432,36.6683143 204.593457,37.6162875 C206.255483,38.3905231 207.996612,38.9835894 209.786531,39.3851613 C211.13999,39.5737822 212.51087,39.6050248 213.871571,39.4782599 C216.524473,39.0973209 219.227371,39.6575309 221.507659,41.0609364 C225.126056,43.5397778 228.063435,46.8822486 230.051533,50.7830921 C234.914645,59.7298455 237.607527,69.6867087 237.914567,79.8564607 C238.43521,90.7622988 236.579587,99.8061646 232.254251,106.86836 L232.254251,106.86836 C224.244368,119.928766 207.850809,123.267016 193.352923,126.219573 C189.695076,126.964362 186.250827,127.655951 183.033524,128.493839 C177.279759,129.970117 172.073335,133.215269 167.01376,136.354022 L165.678779,137.218509 C164.343799,138.003198 163.008819,138.734687 161.607089,139.452876 C159.003311,140.640429 156.573653,142.17509 154.384845,144.014709 C153.394309,145.024674 152.500453,146.124451 151.714885,147.29976 C150.785874,148.693412 149.702149,149.978304 148.484232,151.130103 C142.863365,155.963999 136.085746,159.271402 128.806621,160.73256 C124.522202,161.622388 120.153454,162.046032 115.777213,161.996042 L115.777213,161.996042 Z M192.311638,36.2858262 C185.245094,36.2495954 178.32837,38.3149885 172.44713,42.2180192 C165.972475,46.5670547 161.086447,52.9908594 156.347266,59.2018672 C151.220942,65.9315673 145.92107,72.9006639 138.565328,77.3161984 C130.141602,82.396723 120.155948,83.4873068 110.53074,84.551291 C104.191295,85.0570147 97.9097832,86.125234 91.7609159,87.7432436 C85.3339185,89.6722585 79.347647,92.8349063 74.1391749,97.0531055 C70.5571189,99.7660487 67.6289002,103.242212 65.5686009,107.227454 C61.6971578,115.287135 63.4192825,124.716695 65.5686009,131.167099 C68.5589569,140.330663 73.3782361,147.485957 79.505796,151.888192 C85.633356,156.290426 93.4029417,158.139099 99.437053,159.229683 C110.677588,161.237953 120.182648,161.344351 128.526275,159.535578 C135.596281,158.122072 142.180729,154.915473 147.643194,150.225716 C148.794748,149.132609 149.82014,147.914777 150.700299,146.59487 C151.534776,145.354147 152.486987,144.196176 153.543808,143.136922 C155.814154,141.215207 158.338589,139.613137 161.046397,138.375592 C162.474826,137.644103 163.809807,136.952513 165.051339,136.194425 L166.466418,135.316638 C171.579393,132.137985 176.865915,128.839634 182.806578,127.336756 C186.06393,126.498868 189.481479,125.793979 193.179375,125.04919 C207.450315,122.163133 223.603578,118.878082 231.293065,106.269869 L231.813707,106.589064 L231.293065,106.269869 C235.431504,99.4603697 237.273777,90.6027012 236.766484,79.9362595 C236.473118,69.9576905 233.834871,60.1867303 229.063648,51.4081828 C227.175023,47.6822539 224.385711,44.4829029 220.946967,42.098321 C218.871988,40.8423091 216.413287,40.3703454 214.018419,40.7683407 C212.56339,40.891711 211.099047,40.8515589 209.653033,40.6486425 C207.773321,40.2389184 205.94614,39.6187546 204.206313,38.7999699 C202.35124,37.9196198 200.397214,37.2632761 198.385799,36.844899 C196.380465,36.4887381 194.348529,36.3018774 192.311638,36.2858262 Z" id="Shape" fill="#231F20"></path>
                <path d="M286.140271,93.4863664 L279,119.976391 L296.199095,123 L306,87.613073 C306,87.613073 290.714932,76.0805471 288.352941,76 C285.99095,75.9200015 286.140271,93.4863664 286.140271,93.4863664 Z" id="Path" fill="#FFFFFF"></path>
                <path d="M296.653848,123 L296.533018,123 L279.549705,120.034957 C279.364354,120.004363 279.20106,119.896732 279.101009,119.739208 C279.000957,119.581685 278.973699,119.389307 279.026108,119.210596 L286.034242,93.0038731 C286.034242,90.1850881 286.034242,77.261225 288.021223,75.3598747 C288.250214,75.1188601 288.573408,74.9879185 288.907309,75.0008785 C291.310481,75.0806554 304.172152,84.7469605 306.736431,86.6749031 C306.951572,86.841128 307.046518,87.1179962 306.978091,87.3795993 L297.271423,122.547931 C297.184953,122.814331 296.936372,122.996294 296.653848,123 Z M280.543195,118.838303 L296.197379,121.577311 L305.59526,87.4194878 C298.332041,81.9414717 290.196161,76.3304941 288.907309,76.2906056 C287.954095,76.9953018 287.363371,85.5979145 287.417073,93.0437616 C287.424518,93.1011424 287.424518,93.1592308 287.417073,93.2166116 L280.543195,118.838303 Z" id="Shape" fill="#231F20"></path>
                <path d="M268,76.4115182 C268,76.4115182 270.381937,81.748382 273.815119,82.6156224 C277.248301,83.4828627 284.713477,79.7870846 285.578426,80.2674023 C286.443375,80.74772 306.137599,95.5308328 308.053794,95.9711241 C309.969989,96.4114153 313.496319,91.7550017 315,86.2180054 C315,86.2180054 295.838052,73.1160048 294.587203,71.7284202 C293.336353,70.3408356 291.84598,62.0420124 289.983012,59 L268,76.4115182 Z" id="Path" fill="#FFFFFF"></path>
                <path d="M308.654798,95.9903238 C308.518341,96.0032254 308.380975,96.0032254 308.244518,95.9903238 C307.05338,95.6985686 300.806527,91.2559333 290.417162,83.6570378 C288.074592,81.9330301 286.036423,80.4609927 285.784961,80.3018535 C285.533499,80.1427144 284.196778,80.7792711 283.137989,81.1505958 C280.371903,82.065646 276.586733,83.3254978 274.283868,82.7154643 C270.604577,81.7341061 268.169363,76.3896822 268.063484,76.164235 C267.932204,75.892402 268.009605,75.5655537 268.248772,75.3818007 L290.073055,58.1417236 C290.223744,58.0263107 290.415287,57.9783282 290.60245,58.0091076 C290.786666,58.0474635 290.948357,58.1570634 291.052435,58.3141243 C292.20084,60.6723167 293.08844,63.1492762 293.699407,65.7008343 C294.096844,67.4883705 294.710167,69.2207231 295.525818,70.8595959 C296.399318,71.8276925 308.072465,79.9437904 315.708979,85.1688599 C315.94618,85.3221422 316.054006,85.6138622 315.973676,85.8849862 C314.610485,90.7122078 311.235596,95.9903238 308.654798,95.9903238 Z M285.877605,78.9756938 C286.065699,78.968234 286.252551,79.0093331 286.420234,79.0950481 C286.698166,79.2409257 288.087826,80.2620687 291.198018,82.529802 C296.491962,86.3624037 307.304843,94.3193624 308.54892,94.6509024 C309.792996,94.9824423 312.942893,91.3222413 314.544311,85.8717246 C311.32824,83.683561 295.711106,72.9681899 294.519968,71.6287686 C293.84499,70.8861191 293.275891,68.976449 292.389156,65.9528047 C291.825367,63.7682903 291.104386,61.6275706 290.231874,59.5474529 L269.439909,76.031619 C270.088417,77.2782092 272.086881,80.7129631 274.5618,81.3362582 C276.494089,81.8401989 280.213085,80.6068703 282.661534,79.7979128 C283.69316,79.3843983 284.774369,79.1079771 285.877605,78.9756938 Z" id="Shape" fill="#231F20"></path>
                <path d="M289.044379,63.6920375 C288.886745,65.0537734 289.151146,66.4300777 289.804045,67.64637 C290.88357,69.5140515 295.668132,72 295.668132,72 L299,65.559719 L292.469539,61 L289.044379,63.6920375 Z" id="Path" fill="#231F20"></path>
                <path d="M296.117993,72.9999886 C296.013634,73.0006508 295.910938,72.9725081 295.820191,72.9183673 C295.315223,72.6463358 290.964723,70.1300443 289.86415,68.0490032 C289.161534,66.6364338 288.877439,65.0352927 289.048431,63.4516706 C289.068061,63.2868206 289.146777,63.1360324 289.268546,63.0300218 L292.59616,60.1464877 C292.831453,59.9511708 293.163638,59.9511708 293.398931,60.1464877 L299.730462,64.9614455 C299.984274,65.1531379 300.071442,65.5079686 299.937629,65.8047432 L296.70065,72.6055311 C296.620401,72.7695033 296.480216,72.8922218 296.312212,72.9455704 C296.251597,72.9771949 296.18555,72.9956968 296.117993,72.9999886 Z M290.304379,63.9141242 C290.224747,65.1189439 290.462155,66.3235582 290.990619,67.3961276 C291.66391,68.7562851 294.344129,70.4836852 295.846087,71.3949908 L298.526306,65.7095322 L293.036389,61.5338485 L290.304379,63.9141242 Z" id="Shape" fill="#231F20"></path>
                <path d="M310.497014,82.6610351 C310.497014,82.6610351 312.277945,77.0951261 309.137525,76.7042996 C309.079506,75.7080575 308.501345,74.8140129 307.61236,74.3458425 C306.723374,73.877672 305.652397,73.9032239 304.787161,74.4132474 C304.787161,74.4132474 303.781139,70.2758769 300.491176,71.111437 C297.201212,71.9469972 294.590994,79.7500512 295.05322,81.7176607 C295.515446,83.6852701 298.071285,82.485837 299.3628,80.6395185 C299.3628,80.6395185 297.690628,83.7122237 298.805409,84.5208303 C300.436796,85.7067867 302.149752,83.6044095 303.536431,82.0680569 C303.536431,82.0680569 301.483602,85.6663564 304.501668,85.989799 C306.826394,86.2458578 308.987981,81.5963697 308.987981,81.5963697 L310.497014,82.6610351 Z" id="Path" fill="#FFFFFF"></path>
                <path d="M304.143541,86 L303.890761,86 C302.676216,86 301.689577,85.0275154 301.68226,83.8231354 C300.57801,84.786233 299.300805,85.3931165 297.983688,84.4300188 C297.400956,83.9100159 297.168524,83.105861 297.384998,82.3586991 C296.810334,82.7154172 296.127403,82.8602039 295.455886,82.7676858 C294.723707,82.6235601 294.163413,82.0361959 294.058943,81.3032496 C293.566687,79.0736125 296.214227,71.0785823 299.886191,70.1418709 C300.807738,69.8688779 301.802615,69.9933963 302.62686,70.484892 C303.572638,71.128883 304.289576,72.0521963 304.67571,73.1235158 C305.546603,72.8093407 306.50979,72.8666493 307.336553,73.2818332 C308.190833,73.8330132 308.80012,74.6873882 309.039493,75.6697878 C309.618064,75.8359899 310.115088,76.2068182 310.436436,76.7120442 C311.620511,78.5458877 310.596087,81.8837468 310.436436,82.2663473 C310.379227,82.4668551 310.224284,82.6254608 310.024005,82.6885271 C309.822949,82.7565321 309.60138,82.7272362 309.425315,82.6093684 L308.520629,81.9892918 C307.882026,83.3349899 306.179086,86 304.143541,86 Z M303.012682,80.8282973 C303.157098,80.8252387 303.298127,80.8718559 303.411809,80.9602285 C303.679094,81.1611413 303.758247,81.5255679 303.598068,81.8177813 C303.305375,82.3323129 302.799815,83.5988523 303.119116,84.2189289 C303.119116,84.3112808 303.305375,84.6015294 304.037107,84.6806881 C305.367529,84.8258124 307.123686,82.0420643 307.748984,80.7227524 C307.832938,80.5490596 307.987933,80.4193748 308.174719,80.3665382 C308.36531,80.3092335 308.571949,80.3433858 308.733496,80.45889 L309.478532,80.9734216 C309.837323,79.8011607 309.795226,78.5441583 309.358794,77.3980864 C309.15097,77.0914908 308.812379,76.8968451 308.440803,76.8703616 C308.144841,76.8270089 307.91244,76.5965481 307.868722,76.3030575 C307.75335,75.5490952 307.342073,74.8709379 306.724559,74.4164414 C306.00716,74.1319693 305.197706,74.190347 304.529363,74.5747589 C304.351749,74.6543433 304.1482,74.6543433 303.970586,74.5747589 C303.793595,74.4872248 303.662848,74.3287567 303.611372,74.1393859 C303.359322,73.1233197 302.768632,72.2214388 301.935041,71.5799208 C301.413896,71.2839215 300.791842,71.2169755 300.218796,71.3952172 C297.384998,72.1076456 295.003543,79.3110886 295.362757,80.9866147 C295.455886,81.3956014 295.628841,81.4351808 295.721971,81.4483739 C296.833231,81.2987858 297.813929,80.6520682 298.382814,79.6936891 C298.584223,79.4084879 298.974477,79.3276232 299.274197,79.5089854 C299.567601,79.6952328 299.671099,80.0715571 299.513673,80.3797313 C298.835158,81.6990432 298.46264,83.1239 298.768637,83.3481831 C299.699932,84.0210321 300.804182,82.9391964 302.241038,81.3560221 L302.520426,81.0393872 C302.648317,80.9049745 302.826327,80.8286399 303.012682,80.8282973 Z" id="Shape" fill="#231F20"></path>
                <path d="M295.823755,65.5728235 C295.823755,65.5728235 293.864909,62.3156025 291.805976,65.1759352 C289.747043,68.036268 287.273464,73.3874167 290.705019,73.9622204 C294.136574,74.5370242 296.71024,68.4057846 295.823755,65.5728235 Z" id="Path" fill="#FFFFFF"></path>
                <path d="M291.742913,74.990128 C291.565383,75.0032907 291.387076,75.0032907 291.209546,74.990128 C290.336383,74.8880288 289.585669,74.3415836 289.240192,73.5566331 C288.282868,71.3400251 290.402658,67.397914 291.811293,65.433495 C292.288342,64.5816435 293.192674,64.0368734 294.190929,64 C295.695296,64.0663655 296.693649,65.6856839 296.803058,65.8582342 L296.871438,66.0042383 C297.328533,68.6845687 296.553969,71.4247863 294.751648,73.5035407 C294.015014,74.3951527 292.919162,74.9366026 291.742913,74.990128 Z M294.095196,65.2874908 C293.643886,65.2874908 293.206252,65.7520494 292.932731,66.1369693 C291.277927,68.4597621 289.923996,71.6585796 290.498391,72.9991628 C290.66365,73.3616913 291.021054,73.6065434 291.428363,73.6362717 C292.32851,73.6906676 293.194963,73.2952334 293.725943,72.5876967 C295.198288,70.8687299 295.867183,68.6326448 295.572212,66.4157045 C295.353395,66.0706038 294.737972,65.314037 294.122549,65.2874908 L294.095196,65.2874908 Z" id="Shape" fill="#231F20"></path>
                <path d="M286.370791,95 C286.370791,95 284.274489,84.9895632 284.075473,83.1996176 C283.743779,80.1633394 284.460237,75.4166687 287.127052,74.6741727 C289.793867,73.9316767 295.897026,73.2289573 294.888678,75.9072464 C293.973205,78.346876 288.626307,78.810936 288.626307,78.810936 C288.626307,78.810936 292.314737,82.5234159 291.757492,86.2226369" id="Path" fill="#FFFFFF"></path>
                <path d="M286.945991,96 C286.643102,96.0014275 286.379998,95.7809423 286.313365,95.4698434 C286.2359,95.0484424 284.273466,85.1387218 284.079805,83.2356204 C283.744126,80.0547224 284.389663,74.6852579 287.514064,73.7201136 C289.140818,73.2443383 294.111456,72.2656005 295.570371,73.9376109 C296.020525,74.4654222 296.127284,75.2254955 295.841497,75.8678995 C295.105584,77.9613109 292.136112,78.7905194 290.418982,79.1167653 C291.503485,80.5576849 293.246436,83.3987434 292.820382,86.3077697 C292.785787,86.5505957 292.630782,86.7555443 292.413755,86.8454132 C292.196728,86.9352822 291.95065,86.8964184 291.768218,86.7434614 C291.585785,86.5905044 291.494712,86.346692 291.529307,86.103866 C292.019915,82.6918772 288.701853,79.1167653 288.676031,79.0895782 C288.499836,78.8991996 288.439977,78.6208398 288.521102,78.3691184 C288.610474,78.1231109 288.826792,77.9536161 289.076265,77.9341238 C290.367339,77.8117816 294.00817,77.1185089 294.614976,75.3921241 C294.756994,75.0250974 294.614976,74.9163488 294.614976,74.8619745 C293.930706,74.0599532 290.354429,74.3046376 287.849744,75.0250974 C285.745292,75.6368086 285.048111,80.068316 285.357969,83.0317167 C285.55163,84.8124758 287.565707,94.9804745 287.578618,95.0756295 C287.616592,95.2526401 287.584328,95.4383008 287.489286,95.5896864 C287.394244,95.7410721 287.244653,95.8450755 287.075099,95.8776508 L286.945991,96 Z" id="Path" fill="#231F20"></path>
                <path d="M326,56.8763417 C326,56.8763417 303.703725,54.6630747 294.603205,59.9480881 C292.316133,61.316718 290.125113,62.8404961 288.045477,64.5087595 C283.107106,68.3853302 278.463164,72.7850367 274.849722,75.239751 C267.676371,80.0686972 260.743915,81.0479002 256.019675,73.3618275 C252.004739,66.8025089 254.346785,63.6905214 259.780331,57.8555447 C262.456954,54.9715907 268.131397,50.2097132 273.016235,44.9381136 C275.903723,42.0075316 278.339428,38.6620771 280.243119,35.0119464 C284.365119,26.3198433 283.200788,13 283.200788,13 L326,56.8763417 Z" id="Path" fill="#FFFFFF"></path>
                <path d="M264.457926,79.9996396 C263.741582,80.0059307 263.026856,79.9298394 262.32791,79.7724671 C259.247534,78.9778593 256.640245,76.9265677 255.139105,74.1166542 C250.839134,67.1269232 253.488342,63.7521103 258.946509,57.8828705 C260.091393,56.6556658 261.742155,55.1083208 263.65917,53.3342097 C266.32169,50.8531219 269.317026,47.9985371 272.125985,45.0372389 C274.954017,42.1779392 277.336977,38.908879 279.194976,35.339654 C283.188757,26.9359698 282.083811,13.8635721 282.070498,13.7301803 C282.048895,13.4491966 282.202427,13.1839564 282.456564,13.0632212 C282.714308,12.9405788 283.021691,13.0000032 283.215382,13.2099522 L325.815708,56.8824319 C326.006364,57.0824493 326.054029,57.3796225 325.935522,57.6294261 C325.815027,57.8840698 325.550315,58.0379091 325.269892,58.0162623 C325.043577,58.0162623 303.197598,55.8953325 294.437905,61.0042389 C292.190076,62.348362 290.037224,63.8458878 287.994606,65.4862039 C285.984403,67.0735665 284.000826,68.7276249 282.150374,70.3149875 C279.812297,72.3881763 277.368363,74.3383221 274.828443,76.1575489 C270.967788,78.7186718 267.506512,79.9996396 264.457926,79.9996396 Z M283.508259,15.4109171 C283.668011,19.4126715 283.654698,28.9902037 280.406423,35.9132388 C278.480578,39.601853 276.017368,42.9826043 273.097805,45.9443032 C270.26222,48.9989757 267.24026,51.813543 264.564427,54.3079699 C262.674037,56.0687418 261.023275,57.6027477 259.918329,58.7899348 C254.593288,64.4590869 252.463272,67.2336366 256.270676,73.4630343 C257.590403,75.9597453 259.885303,77.7954654 262.607474,78.5319232 C265.775874,79.2255607 269.623216,78.0650519 274.056312,75.0904144 C276.557757,73.309023 278.961925,71.3943167 281.25843,69.3545665 C283.162132,67.7538647 285.119084,66.086467 287.1426,64.4991045 C289.253512,62.814093 291.47752,61.2764631 293.798901,59.8970869 C301.506897,55.4017828 318.121024,56.1754553 323.632442,56.5889699 L283.508259,15.4109171 Z" id="Shape" fill="#231F20"></path>
                <path d="M289,63.7222174 C284.112584,67.6120239 278.205301,72.7670269 274.761594,75.3781773 C266.894046,81.3542122 261.913915,81.9868105 256.774844,74.5975241 C251.476832,67.0063447 254.470209,63.8298937 259.847691,57.9615351 C262.496697,55.0677344 268.112589,50.2895984 272.947025,45 C272.947025,45 273.25166,50.5049511 278.642387,57.2212605 C281.288875,60.4967567 284.932935,62.7839515 289,63.7222174 L289,63.7222174 Z" id="Path" fill="#231F20"></path>
                <path d="M264.668133,79.9998149 C264.252591,80.0027165 263.837512,79.9714988 263.42723,79.906276 C260.729614,79.4929699 258.355711,77.7330861 255.954833,74.3733079 C250.27635,66.4404983 253.594418,62.9340631 259.070579,57.1211135 C260.297995,55.7878682 261.970517,54.281301 263.912801,52.5080847 C266.610417,50.0282485 269.645236,47.1751035 272.491221,44.2152989 C272.669877,44.0162291 272.95452,43.9472168 273.206089,44.041977 C273.459708,44.1320495 273.63473,44.3627196 273.651196,44.6286049 C273.651196,44.6286049 274.04235,49.9615862 279.302702,56.3478313 C281.902331,59.4629494 285.466573,61.6461572 289.44574,62.5607544 C289.705318,62.6114323 289.913953,62.8021924 289.985263,63.0540552 C290.038459,63.3116338 289.945391,63.5773944 289.742477,63.7473428 C287.449503,65.520559 284.954208,67.5470919 282.526354,69.5069625 C279.747809,71.7601471 277.131121,73.8933396 275.229301,75.2932472 C270.926603,78.5063684 267.554583,79.9998149 264.668133,79.9998149 Z M272.518197,46.1218397 C269.941973,48.7883303 267.244357,51.2681666 264.82999,53.4813538 C262.914683,55.2412376 261.242161,56.7744698 260.12265,57.9610581 C254.727417,63.7073454 252.029801,66.5471579 257.060855,73.6000256 C259.232436,76.639825 261.323089,78.2263869 263.629551,78.5863631 C266.421584,79.0130016 269.739652,77.6797563 274.420016,74.2266509 C276.29486,72.8934056 278.911548,70.7202158 281.676604,68.4803636 C283.726793,66.813807 285.830934,65.107253 287.82717,63.5340235 C284.075072,62.3913818 280.745098,60.1846513 278.250632,57.1877758 C275.484422,53.9971162 273.520228,50.2054208 272.518197,46.1218397 L272.518197,46.1218397 Z" id="Shape" fill="#231F20"></path>
                <path d="M332.394327,55.098044 C327.385508,59.593824 316.280164,55.8495774 305.470246,46.7103949 C302.700042,44.3726468 300.097473,41.8434246 297.681733,39.1413803 C295.30748,36.4895471 293.11798,33.6781224 291.12864,30.7268907 C283.071558,18.8902402 280.560435,7.42935642 285.609539,2.906736 C291.840349,-2.68950351 307.390517,4.45006344 320.322133,18.8633997 C333.253749,33.276736 338.651994,49.4883843 332.394327,55.098044 Z" id="Path" fill="#F99E3B"></path>
                <path d="M291.446866,1.33487169 C298.964922,1.33487169 310.314931,8.04563146 320.126856,18.9870876 C332.908876,33.2308741 338.265657,49.2518184 332.060277,54.7954895 C330.497041,56.1025276 328.50004,56.7746567 326.464829,56.6787462 C320.856121,56.6787462 313.125915,52.9520199 305.475266,46.5065076 C302.739949,44.1962594 300.170156,41.6967894 297.784839,39.0265303 C295.449114,36.400785 293.296053,33.6180083 291.340791,30.6977613 C283.385177,19.00035 280.905677,7.67428507 285.891195,3.20486601 C287.446712,1.91318077 289.427079,1.246605 291.446866,1.33487169 M291.446866,0.00863458435 L291.446866,0.00863458435 C289.08205,-0.0928318318 286.766198,0.702979167 284.96304,2.23671292 C279.566482,7.07747837 281.67472,18.8146768 290.200487,31.4139293 C294.255765,37.4031845 299.099207,42.8187233 304.600148,47.5144478 C312.555763,54.1456333 320.511377,57.9917209 326.43831,57.9917209 C328.828244,58.0921268 331.166356,57.2762107 332.975173,55.7105931 C336.382828,52.6602478 336.95298,46.9574282 334.47348,39.6631241 C331.489882,31.6439032 326.952353,24.2929683 321.121308,18.0321969 C311.229827,7.10400311 299.61463,0.00863458435 291.446866,0.00863458435 L291.446866,0.00863458435 Z" id="Shape" fill="#231F20"></path>
                <path d="M314,35.7946128 L305.174264,47 C302.436384,44.6539298 299.864183,42.1157038 297.47663,39.4040404 C295.13008,36.7427669 292.966127,33.9213338 291,30.959596 L303.767455,23 L314,35.7946128 Z" id="Path" fill="#FFFFFF"></path>
                <ellipse id="Oval" fill="#231F20" transform="translate(308.957185, 29.380288) rotate(-39.400000) translate(-308.957185, -29.380288) " cx="308.957185" cy="29.3802878" rx="3.80294267" ry="8.16491712"></ellipse>
                <path d="M312.293908,36.9996505 C310.232066,36.9996505 307.447921,35.2871396 305.123424,32.3745227 C303.799484,30.7761927 302.815389,28.9114715 302.234217,26.8998816 C301.748305,24.958137 302.024093,23.4344069 303.00905,22.6118623 C303.994007,21.7893177 305.491141,21.802802 307.25093,22.6118623 C309.057092,23.6031957 310.63732,24.9775228 311.886793,26.6436792 L311.886793,26.6436792 C314.986123,30.5136841 315.918549,34.8017034 314.0143,36.4198239 C313.520252,36.8054534 312.914429,37.0096351 312.293908,36.9996505 L312.293908,36.9996505 Z M304.795105,23.3535008 C304.451586,23.3342241 304.112354,23.4391953 303.836413,23.6501563 C303.284838,24.1221081 303.166643,25.1873707 303.508095,26.5627732 C304.032651,28.388676 304.927799,30.0798433 306.134646,31.5250094 C308.892525,34.9769998 312.070652,36.3254336 313.200069,35.3680456 C314.329486,34.4106577 313.659715,30.9451829 310.901836,27.4931925 C309.740905,25.9953784 308.28688,24.7642682 306.633691,23.87939 C306.063415,23.5739396 305.437052,23.3947815 304.795105,23.3535008 L304.795105,23.3535008 Z" id="Shape" fill="#231F20"></path>
                <path d="M303.622612,82.9958311 C303.512759,82.9966574 303.404914,82.96333 303.311422,82.8996637 C303.167551,82.8105476 303.062527,82.6609078 303.020309,82.4848847 C302.978092,82.3088616 303.002284,82.1214711 303.087365,81.9654664 C303.860674,80.5677008 304.81704,79.3038508 305.92542,78.2149391 C306.089814,78.0230923 306.339295,77.9522325 306.567177,78.032662 C306.795058,78.1130916 306.960994,78.330571 306.994024,78.5920979 C307.027055,78.8536248 306.921332,79.1128978 306.722066,79.259042 C305.755006,80.2637848 304.917362,81.410156 304.232545,82.6661144 C304.104072,82.8969023 303.866577,83.025287 303.622612,82.9958311 L303.622612,82.9958311 Z" id="Path" fill="#231F20"></path>
                <path d="M299.600122,80.9993282 L299.500127,80.9993282 C299.337673,80.9619247 299.195036,80.8531542 299.103611,80.6969564 C299.012185,80.5407586 298.979464,80.3499354 299.012649,80.166486 C299.4643,78.1518564 300.519927,76.3760997 302,75.1412011 C302.276139,74.9073202 302.667872,74.9705196 302.874969,75.2823609 C303.082066,75.5942022 303.026104,76.0365976 302.749975,76.2704786 C301.525554,77.3013779 300.644792,78.7685168 300.250092,80.4346894 C300.183599,80.7761827 299.909446,81.0143429 299.600122,80.9993282 Z" id="Path" fill="#231F20"></path>
                <path d="M308.586181,81.9997338 C308.466633,82.0008262 308.34996,81.9534093 308.253305,81.8644501 C308.123455,81.7494032 308.035339,81.5735311 308.008549,81.3759369 C307.981759,81.1783427 308.018514,80.9754046 308.110644,80.8122433 L308.919056,79.3090908 C309.115724,78.9815136 309.479515,78.9026613 309.751245,79.1287125 C310.015868,79.3730775 310.079048,79.8390673 309.893906,80.1809193 L309.073606,81.6840718 C308.964286,81.8874333 308.780582,82.0064021 308.586181,81.9997338 L308.586181,81.9997338 Z" id="Path" fill="#231F20"></path>
                <path d="M266.317985,79 C266.178663,79.000822 266.042951,78.9552275 265.932063,78.8702083 C260.246142,74.5137225 256.721385,69.2237041 256.026725,63.9855485 L256.026725,63.8429255 C255.94339,63.5603759 256.059668,63.2567296 256.309735,63.1038788 C256.453674,63.0088427 256.629904,62.9772471 256.79753,63.016424 C256.965156,63.0556009 257.109604,63.1621444 257.197356,63.3113305 C257.273807,63.4693515 257.317574,63.6413924 257.325997,63.816994 C257.982065,68.7180405 261.31386,73.6968814 266.742499,77.8329498 C266.965995,78.0017751 267.055851,78.2966799 266.964893,78.5628378 C266.873935,78.8289957 266.622953,79.0055729 266.343713,79 L266.317985,79 Z" id="Path" fill="#FFFFFF"></path>
                <path d="M262.715962,58 C262.51977,57.9974972 262.334359,57.9151129 262.207658,57.7741434 C262.074844,57.6516977 262,57.4841032 262,57.3091444 C262,57.1341856 262.074844,56.966591 262.207658,56.8441454 L269.803974,50.2013029 C269.932085,50.0728606 270.110952,50 270.298158,50 C270.485363,50 270.66423,50.0728606 270.792342,50.2013029 C270.925156,50.3237485 271,50.4913431 271,50.6663019 C271,50.8412607 270.925156,51.0088552 270.792342,51.1313009 L263.196026,57.7741434 C263.075855,57.9083832 262.902197,57.9900845 262.715962,58 Z" id="Path" fill="#FFFFFF"></path>
                <path d="M263.725789,59 C263.528941,58.9952455 263.341672,58.9189669 263.203169,58.7871254 C262.932277,58.5239409 262.932277,58.1056786 263.203169,57.8424942 L270.802353,51.1901617 C271.076971,50.9366128 271.516476,50.9366128 271.791094,51.1901617 C271.924795,51.3150703 272,51.4851011 272,51.6624773 C272,51.8398534 271.924795,52.0098843 271.791094,52.1347929 L264.206035,58.7871254 C264.078927,58.9109492 263.9081,58.9866703 263.725789,59 L263.725789,59 Z" id="Path" fill="#FFFFFF"></path>
                <path d="M264.715962,60.9998191 C264.521223,61.0042778 264.334642,60.9261224 264.207658,60.7868993 C264.074844,60.6642528 264,60.4963832 264,60.3211374 C264,60.1458915 264.074844,59.978022 264.207658,59.8553754 L271.803974,53.2016332 C271.932085,53.0729801 272.110952,53 272.298158,53 C272.485363,53 272.66423,53.0729801 272.792342,53.2016332 C272.925156,53.3242798 273,53.4921493 273,53.6673952 C273,53.842641 272.925156,54.0105106 272.792342,54.1331571 L265.196026,60.7868993 C265.074379,60.9176975 264.900435,60.9948457 264.715962,60.9998191 L264.715962,60.9998191 Z" id="Path" fill="#FFFFFF"></path>
                <path d="M146.359663,163.998087 L143,237.995506 C143,237.995506 188.844006,238.542942 215.212675,227.554152 C217.373696,220.500846 219.984658,213.592609 223.029579,206.871727 C226.897877,199.074092 243.508799,187.577921 238.288606,157.722593 C238.288606,157.722593 277.426671,182.424005 288.456003,171.074708 C299.485334,159.72541 305,106.717516 305,106.717516 L282.08469,99.373853 L271.671073,132.059829 C271.671073,132.059829 205.628935,100.188332 190.236057,96.1559934 C184.520615,94.6605565 166.758572,104.087149 146.399818,117.132165" id="Path" fill="#F99E3B"></path>
                <path d="M189,118 C189,118 199.461454,150.98948 201.2556,164.953777 C203.049746,178.918075 203.313591,202 203.313591,202 C203.313591,202 219.869865,150.534268 217.825066,118.749761 L189,118 Z" id="Path" fill="#231F20"></path>
                <path d="M203.313773,202.999865 L203.232383,202.999865 C202.939967,202.960112 202.720869,202.71596 202.716914,202.425311 C202.716914,202.198218 202.418484,179.261784 200.600776,165.529313 C198.783067,151.796841 188.134552,119.10875 188.026032,118.774789 C187.970294,118.592891 188.005163,118.39575 188.120068,118.243121 C188.234974,118.090491 188.416389,118 188.609327,118 L218.23526,118.748072 C218.5471,118.74774 218.80405,118.989008 218.818554,119.295768 C220.921127,150.754883 204.059848,202.118067 203.897068,202.585612 C203.818367,202.83644 203.580298,203.005458 203.313773,202.999865 L203.313773,202.999865 Z M189.423226,119.202259 C191.064589,124.305181 200.126001,152.731932 201.794495,165.355653 C203.150994,175.855383 203.680028,191.685129 203.842808,198.751741 C207.54605,186.72915 219.239069,146.42675 217.66553,119.936973 L189.423226,119.202259 Z" id="Shape" fill="#231F20"></path>
                <path d="M135.187212,277 L261,277 L214.660532,227 L142.841677,237.499463 C142.841677,237.499463 134.242052,257.128894 135.054091,270.904404 C135.107339,272.529001 135.147276,274.610097 135.187212,277 Z" id="Path" fill="#231F20"></path>
                <path d="M261.313267,277.999874 L134.898869,277.999874 C134.722737,278.003322 134.552573,277.936063 134.426751,277.813129 C134.300929,277.690195 134.230044,277.521937 134.23008,277.346299 C134.23008,275.105937 134.149826,272.958924 134.056195,271.31866 C133.240274,257.623117 141.573378,238.633387 141.934524,237.819922 C142.030958,237.616412 142.220465,237.472224 142.442803,237.433193 L214.671959,227.004844 C214.890972,226.978915 215.109342,227.058083 215.260493,227.218212 L261.821547,276.879557 C262.002947,277.07455 262.050772,277.35837 261.943242,277.601758 C261.835712,277.845145 261.593393,278.001548 261.326643,277.999874 L261.313267,277.999874 Z M135.581033,276.666189 L259.761678,276.666189 L214.498074,228.378399 L143.044713,238.700064 C141.907772,241.367161 134.671481,258.849982 135.420524,271.238647 C135.487403,272.745556 135.581033,274.652531 135.581033,276.666189 Z" id="Shape" fill="#231F20"></path>
                <path d="M214.400062,100.947965 L217.978454,119.31486 C217.978454,119.31486 218.070885,129.954626 206.371787,128.930548 C199.371402,128.268607 193.040669,124.462295 189.140046,118.570077 L184.399666,86.4911838 C184.80767,80.6501888 184.335772,74.7806361 183,69.0818675 C196.455283,66.2756294 205.143778,54 205.143778,54 C205.143778,54 211.098962,60.1178651 213.528571,61.9798241 C215.483335,63.3286925 217.258384,64.9243587 218.810331,66.7278194 C221.35878,69.9064494 222.111431,74.3485514 222.771651,78.2719649 C223.602523,82.9287192 224.013533,87.6516207 224,92.3829539 C223.78839,101.360256 214.400062,100.947965 214.400062,100.947965 Z" id="Path" fill="#FFFFFF"></path>
                <path d="M208.045278,128.986336 C207.532836,128.986336 206.993422,128.986336 206.440523,128.986336 C199.090262,128.334697 192.440421,124.427369 188.370169,118.368518 C188.331415,118.297918 188.304115,118.221789 188.289257,118.142889 C188.289257,118.142889 183.461506,86.2894336 183.448021,86.1301663 C183.394031,85.5961699 183.394031,85.0582177 183.448021,84.5242213 C183.760546,79.2366163 183.27888,73.9325581 182.018575,68.7833054 C181.976745,68.6284973 182.006345,68.4634139 182.099487,68.3320481 C182.188892,68.1959984 182.32958,68.1005058 182.490562,68.0666026 C195.827562,65.412148 204.633488,53.3741963 204.7144,53.2547458 C204.822989,53.1093849 204.990206,53.0174164 205.172901,53.0025727 C205.355476,52.9854658 205.535511,53.0543732 205.658374,53.1883845 C205.7258,53.1883845 211.740261,59.2803578 214.167622,61.0721147 C216.165205,62.4524916 217.977599,64.0757119 219.561758,65.9032221 C222.258825,69.2478349 223.081431,73.866586 223.728727,77.7022729 C224.586897,82.3840939 225.011181,87.1329594 224.996349,91.8903329 C225.067751,94.3429584 224.089134,96.7123189 222.299281,98.4202912 C220.347451,100.056069 217.889571,100.99187 215.327361,101.074746 L218.847035,118.687052 C218.830199,121.611984 217.648861,124.413836 215.556612,126.491149 C213.465322,128.23095 210.780072,129.122963 208.045278,128.986336 Z M189.489453,117.757993 C193.399014,123.39699 199.645624,127.041999 206.548406,127.712198 C210.108535,128.004188 212.886515,127.274213 214.814918,125.522273 C216.623489,123.695423 217.663911,121.263462 217.727752,118.713597 L214.08671,100.504038 C214.055974,100.320523 214.104897,100.132736 214.221564,99.9864195 C214.34178,99.8385379 214.528704,99.7589829 214.720521,99.7740631 C217.211278,99.8216188 219.638529,98.9986707 221.571073,97.4514153 C223.081394,95.9527573 223.896238,93.9070137 223.823125,91.7974269 C223.835509,87.1111116 223.415742,82.4333593 222.568988,77.8217234 C221.908207,74.012581 221.220454,69.6725477 218.65824,66.5933803 C217.122097,64.8408386 215.368823,63.2847025 213.439414,61.961357 C211.335701,60.408501 206.818113,55.9755618 205.348211,54.4625227 C203.419807,56.9178932 195.342089,66.4075685 183.407565,69.0620231 C184.61315,74.12499 185.067375,79.3331089 184.756099,84.5242213 C184.719906,84.9659134 184.719906,85.4097565 184.756099,85.8514486 L184.756099,85.8514486 C184.756099,85.8514486 184.702157,86.1832554 189.489453,117.757993 L189.489453,117.757993 Z" id="Shape" fill="#231F20"></path>
                <path d="M216,109.624538 C216,109.624538 208.653686,111.382985 202.945758,107.288892 C197.23783,103.194799 197,98 197,98 C197,98 206.037552,101.906167 214.401252,100.496725 L216,109.624538 Z" id="Path" fill="#231F20"></path>
                <path d="M211.549883,110.996169 C208.188362,111.069235 204.886157,110.095642 202.092646,108.20788 C196.26374,104.058484 196.001766,98.904776 196.001766,98.614054 C195.985588,98.4129783 196.081485,98.2194855 196.250641,98.1118978 C196.408846,97.991527 196.618991,97.9662881 196.800785,98.0458246 C196.892476,98.0458246 205.720977,101.811996 213.737361,100.464103 C214.047658,100.416291 214.33882,100.627784 214.392294,100.93983 L215.990331,109.925783 C216.046904,110.234958 215.849623,110.533499 215.544977,110.59973 C214.232151,110.882094 212.892082,111.015071 211.549883,110.996169 L211.549883,110.996169 Z M197.311633,99.4994346 C198.127938,102.680543 200.083131,105.443932 202.799974,107.256427 C207.319014,110.480798 213.003835,109.899354 214.745958,109.568988 L213.357499,101.706279 C206.611686,102.644518 199.747985,100.424459 197.311633,99.4994346 Z" id="Shape" fill="#231F20"></path>
                <path d="M204,70 C204,70 212.067645,77.669037 210.880811,79.4540715 C209.693977,81.239106 205.313995,80.9878789 205.313995,80.9878789" id="Path" fill="#FFFFFF"></path>
                <path d="M206.538419,81 L205.837485,81 C205.676962,80.9899599 205.527266,80.9195793 205.421515,80.8044286 C205.315763,80.6892779 205.262673,80.5388486 205.273989,80.38642 C205.296089,80.0670119 205.583325,79.8231989 205.919948,79.8381145 C207.005708,79.8381145 210.043087,79.8381145 210.785252,78.6109546 C211.252541,77.8798806 208.17393,73.8459187 204.174486,69.9816705 C203.939181,69.7545549 203.942257,69.3892502 204.181358,69.1657397 C204.420458,68.9422291 204.80504,68.9451515 205.040345,69.1722671 C207.500484,71.5482576 213.080466,77.2793555 211.816036,79.2245346 C210.771508,80.8041766 207.899054,81 206.538419,81 Z" id="Path" fill="#231F20"></path>
                <ellipse id="Oval" fill="#231F20" transform="translate(214.588983, 71.772875) rotate(-13.010000) translate(-214.588983, -71.772875) " cx="214.588983" cy="71.7728751" rx="1.04112816" ry="1.94723472"></ellipse>
                <ellipse id="Oval" fill="#231F20" transform="translate(197.582708, 73.499532) rotate(-13.010000) translate(-197.582708, -73.499532) " cx="197.582708" cy="73.4995323" rx="1.04112816" ry="1.94723472"></ellipse>
                <path d="M188,75.8368008 C186.110066,72.8356845 181.691154,72.4221974 178.604715,73.6359822 C176.510058,74.3710769 175.082947,76.2835217 175.001602,78.4644449 C174.977863,79.7737107 175.218142,81.0746692 175.708628,82.2925355 C176.52983,84.5757867 177.764238,86.6949528 179.35253,88.5481958 C180.09264,89.517647 181.070007,90.2883532 182.19423,90.7890293 C183.642938,91.2908559 185.257142,90.8791378 186.273225,89.7486423" id="Path" fill="#FFFFFF"></path>
                <path d="M183.957098,91 C183.452975,90.9995565 182.953443,90.9056884 182.484608,90.7233011 C181.28378,90.1870053 180.235572,89.3679382 179.432538,88.3384198 C177.825952,86.4504452 176.574778,84.2952621 175.737926,81.9743444 C175.227002,80.6907008 174.976865,79.320871 175.001681,77.9424457 C175.107223,75.5629343 176.661513,73.4814504 178.937246,72.6719899 C182.283814,71.354376 186.96901,71.8814216 188.936792,75.0832235 C189.076811,75.3636822 188.977251,75.7029527 188.706869,75.8667293 C188.436488,76.0305059 188.083924,75.9650984 187.892663,75.7156782 C186.219379,73.0804503 182.270428,72.6456377 179.392379,73.7787857 C177.555433,74.4197961 176.295854,76.0919731 176.206446,78.0083264 C176.188319,79.2248526 176.41111,80.4332063 176.862373,81.5658841 C177.648345,83.753324 178.827217,85.7839661 180.342804,87.5610276 C181.010624,88.4359198 181.889338,89.1332897 182.899583,89.5901531 C184.109684,90.0088793 185.456863,89.6590996 186.299696,88.7073517 C186.443957,88.5195133 186.685688,88.4309159 186.919628,88.4801396 C187.153568,88.5293632 187.337372,88.7074982 187.391001,88.936975 C187.444631,89.1664518 187.358379,89.4057337 187.169804,89.5506247 C186.338257,90.4363151 185.18157,90.9581415 183.957098,91 L183.957098,91 Z" id="Path" fill="#231F20"></path>
                <path d="M211.49256,83 L203,83.8492303 C203,83.8492303 204.764523,97.3585245 208.58554,96.9927022 C212.406558,96.62688 212.419252,86.8672641 211.49256,83 Z" id="Path" fill="#FFFFFF"></path>
                <path d="M208.505922,98 C204.161151,98 202.326692,86.7779604 202.009454,84.4895952 C201.978542,84.3370505 202.024336,84.1796635 202.133591,84.0629508 C202.229021,83.9348636 202.381112,83.8540794 202.547378,83.8431643 L211.788638,83.0028042 C212.087601,82.9750131 212.363264,83.1564351 212.436905,83.4294486 C213.223102,86.4030305 213.485167,93.5266985 211.195542,96.5390663 C210.652459,97.3445123 209.750085,97.8767193 208.740401,97.9870714 L208.505922,98 Z M203.305989,84.9291682 C204.078393,89.8161854 206.064574,96.8493531 208.505922,96.8493531 L208.630058,96.8493531 C209.282328,96.7623464 209.859013,96.4067228 210.202451,95.8797068 C212.009324,93.4879127 212.092082,87.501963 211.37485,84.2439515 L203.305989,84.9291682 Z" id="Shape" fill="#231F20"></path>
                <path d="M234.604503,189.99641 C234.384161,189.996089 234.181394,189.876391 234.0751,189.68389 C233.968806,189.49139 233.975772,189.25649 234.093288,189.070592 C234.187459,188.896162 244.075438,172.311934 234.617956,137.774877 C234.539322,137.450233 234.728101,137.12074 235.048453,137.023488 C235.205506,136.978474 235.374135,136.998695 235.516014,137.079556 C235.657893,137.160416 235.760972,137.295048 235.801823,137.452853 C245.420741,172.553452 235.559668,189.030339 235.129171,189.781728 C235.00227,189.937626 234.804618,190.018501 234.604503,189.99641 Z" id="Path" fill="#231F20"></path>
                <polygon id="Path" fill="#FFFFFF" points="53 142 197 245.625763 341 142 341 312 53 312"></polygon>
                <path d="M341.331551,313 L52.6686393,313 C52.2994653,313 52.0000931,312.701047 52.0000931,312.33227 L52.0000931,141.687319 C51.9958532,141.437991 52.1366584,141.208777 52.3611529,141.099717 C52.5737695,140.966761 52.843723,140.966761 53.0563396,141.099717 L197.000093,244.824818 L340.930482,141.099717 C341.143099,140.966761 341.413052,140.966761 341.625669,141.099717 C341.853098,141.207476 342,141.435878 342,141.687319 L342,312.33227 C341.992888,312.698064 341.697739,312.992895 341.331551,313 Z M53.2969812,311.664541 L340.729947,311.664541 L340.729947,142.996069 L197.387796,246.240404 C197.152889,246.411874 196.833932,246.411874 196.599026,246.240404 L53.2969812,142.996069 L53.2969812,311.664541 Z" id="Shape" fill="#231F20"></path>
                <path d="M52.6672448,313 C52.4230175,313 52.1979877,312.867108 52.080759,312.651909 C51.9085936,312.329319 52.0203027,311.927754 52.3340142,311.741523 L184.00006,236.085772 C184.320358,235.905214 184.725722,236.018977 184.906447,236.340144 C184.997554,236.492173 185.023459,236.674787 184.978252,236.846324 C184.933045,237.01786 184.820582,237.163686 184.666521,237.25053 L52.9871461,312.906281 C52.8899047,312.963694 52.7799681,312.9959 52.6672448,313 Z" id="Path" fill="#231F20"></path>
                <path d="M341.341431,313 C341.224497,312.995917 341.110234,312.963781 341.008192,312.906278 L209.338659,237.245949 C209.018894,237.064416 208.905627,236.657238 209.085397,236.335508 C209.270815,236.020394 209.670627,235.908185 209.991808,236.08112 L341.661341,311.741449 C341.981106,311.922983 342.094373,312.33016 341.914603,312.65189 C341.80183,312.864984 341.581689,312.998685 341.341431,313 L341.341431,313 Z" id="Path" fill="#231F20"></path>
                <path d="M121.311332,235 C121.311332,235 127.135385,250.052543 128.508102,250.872628 C129.880819,251.692714 146.100206,258.279855 144.940726,261.36179 C143.781247,264.443726 136.477858,260.687204 136.477858,260.687204 C136.477858,260.687204 146.993138,272.763628 144.221049,274.893206 C141.44896,277.022784 132.119814,281.348075 128.374828,279.588859 C124.629843,277.829642 105.958223,254.86724 102,244.893938" id="Path" fill="#FFFFFF"></path>
                <path d="M132.038682,279.997242 C131.177442,280.023755 130.320892,279.858831 129.52889,279.513995 C125.566061,277.594429 106.940763,254.009274 103.043981,243.941621 C102.959034,243.71622 102.998872,243.461888 103.148488,243.274429 C103.298104,243.086969 103.534768,242.994863 103.769332,243.032805 C104.003895,243.070747 104.200721,243.232973 104.285668,243.458374 C108.248497,253.781074 126.873795,276.748746 130.083686,278.359571 C133.293578,279.970395 142.315619,275.88964 145.116019,273.674756 C145.237696,273.559961 145.309058,273.400422 145.31416,273.231779 C145.565139,270.547072 139.634105,262.935926 137.388502,260.224372 C137.181159,259.980535 137.173618,259.621362 137.370539,259.368761 C137.56746,259.11616 137.913253,259.041437 138.194277,259.19076 C139.51522,259.888783 143.293117,261.553302 144.983924,260.895549 C145.297603,260.788175 145.545754,260.540946 145.657605,260.224372 C145.974632,259.351842 143.887542,257.163805 132.117939,251.619885 C130.69132,250.948708 129.938383,250.586272 129.634566,250.384919 C128.207947,249.458695 123.611065,237.538594 122.237284,233.914239 C122.173008,233.746999 122.177348,233.560561 122.249334,233.396597 C122.321321,233.232633 122.454952,233.104814 122.620358,233.041709 C122.959508,232.914476 123.336295,233.087975 123.465761,233.430992 C126.213323,240.693125 129.5421,248.599589 130.361084,249.270766 C130.585645,249.418424 131.549933,249.874825 132.672735,250.398343 C142.157106,254.854957 147.837162,258.143724 146.899292,260.694196 C146.65321,261.372556 146.127005,261.907291 145.459464,262.157361 C143.678367,262.526912 141.827744,262.310641 140.175692,261.539879 C142.725112,264.774951 146.93892,270.587343 146.674732,273.352591 C146.63143,273.878389 146.378502,274.363347 145.974632,274.694945 C143.795076,276.372887 136.767658,279.997242 132.038682,279.997242 Z" id="Path" fill="#231F20"></path>
                <path d="M147,117 C112.722889,138.967649 71.0359515,171.294135 67.5176166,178.847177 C61.8936116,190.815024 103.953706,251 103.953706,251 L126.729593,236.585392 L105.912779,191.466607 L146.960019,163.608117" id="Path" fill="#F99E3B"></path>
                <path d="M120.609343,183 C120.410074,183.005419 120.221214,182.908937 120.106113,182.742639 C119.920318,182.460605 119.984488,182.079145 120.251785,181.876678 L166.045709,149.118983 C166.176305,149.020502 166.340567,148.98071 166.500535,149.008802 C166.660503,149.036894 166.802334,149.130439 166.893254,149.26782 C166.984725,149.404137 167.019375,149.572027 166.989564,149.734473 C166.959753,149.89692 166.867929,150.040581 166.734339,150.133782 L120.953659,182.891476 C120.853818,182.965586 120.73269,183.003666 120.609343,183 L120.609343,183 Z" id="Path" fill="#231F20"></path>
                <polygon id="Path" fill="#231F20" points="321 274 377 240 329.551658 259.604678"></polygon>
                <path d="M320.662609,275 C320.487237,274.998961 320.319709,274.92589 320.198023,274.797362 C319.981114,274.57997 319.937338,274.240266 320.091832,273.973301 L328.587117,259.315824 C328.654245,259.188695 328.761927,259.088634 328.892417,259.032131 L376.08107,239.052031 C376.401984,238.916027 376.771642,239.05508 376.928498,239.370806 C377.085354,239.686532 376.976256,240.071943 376.678395,240.25435 L321.00773,274.851399 C320.906201,274.928626 320.78777,274.97962 320.662609,275 L320.662609,275 Z M329.609206,260.139885 L322.587322,272.298161 L368.634422,243.618139 L329.609206,260.139885 Z" id="Shape" fill="#231F20"></path>
                <polygon id="Path" fill="#FFFFFF" points="329 259.674771 347.13292 269 376 240"></polygon>
                <path d="M347.042169,269.998978 C346.943722,270.002138 346.846211,269.979324 346.759776,269.932908 L328.336985,260.68303 C328.121048,260.581831 327.988377,260.362809 328.000803,260.128037 C328.014138,259.892731 328.159139,259.68409 328.377327,259.586259 L376.155557,240.042588 C376.4252,239.937894 376.732662,240.03128 376.895158,240.267228 C377.061178,240.50344 377.026908,240.823366 376.814474,241.020432 L347.48593,269.827195 C347.371077,269.946033 347.208645,270.008911 347.042169,269.998978 Z M330.071686,260.207322 L346.921143,268.664353 L373.735044,242.328629 L330.071686,260.207322 Z" id="Shape" fill="#231F20"></path>
                <polygon id="Path" fill="#FFFFFF" points="377 240 316.709642 254 303 246.376623"></polygon>
                <path d="M316.271318,255 C316.168189,255.000222 316.066914,254.971829 315.978175,254.917816 L302.293732,246.891443 C302.069704,246.750939 301.957552,246.479417 302.014801,246.216149 C302.07205,245.952881 302.285996,245.756289 302.546901,245.727209 L376.338963,239.00204 C376.654747,238.976021 376.93779,239.201655 376.991872,239.522521 C377.043203,239.844736 376.846566,240.153875 376.538833,240.234759 L316.41789,254.9863 L316.271318,255 Z M304.585576,246.781868 L316.364591,253.698794 L368.237559,241.042875 L304.585576,246.781868 Z" id="Shape" fill="#231F20"></path>
                <polygon id="Path" fill="#FFFFFF" points="317 254.289279 321.268617 274 329.779255 259.604678 377 240"></polygon>
                <path d="M320.848695,274.998026 L320.755997,274.998026 C320.509149,274.961391 320.309733,274.778644 320.252782,274.536873 L316.015182,254.931272 C315.979611,254.777483 316.007126,254.615931 316.091634,254.482389 C316.176142,254.348847 316.310669,254.254333 316.465427,254.219778 L376.215595,240.029433 C376.530081,239.927558 376.868027,240.098629 376.970418,240.411532 C377.072809,240.724434 376.900871,241.060678 376.586385,241.162553 L329.787384,260.570517 L321.418122,274.694983 C321.304541,274.898437 321.081831,275.016961 320.848695,274.998026 L320.848695,274.998026 Z M317.312947,255.234315 L321.113545,272.744963 L328.794196,259.766793 C328.864844,259.656994 328.966068,259.570013 329.085531,259.516452 L369.157342,242.914935 L317.312947,255.234315 Z" id="Shape" fill="#231F20"></path>
                <path d="M307.730843,277 C307.402581,276.992916 307.117522,276.779165 307.028227,276.473122 C306.938932,276.167079 307.066316,275.840429 307.342205,275.667991 L309.838455,274.118834 C310.185179,273.898943 310.650291,273.992933 310.877313,274.328766 C311.104335,274.6646 311.007297,275.115104 310.660573,275.334995 L308.134428,276.898631 C308.011384,276.966064 307.872213,277.001012 307.730843,277 Z" id="Path" fill="#D1D3D4"></path>
                <path d="M105.774033,337.999471 C105.408257,337.992366 105.11344,337.69755 105.106335,337.331775 C105.106262,336.968169 105.397145,336.671351 105.760679,336.664079 L108.938922,336.59731 L111.088909,336.530537 C111.452492,336.529463 111.755349,336.809022 111.783315,337.171528 C111.790529,337.350898 111.725212,337.525616 111.6021,337.656265 C111.478988,337.786914 111.308454,337.862486 111.128971,337.865932 L108.978984,337.932701 L105.787387,337.999471 L105.774033,337.999471 Z M100.432449,337.999471 L100.432449,337.999471 C98.6163105,337.999471 96.8268799,337.919347 95.090865,337.852578 C94.7252429,337.831117 94.4420642,337.524341 94.4498749,337.158174 C94.4568184,336.981041 94.533916,336.81394 94.6641743,336.693702 C94.7944326,336.573464 94.9671586,336.509959 95.1442809,336.517186 C96.8802957,336.583956 98.6563724,336.637371 100.485865,336.664079 C100.662949,336.664079 100.832781,336.734426 100.957999,336.859643 C101.083216,336.98486 101.153563,337.154691 101.153563,337.331775 C101.150116,337.514797 101.073136,337.688725 100.939984,337.814341 C100.806831,337.939956 100.628716,338.006682 100.445803,337.999471 L100.432449,337.999471 Z M116.457201,337.638915 C116.105995,337.639208 115.817192,337.362193 115.802857,337.011281 C115.791907,336.834119 115.851951,336.659888 115.96972,336.527084 C116.08749,336.39428 116.253292,336.313835 116.430493,336.303523 C118.20657,336.2234 119.982647,336.116569 121.772077,335.996383 C121.950121,335.981675 122.126437,336.040402 122.2601,336.158933 C122.393764,336.277465 122.473152,336.445493 122.479837,336.624017 C122.494536,336.799853 122.437598,336.974171 122.32194,337.107428 C122.206283,337.240686 122.04171,337.321585 121.865555,337.331775 C120.089478,337.45196 118.313402,337.558792 116.523971,337.638915 L116.457201,337.638915 Z M89.8160508,337.545438 L89.8160508,337.545438 C87.9999122,337.411898 86.2238355,337.251651 84.4744667,337.064697 C84.1101432,337.022777 83.847816,336.694869 83.8868924,336.330231 C83.8997922,336.152165 83.9863724,335.987546 84.1257838,335.876018 C84.2651953,335.764489 84.4448046,335.716156 84.6213603,335.742659 C86.3440211,335.91626 88.1067439,336.076507 89.9629443,336.210046 C90.3317038,336.210046 90.6306423,336.508984 90.6306423,336.877742 C90.6306423,337.2465 90.3317038,337.545438 89.9629443,337.545438 L89.8160508,337.545438 Z M127.113662,336.944511 C126.744902,336.944511 126.445964,336.645574 126.445964,336.276816 C126.445964,335.908057 126.744902,335.60912 127.113662,335.60912 C128.889738,335.462227 130.652461,335.30198 132.455246,335.128379 C132.820102,335.104064 133.141298,335.36686 133.189713,335.729305 C133.208336,335.906571 133.155309,336.083924 133.042439,336.221875 C132.92957,336.359826 132.766229,336.446922 132.588785,336.46377 C130.808257,336.63292 129.027729,336.793167 127.247201,336.944511 L127.113662,336.944511 Z M79.1996524,336.397001 L79.1061747,336.397001 C77.316744,336.129923 75.5406673,335.836136 73.7645906,335.515642 C73.5260451,335.470319 73.3297998,335.301176 73.2497785,335.071929 C73.1697572,334.842681 73.2181169,334.588157 73.3766411,334.404233 C73.5351653,334.220309 73.7797704,334.134927 74.0183159,334.180251 C75.7142688,334.500745 77.4769916,334.794531 79.2530683,335.048255 C79.4284863,335.074601 79.5862112,335.169665 79.691436,335.31247 C79.7966608,335.455274 79.8407359,335.63408 79.8139346,335.809429 C79.7693767,336.133948 79.5001078,336.380777 79.1729445,336.397001 L79.1996524,336.397001 Z M137.743414,335.91626 C137.504868,335.930573 137.276807,335.816536 137.145139,335.617107 C137.013471,335.417677 136.9982,335.163153 137.105078,334.949411 C137.211955,334.735669 137.424745,334.595181 137.66329,334.580868 C139.443818,334.385011 141.224346,334.171348 143.004874,333.93988 C143.373633,333.891942 143.711434,334.152018 143.759373,334.520776 C143.807311,334.889534 143.547235,335.227333 143.178476,335.275272 L137.836892,335.902906 L137.743414,335.91626 Z M148.333104,334.580868 C148.000077,334.57846 147.717638,334.335563 147.665406,334.00665 C147.6388,333.829282 147.684669,333.648667 147.792682,333.505487 C147.900696,333.362307 148.06177,333.268602 148.239626,333.245477 L153.501087,332.457596 C153.674952,332.426825 153.853874,332.467625 153.997212,332.570727 C154.14055,332.673829 154.236137,332.830483 154.262263,333.005106 C154.293198,333.180525 154.252759,333.361032 154.149939,333.506485 C154.047118,333.651939 153.89044,333.750278 153.71475,333.779633 L148.373166,334.567514 L148.333104,334.580868 Z M68.7301477,334.447329 L68.5699001,334.447329 C66.7938234,334.033358 65.0444547,333.579325 63.3752096,333.111938 C63.0260537,333.0027 62.8255779,332.637128 62.921175,332.283995 C63.0244276,331.929987 63.3951115,331.726709 63.7491205,331.829962 C65.4050116,332.297349 67.1276724,332.751382 68.8770412,333.165353 C69.0504286,333.203293 69.2009652,333.310041 69.2941276,333.461114 C69.38729,333.612188 69.4150848,333.794626 69.3711377,333.966588 C69.2804994,334.255907 69.0063076,334.447841 68.7034397,334.433975 L68.7301477,334.447329 Z M158.869379,332.911629 C158.545911,332.915965 158.267822,332.683279 158.215035,332.364118 C158.158215,332.0004 158.400708,331.657362 158.762547,331.589591 L164.010653,330.654817 C164.184541,330.619836 164.36518,330.656946 164.511195,330.757645 C164.657209,330.858344 164.756088,331.014005 164.785183,331.188974 C164.850162,331.550056 164.611631,331.895925 164.251025,331.963501 L158.989564,332.911629 L158.869379,332.911629 Z M58.4609523,331.456052 C58.390303,331.468815 58.3179382,331.468815 58.2472889,331.456052 C56.537982,330.855126 54.8420291,330.200784 53.2261999,329.519734 C53.0628958,329.449353 52.9344131,329.316738 52.8692359,329.151289 C52.8040587,328.985839 52.807572,328.801226 52.8789969,328.638376 C53.0255304,328.305604 53.4113954,328.151259 53.7470044,328.291174 C55.3361256,328.95887 57.0053706,329.626566 58.6879696,330.200784 C59.056729,330.263473 59.3048479,330.61323 59.2421588,330.981988 C59.1794697,331.350746 58.8297117,331.598864 58.4609523,331.536176 L58.4609523,331.456052 Z M169.298822,330.948603 C168.983297,330.943647 168.712501,330.722591 168.644478,330.414447 C168.609024,330.240901 168.643982,330.060379 168.741658,329.912614 C168.839333,329.764849 168.991722,329.66195 169.165282,329.626566 L174.38668,328.531545 C174.560227,328.496091 174.740749,328.531049 174.888515,328.628724 C175.036281,328.7264 175.13918,328.878787 175.174564,329.052347 C175.214105,329.224308 175.182522,329.40495 175.086979,329.553293 C174.991435,329.701636 174.840032,329.805105 174.667114,329.840228 L169.432361,330.935249 L169.298822,330.948603 Z M179.741619,328.705146 C179.503073,328.731385 179.268649,328.62837 179.126652,328.434904 C178.984654,328.241438 178.956657,327.986914 179.053205,327.767208 C179.149753,327.547503 179.356179,327.395994 179.594725,327.369754 C181.33074,326.969137 183.053401,326.568519 184.776062,326.141194 C185.133561,326.057596 185.491486,326.278316 185.577299,326.635289 C185.621482,326.808923 185.594028,326.993029 185.50111,327.146218 C185.408191,327.299408 185.257604,327.408827 185.083203,327.449877 C183.360542,327.863849 181.637881,328.27782 179.888512,328.665084 L179.741619,328.705146 Z M48.6190836,327.276277 C48.5119574,327.273167 48.4069362,327.245771 48.3119426,327.196153 C46.6961134,326.36821 45.1203461,325.473498 43.6247025,324.52537 C43.4739427,324.431723 43.3666695,324.281907 43.3265789,324.109017 C43.2864883,323.936127 43.3168795,323.75439 43.4110392,323.60395 C43.5021328,323.450297 43.6520824,323.340564 43.8260917,323.300214 C44.0001009,323.259864 44.1830419,323.292406 44.3324624,323.390287 C45.7880441,324.285 47.3371035,325.153004 48.9262247,325.967593 C49.2949842,326.052407 49.5251669,326.4201 49.4403522,326.788859 C49.3555375,327.157617 48.9878431,327.387799 48.6190836,327.302984 L48.6190836,327.276277 Z M190.171061,326.181256 C189.802302,326.225506 189.467491,325.962441 189.42324,325.593683 C189.378989,325.224925 189.642055,324.890115 190.010814,324.845864 L195.165443,323.510472 C195.403988,323.448451 195.657502,323.518402 195.830487,323.693977 C196.003472,323.869552 196.069649,324.124077 196.004088,324.361673 C195.938528,324.59927 195.751191,324.783842 195.512645,324.845864 C193.803339,325.3088 192.080678,325.75393 190.344663,326.181256 C190.279233,326.200175 190.209783,326.200175 190.144353,326.181256 L190.171061,326.181256 Z M200.480319,323.390287 C200.182053,323.39488 199.918434,323.197166 199.839329,322.909546 C199.744842,322.552486 199.952188,322.185188 200.306717,322.081603 L205.421284,320.599319 C205.771346,320.495017 206.140246,320.691366 206.249229,321.039998 C206.30265,321.210027 206.284404,321.394489 206.198708,321.550757 C206.113012,321.707025 205.967282,321.821577 205.795195,321.867941 C204.099242,322.37539 202.389935,322.882838 200.667274,323.363579 C200.599225,323.389486 200.525943,323.398646 200.453611,323.390287 L200.480319,323.390287 Z M39.6051605,321.667632 C39.4605325,321.668617 39.3196532,321.621657 39.2045417,321.534093 C37.7489601,320.452426 36.3467943,319.303989 35.0381062,318.115491 C34.9117025,317.99012 34.8406022,317.819459 34.8406022,317.641427 C34.8406022,317.463394 34.9117025,317.292733 35.0381062,317.167363 C35.161181,317.04175 35.3296369,316.970965 35.5054948,316.970965 C35.6813527,316.970965 35.8498085,317.04175 35.9728834,317.167363 C37.2739858,318.347445 38.633339,319.461666 40.0458412,320.505841 C40.3408488,320.727096 40.4006365,321.145609 40.1793808,321.440616 C40.0352441,321.603693 39.821846,321.688059 39.6051605,321.667632 Z M210.682744,320.332241 C210.391671,320.337044 210.133912,320.145097 210.055108,319.864853 C210.000901,319.694861 210.016987,319.510244 210.099779,319.352188 C210.18257,319.194132 210.325178,319.075788 210.495789,319.023557 C212.205096,318.502754 213.887695,317.955244 215.570294,317.421087 C215.738435,317.362494 215.923193,317.374953 216.081946,317.455589 C216.240699,317.536225 216.359735,317.678074 216.411593,317.848412 C216.52563,318.198711 216.334406,318.575182 215.984266,318.689709 C214.301667,319.237219 212.605714,319.771376 210.883054,320.305533 C210.819583,320.331979 210.751504,320.345594 210.682744,320.345594 L210.682744,320.332241 Z M220.845108,317.033823 C220.476349,317.092825 220.12958,316.841717 220.070578,316.472959 C220.011577,316.104201 220.262685,315.757433 220.631445,315.698432 C222.327397,315.124213 224.009996,314.549995 225.665888,313.962423 C226.015865,313.846293 226.394701,314.029791 226.520541,314.376394 C226.580255,314.541024 226.571484,314.72272 226.496192,314.880833 C226.4209,315.038946 226.28537,315.16028 226.119922,315.217691 C224.450677,315.805263 222.768078,316.392835 221.058771,316.967054 L220.845108,317.033823 Z M31.739678,314.496579 C31.5462957,314.49487 31.3623862,314.412595 31.2322275,314.269563 C30.032356,312.927079 28.9088531,311.518247 27.8670296,310.049726 C27.702872,309.858016 27.660842,309.590128 27.7584008,309.357356 C27.8559597,309.124585 28.0764324,308.966716 28.3282231,308.949337 C28.5800138,308.931958 28.8200857,309.058038 28.9487003,309.275198 C29.9638955,310.703846 31.0607461,312.072675 32.2337745,313.374851 C32.4898812,313.639009 32.4898812,314.05882 32.2337745,314.322979 C32.1017808,314.450572 31.9230749,314.51819 31.739678,314.509933 L31.739678,314.496579 Z M230.913994,313.50839 C230.635284,313.500819 230.388129,313.327284 230.286358,313.06771 C230.161139,312.721085 230.34045,312.338556 230.686977,312.21306 C232.38293,311.59878 234.038821,310.971146 235.694712,310.356866 C236.02412,310.273644 236.363497,310.451058 236.483169,310.769042 C236.60284,311.087026 236.464642,311.444171 236.1621,311.59878 C234.506209,312.226414 232.836964,312.840694 231.141011,313.454974 C231.072841,313.497511 230.994338,313.5206 230.913994,313.521744 L230.913994,313.50839 Z M240.902756,309.729232 C240.664211,309.77217 240.420878,309.684584 240.26442,309.499467 C240.107962,309.31435 240.062147,309.059826 240.144234,308.831771 C240.226321,308.603717 240.423839,308.436778 240.662385,308.39384 L245.616704,306.430814 C245.955959,306.292511 246.343293,306.453403 246.484711,306.79137 C246.624016,307.134322 246.463888,307.525746 246.124155,307.672729 L241.156481,309.702524 C241.074456,309.728786 240.988883,309.742298 240.902756,309.742585 L240.902756,309.729232 Z M25.5701484,305.829888 C25.324664,305.833548 25.097787,305.699485 24.9825742,305.482686 C24.1100285,303.9045 23.3297376,302.277041 22.6456311,300.608507 C22.5549838,300.386661 22.5895764,300.133306 22.7363782,299.94388 C22.88318,299.754455 23.1198883,299.657735 23.3573373,299.690156 C23.5947864,299.722577 23.7969021,299.879212 23.8875494,300.101058 C24.5438411,301.727434 25.3020711,303.310791 26.1577226,304.841698 C26.3279523,305.166902 26.2098325,305.568508 25.8906434,305.749765 C25.791628,305.80138 25.6818048,305.828836 25.5701484,305.829888 L25.5701484,305.829888 Z M250.811395,305.736411 C250.539555,305.742678 250.293342,305.576753 250.197112,305.322439 C250.057196,304.986832 250.211542,304.600968 250.544315,304.454435 C252.21356,303.760031 253.856097,303.119043 255.458573,302.371224 C255.797831,302.223721 256.19243,302.379168 256.339934,302.718426 C256.487438,303.057683 256.33199,303.452281 255.992731,303.599784 L251.06512,305.682995 C250.985723,305.719912 250.898936,305.738183 250.811395,305.736411 Z M260.613201,301.50322 C260.351881,301.500009 260.114492,301.350352 259.998919,301.115956 C259.923643,300.953575 259.918168,300.767446 259.983769,300.60092 C260.04937,300.434395 260.180321,300.30201 260.346122,300.234598 C262.002013,299.486778 263.617842,298.765667 265.19361,298.031202 C265.529181,297.876323 265.926769,298.022803 266.081648,298.358372 C266.236527,298.693942 266.090047,299.091529 265.754476,299.246408 C264.165355,299.980873 262.549526,300.715339 260.88028,301.449804 C260.796516,301.487816 260.705143,301.50609 260.613201,301.50322 L260.613201,301.50322 Z M270.32153,297.043012 C270.06433,297.050283 269.827709,296.903052 269.720602,296.669102 C269.642355,296.509779 269.630767,296.325857 269.688399,296.157973 C269.746031,295.990089 269.868139,295.852063 270.027743,295.77439 C271.683634,294.999863 273.286109,294.225336 274.835169,293.464162 C275.167052,293.301909 275.56763,293.43942 275.729884,293.771303 C275.892138,294.103185 275.754627,294.503761 275.422743,294.666015 L270.601963,296.989596 C270.513194,297.026631 270.417699,297.044821 270.32153,297.043012 L270.32153,297.043012 Z M21.5372524,295.934637 C21.2367449,295.93295 20.9743908,295.730719 20.8962623,295.440542 C20.4072742,293.705368 20.0149549,291.944395 19.7211138,290.165745 C19.6621123,289.796987 19.9132207,289.45022 20.2819802,289.391218 C20.6507396,289.332217 20.9975084,289.583324 21.0565099,289.952083 C21.3233002,291.698496 21.6888952,293.428379 22.1515346,295.133402 C22.2011183,295.303402 22.1811384,295.486137 22.0959904,295.641407 C22.0108424,295.796676 21.8675011,295.911761 21.6975,295.961345 L21.5372524,295.934637 Z M279.882966,292.369141 C279.626718,292.372936 279.391842,292.226792 279.282038,291.995232 C279.117167,291.666957 279.248444,291.26716 279.575825,291.100519 C281.218362,290.272577 282.807483,289.471342 284.329835,288.670107 C284.65803,288.500478 285.061597,288.629021 285.231227,288.957216 C285.400856,289.285411 285.272313,289.688976 284.944117,289.858605 C283.421765,290.646486 281.832644,291.461075 280.176753,292.289018 C280.087101,292.33996 279.986068,292.367515 279.882966,292.369141 L279.882966,292.369141 Z M289.364278,287.441547 C289.118793,287.445207 288.891916,287.311143 288.776703,287.094345 C288.606474,286.769141 288.724593,286.367536 289.043782,286.186278 C290.699674,285.30492 292.262087,284.450269 293.731023,283.649035 C293.940294,283.500548 294.216144,283.485124 294.440664,283.609355 C294.665185,283.733586 294.79865,283.97549 294.784012,284.23167 C294.769374,284.48785 294.609223,284.712977 294.372013,284.810825 C292.903077,285.625414 291.340664,286.480065 289.671419,287.374777 C289.58859,287.416953 289.497271,287.439783 289.404339,287.441547 L289.364278,287.441547 Z M19.7478218,285.478522 C19.3941573,285.479158 19.1013431,285.203914 19.0801238,284.850887 C19.0801238,283.809282 19,282.740968 19,281.686009 C19,280.93819 19,280.19037 19,279.455905 C19.0033045,279.277523 19.0793047,279.108226 19.2104033,278.987212 C19.3415018,278.866198 19.5163294,278.803963 19.6944059,278.814917 C19.8715395,278.82186 20.0386414,278.898958 20.1588799,279.029216 C20.2791183,279.159474 20.3426228,279.332199 20.335396,279.509321 C20.335396,280.230432 20.335396,280.964898 20.335396,281.686009 C20.335396,282.71426 20.335396,283.755866 20.4155198,284.770763 C20.4264696,284.947926 20.3664265,285.122157 20.2486569,285.25496 C20.1308872,285.387764 19.9650849,285.468209 19.7878836,285.478522 L19.7478218,285.478522 Z M298.71205,282.273581 C298.412593,282.270525 298.151801,282.068459 298.074058,281.779255 C297.996314,281.490051 298.120639,281.184459 298.378201,281.031667 C300.100862,280.043477 301.649921,279.148765 302.985317,278.360884 C303.137381,278.267897 303.320312,278.23957 303.493378,278.282209 C303.666445,278.324848 303.815278,278.434915 303.90674,278.587901 C304.092723,278.90589 303.992143,279.314126 303.679723,279.509321 C302.344327,280.310556 300.781913,281.218622 299.045899,282.180104 C298.955853,282.232077 298.855634,282.263965 298.752112,282.273581 L298.71205,282.273581 Z M20.2152104,274.83545 L20.1217327,274.83545 C19.7550186,274.780367 19.4997717,274.442018 19.5475124,274.074277 C19.7878836,272.324914 20.0950247,270.535489 20.4956435,268.732711 C20.5817127,268.374836 20.9365561,268.150103 21.2968811,268.225262 C21.4708289,268.263508 21.6222874,268.369665 21.7175817,268.520129 C21.8128759,268.670593 21.8441072,268.852893 21.8043316,269.026497 C21.4170668,270.749152 21.0965717,272.498515 20.8695544,274.22117 C20.8421008,274.563848 20.5589387,274.829673 20.2152104,274.83545 L20.2152104,274.83545 Z M22.5387994,264.43275 C22.4726587,264.445711 22.4046308,264.445711 22.33849,264.43275 C22.1678793,264.380519 22.0252713,264.262175 21.9424799,264.104119 C21.8596886,263.946063 21.8436022,263.761446 21.8978094,263.591453 C22.4186138,261.90886 23.032896,260.199559 23.7139479,258.516965 C23.875142,258.213125 24.2407794,258.08145 24.5586814,258.212757 C24.8765834,258.344064 25.0427221,258.695385 24.9425123,259.024414 C24.2881682,260.666946 23.68724,262.336185 23.1664356,263.992071 C23.0778609,264.261719 22.8225029,264.441012 22.5387994,264.43275 L22.5387994,264.43275 Z M26.5449875,254.550853 C26.4178393,254.588299 26.2819894,254.583615 26.1577226,254.537499 C25.9981184,254.459826 25.8760106,254.321799 25.8183786,254.153915 C25.7607467,253.986031 25.7723344,253.802109 25.8505816,253.642786 C26.6384652,252.05367 27.5064726,250.464554 28.4278959,248.9155 C28.5145195,248.761154 28.6599741,248.648483 28.8310742,248.603192 C29.0021742,248.557901 29.1843237,248.583854 29.3359652,248.67513 C29.6531811,248.865909 29.7599333,249.275124 29.5763365,249.59655 C28.6682672,251.105542 27.8269677,252.66795 27.052438,254.243713 C26.9278421,254.424039 26.7240719,254.533379 26.5049256,254.537499 L26.5449875,254.550853 Z M31.9800493,245.363359 C31.8035584,245.368717 31.6316545,245.306641 31.4993067,245.189758 C31.3543144,245.090034 31.2556008,244.936114 31.2254489,244.76274 C31.1952969,244.589367 31.2362484,244.411157 31.3390592,244.268338 C32.3539602,242.799407 33.4489849,241.34383 34.5707176,239.955023 C34.8039896,239.672862 35.2209684,239.631164 35.5054948,239.861545 C35.7918759,240.090868 35.8395821,240.508296 35.6123264,240.79632 C34.5039478,242.131711 33.4356309,243.587288 32.4340839,245.029511 C32.3294447,245.210814 32.147241,245.333924 31.9399874,245.363359 L31.9800493,245.363359 Z M38.6570294,237.083931 C38.386983,237.093519 38.1388177,236.936126 38.0323742,236.687759 C37.9259307,236.439392 37.9831048,236.15114 38.1762868,235.962202 C39.4048511,234.626811 40.7001853,233.39825 42.0355813,232.196398 C42.1586562,232.070786 42.327112,232 42.5029699,232 C42.6788278,232 42.8472836,232.070786 42.9703585,232.196398 C43.0967622,232.321769 43.1678625,232.492429 43.1678625,232.670462 C43.1678625,232.848495 43.0967622,233.019155 42.9703585,233.144526 C41.6349625,234.319671 40.3930442,235.561585 39.1911878,236.843561 C39.0584449,237.000071 38.8622038,237.088379 38.6570294,237.083931 L38.6570294,237.083931 Z" id="Shape" fill="#D1D3D4"></path>
                <path d="M46.7518779,229.999867 C46.5200421,230.000959 46.3008545,229.904965 46.1589155,229.740177 C45.9020132,229.437406 45.9629394,229.005332 46.295753,228.76976 C47.1167779,228.223045 47.9378029,227.676331 48.774032,227.143285 C48.9961425,226.988504 49.2951231,226.956505 49.5514508,227.060078 C49.8077785,227.163651 49.9796332,227.385899 49.9983129,227.637975 C50.0169926,227.89005 49.8794497,228.130826 49.6406694,228.264049 C48.8196445,228.783428 48.0138237,229.316474 47.2232071,229.863188 C47.0874726,229.954764 46.9215543,230.002878 46.7518779,229.999867 Z" id="Path" fill="#D1D3D4"></path>
                <path d="M346.608782,149.999147 C346.448674,150.003764 346.294096,149.943118 346.183822,149.832421 C346.066253,149.722663 346,149.572434 346,149.415605 C346,149.258775 346.066253,149.108547 346.183822,148.998789 C346.183822,148.998789 346.796264,148.379519 347.858664,147.260071 C347.995388,147.068971 348.23588,146.970592 348.475459,147.007757 C348.715037,147.044921 348.910358,147.210906 348.976401,147.43346 C349.042443,147.656014 348.96726,147.894873 348.783576,148.046066 C347.708678,149.236969 347.083737,149.820512 347.083737,149.820512 C346.960263,149.9431 346.786845,150.008324 346.608782,149.999147 Z" id="Path" fill="#D1D3D4"></path>
                <path d="M351.94732,143.99678 C351.784585,143.996078 351.627156,143.939574 351.501976,143.836937 C351.375033,143.714173 351.303498,143.546142 351.303498,143.370729 C351.303498,143.195315 351.375033,143.027284 351.501976,142.90452 C352.541114,141.679058 353.701709,140.240473 354.943276,138.761926 C355.175027,138.476268 355.596874,138.428683 355.887947,138.655364 C356.030129,138.763102 356.121908,138.923195 356.142261,139.098974 C356.162614,139.274754 356.109798,139.451158 355.99591,139.587781 C354.754342,141.132929 353.580251,142.531554 352.527618,143.757015 C352.387556,143.928451 352.169347,144.018609 351.94732,143.99678 Z M358.694969,135.60503 C358.549989,135.599206 358.409634,135.553028 358.29011,135.471827 C357.994703,135.242246 357.940625,134.821162 358.168652,134.52609 C359.20779,133.194067 360.287414,131.72884 361.380533,130.223654 C361.596677,129.922035 362.019621,129.85047 362.325204,130.063811 C362.630787,130.277151 362.703292,130.694608 362.487148,130.996227 C361.380533,132.514734 360.300909,133.96664 359.234781,135.338625 C359.125916,135.503643 358.947389,135.611327 358.74895,135.63167 L358.694969,135.60503 Z M365.037759,126.853633 C364.784851,126.861383 364.549636,126.726007 364.431907,126.504939 C364.314178,126.283872 364.334578,126.015877 364.484452,125.814655 C365.469608,124.362749 366.46826,122.870882 367.439922,121.325735 C367.641563,121.018838 368.053193,120.924625 368.371097,121.112611 C368.68367,121.311555 368.77421,121.722633 368.573527,122.031707 C367.642351,123.510254 366.643699,125.028761 365.604561,126.560588 C365.488545,126.731092 365.299315,126.839225 365.09174,126.853633 L365.037759,126.853633 Z M370.813746,117.74259 C370.694447,117.7449 370.577102,117.71247 370.476364,117.649349 C370.320384,117.562944 370.206519,117.417857 370.160749,117.247189 C370.114978,117.076521 370.141206,116.894831 370.233448,116.743573 C371.151129,115.171785 372.028323,113.586676 372.824545,112.054849 C372.99597,111.727482 373.403808,111.599263 373.735478,111.768464 C374.067147,111.937665 374.197052,112.340213 374.025627,112.66758 C373.215909,114.226048 372.325219,115.811156 371.394044,117.409585 C371.284427,117.598947 371.087824,117.72334 370.867727,117.74259 L370.813746,117.74259 Z M375.820501,108.19198 C375.727017,108.211003 375.630584,108.211003 375.5371,108.19198 C375.374354,108.119649 375.248143,107.985454 375.187147,107.819892 C375.126151,107.65433 375.135552,107.471462 375.213213,107.312844 C375.982445,105.647814 376.697696,103.996105 377.318479,102.397676 C377.381922,102.230882 377.510424,102.096131 377.675265,102.02354 C377.840105,101.95095 378.02754,101.946574 378.195674,102.011389 C378.542328,102.147584 378.715912,102.531604 378.587037,102.877205 C377.939263,104.502274 377.237508,106.180624 376.441285,107.858974 C376.320272,108.056163 376.107791,108.180999 375.874483,108.19198 L375.820501,108.19198 Z M379.747633,98.175191 L379.545203,98.175191 C379.191046,98.0605874 378.993628,97.6885868 379.099859,97.3359858 C379.639671,95.5910346 380.098511,93.8594036 380.449388,92.1943739 C380.530107,91.8392689 380.884669,91.6138692 381.245611,91.6882048 C381.606473,91.7680578 381.838896,92.1151109 381.771928,92.4740989 C381.394059,94.1790893 380.935219,95.950681 380.422398,97.8021941 C380.304256,98.0330042 380.063596,98.1775927 379.801614,98.175191 L379.747633,98.175191 Z M382.014843,87.6788132 L381.947366,87.6788132 C381.579531,87.6436464 381.308792,87.3229736 381.340078,86.9595203 C381.340078,86.4000703 381.44804,85.8539405 381.475031,85.2944905 C381.475031,84.0557084 381.596489,82.8302465 381.636975,81.6447453 C381.636824,81.4669245 381.710186,81.2967413 381.840099,81.1735424 C381.970012,81.0503434 382.145227,80.9847956 382.325235,80.9920537 C382.69477,81.0063682 382.986789,81.3063632 382.986504,81.6713858 C382.986504,82.8835275 382.892037,84.1089894 382.824561,85.374412 C382.824561,85.9471822 382.743589,86.5066322 382.689608,87.0794024 C382.648989,87.4180477 382.360307,87.6744916 382.014843,87.6788132 L382.014843,87.6788132 Z M382.325235,76.9427013 C381.95778,76.9427738 381.657819,76.6526256 381.65047,76.2900096 C381.65047,74.4784572 381.515517,72.6935453 381.380564,70.9619144 C381.36571,70.7865227 381.42325,70.6126436 381.540132,70.4797225 C381.657014,70.3468015 381.823329,70.2661058 382.001348,70.2559418 C382.180436,70.2412312 382.358071,70.2976398 382.494871,70.4126622 C382.631672,70.5276846 382.716336,70.6918173 382.730094,70.8686727 C382.865047,72.6136239 382.959514,74.4251763 383,76.2633691 C383.000284,76.6283917 382.708265,76.9283868 382.33873,76.9427013 L382.325235,76.9427013 Z M381.44804,66.2865108 C381.111489,66.2841083 380.82606,66.041824 380.773276,65.7137406 C380.516865,63.9288287 380.179482,62.1705573 379.788119,60.4922073 C379.706133,60.1243791 379.941773,59.7605951 380.314435,59.6796729 C380.687098,59.5987507 381.055663,59.8313339 381.137649,60.199162 C381.529012,61.9041525 381.866395,63.7023846 382.136301,65.5272573 C382.185123,65.889647 381.934634,66.2251868 381.569498,66.2865108 L381.44804,66.2865108 Z M379.005392,55.8434971 C378.712823,55.8470703 378.451224,55.6641744 378.357617,55.3905561 C377.806599,53.7139681 377.162345,52.0686417 376.42779,50.462068 C376.32654,50.2455397 376.350016,49.9921441 376.489375,49.7973328 C376.628734,49.6025214 376.862803,49.4958909 377.103411,49.5176078 C377.344019,49.5393247 377.554612,49.6860897 377.655862,49.902618 C378.412049,51.5566352 379.074344,53.2509277 379.639671,54.9776287 C379.756131,55.3232042 379.569769,55.6970273 379.221316,55.8168037 C379.1491,55.8246015 379.076063,55.8200959 379.005392,55.8034835 L379.005392,55.8434971 Z M374.497962,46.1063684 C374.264392,46.1080355 374.045896,45.9926817 373.917664,45.7999847 C372.987103,44.2996194 371.949859,42.866315 370.813746,41.510868 C370.580926,41.2270601 370.623065,40.8111343 370.908213,40.5784514 C371.043192,40.4630439 371.219723,40.4064272 371.39765,40.4214802 C371.575577,40.4365333 371.739772,40.5219762 371.852884,40.6583728 C373.024695,42.0489179 374.097872,43.5176341 375.064765,45.0540513 C375.163682,45.2030946 375.196569,45.3855736 375.155791,45.5591434 C375.115014,45.7327132 375.004119,45.8822842 374.84884,45.9731478 C374.743289,46.0366338 374.621539,46.0689875 374.497962,46.0663894 L374.497962,46.1063684 Z M367.561379,37.8877633 C367.399035,37.8849394 367.242297,37.8286828 367.116035,37.7279204 C365.787514,36.5580062 364.370937,35.4893171 362.878511,34.5310633 C362.661706,34.4089941 362.530881,34.1787667 362.53839,33.9325172 C362.5459,33.6862677 362.690519,33.4642239 362.91437,33.355247 C363.138221,33.24627 363.404736,33.2681626 363.607257,33.4121633 C365.160387,34.4070111 366.635533,35.5157161 368.02022,36.7289026 C368.279037,36.9923951 368.279037,37.4111469 368.02022,37.6746395 C367.89406,37.7861033 367.730699,37.8477544 367.561379,37.8478026 L367.561379,37.8877633 Z M358.479044,32.0668192 C358.385487,32.0851242 358.2892,32.0851242 358.195643,32.0668192 C356.570416,31.3364328 354.897813,30.7134493 353.188888,30.2019859 C352.947818,30.1329824 352.762356,29.9422794 352.702365,29.7017128 C352.642374,29.4611463 352.716968,29.207264 352.898047,29.0357009 C353.079126,28.8641379 353.339181,28.8009586 353.580251,28.8699621 C355.34949,29.3932748 357.08084,30.0341089 358.762446,30.7880764 C358.925192,30.8604075 359.051403,30.994602 359.112399,31.160164 C359.173394,31.325726 359.163993,31.5085943 359.086333,31.6672121 C358.971486,31.8930019 358.734934,32.0330919 358.479044,32.0268585 L358.479044,32.0668192 Z M348.087665,28.9365633 L347.966208,28.9365633 C346.202763,28.6338226 344.422812,28.4336737 342.635565,28.3371526 C342.456489,28.3268666 342.288931,28.2466246 342.169915,28.1141559 C342.050899,27.9816872 341.990221,27.8078955 342.001286,27.63118 C341.999786,27.4503185 342.077607,27.2776545 342.214708,27.1576512 C342.351809,27.0376479 342.534793,26.9820332 342.716537,27.0051288 C344.55318,27.1068242 346.38249,27.3113972 348.195628,27.6178597 C348.561297,27.6854598 348.806356,28.0276322 348.748935,28.3904335 C348.678455,28.6928669 348.401973,28.9045002 348.087665,28.8966026 L348.087665,28.9365633 Z" id="Shape" fill="#D1D3D4"></path>
                <path d="M334.723939,28.9973357 C334.485166,29.0211035 334.25434,28.884566 334.118411,28.6391553 C333.982482,28.3937447 333.9621,28.0767447 334.064944,27.8075662 C334.167788,27.5383877 334.378232,27.3579253 334.617005,27.3341575 C335.502492,27.1618883 336.394974,27.0508393 337.290343,27.0015218 C337.659453,26.9739654 337.97663,27.3239416 337.998777,27.7832156 C338.020924,28.2424896 337.739654,28.6371436 337.370543,28.6647 C335.753174,28.7811225 334.790772,28.9640721 334.790772,28.9640721 L334.723939,28.9973357 Z" id="Path" fill="#D1D3D4"></path>
                <path d="M7.10372567,62.4122196 L60.686409,62.4353675 C62.1093834,62.4382109 63.2627793,63.5916067 63.2656227,65.014581 L63.2778465,93.3051193 C63.2806884,94.7289636 62.1269326,95.8837169 60.7030874,95.8843321 C60.7023448,95.8843324 60.7016023,95.8843324 60.7008607,95.8821054 L7.1181773,95.8589575 C5.69520297,95.8561141 4.54180709,94.7027183 4.5389636,93.279744 L4.52673986,64.9892056 C4.52389791,63.5653614 5.67765376,62.4106081 7.10149895,62.4099929 C7.10224151,62.4099926 7.10298407,62.4099926 7.10372567,62.4122196 Z" id="Rectangle" fill="#FFFFFF" transform="translate(33.902293, 79.147162) rotate(-39.260000) translate(-33.902293, -79.147162) "></path>
                <path d="M21.8776701,110 L21.4656721,110 C20.4216393,109.880837 19.4664023,109.350549 18.8076207,108.524402 L1.92899405,87.7320935 C1.24019903,86.9010388 0.912518863,85.8247499 1.02007744,84.7466921 C1.12763601,83.6686342 1.66134499,82.6798996 2.50047511,82.0041481 L42.5706005,48.9376711 C43.3939648,48.2424426 44.4602938,47.9117018 45.5283755,48.020265 C46.5964571,48.1288282 47.5760421,48.6675222 48.2455403,49.51449 L65.0710059,70.2933836 C65.759801,71.1244383 66.0874811,72.2007272 65.9799226,73.2787851 C65.872364,74.356843 65.338655,75.3455775 64.4995249,76.0213291 L64.4995249,76.0213291 L24.4293995,109.074392 C23.7120762,109.674342 22.8092593,110.001822 21.8776701,110 L21.8776701,110 Z M45.1223299,49.3669288 C44.4999872,49.3686084 43.8962318,49.581188 43.4078867,49.9705793 L3.33776132,83.0370563 C2.79233491,83.4975846 2.45247304,84.1594997 2.39415306,84.874828 C2.3276023,85.5984338 2.54202476,86.3198512 2.99221463,86.8869868 L19.8176802,107.652466 C20.2668309,108.218023 20.9235899,108.576082 21.6384455,108.645131 C22.3513396,108.713041 23.0622209,108.49634 23.6186938,108.041483 L63.6622387,74.9750065 C64.227667,74.5248433 64.587928,73.8623743 64.6605781,73.1392013 C64.7332283,72.4160282 64.5120492,71.6940513 64.0476561,71.1384903 L47.2221905,50.3998399 C46.7176632,49.7469122 45.9427002,49.3657128 45.1223299,49.3669288 L45.1223299,49.3669288 Z" id="Shape" fill="#D1D3D4"></path>
                <path d="M1.67139744,85 C1.30259184,85 1.00361583,84.7017653 1.00361583,84.3338742 C0.985056982,84.1584372 1.03846807,83.9829762 1.15168437,83.8474535 C1.26490067,83.7119308 1.42828274,83.6278851 1.60461928,83.6144582 L35.1673229,80.7101496 L44.7032443,48.4829813 C44.749614,48.3112991 44.8641806,48.1659124 45.0204688,48.0804184 C45.1767571,47.9949245 45.3612429,47.9767214 45.5312935,48.0300157 C45.8799699,48.1387427 46.0763445,48.5067742 45.9720294,48.8560118 L36.3292629,81.5228231 C36.2575344,81.786966 36.0282569,81.9784433 35.7549707,82.0024337 L1.7381756,85 L1.67139744,85 Z" id="Path" fill="#D1D3D4"></path>
                <path d="M37.6722236,78 C37.3009647,78 37,77.673865 37,77.271557 C37,76.8692491 37.3009647,76.543114 37.6722236,76.543114 L66.2551691,73.0028811 C66.620101,72.9681965 66.945735,73.2504905 66.994615,73.6439109 C67.0173426,73.8373627 66.9675402,74.032612 66.8563555,74.1859545 C66.7451707,74.339297 66.5818887,74.4379269 66.4030582,74.4597671 L37.7932238,78 L37.6722236,78 Z" id="Path" fill="#D1D3D4"></path>
                <path d="M22.6491381,109.990699 C22.5844545,110.0031 22.518019,110.0031 22.4533354,109.990699 C22.2868291,109.939782 22.1481712,109.822909 22.0693491,109.667041 C21.9905271,109.511173 21.9783486,109.329771 22.0356231,109.164685 L30.6639936,82.4831347 C30.7362789,82.2489234 30.9274726,82.0712378 31.1655538,82.0170103 C31.403635,81.9627829 31.6524335,82.040252 31.8182294,82.2202359 C31.9840252,82.4002198 32.0416301,82.6553746 31.9693447,82.8895859 L23.3409742,109.571136 C23.230919,109.85167 22.9475529,110.023517 22.6491381,109.990699 Z" id="Path" fill="#D1D3D4"></path>
                <path d="M360.365129,184.533005 L403.457301,184.519142 C404.600862,184.517442 405.528199,185.444183 405.528567,186.587744 C405.528567,186.588188 405.528567,186.588632 405.527235,186.589076 L405.519912,209.338271 C405.518211,210.481311 404.591686,211.407836 403.448646,211.409537 L360.356473,211.423399 C359.212913,211.425099 358.285575,210.498358 358.285208,209.354798 C358.285207,209.354354 358.285207,209.353909 358.28654,209.353466 L358.293862,186.604271 C358.295563,185.461231 359.222089,184.534705 360.365129,184.533005 Z" id="Rectangle" fill="#FFFFFF" transform="translate(381.906887, 197.971271) rotate(23.440000) translate(-381.906887, -197.971271) "></path>
                <path d="M397.010092,219 C396.54796,218.996496 396.091201,218.901404 395.666686,218.720319 L357.084058,202.125939 C356.248869,201.777321 355.590374,201.110109 355.257025,200.27472 C354.914325,199.442376 354.914325,198.51003 355.257025,197.677686 L363.841391,178.033456 C364.596575,176.325624 366.599513,175.540875 368.328368,176.275464 L406.92443,192.856526 C407.754543,193.214892 408.406958,193.885631 408.738029,194.721063 C409.087324,195.547494 409.087324,196.478348 408.738029,197.304779 L400.140228,216.922373 C399.784367,217.744458 399.11217,218.391677 398.272894,218.720319 C397.8735,218.891609 397.445043,218.986502 397.010092,219 L397.010092,219 Z M367.065566,177.327595 C366.241728,177.329738 365.497688,177.816252 365.171364,178.566181 L356.519827,198.277002 C356.080114,199.306817 356.559739,200.495531 357.594552,200.940626 L396.190614,217.535007 L396.190614,217.535007 C396.698639,217.74077 397.267808,217.74077 397.775833,217.535007 C398.286017,217.338069 398.693408,216.943809 398.904295,216.442921 L407.502095,196.785372 C407.710332,196.286478 407.710332,195.726046 407.502095,195.227152 C407.30787,194.715481 406.909318,194.305913 406.400502,194.095111 L367.831308,177.500731 C367.590937,177.390989 367.330164,177.332028 367.065566,177.327595 Z" id="Shape" fill="#D1D3D4"></path>
                <path d="M380.373626,201 C380.144978,201.004786 379.931018,200.885589 379.811955,200.686945 L365.101524,177.042006 C364.905802,176.722675 365.001599,176.302394 365.315494,176.103282 C365.62939,175.90417 366.042517,176.001627 366.23824,176.320957 L380.654462,199.571361 L407.200103,194.387977 C407.374243,194.347962 407.556893,194.381959 407.705823,194.48211 C407.854753,194.58226 407.95707,194.739891 407.989117,194.918559 C408.054711,195.289514 407.817208,195.645896 407.454192,195.721236 L380.467238,201 L380.373626,201 Z" id="Path" fill="#D1D3D4"></path>
                <path d="M397.347529,218.992349 C397.125579,218.992554 396.917703,218.8847 396.791496,218.703858 L384.108656,200.017538 C383.909247,199.716667 383.991972,199.312823 384.294,199.112727 C384.438859,199.014277 384.617836,198.978233 384.790006,199.012834 C384.962177,199.047436 385.112817,199.149725 385.207482,199.296311 L397.890322,218.035085 C398.091066,218.340028 398.008689,218.747999 397.704978,218.953009 C397.591302,218.99666 397.468105,219.010218 397.347529,218.992349 Z" id="Path" fill="#D1D3D4"></path>
                <path d="M355.67387,200.986795 C355.34383,200.991005 355.060434,200.755081 355.007651,200.432174 C354.980909,200.258777 355.024887,200.081962 355.129878,199.940747 C355.23487,199.799532 355.392245,199.705526 355.567275,199.679474 L378.218704,196.008412 C378.456721,195.970669 378.696975,196.061639 378.848964,196.247054 C379.000953,196.432469 379.041587,196.68416 378.955559,196.907317 C378.869531,197.130475 378.669911,197.291195 378.431894,197.328938 L355.780465,201 L355.67387,200.986795 Z" id="Path" fill="#D1D3D4"></path>
                <path d="M105.734896,25.6967072 L137.239473,25.6884136 C138.074721,25.6873973 138.752001,26.3643212 138.752221,27.199569 C138.752221,27.1998346 138.752221,27.2001001 138.751425,27.2003654 L138.747043,43.8355719 C138.746026,44.6705084 138.069231,45.3473034 137.234294,45.34832 L105.729717,45.3566136 C104.894469,45.3576298 104.217189,44.680706 104.216969,43.8454581 C104.216969,43.8451926 104.216969,43.8449271 104.217765,43.8446618 L104.222147,27.2094553 C104.223164,26.3745188 104.899959,25.6977238 105.734896,25.6967072 Z" id="Rectangle" fill="#FFFFFF" transform="translate(121.484595, 35.522514) rotate(18.340000) translate(-121.484595, -35.522514) "></path>
                <path d="M133.451439,51 C133.172028,50.9993593 132.89447,50.9540518 132.629029,50.8657503 L132.629029,50.8657503 L103.804885,41.1999353 C103.141272,40.9737294 102.592939,40.4911644 102.279447,39.857461 C101.966624,39.2234189 101.914175,38.4899201 102.133535,37.8169 L107.041466,22.8348867 C107.502158,21.4392428 108.986968,20.6788985 110.3709,21.1299443 L139.195045,30.7957593 C140.575626,31.2675298 141.321826,32.7779402 140.866394,34.1787946 L135.971728,49.160808 C135.611351,50.2597239 134.595494,51.0010493 133.451439,51 Z M133.040234,49.5903997 C133.363178,49.7246714 133.725406,49.7246714 134.04835,49.5903997 C134.362751,49.4301976 134.601343,49.1500909 134.711584,48.8117646 L139.632779,33.843176 C139.76545,33.5163354 139.76545,33.1497362 139.632779,32.8228956 C139.477585,32.5073758 139.206013,32.2662801 138.876693,32.1516584 L110.052548,22.4858433 C109.719183,22.376916 109.356779,22.4058722 109.044432,22.5663918 C108.737695,22.7262114 108.504551,23.0006929 108.394463,23.3316022 L103.486532,38.3136155 C103.360652,38.641778 103.360652,39.0057335 103.486532,39.333896 C103.64756,39.6470047 103.923957,39.8833295 104.255884,39.9917084 L133.040234,49.5903997 Z" id="Shape" fill="#D1D3D4"></path>
                <path d="M120.956622,37.9737261 C120.745507,37.9717088 120.547111,37.8747897 120.41879,37.7109875 L108.115893,22.0254903 C107.916551,21.7382517 107.980308,21.3490645 108.261452,21.1369649 C108.542597,20.9248654 108.944107,20.9630482 109.178111,21.2241374 L121.158309,36.5549374 L140.143763,31.3001645 C140.316747,31.2518613 140.50233,31.2733147 140.659,31.359726 C140.81567,31.4461373 140.930355,31.590296 140.977402,31.7599571 C141.071802,32.1079409 140.861924,32.4653256 140.506799,32.56131 L121.09108,38 L120.956622,37.9737261 Z" id="Path" fill="#D1D3D4"></path>
                <path d="M134.329139,50 C134.123039,50.0030096 133.927736,49.9114292 133.803227,49.7533176 L123.150141,37.0595532 C122.915545,36.7799905 122.960825,36.3703126 123.251278,36.1445119 C123.541731,35.9187113 123.967368,35.9622941 124.201965,36.2418568 L134.855051,48.9486004 C135.084535,49.2285446 135.036361,49.6342623 134.747171,49.8571521 C134.628035,49.9478757 134.481042,49.9980789 134.329139,50 L134.329139,50 Z" id="Path" fill="#D1D3D4"></path>
                <path d="M102.765667,39.9947895 C102.522985,40.0258589 102.283202,39.9164407 102.136641,39.7077517 C101.99008,39.4990628 101.959007,39.2228078 102.055128,38.9830495 C102.151248,38.7432912 102.359959,38.5764545 102.602641,38.5453852 L119.149795,34.0232436 C119.324559,33.9748507 119.510192,34.0026804 119.665688,34.1005853 C119.821183,34.1984901 119.933746,34.3584135 119.978511,34.5450292 C120.023575,34.7296405 119.99713,34.9258317 119.905132,35.0894148 C119.813135,35.2529978 119.663321,35.3702172 119.489432,35.4146718 L102.942279,39.9513074 L102.765667,39.9947895 Z" id="Path" fill="#D1D3D4"></path>
            </g>
        </g>
    </g>
</svg>