<?xml version="1.0" encoding="UTF-8"?>
<svg width="184px" height="140px" viewBox="0 0 184 140" version="1.1" xmlns="http://www.w3.org/2000/svg" xmlns:xlink="http://www.w3.org/1999/xlink">
    <title>HTML_Flatline</title>
    <g id="Page-1" stroke="none" stroke-width="1" fill="none" fill-rule="evenodd">
        <g id="About-view-" transform="translate(-547.000000, -800.000000)" fill-rule="nonzero">
            <g id="HTML_Flatline" transform="translate(547.989594, 800.000000)">
                <path d="M181.716249,108 L4.30456214,108 C4.14210397,108 4.01040561,107.776142 4.01040561,107.5 C4.0135355,107.226092 4.14341822,107.00532 4.30456214,107 L181.716249,107 C181.877393,107.00532 182.007276,107.226092 182.010406,107.5 C182.010406,107.776142 181.878707,108 181.716249,108 Z" id="Path" fill="#D1D3D4"></path>
                <rect id="Rectangle" fill="#FFFFFF" x="25.0104056" y="11" width="132" height="85" rx="7.105"></rect>
                <path d="M152.599178,96 L29.4156896,96 C26.9827184,96 25.0104056,94.022048 25.0104056,91.5821206 L25.0104056,15.4237699 C25.0104056,12.9828878 26.9817686,11.0032502 29.4156896,11 L152.599178,11 C155.034052,11.003245 157.0071,12.9819346 157.010371,15.4237699 L157.010371,91.5585586 C157.015021,92.7348741 156.552345,93.8646225 155.724584,94.6980662 C154.896823,95.53151 153.772149,96 152.599178,96 Z M29.4156896,11.5890506 C27.3061648,11.5923003 25.5977768,13.3082112 25.5977768,15.4237699 L25.5977768,91.5585586 C25.5977768,93.6731623 27.3071146,95.3873874 29.4156896,95.3873874 L152.599178,95.3873874 C154.708705,95.3873874 156.419724,93.6741148 156.422964,91.5585586 L156.422964,15.4237699 C156.41973,13.307258 154.709656,11.5922943 152.599178,11.5890506 L29.4156896,11.5890506 Z" id="Shape" fill="#231F20"></path>
                <path d="M156.71672,82 L25.3040914,82 C25.1418932,82 25.0104056,81.7761424 25.0104056,81.5 C25.0104056,81.2238576 25.1418932,81 25.3040914,81 L156.71672,81 C156.877606,81.0053201 157.007281,81.2260915 157.010406,81.5 C157.010406,81.7761424 156.878918,82 156.71672,82 Z" id="Path" fill="#231F20"></path>
                <polygon id="Path" fill="#FFFFFF" points="107.010406 112 73.0104056 112 79.2765361 96 100.73833 96"></polygon>
                <path d="M108.706083,111.998297 L74.3132188,111.998297 C74.2137196,111.998989 74.1203161,111.951159 74.0637413,111.870545 C74.0071666,111.789931 73.9947476,111.686974 74.0305707,111.59555 L80.3691053,95.1954508 C80.4135844,95.0792844 80.5257062,95.0017523 80.6517534,95 L102.361535,95 C102.488134,95 102.601139,95.0781959 102.644183,95.1954508 L108.976704,111.607395 C109.021639,111.692819 109.021639,111.794418 108.976704,111.879842 C108.914658,111.964344 108.811348,112.009564 108.706083,111.998297 L108.706083,111.998297 Z M74.7462117,111.406022 L108.267077,111.406022 L102.157066,95.6159662 L80.8622361,95.6159662 L74.7462117,111.406022 Z" id="Shape" fill="#231F20"></path>
                <rect id="Rectangle" fill="#FFFFFF" x="68.0104056" y="111" width="46" height="4" rx="2"></rect>
                <path d="M111.694011,114.999985 L69.3267999,114.999985 C68.7130064,115.001545 68.123806,114.762792 67.6892244,114.336405 C67.2546429,113.910017 67.0104056,113.331046 67.0104056,112.72726 L67.0104056,112.27862 C67.0104056,111.020173 68.0474907,110 69.3267999,110 L111.694011,110 C112.308357,110 112.897541,110.240068 113.331949,110.667392 C113.766358,111.094717 114.010406,111.674292 114.010406,112.27862 L114.010406,112.72726 C114.010406,113.331046 113.766168,113.910017 113.331587,114.336405 C112.897005,114.762792 112.307805,115.001545 111.694011,114.999985 L111.694011,114.999985 Z M69.3267999,110.572607 C68.380285,110.575845 67.6138,111.329831 67.6105078,112.260911 L67.6105078,112.709551 C67.6138139,113.639669 68.3812565,114.391952 69.3267999,114.391952 L111.694011,114.391952 C112.639555,114.391952 113.406997,113.639669 113.410303,112.709551 L113.410303,112.260911 C113.410303,111.813145 113.22948,111.383718 112.907613,111.067099 C112.585746,110.750481 112.1492,110.572607 111.694011,110.572607 L69.3267999,110.572607 Z" id="Shape" fill="#231F20"></path>
                <rect id="Rectangle" fill="#F99E3B" x="29.0104056" y="15" width="123" height="62"></rect>
                <polygon id="Path" fill="#FFFFFF" points="43.0104056 47.0668297 43.0104056 44.9331703 52.4125368 39 54.0104056 41.6870416 46.9526378 46 54.0104056 50.3357783 52.4125368 53"></polygon>
                <polygon id="Path" fill="#FFFFFF" points="57.0161083 37 60.4376969 37 60.4376969 44.0449871 67.588817 44.0449871 67.588817 37 71.0104056 37 71.0104056 55 67.588817 55 67.588817 47.6195373 60.4319942 47.6195373 60.4319942 55 57.0104056 55"></polygon>
                <polygon id="Path" fill="#FFFFFF" points="79.7470827 40.4715526 74.0104056 40.4715526 74.0104056 37 89.0104056 37 89.0104056 40.4715526 83.2737285 40.4715526 83.2737285 55 79.7470827 55"></polygon>
                <polygon id="Path" fill="#FFFFFF" points="91.0104056 37 95.1464844 37 100.971611 49.5514139 101.019358 49.5514139 106.892232 37 111.010406 37 111.010406 55 107.429385 55 107.429385 43.2005141 107.387606 43.2005141 101.723626 55 100.273312 55 94.6391731 43.2005141 94.5914262 43.2005141 94.5914262 55 91.0104056 55"></polygon>
                <polygon id="Path" fill="#FFFFFF" points="114.010406 37 117.562453 37 117.562453 51.529563 126.010406 51.529563 126.010406 55 114.010406 55"></polygon>
                <polygon id="Path" fill="#FFFFFF" points="128.010406 50.3357783 135.070383 46 128.010406 41.6870416 129.607379 39 139.010406 44.9331703 139.010406 47.0668297 129.607379 53"></polygon>
                <polygon id="Path" fill="#231F20" points="77.0104056 103 102.010406 97.7699605 101.03577 95 79.8403727 95"></polygon>
                <path d="M77.3087508,103 C77.2208279,103.000092 77.1375259,102.961353 77.0819012,102.894505 C77.0121839,102.813156 76.9917259,102.701574 77.0281736,102.601465 L79.8876734,95.1934066 C79.9304018,95.077378 80.0425789,95 80.1682506,95 L101.718969,95 C101.844093,95.001734 101.955393,95.0784552 101.999547,95.1934066 L102.990522,97.7545786 C103.022146,97.8353295 103.01581,97.925673 102.97321,98.0014063 C102.93061,98.0771396 102.8561,98.130522 102.769642,98.1472526 L77.3505389,102.994139 L77.3087508,103 Z M80.3891306,95.6095238 L77.7803594,102.343589 L102.321912,97.6549449 L101.527938,95.603663 L80.3891306,95.6095238 Z" id="Shape" fill="#231F20"></path>
                <path d="M162.52571,131.153018 C162.52571,131.153018 164.884159,130.249429 165.007978,126.106558 C165.131796,121.963688 160.491547,117.61623 157.514005,115.490807 C154.536463,113.365383 148.976419,113.581336 147.048387,115.701076 C145.120355,117.820817 143.198218,121.543149 148.150962,126.959001 C153.103705,132.374853 159.607129,132.795391 162.52571,131.153018 Z" id="Path" fill="#FFFFFF"></path>
                <path d="M158.310054,133.995413 C155.020992,133.995413 150.817966,132.53637 147.2944,128.478025 C143.331891,123.898593 142.953078,119.680856 146.169985,115.929032 C148.268492,113.47686 154.173171,113.33586 157.245769,115.659293 C158.562597,116.652423 165.140722,121.906203 165.008438,127.362286 C164.894193,131.794588 162.603273,132.947109 162.314654,133.069718 C161.079942,133.723877 159.700752,134.042688 158.310054,133.995413 L158.310054,133.995413 Z M151.605658,114.604859 C149.555255,114.604859 147.601058,115.181119 146.620954,116.32138 C143.614498,119.803465 144.01135,123.751462 147.745368,128.055025 C152.796214,133.897326 159.254082,134.185456 162.026034,132.517979 L162.068124,132.517979 C162.158318,132.481197 164.298915,131.53711 164.407147,127.356156 C164.503354,123.359115 160.420586,118.822596 156.884994,116.155858 C155.3219,115.101236 153.479509,114.559966 151.605658,114.604859 L151.605658,114.604859 Z" id="Shape" fill="#231F20"></path>
                <path d="M145.010406,124 C145.377067,120.532493 147.741242,117.669634 150.942163,116.817033 C156.520218,115.211285 158.010406,116.467691 158.010406,116.467691" id="Path" fill="#FFFFFF"></path>
                <path d="M145.286541,125 L145.286541,125 C145.123388,124.986383 145.000694,124.835605 145.011011,124.661405 C145.398933,120.914711 147.911609,117.810513 151.330227,116.85455 C157.176251,115.161574 158.829429,116.496789 158.895317,116.554287 C159.025985,116.663664 159.04878,116.865313 158.94623,117.004682 C158.84368,117.144051 158.654619,117.168363 158.523951,117.058985 C158.523951,117.058985 156.954629,115.889873 151.485961,117.474243 C148.311721,118.342303 145.964941,121.203275 145.58004,124.674182 C145.583304,124.759396 145.553829,124.842342 145.498429,124.903842 C145.44303,124.965342 145.366503,125 145.286541,125 Z" id="Path" fill="#231F20"></path>
                <polygon id="Path" fill="#FFFFFF" points="138.010406 137 45.0104056 137 55.878775 119 127.136142 119"></polygon>
                <path d="M137.719319,137.999882 L45.3014918,137.999882 C45.1980707,138.00292 45.1013281,137.947031 45.0496402,137.854258 C44.9973274,137.760474 44.9973274,137.644926 45.0496402,137.551141 L55.8499744,118.151651 C55.9001171,118.056539 55.9971619,117.99814 56.101826,118.000045 L126.918985,118.000045 C127.02298,118.000742 127.11884,118.058429 127.170837,118.151651 L137.971171,137.551141 C138.023484,137.644926 138.023484,137.760474 137.971171,137.854258 C137.916902,137.944274 137.821829,137.999199 137.719319,137.999882 Z M45.805195,137.39352 L137.221473,137.39352 L126.760846,118.600264 L56.2716794,118.600264 L45.805195,137.39352 Z" id="Shape" fill="#231F20"></path>
                <path d="M61.665669,126.000003 L55.2959454,126.000003 C55.1942168,125.999708 55.1001361,125.947221 55.048234,125.861802 C54.9977962,125.774198 54.9977962,125.667257 55.048234,125.579653 L56.3280766,123.155475 C56.377337,123.059759 56.4778662,122.999533 56.5875838,123.000003 L62.7272896,123.000003 C62.8275515,123.000169 62.9208598,123.050055 62.9750011,123.132443 C63.0222071,123.216767 63.0222071,123.318751 62.9750011,123.403075 L61.9251763,125.827253 C61.8787797,125.927856 61.7785411,125.994581 61.665669,126.000003 L61.665669,126.000003 Z M55.7677768,125.424183 L61.4946302,125.424183 L62.2967435,123.57582 L56.7763164,123.57582 L55.7677768,125.424183 Z" id="Shape" fill="#D1D3D4"></path>
                <path d="M70.9422899,125.999261 L64.3204942,125.999261 C64.2190074,125.998813 64.1235373,125.954118 64.0622627,125.878369 C64.0063857,125.800116 63.9949054,125.701225 64.0315208,125.613559 L65.0152602,123.189972 C65.0607347,123.077062 65.1753657,123.001703 65.3042336,123 L71.7046879,123 C71.8012248,123.000884 71.8919453,123.043355 71.9506228,123.115135 C72.0061237,123.188639 72.024125,123.281339 71.9998097,123.368431 L71.2497085,125.792018 C71.2143545,125.921686 71.0848416,126.008995 70.9422899,125.999261 L70.9422899,125.999261 Z M64.7508802,125.423587 L70.7148002,125.423587 L71.2865987,123.575674 L65.5009815,123.575674 L64.7508802,125.423587 Z" id="Shape" fill="#D1D3D4"></path>
                <path d="M80.2649684,126 L73.335599,126 C73.2354884,126.000491 73.1405759,125.960218 73.077762,125.890582 C73.0175825,125.8201 72.9962625,125.729107 73.0197487,125.642982 L73.6643412,123.218809 C73.7021995,123.090508 73.8316622,123.000821 73.9801915,123 L80.6903995,123 C80.7844868,123.000598 80.8735836,123.037894 80.9343045,123.102098 C80.9950254,123.166303 81.0213065,123.251005 81.0062498,123.333972 L80.5872647,125.758145 C80.5592607,125.897683 80.4236636,125.999431 80.2649684,126 Z M73.7159086,125.424173 L79.9942396,125.424173 L80.3100899,123.575813 L74.2315826,123.575813 L73.7159086,125.424173 Z" id="Shape" fill="#D1D3D4"></path>
                <path d="M89.6682463,126.000002 L83.3068348,126.000002 C83.2225637,126.00008 83.1418382,125.966852 83.0830074,125.907868 C83.0285061,125.845889 83.0028922,125.76451 83.012325,125.6833 L83.2950544,123.25912 C83.3073504,123.112353 83.4330392,122.999512 83.583674,123.000002 L89.7153679,123.000002 C89.7949642,123.000194 89.8712294,123.031259 89.927415,123.086375 C89.9846847,123.140297 90.0148354,123.21609 90.0098777,123.293669 L89.9627561,125.717849 C89.9595485,125.874602 89.8286268,126.000029 89.6682463,126.000002 Z M83.6366858,125.424183 L89.3796267,125.424183 L89.4149679,123.575818 L83.8487328,123.575818 L83.6366858,125.424183 Z" id="Shape" fill="#D1D3D4"></path>
                <path d="M98.7187654,125.999862 L92.3578975,125.999862 C92.280342,126.001409 92.2054146,125.972369 92.1500119,125.91929 C92.0946093,125.86621 92.0633967,125.793561 92.0634128,125.717726 L92.0104056,123.293659 C92.0108086,123.216989 92.0401741,123.143168 92.0928613,123.086375 C92.1503736,123.033233 92.2257953,123.002511 92.3048902,123.000004 L98.4360601,123.000004 C98.5878605,122.999264 98.7153664,123.111451 98.7305447,123.259112 L99.0073603,125.683178 C99.0196171,125.764182 98.9945005,125.84633 98.9387829,125.90747 C98.8830653,125.968611 98.8024835,126.002449 98.7187654,125.999862 L98.7187654,125.999862 Z M92.6464924,125.424074 L98.3889426,125.424074 L98.171024,123.575795 L92.6052646,123.575795 L92.6464924,125.424074 Z" id="Shape" fill="#D1D3D4"></path>
                <path d="M108.747881,125.999985 L101.786187,125.999985 C101.627948,126.001419 101.492931,125.898041 101.470333,125.758131 L101.012666,123.333976 C101.001794,123.250741 101.030468,123.167245 101.091722,123.103774 C101.152975,123.040303 101.241202,123.002666 101.334966,123.000004 L108.045265,123.000004 C108.192994,122.999333 108.321512,123.090218 108.354674,123.218815 L108.999275,125.642969 C109.025834,125.729027 109.004227,125.821246 108.941261,125.890567 C108.894382,125.94735 108.825387,125.986384 108.747881,125.999985 Z M102.063366,125.424162 L108.335336,125.424162 L107.826101,123.575816 L101.741065,123.575816 L102.063366,125.424162 Z" id="Shape" fill="#D1D3D4"></path>
                <path d="M116.705219,125.999966 L110.066054,125.999966 C109.92875,126.001946 109.807395,125.916694 109.77098,125.792675 L109.021,123.368518 C108.996688,123.281406 109.014687,123.188683 109.070179,123.115162 C109.130524,123.045293 109.220193,123.003298 109.316074,123 L115.721639,123 C115.849378,123.000768 115.962709,123.076922 116.004418,123.190017 L116.994145,125.614174 C117.025027,125.703165 117.01148,125.800452 116.957261,125.879046 C116.898574,125.954621 116.804988,125.99952 116.705219,125.999966 Z M110.299654,125.424157 L116.287197,125.424157 L115.537217,123.575809 L109.758685,123.575809 L110.299654,125.424157 Z" id="Shape" fill="#D1D3D4"></path>
                <path d="M126.736662,126 L120.366938,126 C120.249758,125.99893 120.143882,125.931517 120.095635,125.827255 L119.04581,123.403071 C118.998604,123.318746 118.998604,123.216762 119.04581,123.132438 C119.10141,123.051592 119.193805,123.002194 119.293522,123 L125.433227,123 C125.543957,123.001243 125.645401,123.060667 125.698633,123.15547 L126.972577,125.579655 C127.023015,125.667259 127.023015,125.7742 126.972577,125.861804 C126.921389,125.942339 126.833535,125.993803 126.736662,126 L126.736662,126 Z M120.561568,125.424184 L126.253034,125.424184 L125.279882,123.575816 L119.759455,123.575816 L120.561568,125.424184 Z" id="Shape" fill="#D1D3D4"></path>
                <path d="M66.7605527,129.999043 L60.2984819,129.999043 C60.1970382,129.997042 60.1030422,129.951984 60.0464792,129.878241 C59.9983811,129.803209 59.9983811,129.711669 60.0464792,129.636637 L61.216492,127.16282 C61.2625136,127.064754 61.3713831,127.000529 61.492495,127 L67.7085631,127 C67.8057095,127.001232 67.8966557,127.042009 67.9545658,127.110298 C68.0093281,127.179241 68.0248171,127.266403 67.9965662,127.346649 L67.0725561,129.815214 C67.0307877,129.933032 66.9009689,130.00952 66.7605527,129.999043 Z M60.760487,129.473817 L66.5565505,129.473817 L67.2825584,127.525226 L61.6784971,127.525226 L60.760487,129.473817 Z" id="Shape" fill="#D1D3D4"></path>
                <path d="M59.2883281,130 L53.3371509,130 C53.2210873,130.000524 53.113169,129.952665 53.0528169,129.873893 C52.9962685,129.79396 52.9962685,129.696384 53.0528169,129.616451 L54.6530223,127.14711 C54.7098353,127.057758 54.8245965,127.001022 54.9505812,127 L60.6967734,127 C60.8068263,127.001908 60.9084661,127.047212 60.9678826,127.12084 C61.0245799,127.198867 61.0245799,127.295001 60.9678826,127.373028 L59.5924994,129.842369 C59.5397478,129.938408 59.4202083,130.000352 59.2883281,130 L59.2883281,130 Z M53.859532,129.474595 L59.0701183,129.474595 L60.154555,127.525392 L55.1158916,127.525392 L53.859532,129.474595 Z" id="Shape" fill="#D1D3D4"></path>
                <path d="M76.1010204,130 L69.3291032,130 C69.2299855,129.999488 69.1367217,129.960706 69.0764658,129.894944 C69.01621,129.829183 68.9957353,129.743834 69.0210029,129.663748 L69.8761383,127.194396 C69.9129253,127.080229 70.0364557,127.000664 70.1779507,127 L76.6983576,127 C76.7912187,127.003544 76.8778847,127.039948 76.9366838,127.100109 C76.9954829,127.16027 77.0208558,127.2385 77.0064578,127.315236 L76.3776819,129.789842 C76.3507511,129.903084 76.2384905,129.988359 76.1010204,130 Z M69.7440953,129.474606 L75.8432223,129.474606 L76.3148043,127.525394 L70.4168856,127.525394 L69.7440953,129.474606 Z" id="Shape" fill="#D1D3D4"></path>
                <path d="M86.4302118,129.999767 L79.3376783,129.999767 C79.2406869,129.99985 79.1487929,129.965125 79.087431,129.905203 C79.0254723,129.847168 78.9989434,129.770211 79.014991,129.695063 L79.5154855,127.220653 C79.5411827,127.094159 79.6775437,127.000918 79.8381727,127.000003 L86.680459,127.000003 C86.770921,126.999671 86.8572277,127.030271 86.9175353,127.084062 C86.9821847,127.137256 87.0156674,127.209756 87.0097317,127.283696 L86.7726553,129.752851 C86.7620348,129.895891 86.6096739,130.005749 86.4302118,129.999767 Z M79.72622,129.474415 L86.1272809,129.474415 L86.3116736,127.525358 L80.0950054,127.525358 L79.72622,129.474415 Z" id="Shape" fill="#D1D3D4"></path>
                <path d="M94.7123626,130 L88.3084181,130 C88.2267387,130.000326 88.1488112,129.969724 88.0943587,129.915929 C88.0358405,129.867146 88.0052699,129.797687 88.0111133,129.726788 L88.1062508,127.257443 C88.1125229,127.115588 88.2429192,127.002676 88.4035556,127 L94.5696563,127 C94.729319,126.999887 94.8605746,127.111225 94.8669611,127.252189 L95.0096674,129.721534 C95.0156364,129.793998 94.9851854,129.865107 94.926422,129.915929 C94.8719694,129.969724 94.7940419,130.000326 94.7123626,130 L94.7123626,130 Z M88.617615,129.474599 L94.3972196,129.474599 L94.2901899,127.525393 L88.6949143,127.525393 L88.617615,129.474599 Z" id="Shape" fill="#D1D3D4"></path>
                <path d="M103.670043,129.999781 L96.6161338,129.999781 C96.4461294,130.000037 96.3053137,129.894101 96.2949056,129.75812 L96.0130114,127.288979 C96.0007332,127.215403 96.032292,127.141478 96.0982352,127.089346 C96.1579645,127.031598 96.2472115,126.998738 96.3407953,127.000037 L103.132477,127.000037 C103.29238,127.00095 103.428125,127.09419 103.453706,127.220684 L104.004382,129.689825 C104.023421,129.766702 103.996772,129.846302 103.93227,129.905218 C103.86833,129.968081 103.77116,130.003122 103.670043,129.999781 Z M96.9045836,129.474432 L103.276702,129.474432 L102.844028,127.525386 L96.6816906,127.525386 L96.9045836,129.474432 Z" id="Shape" fill="#D1D3D4"></path>
                <path d="M113.682453,129.999832 L106.948267,129.999832 C106.799681,129.999858 106.671601,129.912009 106.641883,129.789686 L106.016611,127.320472 C105.998074,127.242663 106.02154,127.161953 106.080685,127.100088 C106.13983,127.038223 106.22857,127.001568 106.322994,127 L112.800819,127 C112.939768,127 113.062044,127.077053 113.10095,127.189131 L113.995089,129.658345 C114.027116,129.737482 114.008198,129.824906 113.945068,129.889506 C113.885568,129.961424 113.786629,130.002989 113.682453,129.999832 Z M107.198376,129.474468 L113.23851,129.474468 L112.531952,127.525365 L106.673147,127.525365 L107.198376,129.474468 Z" id="Shape" fill="#D1D3D4"></path>
                <path d="M122.727977,130.000001 L116.274106,130.000001 C116.147099,129.997618 116.035039,129.926477 115.992722,129.821361 L115.028833,127.352015 C114.99492,127.271159 115.008343,127.18085 115.064754,127.110334 C115.122537,127.042023 115.213284,127.001234 115.310217,127.000001 L121.518624,127.000001 C121.638315,126.999758 121.745644,127.064644 121.788035,127.162873 L122.985413,129.63222 C123.025878,129.713583 123.016779,129.807377 122.961224,129.881567 C122.905669,129.955757 122.811175,130.000304 122.710016,130.000001 L122.727977,130.000001 Z M116.489634,129.474602 L122.272973,129.474602 L121.321057,127.525394 L115.729299,127.525394 L116.489634,129.474602 Z" id="Shape" fill="#D1D3D4"></path>
                <path d="M128.683764,130 L123.837879,130 C123.703316,129.999649 123.582055,129.937594 123.529878,129.842382 L122.051472,127.37303 C121.996717,127.294221 121.996717,127.19965 122.051472,127.120841 C122.118948,127.046915 122.228224,127.002048 122.345785,127 L127.006869,127 C127.134796,127.002949 127.250364,127.059402 127.308025,127.14711 L128.964387,129.616462 C129.025745,129.695814 129.025745,129.794554 128.964387,129.873905 C128.90542,129.950263 128.799369,129.997916 128.683764,130 Z M124.056902,129.474606 L128.122517,129.474606 L126.815223,127.525394 L122.893342,127.525394 L124.056902,129.474606 Z" id="Shape" fill="#D1D3D4"></path>
                <path d="M69.957861,122.998412 L64.2858213,122.998412 C64.1888747,122.999806 64.0980886,122.947981 64.0455799,122.861271 C63.9986808,122.769982 63.9986808,122.659575 64.0455799,122.568287 L64.9713881,120.193245 C65.0163318,120.076854 65.1226517,120.000628 65.2409271,120 L70.7196019,120 C70.8131049,120.000431 70.9005538,120.049273 70.9539837,120.130908 C71.0101081,120.209196 71.0255175,120.312239 70.9950005,120.405191 L70.2625574,122.780233 C70.2237167,122.921597 70.095587,123.013345 69.957861,122.998412 Z M64.7252872,122.375042 L69.7351983,122.375042 L70.2742765,120.623371 L65.3932753,120.623371 L64.7252872,122.375042 Z" id="Shape" fill="#D1D3D4"></path>
                <path d="M61.579856,122.999984 L56.3302611,122.999984 C56.2166449,123.000604 56.1110021,122.943792 56.0519226,122.850284 C55.9965666,122.755397 55.9965666,122.639567 56.0519226,122.544681 L57.3465206,120.168461 C57.3993821,120.063732 57.5104823,119.998044 57.6313321,120.000068 L62.6996833,120.000068 C62.8103559,119.997806 62.9139188,120.05245 62.9715489,120.143514 C63.0233579,120.234848 63.0233579,120.345309 62.9715489,120.436643 L61.8840865,122.812863 C61.8301698,122.927851 61.7108064,123.001261 61.579856,122.999984 L61.579856,122.999984 Z M56.8610463,122.376287 L61.3921393,122.376287 L62.201263,120.623747 L57.8190488,120.623747 L56.8610463,122.376287 Z" id="Shape" fill="#D1D3D4"></path>
                <path d="M77.2381071,122.999703 L71.3146752,122.999703 C71.2188138,122.997833 71.1288902,122.952011 71.0699053,122.874975 C71.0146672,122.795347 70.9967512,122.694923 71.0209513,122.600574 L71.6940686,120.22451 C71.7321439,120.091467 71.8518092,120 71.9877925,120 L77.7031699,120 C77.7948758,120.000621 77.8818598,120.041536 77.9418206,120.112255 C78.0008947,120.185207 78.0234907,120.281927 78.0030131,120.374183 L77.556308,122.750248 C77.5237555,122.901118 77.3895408,123.006337 77.2381071,122.999703 L77.2381071,122.999703 Z M71.730784,122.376064 L76.9994564,122.376064 L77.3421343,120.623639 L72.2264431,120.623639 L71.730784,122.376064 Z" id="Shape" fill="#D1D3D4"></path>
                <path d="M86.5114384,123.000002 L80.3318381,123.000002 C80.2389771,122.997117 80.151601,122.95635 80.0909378,122.8876 C80.0302747,122.81885 80.0018769,122.72841 80.0126438,122.638251 L80.4084447,120.261957 C80.4333554,120.111783 80.5655426,120.001087 80.721255,120.000002 L86.6901872,120.000002 C86.7794587,119.999724 86.8647705,120.035981 86.9254226,120.099978 C86.9860746,120.163975 87.0165236,120.249863 87.0093814,120.336801 L86.8242488,122.713095 C86.8141134,122.874532 86.6769878,123.0003 86.5114384,123.000002 Z M80.7084873,122.376297 L86.2113959,122.376297 L86.3454574,120.623702 L80.9957621,120.623702 L80.7084873,122.376297 Z" id="Shape" fill="#D1D3D4"></path>
                <path d="M94.6817582,123 L88.3391717,123 C88.2505371,122.999793 88.1656119,122.966145 88.1030464,122.906445 C88.0382256,122.846113 88.0046356,122.761699 88.0112199,122.675676 L88.0964874,120.299376 C88.1035322,120.132036 88.248318,119.999866 88.4244391,120 L94.5571365,120 C94.7295775,120.002712 94.8715852,120.129646 94.8850883,120.293139 L95.0097099,122.669439 C95.0155219,122.754194 94.9847275,122.837536 94.9244425,122.900208 C94.8609491,122.963148 94.773473,122.999118 94.6817582,123 L94.6817582,123 Z M88.6736824,122.376299 L94.3406884,122.376299 L94.2423029,120.623701 L88.7392728,120.623701 L88.6736824,122.376299 Z" id="Shape" fill="#D1D3D4"></path>
                <path d="M102.692871,123 L96.5452153,123 C96.3805216,123.000302 96.244105,122.874535 96.2340219,122.7131 L96.011741,120.336835 C96.0035154,120.249879 96.0335642,120.16362 96.0943025,120.099833 C96.1553522,120.03629 96.2403269,120.000204 96.3292852,120.000042 L102.261011,120.000042 C102.416291,119.997555 102.550622,120.105729 102.578555,120.255756 L103.004064,122.63202 C103.023533,122.723319 102.997594,122.818267 102.934205,122.887734 C102.875029,122.958872 102.786408,123.000097 102.692871,123 Z M96.8373559,122.376307 L102.311818,122.376307 L102.000625,120.623734 L96.672233,120.623734 L96.8373559,122.376307 Z" id="Shape" fill="#D1D3D4"></path>
                <path d="M110.707681,122.999994 L104.816896,122.999994 C104.673109,122.99768 104.549705,122.894435 104.518706,122.750515 L104.019693,120.380467 C103.996684,120.289182 104.016978,120.192121 104.074462,120.118514 C104.132422,120.044778 104.21942,120.00134 104.311798,120.000006 L110.00176,120.000006 C110.135323,119.999183 110.253798,120.087721 110.293865,120.218305 L110.999786,122.594591 C111.02405,122.690954 111.006285,122.793367 110.951101,122.875255 C110.893024,122.953023 110.803231,122.999037 110.707681,122.999994 L110.707681,122.999994 Z M105.060317,122.376297 L110.293865,122.376297 L109.776596,120.623709 L104.701271,120.623709 L105.060317,122.376297 Z" id="Shape" fill="#D1D3D4"></path>
                <path d="M120.677891,123 L114.216738,123 C114.075139,122.997178 113.950203,122.912727 113.903025,122.787942 L113.028634,120.411642 C112.994228,120.317388 113.00905,120.213516 113.068682,120.130977 C113.133104,120.049885 113.234277,120.001463 113.342347,120 L119.583233,120 C119.715847,120.001159 119.835669,120.074178 119.890272,120.18711 L120.98493,122.56341 C121.028308,122.660009 121.015713,122.770639 120.951556,122.856549 C120.891579,122.943954 120.788982,122.997735 120.677891,123 Z M114.457029,122.376299 L120.170611,122.376299 L119.342942,120.623701 L113.789554,120.623701 L114.457029,122.376299 Z" id="Shape" fill="#D1D3D4"></path>
                <path d="M123.713074,122.997945 L120.237811,122.997945 C120.130505,122.997919 120.032744,122.927621 119.986455,122.817199 L119.035675,120.442562 C118.996672,120.346441 119.003141,120.234303 119.052853,120.14484 C119.102564,120.055378 119.188709,120.00084 119.281567,120.000022 L122.636617,120.000022 C122.739876,119.998626 122.835013,120.063735 122.882508,120.168326 L123.975359,122.542963 C124.022088,122.637786 124.022088,122.753539 123.975359,122.848362 C123.921768,122.953254 123.818797,123.011979 123.713074,122.997945 L123.713074,122.997945 Z M120.434524,122.374681 L123.286863,122.374681 L122.494546,120.623309 L119.729635,120.623309 L120.434524,122.374681 Z" id="Shape" fill="#D1D3D4"></path>
                <path d="M58.40431,133.999987 L51.30005,133.999987 C51.1971651,134.000462 51.1015005,133.957017 51.0480012,133.885508 C50.9978737,133.812946 50.9978737,133.724368 51.0480012,133.651806 L52.6423566,131.128775 C52.6952606,131.05025 52.7960803,131.00103 52.9061286,131 L59.7290317,131 C59.8281344,131.001817 59.9199613,131.042733 59.975219,131.109697 C60.0221345,131.179543 60.0221345,131.264015 59.975219,131.33386 L58.6798052,133.856892 C58.6309811,133.944826 58.5228918,134.000964 58.40431,133.999987 Z M51.7807013,133.523031 L58.228462,133.523031 L59.2952733,131.476943 L53.0702534,131.476943 L51.7807013,133.523031 Z" id="Shape" fill="#D1D3D4"></path>
                <path d="M67.7672369,133.999994 L60.3141468,133.999994 C60.213047,133.999326 60.118843,133.960088 60.0622287,133.895066 C60.0063883,133.830234 59.9949156,133.748303 60.031507,133.675672 L61.2603759,131.152634 C61.3063766,131.06009 61.4213748,130.999314 61.5491601,131.000006 L68.7011772,131.000006 C68.7976509,131.000744 68.888312,131.035931 68.946951,131.095401 C69.0079071,131.154432 69.0263916,131.233348 68.9961058,131.305256 L68.0560211,133.828294 C68.018448,133.928368 67.9014959,133.997903 67.7672369,133.999994 Z M60.762684,133.523049 L67.5214631,133.523049 L68.2833618,131.476957 L61.7642122,131.476957 L60.762684,133.523049 Z" id="Shape" fill="#D1D3D4"></path>
                <path d="M100.713539,133.999985 L72.3024869,133.999985 C72.2124211,134.00036 72.1272689,133.966863 72.072127,133.90936 C72.016982,133.85098 71.9974457,133.775611 72.0189671,133.704274 L72.7868333,131.181245 C72.8215244,131.074974 72.9401564,131.000686 73.0762598,131.000003 L100.347326,131.000003 C100.496314,130.999379 100.621551,131.090184 100.636752,131.209861 L101.008872,133.732891 C101.017487,133.800915 100.989524,133.868653 100.932085,133.918898 C100.877746,133.970772 100.797679,134.000477 100.713539,133.999985 Z M72.6805134,133.523036 L100.382766,133.523036 L100.081526,131.47695 L73.3066197,131.47695 L72.6805134,133.523036 Z" id="Shape" fill="#D1D3D4"></path>
                <path d="M110.689455,134 L102.860411,134 C102.702981,133.999162 102.569336,133.914512 102.544151,133.799673 L102.0149,131.276629 C101.999172,131.208405 102.025172,131.138538 102.085897,131.08585 C102.14714,131.032502 102.236503,131.001222 102.33116,131 L109.843944,131 C109.992666,131.00068 110.122297,131.074968 110.160204,131.181239 L110.999261,133.704284 C111.025854,133.775567 111.004219,133.851952 110.941172,133.909371 C110.880918,133.966874 110.787871,134.000372 110.689455,134 L110.689455,134 Z M103.137945,133.523044 L110.276381,133.523044 L109.592227,131.472177 L102.711962,131.472177 L103.137945,133.523044 Z" id="Shape" fill="#D1D3D4"></path>
                <path d="M121.716782,133.999994 L114.257108,133.999994 C114.120446,133.999994 114.000184,133.930042 113.961919,133.828294 L113.021004,131.305256 C112.996683,131.233101 113.014688,131.156299 113.070202,131.095401 C113.130571,131.037528 113.220274,131.002744 113.316193,131.000006 L120.474528,131.000006 C120.602426,130.999314 120.717526,131.06009 120.763567,131.152634 L121.993521,133.675672 C122.025334,133.749316 122.011728,133.830214 121.956623,133.895066 C121.903161,133.957983 121.813865,133.99705 121.716782,133.999994 L121.716782,133.999994 Z M114.490799,133.523049 L121.255549,133.523049 L120.265435,131.472187 L113.728228,131.472187 L114.490799,133.523049 Z" id="Shape" fill="#D1D3D4"></path>
                <path d="M130.732812,134 L123.63108,134 C123.514759,133.999114 123.409659,133.943275 123.361765,133.856916 L122.032752,131.333863 C121.994703,131.259993 122.00575,131.175394 122.062025,131.109698 C122.114633,131.042858 122.204625,131.001732 122.302067,131 L129.122774,131 C129.230582,131.00272 129.328576,131.051707 129.38038,131.128776 L130.972854,133.651828 C131.022923,133.724391 131.022923,133.81297 130.972854,133.885533 C130.920163,133.952975 130.830796,133.99559 130.732812,134 L130.732812,134 Z M123.824285,133.523052 L130.264438,133.523052 L128.958843,131.472178 L122.764587,131.472178 L123.824285,133.523052 Z" id="Shape" fill="#D1D3D4"></path>
                <rect id="Rectangle" fill="#231F20" x="45.0104056" y="137" width="93" height="2"></rect>
                <path d="M137.717566,140 L45.3032452,140 C45.1415144,140 45.0104056,139.867278 45.0104056,139.703557 L45.0104056,137.296443 C45.0104056,137.132722 45.1415144,137 45.3032452,137 L137.717566,137 C137.877988,137.003154 138.00729,137.134046 138.010406,137.296443 L138.010406,139.703557 C138.010406,139.867278 137.879297,140 137.717566,140 Z M45.5960848,139.407115 L137.424726,139.407115 L137.424726,137.592885 L45.5960848,137.592885 L45.5960848,139.407115 Z" id="Shape" fill="#231F20"></path>
                <path d="M153.010406,116 C153.010406,116 151.786212,113.954747 150.010406,114.000765" id="Path" fill="#FFFFFF"></path>
                <path d="M153.732715,117 C153.637862,117.000976 153.549359,116.947754 153.499031,116.859458 C153.499031,116.859458 152.15813,114.610995 150.322041,114.610995 L150.288658,114.610995 C150.135015,114.610995 150.010462,114.474219 150.010462,114.305498 C150.008967,114.225042 150.037029,114.147312 150.08832,114.089838 C150.139612,114.032363 150.209813,114 150.283094,114 L150.322041,114 C152.464145,114 153.905196,116.443981 153.966399,116.52952 C154.049137,116.671292 154.01181,116.859852 153.88294,116.951107 C153.837795,116.981978 153.785888,116.998867 153.732715,117 Z" id="Path" fill="#231F20"></path>
                <rect id="Rectangle" fill="#FFFFFF" x="0.0104056097" y="63" width="58" height="40"></rect>
                <path d="M57.6963792,103.999472 L0.306656501,103.999472 C0.143041652,103.999472 0.0104056097,103.868357 0.0104056097,103.706618 L0.0104056097,63.2928534 C0.0104056097,63.1311149 0.143041652,63 0.306656501,63 L57.7141542,63 C57.8777691,63 58.0104056,63.1311149 58.0104056,63.2928534 L58.0104056,103.706618 C58.0104056,103.78743 57.9769124,103.864711 57.9174481,103.920166 C57.8579839,103.975621 57.7779816,104.004321 57.6963792,103.999472 Z M0.585132339,103.413765 L57.4001283,103.413765 L57.4001283,63.5857067 L0.585132339,63.5857067 L0.585132339,103.413765 Z" id="Shape" fill="#231F20"></path>
                <path d="M57.6963792,66.999099 L0.306656501,66.999099 C0.143041652,66.999099 0.0104056097,66.7754431 0.0104056097,66.4995495 C0.0104056097,66.2236559 0.143041652,66 0.306656501,66 L57.7141542,66 C57.8777691,66 58.0104056,66.2236559 58.0104056,66.4995495 C58.0104056,66.6373987 57.9769124,66.7692236 57.9174481,66.8638187 C57.8579839,66.9584138 57.7779816,67.0073702 57.6963792,66.999099 Z" id="Path" fill="#231F20"></path>
                <path d="M11.6986363,71 L4.3221749,71 C4.14998948,71 4.01040561,70.7761424 4.01040561,70.5 C4.01040561,70.2238576 4.14998948,70 4.3221749,70 L11.6986363,70 C11.8708217,70 12.0104056,70.2238576 12.0104056,70.5 C12.0104056,70.7761424 11.8708217,71 11.6986363,71 Z" id="Path" fill="#D1D3D4"></path>
                <path d="M28.7260839,71 L15.2947273,71 C15.1389711,70.9946799 15.0134309,70.7739085 15.0104056,70.5 C15.0104056,70.2238576 15.1377008,70 15.2947273,70 L28.7260839,70 C28.8831105,70 29.0104056,70.2238576 29.0104056,70.5 C29.0104056,70.6326082 28.9804504,70.7597852 28.9271297,70.8535534 C28.8738091,70.9473216 28.8014907,71 28.7260839,71 Z" id="Path" fill="#F99E3B"></path>
                <path d="M32.7260839,75 L19.2947273,75 C19.1377008,75 19.0104056,74.7761424 19.0104056,74.5 C19.0134309,74.2260915 19.1389711,74.0053201 19.2947273,74 L32.7260839,74 C32.8831105,74 33.0104056,74.2238576 33.0104056,74.5 C33.0104056,74.7761424 32.8831105,75 32.7260839,75 Z" id="Path" fill="#F99E3B"></path>
                <path d="M13.6988791,75 L6.32193209,75 C6.14988077,75 6.01040561,74.7761424 6.01040561,74.5 C6.01372032,74.2260915 6.15127262,74.0053201 6.32193209,74 L13.6988791,74 C13.8709305,74 14.0104056,74.2238576 14.0104056,74.5 C14.0104056,74.7761424 13.8709305,75 13.6988791,75 Z" id="Path" fill="#D1D3D4"></path>
                <path d="M13.6840498,78 L7.34342178,78 C7.15950203,78 7.01040561,77.7761424 7.01040561,77.5 C7.01394897,77.2260915 7.16098989,77.0053201 7.34342178,77 L13.6773894,77 C13.8613092,77 14.0104056,77.2238576 14.0104056,77.5 C14.0104056,77.7722838 13.8653633,77.9945543 13.6840498,78 Z" id="Path" fill="#D1D3D4"></path>
                <path d="M36.7159993,78 L19.3048119,78 C19.1422158,78 19.0104056,77.7761424 19.0104056,77.5 C19.0135382,77.2260915 19.1435312,77.0053201 19.3048119,77 L36.7159993,77 C36.8772801,77.0053201 37.0072731,77.2260915 37.0104056,77.5 C37.0104056,77.7761424 36.8785954,78 36.7159993,78 Z" id="Path" fill="#F99E3B"></path>
                <path d="M16.6988791,81 L9.32193209,81 C9.14988077,81 9.01040561,80.7761424 9.01040561,80.5 C9.01040561,80.2238576 9.14988077,80 9.32193209,80 L16.6988791,80 C16.8695386,80.0053201 17.0070909,80.2260915 17.0104056,80.5 C17.0104056,80.7761424 16.8709305,81 16.6988791,81 Z" id="Path" fill="#D1D3D4"></path>
                <path d="M39.7061179,81 L18.3146933,81 C18.1466398,81 18.0104056,80.7761424 18.0104056,80.5 C18.0104056,80.2238576 18.1466398,80 18.3146933,80 L39.7061179,80 C39.8741714,80 40.0104056,80.2238576 40.0104056,80.5 C40.0104056,80.7761424 39.8741714,81 39.7061179,81 Z" id="Path" fill="#F99E3B"></path>
                <path d="M14.6988791,86 L7.32193209,86 C7.14988077,86 7.01040561,85.7761424 7.01040561,85.5 C7.01040561,85.2238576 7.14988077,85 7.32193209,85 L14.6988791,85 C14.8709305,85 15.0104056,85.2238576 15.0104056,85.5 C15.0104056,85.7761424 14.8709305,86 14.6988791,86 Z" id="Path" fill="#D1D3D4"></path>
                <path d="M28.7116008,86 L17.3092104,86 C17.1441851,86 17.0104056,85.7761424 17.0104056,85.5 C17.0104056,85.2238576 17.1441851,85 17.3092104,85 L28.7116008,85 C28.8766262,85 29.0104056,85.2238576 29.0104056,85.5 C29.0104056,85.7761424 28.8766262,86 28.7116008,86 Z" id="Path" fill="#F99E3B"></path>
                <path d="M43.7113029,86 L32.3095083,86 C32.1443184,86 32.0104056,85.7761424 32.0104056,85.5 C32.0104056,85.2238576 32.1443184,85 32.3095083,85 L43.7113029,85 C43.8764928,85 44.0104056,85.2238576 44.0104056,85.5 C44.0104056,85.7761424 43.8764928,86 43.7113029,86 Z" id="Path" fill="#F99E3B"></path>
                <path d="M10.71513,89 L8.3056812,89 C8.14260499,89 8.01040561,88.7761424 8.01040561,88.5 C8.01040561,88.2238576 8.14260499,88 8.3056812,88 L10.71513,88 C10.8782062,88 11.0104056,88.2238576 11.0104056,88.5 C11.0104056,88.7761424 10.8782062,89 10.71513,89 Z" id="Path" fill="#D1D3D4"></path>
                <path d="M28.71513,89 L14.3056812,89 C14.142605,89 14.0104056,88.7761424 14.0104056,88.5 C14.0104056,88.2238576 14.142605,88 14.3056812,88 L28.71513,88 C28.8782062,88 29.0104056,88.2238576 29.0104056,88.5 C29.0104056,88.7761424 28.8782062,89 28.71513,89 L28.71513,89 Z" id="Path" fill="#F99E3B"></path>
                <path d="M33.7543237,89 L30.2664876,89 C30.1250574,89 30.0104056,88.7761424 30.0104056,88.5 C30.0104056,88.2238576 30.1250574,88 30.2664876,88 L33.7543237,88 C33.8957538,88 34.0104056,88.2238576 34.0104056,88.5 C34.0104056,88.7761424 33.8957538,89 33.7543237,89 Z" id="Path" fill="#F99E3B"></path>
                <path d="M11.7405001,92 L8.28031114,92 C8.13245233,91.9946799 8.01327746,91.7739085 8.01040561,91.5 C8.01040561,91.2238576 8.13124643,91 8.28031114,91 L11.7405001,91 C11.8895648,91 12.0104056,91.2238576 12.0104056,91.5 C12.0075338,91.7739085 11.8883589,91.9946799 11.7405001,92 Z" id="Path" fill="#D1D3D4"></path>
                <path d="M31.7270723,92 L15.2937389,92 C15.1372583,92 15.0104056,91.7761424 15.0104056,91.5 C15.0104056,91.2238576 15.1372583,91 15.2937389,91 L31.7270723,91 C31.883553,91 32.0104056,91.2238576 32.0104056,91.5 C32.0073909,91.7739085 31.8822871,91.9946799 31.7270723,92 Z" id="Path" fill="#F99E3B"></path>
                <path d="M40.6988791,92 L33.3219321,92 C33.1498808,92 33.0104056,91.7761424 33.0104056,91.5 C33.0104056,91.2238576 33.1498808,91 33.3219321,91 L40.6988791,91 C40.8709305,91 41.0104056,91.2238576 41.0104056,91.5 C41.0070909,91.7739085 40.8695386,91.9946799 40.6988791,92 L40.6988791,92 Z" id="Path" fill="#F99E3B"></path>
                <path d="M8.73568033,97 L5.28513088,97 C5.13463173,96.9946799 5.01332874,96.7739085 5.01040561,96.5 C5.01040561,96.2238576 5.1334043,96 5.28513088,96 L8.73568033,96 C8.88740691,96 9.01040561,96.2238576 9.01040561,96.5 C9.01040561,96.7761424 8.88740691,97 8.73568033,97 L8.73568033,97 Z" id="Path" fill="#D1D3D4"></path>
                <path d="M29.7289137,97 L14.2918975,97 C14.1364338,97 14.0104056,96.7761424 14.0104056,96.5 C14.0104056,96.2238576 14.1364338,96 14.2918975,96 L29.7289137,96 C29.8843774,96 30.0104056,96.2238576 30.0104056,96.5 C30.0104056,96.7761424 29.8843774,97 29.7289137,97 Z" id="Path" fill="#F99E3B"></path>
                <path d="M12.6988791,100 L5.32193209,100 C5.14988077,100 5.01040561,99.7761424 5.01040561,99.5 C5.01372032,99.2260915 5.15127262,99.0053201 5.32193209,99 L12.6988791,99 C12.8709305,99 13.0104056,99.2238576 13.0104056,99.5 C13.0104056,99.7761424 12.8709305,100 12.6988791,100 Z" id="Path" fill="#D1D3D4"></path>
                <path d="M51.716288,81 L42.3045233,81 C42.1420866,81 42.0104056,80.7761424 42.0104056,80.5 C42.0104056,80.2238576 42.1420866,80 42.3045233,80 L51.716288,80 C51.8787247,80 52.0104056,80.2238576 52.0104056,80.5 C52.0104056,80.7761424 51.8787247,81 51.716288,81 Z" id="Path" fill="#F99E3B"></path>
                <path d="M37.887135,70.9900398 C35.2617668,70.9900398 33.3272849,70.9900398 33.2409241,70.9900398 C33.084296,70.930354 32.9843285,70.6642878 33.016386,70.392426 C33.0505758,70.139302 33.1897078,69.9716737 33.3387997,70.003977 C33.7821184,70.0537782 44.5829754,70.003977 48.7225363,70.003977 L48.7225363,70.003977 C48.8793006,70.0039228 49.0072703,70.2208816 49.0104056,70.4920283 C49.0104056,70.7687292 48.882449,70.9945745 48.7225363,71 L37.887135,70.9900398 Z" id="Path" fill="#F99E3B"></path>
                <path d="M38.7027133,97 L31.3180979,97 C31.1481641,97 31.0104056,96.7761424 31.0104056,96.5 C31.0104056,96.2238576 31.1481641,96 31.3180979,96 L38.7027133,96 C38.8726471,96 39.0104056,96.2238576 39.0104056,96.5 C39.0104056,96.7761424 38.8726471,97 38.7027133,97 Z" id="Path" fill="#F99E3B"></path>
                <path d="M21.7553036,100 L17.2655077,100 C17.1246187,100 17.0104056,99.7761424 17.0104056,99.5 C17.0104056,99.2238576 17.1246187,99 17.2655077,99 L21.7553036,99 C21.8961925,99 22.0104056,99.2238576 22.0104056,99.5 C22.0104056,99.7761424 21.8961925,100 21.7553036,100 Z" id="Path" fill="#D1D3D4"></path>
                <path d="M37.7141431,100 L25.3066681,100 C25.1430469,100 25.0104056,99.7761424 25.0104056,99.5 C25.0104056,99.2238576 25.1430469,99 25.3066681,99 L37.7141431,99 C37.8764407,99.0053201 38.0072533,99.2260915 38.0104056,99.5 C38.0104056,99.7761424 37.8777644,100 37.7141431,100 Z" id="Path" fill="#F99E3B"></path>
                <rect id="Rectangle" fill="#FFFFFF" x="146.010406" y="18" width="25" height="22"></rect>
                <path d="M170.717047,40 L146.303764,40 C146.141747,40 146.010406,39.86504 146.010406,39.6985583 L146.010406,17.3014417 C146.013527,17.1363068 146.143057,17.0032074 146.303764,17 L170.717047,17 C170.879065,17 171.010406,17.13496 171.010406,17.3014417 L171.010406,39.6985583 C171.010406,39.86504 170.879065,40 170.717047,40 Z M146.597122,39.3971166 L170.423689,39.3971166 L170.423689,17.6028834 L146.597122,17.6028834 L146.597122,39.3971166 Z" id="Shape" fill="#231F20"></path>
                <path d="M170.717047,22 L146.303764,22 C146.143057,21.9946799 146.013527,21.7739085 146.010406,21.5 C146.010406,21.2238576 146.141747,21 146.303764,21 L170.717047,21 C170.879065,21 171.010406,21.2238576 171.010406,21.5 C171.010406,21.7761424 170.879065,22 170.717047,22 Z" id="Path" fill="#231F20"></path>
                <polygon id="Path" fill="#F99E3B" points="150.010406 31.04 150.010406 29.9733333 154.283762 27 155.010406 28.3333333 151.79818 30.4933333 155.010406 32.6666667 154.283762 34"></polygon>
                <polygon id="Path" fill="#F99E3B" points="156.010406 34.4221106 161.898444 25 163.010406 25.6281407 157.135764 35"></polygon>
                <polygon id="Path" fill="#F99E3B" points="163.010406 32.6558935 166.218931 30.486692 163.010406 28.3307985 163.736212 27 168.010406 29.9676806 168.010406 31.0323194 163.736212 34"></polygon>
                <rect id="Rectangle" fill="#FFFFFF" x="15.0104056" y="0" width="36" height="24"></rect>
                <path d="M51.7137411,24 L15.3070701,24 C15.1432268,24 15.0104056,23.8695342 15.0104056,23.7085964 L15.0104056,0.291403594 C15.0135622,0.131767779 15.1445523,0.00310059589 15.3070701,0 L51.7137411,0 C51.8775844,0 52.0104056,0.130465833 52.0104056,0.291403594 L52.0104056,23.7085964 C52.0104056,23.7858814 51.97915,23.8600011 51.9235146,23.9146499 C51.8678792,23.9692986 51.7924214,24 51.7137411,24 Z M15.6037347,23.4171928 L51.4170766,23.4171928 L51.4170766,0.565322972 L15.6037347,0.565322972 L15.6037347,23.4171928 Z" id="Shape" fill="#231F20"></path>
                <path d="M51.7137411,3 L15.3070701,3 C15.1432268,3 15.0104056,2.77614237 15.0104056,2.5 C15.0104056,2.22385763 15.1432268,2 15.3070701,2 L51.7137411,2 C51.8775844,2 52.0104056,2.22385763 52.0104056,2.5 C52.0104056,2.77614237 51.8775844,3 51.7137411,3 L51.7137411,3 Z" id="Path" fill="#231F20"></path>
                <path d="M23.716288,5 L19.3045233,5 C19.1420866,5 19.0104056,4.77614237 19.0104056,4.5 C19.0104056,4.22385763 19.1420866,4 19.3045233,4 L23.716288,4 C23.8787247,4 24.0104056,4.22385763 24.0104056,4.5 C24.0072761,4.77390845 23.8774106,4.99467989 23.716288,5 Z" id="Path" fill="#F99E3B"></path>
                <path d="M34.6979056,5 L25.3229056,5 C25.1517128,4.99467989 25.0137307,4.77390845 25.0104056,4.5 C25.0104056,4.22385763 25.1503166,4 25.3229056,4 L34.6979056,4 C34.8704946,4 35.0104056,4.22385763 35.0104056,4.5 C35.0104056,4.77614237 34.8704946,5 34.6979056,5 Z" id="Path" fill="#F99E3B"></path>
                <path d="M36.6979056,8 L27.3229056,8 C27.1503166,8 27.0104056,7.77614237 27.0104056,7.5 C27.0137307,7.22609155 27.1517128,7.00532011 27.3229056,7 L36.6979056,7 C36.8704946,7 37.0104056,7.22385763 37.0104056,7.5 C37.0104056,7.77614237 36.8704946,8 36.6979056,8 L36.6979056,8 Z" id="Path" fill="#F99E3B"></path>
                <path d="M24.716288,8 L20.3045233,8 C20.1420866,8 20.0104056,7.77614237 20.0104056,7.5 C20.0104056,7.22385763 20.1420866,7 20.3045233,7 L24.716288,7 C24.8774106,7.00532011 25.0072761,7.22609155 25.0104056,7.5 C25.0104056,7.77614237 24.8787247,8 24.716288,8 Z" id="Path" fill="#F99E3B"></path>
                <path d="M24.7246913,11 L21.2961199,11 C21.1383243,11 21.0104056,10.7761424 21.0104056,10.5 C21.0104056,10.2238576 21.1383243,10 21.2961199,10 L24.7246913,10 C24.882487,10 25.0104056,10.2238576 25.0104056,10.5 C25.0104056,10.7761424 24.882487,11 24.7246913,11 Z" id="Path" fill="#F99E3B"></path>
                <path d="M38.7063002,11 L27.314511,11 C27.1479169,10.9946799 27.0136414,10.7739085 27.0104056,10.5 C27.0104056,10.2238576 27.1465582,10 27.314511,10 L38.7063002,10 C38.874253,10 39.0104056,10.2238576 39.0104056,10.5 C39.0071699,10.7739085 38.8728943,10.9946799 38.7063002,11 Z" id="Path" fill="#F99E3B"></path>
                <path d="M25.7159415,13 L21.3048697,13 C21.1422417,13 21.0104056,12.7761424 21.0104056,12.5 C21.0104056,12.2238576 21.1422417,12 21.3048697,12 L25.7159415,12 C25.8785696,12 26.0104056,12.2238576 26.0104056,12.5 C26.0104056,12.7761424 25.8785696,13 25.7159415,13 Z" id="Path" fill="#F99E3B"></path>
                <path d="M40.7094598,13 L27.3113514,13 C27.1451436,13 27.0104056,12.7761424 27.0104056,12.5 C27.0104056,12.2238576 27.1451436,12 27.3113514,12 L40.7094598,12 C40.874323,12.0053201 41.0072035,12.2260915 41.0104056,12.5 C41.0104056,12.7761424 40.8756676,13 40.7094598,13 Z" id="Path" fill="#F99E3B"></path>
                <path d="M24.716288,16 L20.3045233,16 C20.1420866,16 20.0104056,15.7761424 20.0104056,15.5 C20.0104056,15.2238576 20.1420866,15 20.3045233,15 L24.716288,15 C24.8787247,15 25.0104056,15.2238576 25.0104056,15.5 C25.0104056,15.7761424 24.8787247,16 24.716288,16 Z" id="Path" fill="#F99E3B"></path>
                <path d="M33.7043612,16 L26.31645,16 C26.1474263,16 26.0104056,15.7761424 26.0104056,15.5 C26.0104056,15.2238576 26.1474263,15 26.31645,15 L33.7043612,15 C33.8733849,15 34.0104056,15.2238576 34.0104056,15.5 C34.0104056,15.7761424 33.8733849,16 33.7043612,16 Z" id="Path" fill="#F99E3B"></path>
                <path d="M42.7043612,16 L35.31645,16 C35.1474263,16 35.0104056,15.7761424 35.0104056,15.5 C35.0104056,15.2238576 35.1474263,15 35.31645,15 L42.7043612,15 C42.8733849,15 43.0104056,15.2238576 43.0104056,15.5 C43.0104056,15.7761424 42.8733849,16 42.7043612,16 Z" id="Path" fill="#D1D3D4"></path>
                <path d="M22.731076,18 L21.2897352,18 C21.1354657,18 21.0104056,17.7761424 21.0104056,17.5 C21.0104056,17.2238576 21.1354657,17 21.2897352,17 L22.731076,17 C22.8853455,17 23.0104056,17.2238576 23.0104056,17.5 C23.0104056,17.7761424 22.8853455,18 22.731076,18 Z" id="Path" fill="#F99E3B"></path>
                <path d="M33.7066389,18 L24.3141723,18 C24.1477638,17.9946799 24.0136378,17.7739085 24.0104056,17.5 C24.0104056,17.2238576 24.1464066,17 24.3141723,17 L33.7066389,17 C33.8744046,17 34.0104056,17.2238576 34.0104056,17.5 C34.0104056,17.7761424 33.8744046,18 33.7066389,18 Z" id="Path" fill="#F99E3B"></path>
                <path d="M38.7279197,18 L36.2928915,18 C36.1368788,18 36.0104056,17.7761424 36.0104056,17.5 C36.0104056,17.2238576 36.1368788,17 36.2928915,17 L38.7279197,17 C38.8839324,17 39.0104056,17.2238576 39.0104056,17.5 C39.0073999,17.7739085 38.8826703,17.9946799 38.7279197,18 L38.7279197,18 Z" id="Path" fill="#D1D3D4"></path>
                <path d="M22.7139629,22 L20.3068483,22 C20.1431275,22 20.0104056,21.7761424 20.0104056,21.5 C20.0104056,21.2238576 20.1431275,21 20.3068483,21 L22.7139629,21 C22.8776837,21 23.0104056,21.2238576 23.0104056,21.5 C23.0104056,21.7761424 22.8776837,22 22.7139629,22 Z" id="Path" fill="#F99E3B"></path>
                <path d="M36.7001678,22 L25.3206435,22 C25.1493038,22 25.0104056,21.7761424 25.0104056,21.5 C25.0104056,21.2238576 25.1493038,21 25.3206435,21 L36.7001678,21 C36.8715074,21 37.0104056,21.2238576 37.0104056,21.5 C37.0104056,21.7761424 36.8715074,22 36.7001678,22 Z" id="Path" fill="#F99E3B"></path>
                <path d="M42.716288,22 L38.3045233,22 C38.1420866,22 38.0104056,21.7761424 38.0104056,21.5 C38.0104056,21.2238576 38.1420866,21 38.3045233,21 L42.716288,21 C42.8787247,21 43.0104056,21.2238576 43.0104056,21.5 C43.0104056,21.7761424 42.8787247,22 42.716288,22 Z" id="Path" fill="#D1D3D4"></path>
                <path d="M48.6962225,13 L42.3245887,13 C42.1510702,13 42.0104056,12.7761424 42.0104056,12.5 C42.0137486,12.2260915 42.1524739,12.0053201 42.3245887,12 L48.6962225,12 C48.869741,12 49.0104056,12.2238576 49.0104056,12.5 C49.0104056,12.6326082 48.9773043,12.7597852 48.9183835,12.8535534 C48.8594627,12.9473216 48.779549,13 48.6962225,13 Z" id="Path" fill="#D1D3D4"></path>
                <path d="M39.4653111,4.98010491 C36.3358117,4.98010491 36.2745691,4.98010491 36.2439478,4.98010491 C36.0822999,4.9116009 35.9824577,4.64861895 36.01735,4.38325213 C36.0510631,4.1330933 36.1982057,3.96796506 36.3541845,4.00524537 C36.6971434,4.00524537 42.7172958,4.00524537 46.7041924,4.00524537 L46.7041924,4.00524537 C46.7848367,4.00257156 46.8627483,4.0527428 46.9203575,4.14444502 C46.9779667,4.23614724 47.0104056,4.3616586 47.0104056,4.49267514 C47.0104056,4.76902369 46.8742952,4.99458141 46.7041924,5 L39.4653111,4.98010491 Z" id="Path" fill="#D1D3D4"></path>
            </g>
        </g>
    </g>
</svg>