<?xml version="1.0" encoding="utf-8"?>
<!-- Generator: Adobe Illustrator 24.0.3, SVG Export Plug-In . SVG Version: 6.00 Build 0)  -->
<svg version="1.1" id="Calque_1" xmlns="http://www.w3.org/2000/svg" xmlns:xlink="http://www.w3.org/1999/xlink" x="0px" y="0px"
	 viewBox="0 0 19 34" style="enable-background:new 0 0 19 34;" xml:space="preserve">
<style type="text/css">
	.st0{fill:#FFFFFF;}
</style>
<g id="Page-1_1_">
	<g id="Home-header-test-2_1_" transform="translate(-1401.000000, -712.000000)">
		
			<g id="left-arrow_1_" transform="translate(1410.500000, 728.882759) rotate(180.000000) translate(-1410.500000, -728.882759) translate(1401.000000, 712.382759)">
			<path id="Path_1_" class="st0" d="M6.4,16.4l12.1-12C18.8,4.1,19,3.6,19,3.2c0-0.5-0.2-0.9-0.5-1.2l-1.1-1
				c-0.3-0.3-0.8-0.5-1.3-0.5c-0.5,0-0.9,0.2-1.3,0.5L0.5,15.1C0.2,15.5,0,15.9,0,16.4c0,0.5,0.2,0.9,0.5,1.2l14.4,14.2
				c0.3,0.3,0.8,0.5,1.3,0.5c0.5,0,0.9-0.2,1.3-0.5l1.1-1c0.7-0.7,0.7-1.8,0-2.5L6.4,16.4z"/>
		</g>
	</g>
</g>
</svg>
