<?xml version="1.0" encoding="UTF-8"?>
<svg width="21px" height="17px" viewBox="0 0 21 17" version="1.1" xmlns="http://www.w3.org/2000/svg" xmlns:xlink="http://www.w3.org/1999/xlink">
    <title>mail</title>
    <g id="Page-1" stroke="none" stroke-width="1" fill="none" fill-rule="evenodd">
        <g id="Personnal-view-" transform="translate(-1139.000000, -750.000000)" fill="#000000" fill-rule="nonzero">
            <g id="mail" transform="translate(1139.000000, 751.136364)">
                <path d="M19.1542969,-0.136363636 L1.84570312,-0.136363636 C0.825931641,-0.136363636 0,0.65160303 0,1.61363636 L0,12.1136364 C0,13.0813864 0.832001953,13.8636364 1.84570312,13.8636364 L19.1542969,13.8636364 C20.1655371,13.8636364 21,13.0846919 21,12.1136364 L21,1.61363636 C21,0.653314141 20.1773496,-0.136363636 19.1542969,-0.136363636 Z M18.8958164,1.03030303 C18.5187187,1.38594192 12.0291855,7.50658636 11.8051172,7.71790859 C11.4564844,8.04846414 10.9930078,8.23046414 10.5,8.23046414 C10.0069922,8.23046414 9.54351563,8.04842525 9.19373438,7.7168197 C9.04304297,7.57468081 2.62512305,1.52162525 2.10418359,1.03030303 L18.8958164,1.03030303 Z M1.23046875,11.8761808 L1.23046875,1.85183081 L6.54765234,6.86674747 L1.23046875,11.8761808 Z M2.10496289,12.6969697 L7.42005469,7.6895197 L8.32481836,8.54285859 C8.9058457,9.09375859 9.67833398,9.39713081 10.5,9.39713081 C11.321666,9.39713081 12.0941543,9.09375859 12.6740332,8.54394747 L13.5799453,7.6895197 L18.8950371,12.6969697 L2.10496289,12.6969697 Z M19.7695312,11.8761808 L14.4523477,6.86674747 L19.7695312,1.85183081 L19.7695312,11.8761808 Z" id="Shape"></path>
            </g>
        </g>
    </g>
</svg>