<?xml version="1.0" encoding="UTF-8"?>
<svg width="21px" height="22px" viewBox="0 0 21 22" version="1.1" xmlns="http://www.w3.org/2000/svg" xmlns:xlink="http://www.w3.org/1999/xlink">
    <title>phone-call</title>
    <g id="Page-1" stroke="none" stroke-width="1" fill="none" fill-rule="evenodd">
        <g id="Personnal-view-" transform="translate(-1139.000000, -682.000000)" fill="#000000" fill-rule="nonzero">
            <g id="phone-call" transform="translate(1139.000000, 682.136364)">
                <path d="M16.8362654,12.7856794 C16.399733,12.3331704 15.873194,12.0912349 15.3151526,12.0912349 C14.7616115,12.0912349 14.2305721,12.3286901 13.7760384,12.7811991 L12.353933,14.1924894 C12.2369243,14.1297654 12.1199156,14.0715217 12.0074073,14.0132779 C11.8453953,13.9326328 11.6923839,13.8564679 11.5618742,13.7758227 C10.2297755,12.9335288 9.01918568,11.8358586 7.85809958,10.4156077 C7.29555786,9.70772239 6.91752983,9.11184425 6.64300947,8.50700554 C7.01203683,8.17098403 7.3540622,7.82152167 7.6870869,7.48550016 C7.81309624,7.36005213 7.93910558,7.23012382 8.06511493,7.10467579 C9.01018501,6.16381558 9.01018501,4.94517758 8.06511493,4.00431737 L6.83652382,2.78119909 C6.69701347,2.6423102 6.55300279,2.49894102 6.41799278,2.35557185 C6.14797276,2.07779407 5.86445173,1.79105572 5.57193004,1.52223851 C5.13539767,1.09213099 4.61335895,0.863636364 4.06431824,0.863636364 C3.51527752,0.863636364 2.98423814,1.09213099 2.53420477,1.52223851 C2.52970443,1.5267188 2.52970443,1.5267188 2.5252041,1.53119909 L0.995090629,3.06793744 C0.41904791,3.64141414 0.0905235474,4.34033887 0.0185182076,5.15127077 C-0.089489802,6.4595145 0.297538899,7.67815249 0.594560926,8.47564353 C1.32361499,10.4335288 2.41269576,12.248045 4.03731623,14.1924894 C6.00846241,16.5356794 8.38013829,18.3860378 11.0893392,19.6898012 C12.124416,20.1781525 13.5060184,20.7561095 15.0496329,20.8546758 C15.1441399,20.8591561 15.2431472,20.8636364 15.3331539,20.8636364 C16.372731,20.8636364 17.2457958,20.4917726 17.9298465,19.7525253 C17.9343468,19.7435647 17.9433475,19.7390844 17.9478478,19.7301238 C18.1818652,19.4478658 18.4518852,19.1924894 18.7354062,18.9191919 C18.9289206,18.7355002 19.1269353,18.5428478 19.3204496,18.3412349 C19.7659826,17.8797654 20,17.342131 20,16.7910557 C20,16.2355002 19.7614823,15.702346 19.3069486,15.2543174 L16.8362654,12.7856794 Z M18.4473849,17.5034213 C18.4428845,17.5034213 18.4428845,17.5079016 18.4473849,17.5034213 C18.2718718,17.6915934 18.0918585,17.8618442 17.8983441,18.0500163 C17.6058225,18.3277941 17.3088004,18.6190127 17.0297797,18.9460736 C16.575246,19.4299446 16.0397063,19.6584392 15.3376542,19.6584392 C15.2701492,19.6584392 15.1981439,19.6584392 15.1306389,19.6539589 C13.7940398,19.5688335 12.5519477,19.0491202 11.6203786,18.6055718 C9.07318969,17.3779733 6.83652382,15.6351417 4.97788599,13.4263604 C3.44327218,11.5849625 2.41719609,9.88245357 1.7376457,8.05449658 C1.31911466,6.93890518 1.16610331,6.06972955 1.23360832,5.24983708 C1.27861165,4.72564353 1.48112667,4.29105572 1.85465437,3.91919192 L3.38926818,2.39141414 C3.60978453,2.18532095 3.84380188,2.07331378 4.0733189,2.07331378 C4.35683993,2.07331378 4.58635695,2.24356468 4.73036763,2.38693385 C4.73486796,2.39141414 4.7393683,2.39589443 4.74386863,2.40037471 C5.01838899,2.65575106 5.27940835,2.92008798 5.5539287,3.20234604 C5.69343905,3.34571522 5.83744973,3.48908439 5.98146041,3.63693385 L7.21005152,4.86005213 C7.6870869,5.33496253 7.6870869,5.77403063 7.21005152,6.24894102 C7.07954184,6.37886934 6.9535325,6.50879765 6.82302282,6.63424568 C6.44499478,7.01955034 6.08496809,7.37797328 5.69343905,7.72743565 C5.68443838,7.73639622 5.67543772,7.74087651 5.67093738,7.74983708 C5.28390868,8.13514174 5.35591402,8.51148583 5.43692003,8.76686217 C5.44142036,8.78030303 5.44592069,8.79374389 5.45042103,8.80718475 C5.76994472,9.57779407 6.2199781,10.3036005 6.90402883,11.1682959 L6.90852916,11.1727761 C8.15062127,12.6960736 9.46021839,13.8833496 10.9048255,14.7928478 C11.0893392,14.9093353 11.2783532,15.0034213 11.4583666,15.093027 C11.6203786,15.1736722 11.7733899,15.2498371 11.9038996,15.3304822 C11.9219009,15.3394428 11.9399023,15.3528837 11.9579036,15.3618442 C12.110915,15.4380091 12.2549256,15.4738514 12.4034367,15.4738514 C12.7769644,15.4738514 13.0109817,15.2408765 13.0874874,15.1647116 L14.6266015,13.6324536 C14.7796129,13.4801238 15.0226309,13.2964321 15.3061519,13.2964321 C15.5851726,13.2964321 15.8146896,13.4711632 15.9542,13.623493 C15.9587003,13.6279733 15.9587003,13.6279733 15.9632006,13.6324536 L18.4428845,16.1010916 C18.9064189,16.5580808 18.9064189,17.0285109 18.4473849,17.5034213 Z" id="Shape"></path>
                <path d="M11.4669237,4.98902925 C12.5678191,5.17392814 13.5678691,5.69500683 14.3662283,6.49343386 C15.1645875,7.29186089 15.6814201,8.2919958 15.8705052,9.39298464 C15.916726,9.67033298 16.1562337,9.86363636 16.4293566,9.86363636 C16.4629718,9.86363636 16.492385,9.85943412 16.5260001,9.85523187 C16.83694,9.8048049 17.0428327,9.51064757 16.99241,9.19968126 C16.7655079,7.8675688 16.1352243,6.65311927 15.1729913,5.69080459 C14.2107583,4.72848991 12.9964119,4.09815278 11.6644126,3.87123141 C11.3534726,3.82080444 11.0635422,4.02671457 11.0089176,4.33347864 C10.954293,4.64024271 11.1559838,4.93860228 11.4669237,4.98902925 Z" id="Path"></path>
                <path d="M20.9908399,9.23854124 C20.5947324,7.14687678 19.4998733,5.24354226 17.8175288,3.72888869 C16.1351844,2.21423512 14.0211272,1.22850819 11.6978896,0.871883404 C11.3729924,0.819792144 11.0658978,1.02014315 11.0080394,1.31265561 C10.9546316,1.60917509 11.1727133,1.88565947 11.5020611,1.93775073 C13.5760625,2.25430532 15.4675874,3.13985674 16.9719059,4.4902225 C18.4762245,5.84459527 19.4553668,7.54757878 19.8069679,9.41485012 C19.855925,9.67931344 20.1096119,9.86363636 20.3989039,9.86363636 C20.4345091,9.86363636 20.4656636,9.85962934 20.5012688,9.85562232 C20.826166,9.8115451 21.0486983,9.5310537 20.9908399,9.23854124 Z" id="Path"></path>
            </g>
        </g>
    </g>
</svg>