<?xml version="1.0" encoding="UTF-8"?>
<svg width="21px" height="31px" viewBox="0 0 21 31" version="1.1" xmlns="http://www.w3.org/2000/svg" xmlns:xlink="http://www.w3.org/1999/xlink">
    <title>placeholder</title>
    <g id="Page-1" stroke="none" stroke-width="1" fill="none" fill-rule="evenodd">
        <g id="Personnal-view-" transform="translate(-1139.000000, -614.000000)" fill="#000000" fill-rule="nonzero">
            <g id="placeholder" transform="translate(1139.000000, 614.136364)">
                <path d="M10.5,0.863636364 C4.7103,0.863636364 0,5.43725355 0,11.0589489 C0,12.9583356 0.541858333,14.8119567 1.56735833,16.4200973 L9.90231667,29.4619977 C10.061975,29.7118395 10.3432583,29.8636364 10.645775,29.8636364 C10.6481083,29.8636364 10.6503833,29.8636364 10.6527167,29.8636364 C10.9578583,29.8613141 11.239725,29.7048161 11.3964667,29.4506129 L19.518975,16.2823473 C20.4878917,14.7081911 21,12.9019782 21,11.0589489 C21,5.43725355 16.2897,0.863636364 10.5,0.863636364 Z M18.0171833,15.4099684 L10.6325333,27.381984 L3.05474167,15.5248356 C2.20115,14.1863043 1.73833333,12.6420543 1.73833333,11.0589489 C1.73833333,6.37420277 5.67525,2.55152699 10.5,2.55152699 C15.32475,2.55152699 19.2558333,6.37420277 19.2558333,11.0589489 C19.2558333,12.5950993 18.823525,14.0998707 18.0171833,15.4099684 Z" id="Shape"></path>
                <path d="M10.5,5.86363636 C7.4673,5.86363636 5,8.10663636 5,10.8636364 C5,13.6030253 7.42715,15.8636364 10.5,15.8636364 C13.6107389,15.8636364 16,13.5729141 16,10.8636364 C16,8.10663636 13.5327,5.86363636 10.5,5.86363636 Z M10.5,14.2080808 C8.46762778,14.2080808 6.82111111,12.7062475 6.82111111,10.8636364 C6.82111111,9.02563636 8.4782,7.51919192 10.5,7.51919192 C12.5218,7.51919192 14.1727778,9.02563636 14.1727778,10.8636364 C14.1727778,12.6793586 12.5645778,14.2080808 10.5,14.2080808 Z" id="Shape"></path>
            </g>
        </g>
    </g>
</svg>