<?xml version="1.0" encoding="UTF-8"?>
<svg width="300px" height="263px" viewBox="0 0 300 263" version="1.1" xmlns="http://www.w3.org/2000/svg" xmlns:xlink="http://www.w3.org/1999/xlink">
    <title>Progress _Flatline</title>
    <g id="Page-1" stroke="none" stroke-width="1" fill="none" fill-rule="evenodd">
        <g id="Join-ossito-view-" transform="translate(-491.000000, -402.000000)" fill-rule="nonzero">
            <g id="Progress-_Flatline" transform="translate(491.000000, 402.340909)">
                <circle id="Oval" fill="#FFFFFF" cx="240.100671" cy="60.5628432" r="58.8926174"></circle>
                <path d="M240.604027,119.455461 C207.800537,119.455461 181.208054,92.8629777 181.208054,60.0594875 C181.208054,27.2559973 207.800537,0.663514338 240.604027,0.663514338 C273.407517,0.663514338 300,27.2559973 300,60.0594875 C299.964654,92.8483259 273.392865,119.420115 240.604027,119.455461 Z M240.604027,1.73236395 C217.012908,1.73236395 195.744722,15.9433114 186.716791,37.7386637 C177.688861,59.5340159 182.679082,84.6215516 199.360522,101.302992 C216.041963,117.984433 241.129498,122.974654 262.924851,113.946723 C284.720203,104.918793 298.93115,83.6506068 298.93115,60.0594875 C298.895806,27.8609581 272.802556,1.76770815 240.604027,1.73236395 Z" id="Shape" fill="#231F20"></path>
                <circle id="Oval" fill="#F99E3B" cx="240.604027" cy="60.0594875" r="45.3020134"></circle>
                <circle id="Oval" fill="#FFFFFF" cx="240.100671" cy="60.5628432" r="31.7114094"></circle>
                <circle id="Oval" fill="#F99E3B" cx="240.604027" cy="60.0594875" r="21.1409396"></circle>
                <path d="M0,183.160076 L0,197.216623 L98.6448742,261.401769 C98.6448742,261.401769 151.978264,221.671164 185.657451,173.478817 C219.336637,125.28647 233.180033,84.6893646 233.180033,84.6893646 L248.657718,84.6893646 L248.657718,79.8433861 L228.170347,73.1467358 L197.930646,77.639696 L197.930646,82.5712548 L216.484642,83.4805443 C216.484642,83.4805443 188.274451,146.970351 125.210094,176.463426 C62.1457367,205.956501 0,183.160076 0,183.160076 Z" id="Path" fill="#D1D3D4"></path>
                <path d="M99.1545714,261.401379 C99.0515957,261.405603 98.9500359,261.375461 98.8662383,261.315327 L0.234973249,197.134265 C0.0862473257,197.033586 0,196.864789 0,196.684997 L0,182.597254 C0.00254022992,182.424062 0.0854479267,182.261925 0.224294247,182.158683 C0.369500337,182.062833 0.550635405,182.039167 0.715528352,182.094502 C1.33491048,182.329833 63.3799137,204.557874 125.488991,175.505246 C184.05264,148.11063 212.800514,90.5616101 216.15372,83.5123901 L198.383861,82.6459457 C198.101548,82.6289485 197.881438,82.3943973 197.881947,82.1111035 L197.881947,77.1691617 C197.883874,76.9023993 198.078116,76.6761587 198.341145,76.6343195 L228.562721,72.152342 C228.643772,72.1359185 228.727287,72.1359185 228.808338,72.152342 L249.290664,78.8485662 C249.510512,78.9177958 249.66121,79.1204999 249.66443,79.3513179 L249.66443,84.1969881 C249.658614,84.4881876 249.421251,84.7211917 249.130479,84.7211334 L234.03037,84.7211334 C232.556668,88.8715088 218.246805,127.936382 186.583563,173.248212 C153.243718,220.956136 99.9982126,260.876757 99.4642624,261.283237 C99.3760937,261.354349 99.2676437,261.395554 99.1545714,261.401379 Z M1.05725643,196.364092 L99.1332134,260.224249 C103.458209,256.940318 153.766989,218.367499 185.707885,172.659886 C218.951619,125.091022 233.015865,84.4430155 233.154692,84.0365354 C233.228416,83.8227048 233.430781,83.6803807 233.656605,83.6835396 L248.607208,83.6835396 L248.607208,79.7577979 L228.605437,73.2220264 L199.003243,77.629126 L199.003243,81.597655 L217.050757,82.4747962 C217.225625,82.4880098 217.383986,82.5831855 217.477917,82.7315205 C217.552679,82.8869908 217.552679,83.068105 217.477917,83.2235753 C217.189584,83.8653859 188.463067,147.233488 125.958867,176.478659 C67.0214535,204.033729 8.18015095,185.731429 1.05725643,183.346033 L1.05725643,196.364092 Z" id="Shape" fill="#231F20"></path>
                <path d="M248.657718,79.064104 L231.631928,79.064104 C221.1137,102.81493 208.348269,125.500229 193.51082,146.808683 C155.816958,199.991442 99.5164931,242.274253 99.5164931,242.274253 L68.9576558,223.889957 L39.2426313,206.0089 L0,182.388773 C0,182.388773 64.5890559,187.881577 142.518897,138.735439 C187.68958,110.254235 214.168209,76.8584168 214.168209,76.8584168 L197.932825,76.8584168 L240.593432,57.0393533 L248.657718,79.064104 Z" id="Path" fill="#FFFFFF"></path>
                <path d="M100.042478,243.28086 C99.9446979,243.28283 99.8483632,243.256845 99.7648461,243.205855 L0.26588584,183.370141 C0.0486680475,183.243784 -0.0512688051,182.982822 0.0258429771,182.743323 C0.102954759,182.503825 0.336260325,182.350563 0.586230207,182.375197 C1.23759709,182.428689 65.8937684,187.275028 142.744382,138.843725 C183.321335,113.296133 209.012953,83.4371164 213.519131,78.0023689 L198.420233,78.0023689 C198.229486,78.0425014 198.031859,77.977631 197.901795,77.8321936 C197.771732,77.6867562 197.728992,77.4828474 197.789675,77.2972775 C197.850358,77.1117076 198.005245,76.9726693 198.195992,76.9325368 L240.844505,57.0871497 C240.979776,57.0234211 241.13636,57.0234211 241.271631,57.0871497 C241.410332,57.1439505 241.518825,57.2565312 241.570619,57.3974011 L249.632619,79.4466424 C249.691763,79.6105406 249.667504,79.7930302 249.567606,79.9357067 C249.467708,80.0783831 249.304698,80.1633558 249.130746,80.16343 L232.440805,80.16343 C230.871117,83.7794627 216.423586,116.591216 194.415928,147.627048 C157.117166,200.219998 100.928764,242.703034 100.362822,243.130967 C100.277706,243.218165 100.163856,243.271396 100.042478,243.28086 L100.042478,243.28086 Z M2.65779044,183.552012 L100.010443,242.103928 C104.399161,238.755353 157.672429,197.566814 193.54032,147.049338 C216.69054,114.408758 231.447737,79.8103853 231.597231,79.4573407 C231.684583,79.263629 231.876272,79.1383784 232.088426,79.1363911 L248.372598,79.1363911 L240.769758,58.3495517 L200.844172,76.9218384 L214.651014,76.9218384 C214.855178,76.9214291 215.041699,77.0377061 215.131531,77.2213914 C215.223715,77.4065039 215.198617,77.6286215 215.067462,77.7884025 C214.800508,78.1200505 188.030397,111.552306 143.310324,139.731686 C102.989646,165.150899 66.3208942,175.678047 42.6688018,180.032264 C22.3696471,183.776677 7.86872547,183.733884 2.65779044,183.552012 L2.65779044,183.552012 Z" id="Shape" fill="#231F20"></path>
                <path d="M114.561124,195.350671 C111.704536,196.54767 83.9838709,214.876709 70.0005017,224.153447 L40.2684564,206.401532 C49.8439082,202.126538 66.0847303,195.104859 71.7337119,194.54911 C79.8113277,193.747548 102.514242,189.205367 110.84863,185.079997 C119.183018,180.954627 146.154765,162.497338 151.50418,164.987522 C156.853594,167.477707 118.380606,193.747548 114.561124,195.350671 Z" id="Path" fill="#E6E7E8"></path>
                <path d="M127.852349,52.0057962 C127.852349,52.0057962 131.192685,55.9809203 130.847455,57.0902572 C130.502224,58.1995941 128.682768,58.0378158 128.682768,58.0378158" id="Path" fill="#FFFFFF"></path>
                <path d="M128.430521,58.0460647 L128.126448,58.0460647 C127.86405,58.0241191 127.666225,57.7521798 127.684592,57.4386713 C127.70296,57.1251628 127.930566,56.8888043 128.192964,56.9107499 C128.810612,56.9107499 129.779843,56.8199247 129.922377,56.3430925 C130.064912,55.8662603 128.582557,53.7999874 126.986175,51.9721307 C126.89623,51.8655436 126.845638,51.7204527 126.845638,51.5690939 C126.845638,51.4177352 126.89623,51.2726443 126.986175,51.1660572 C127.073752,51.0592649 127.19362,50.9990848 127.318755,50.9990848 C127.44389,50.9990848 127.563758,51.0592649 127.651334,51.1660572 C129.010159,52.7214384 131.224189,55.5143127 130.825093,56.7745121 C130.425998,58.0347115 129.067173,58.0460647 128.430521,58.0460647 Z" id="Path" fill="#231F20"></path>
                <path d="M125.322716,46.4061157 C127.494503,47.4779491 127.689964,50.6934494 128.14604,52.8371163 C128.775858,55.7203482 129.351382,58.6142985 129.850893,61.5189671 C130.165803,63.3625206 125.387869,64.466509 124.421424,64.1020857 L126.821249,71.133313 L115.962309,69.5684362 L115.006723,63.4804223 C115.006723,63.4804223 113.030396,57.4567184 114.051136,53.3301597 C114.762427,50.7228654 116.194983,48.3624772 118.188392,46.513299 C118.188392,46.513299 123.194363,45.3557189 125.322716,46.4061157 Z" id="Path" fill="#FFFFFF"></path>
                <path d="M127.239417,72.1400244 L127.153309,72.1400244 L116.389904,70.5645132 C116.158038,70.5340466 115.974014,70.3551665 115.937841,70.1250849 L114.990661,64.0802663 C114.936844,63.9087821 113.031721,57.9497057 114.065008,53.7269069 C114.80254,51.0061952 116.29461,48.5472912 118.37037,46.6317476 C118.439745,46.5757572 118.520557,46.5355221 118.607165,46.5138522 C118.822433,46.5138522 123.827417,45.3241804 126.087732,46.4495456 L126.087732,46.4495456 C128.122016,47.5213219 128.584842,50.0292786 128.950798,52.0978069 C129.026142,52.4836464 129.090722,52.8587681 129.166066,53.1695832 C129.790344,56.0312261 130.360804,58.9678932 130.855921,61.8616893 C130.950179,62.5595908 130.636922,63.2499938 130.048665,63.6408381 C128.778833,64.524578 127.289433,65.0436577 125.743303,65.1413249 L127.895984,71.4004987 C127.951243,71.5633927 127.924653,71.7427967 127.824493,71.8828504 C127.724333,72.022904 127.562768,72.1065974 127.390104,72.1078711 L127.239417,72.1400244 Z M116.895784,69.5677612 L126.442925,70.9503527 L124.354824,64.7447677 C124.291763,64.5475961 124.345924,64.3318689 124.494748,64.187444 C124.645443,64.0482032 124.862635,64.0066126 125.054445,64.0802663 C126.555804,64.1196837 128.031675,63.6885474 129.2737,62.8477236 C129.607366,62.5797795 129.74729,62.3225532 129.704236,62.0760446 C129.20912,59.1929663 128.627896,56.2777346 128.025145,53.4268096 C127.949801,53.0731234 127.874457,52.6872839 127.809877,52.2800089 C127.476211,50.4579891 127.077965,48.1858233 125.517272,47.4141443 C123.956578,46.6424653 120.350837,47.2105068 118.897777,47.5320397 C117.063198,49.2936209 115.739493,51.5151238 115.066005,53.9626977 C114.097298,57.8961169 115.980894,63.7694512 115.991658,63.82304 L116.895784,69.5677612 Z" id="Shape" fill="#231F20"></path>
                <path d="M129.865772,59.2775527 C129.335494,59.7547032 128.585177,60.0125269 127.811307,59.9835068 C127.037438,59.9544867 126.317099,59.6415134 125.838926,59.126546" id="Path" fill="#FFFFFF"></path>
                <path d="M127.342952,61.0661989 L127.206404,61.0661989 C126.334055,61.006863 125.532701,60.6019533 125.010244,59.956519 C124.851342,59.8182602 124.79265,59.6084414 124.859268,59.4167889 C124.925886,59.2251365 125.10602,59.085581 125.322637,59.0578018 C125.539255,59.0300226 125.754005,59.1189376 125.875053,59.2865235 C126.203133,59.6981843 126.701273,59.967096 127.25192,60.0297997 C127.860973,60.0024348 128.440524,59.7802748 128.890505,59.401679 C128.997335,59.3025863 129.142757,59.2468481 129.294462,59.2468481 C129.446166,59.2468481 129.591588,59.3025863 129.698418,59.401679 C129.805454,59.4981621 129.865772,59.630221 129.865772,59.7680828 C129.865772,59.9059445 129.805454,60.0380034 129.698418,60.1344865 C129.059149,60.6935303 128.223752,61.0239742 127.342952,61.0661989 Z" id="Path" fill="#231F20"></path>
                <ellipse id="Oval" fill="#231F20" transform="translate(125.530270, 51.264774) rotate(-15.820000) translate(-125.530270, -51.264774) " cx="125.53027" cy="51.2647742" rx="1" ry="1.04689292"></ellipse>
                <path d="M114.765101,71.5785255 L114.896055,67.9406336 L128.122442,67.1064674 L130.872483,73.0383164 C125.46505,73.3865679 120.038693,72.8947843 114.765101,71.5785255 Z" id="Path" fill="#FFFFFF"></path>
                <path d="M127.224501,74.1534472 C122.834714,74.1514887 118.45917,73.6291787 114.181002,72.5964407 C113.926782,72.5410398 113.74813,72.3005607 113.758847,72.0281902 L113.932038,68.4709418 C113.937532,68.1764552 114.160486,67.937387 114.440789,67.9254213 L127.56006,67.1071406 C127.777918,67.0961348 127.981524,67.2208358 128.079635,67.4253609 L130.807404,73.2442464 C130.894176,73.4066025 130.894176,73.6046808 130.807404,73.7670369 C130.722406,73.9314905 130.563064,74.0387333 130.38525,74.0511621 C130.38525,74.0511621 129.151259,74.1534472 127.224501,74.1534472 Z M114.852119,71.5963198 C119.637389,72.7274126 124.541752,73.2049039 129.44352,73.0169461 L127.224501,68.3004667 L114.94954,69.0619224 L114.852119,71.5963198 Z" id="Shape" fill="#231F20"></path>
                <path d="M159.060403,83.5797252 C160.089581,82.0867269 161.012953,80.5228684 161.823684,78.8997243 C161.883624,77.7248745 162.085018,76.5616434 162.423466,75.4354479 C162.948275,74.3595856 164.415598,73.2837234 165.186747,74.7361374 C165.186747,74.7361374 165.454506,72.2186197 167.178879,73.5204131 C168.730239,74.5955985 169.452187,76.5266022 168.988936,78.3617932 C168.646203,80.2875867 162.166416,90.2608298 162.166416,90.2608298" id="Path" fill="#FFFFFF"></path>
                <path d="M161.65862,90.2606102 C161.555957,90.2637223 161.455008,90.2336882 161.370605,90.1749213 C161.123535,90.0149457 161.051969,89.6843888 161.210596,89.4358551 C163.781397,85.4834575 167.696267,79.1103502 167.930946,77.7928843 C168.352133,76.168749 167.711745,74.4540214 166.330862,73.5084424 C166.042847,73.2942203 165.808169,73.2085315 165.680162,73.262087 C165.552155,73.3156425 165.242806,73.9583088 165.200137,74.3331975 C165.17554,74.5678942 165.000847,74.7587633 164.770015,74.803147 C164.539184,74.8475306 164.306624,74.7349668 164.197418,74.5259974 C163.962739,74.0868421 163.728061,74.0868421 163.65339,74.0868421 C163.094173,74.2296715 162.632919,74.625528 162.405325,75.1579525 C162.132123,75.8881412 161.984241,76.6595696 161.967969,77.4394178 C161.948208,77.7988405 161.905451,78.1566154 161.839963,78.5105283 C161.032895,80.202381 160.08363,81.822054 159.002482,83.3519476 C158.82972,83.5673077 158.522071,83.61518 158.292496,83.4624263 C158.062921,83.3096726 157.98692,83.0065285 158.117103,82.7628369 C159.122683,81.3378736 160.017805,79.8374787 160.794575,78.274884 C160.847513,77.9701138 160.883128,77.6625645 160.901247,77.353729 C160.925961,76.4510584 161.106423,75.5595329 161.434608,74.7187972 C161.809165,73.7946881 162.639409,73.1358933 163.621388,72.9835983 C163.89501,72.9751626 164.165289,73.0457987 164.400095,73.1871093 C164.552959,72.7716282 164.85827,72.4305726 165.253473,72.233821 C165.850661,72.0254598 166.513754,72.1702035 166.970896,72.6087096 C168.685449,73.799895 169.48454,75.9338805 168.976333,77.964262 C168.624315,79.9351052 162.768011,88.9859887 162.106643,90.0142548 C162.006082,90.1646402 161.838972,90.2565298 161.65862,90.2606102 L161.65862,90.2606102 Z" id="Path" fill="#231F20"></path>
                <path d="M79.5302013,103.917795 C79.5302013,103.917795 78.0736582,106.268671 77.2366894,108.058301 C76.5945213,109.77124 76.1426586,111.5463 75.8888435,113.353067 C75.4649242,112.760053 74.7149132,112.558852 74.2583847,112.029376 C74.1286597,112.79883 73.8716968,113.542695 73.497504,114.231998 C73.0990648,114.921463 72.372675,115.370711 71.5626929,115.428615 C71.1357704,115.410776 70.7173928,115.306173 70.334414,115.121519 C68.9213498,114.539094 66.5952286,113.490731 66.442953,111.754048 C66.4379359,111.083556 66.6303284,110.425702 66.9974085,109.858522 C68.3343846,107.444109 73.8888141,101.32336 74.7910013,100.327944" id="Path" fill="#FFFFFF"></path>
                <path d="M72.0651362,115.428615 C71.570436,115.406709 71.0852409,115.288255 70.6381847,115.080241 C69.4382483,114.584073 66.6383967,113.422827 66.4438124,111.2798 C66.4275742,110.511722 66.6417642,109.755782 67.059996,109.105103 C68.5409986,106.413124 74.8217468,99.6039999 74.8866083,99.4984321 C75.0159895,99.356998 75.2128084,99.2937133 75.4029253,99.3324166 C75.5930421,99.3711199 75.7475736,99.5059314 75.8083092,99.6860688 C75.8690448,99.8662062 75.8267574,100.064302 75.6973761,100.205736 C74.0758404,101.958162 69.2112333,107.437132 68.0221071,109.601272 C67.7015423,110.074286 67.528769,110.628136 67.5248362,111.195346 C67.6437488,112.5255 69.4814893,113.454497 71.0705943,114.109017 C71.3798245,114.263277 71.7184878,114.353147 72.0651362,114.372937 C72.6847227,114.318051 73.2357975,113.965876 73.5353285,113.433383 C73.8818097,112.80088 74.1157555,112.115498 74.2271838,111.406481 C74.2709172,111.209035 74.4262132,111.053281 74.6271626,111.005324 C74.8257435,110.94896 75.039493,111.015756 75.1676745,111.174232 C75.3589018,111.365654 75.5773461,111.529201 75.8162887,111.659844 L76.0000628,111.786525 C76.253197,110.277893 76.6662047,108.799037 77.2324299,107.373791 C78.0648182,105.579138 79.4701492,103.27776 79.5350106,103.151078 C79.6069637,103.03084 79.7255236,102.944012 79.8638742,102.910236 C80.0022247,102.876459 80.1486773,102.898586 80.2701068,102.971613 C80.3956073,103.039733 80.4865937,103.155592 80.5214178,103.291622 C80.5562419,103.427653 80.5317904,103.571694 80.4538808,103.689474 C80.4538808,103.689474 79.0161192,106.043636 78.2161616,107.774949 C77.6035291,109.426671 77.1652422,111.135177 76.9081228,112.873874 C76.8726873,113.084692 76.710615,113.253862 76.4975689,113.302408 C76.2845227,113.350953 76.0625198,113.269299 75.9352014,113.095566 C75.7372019,112.859622 75.495079,112.662583 75.2217257,112.514943 L75.0811926,112.430489 C74.9506444,112.964805 74.7393279,113.477152 74.4541988,113.950666 C73.9656813,114.797089 73.0693016,115.342202 72.0759464,115.396945 L72.0651362,115.428615 Z" id="Path" fill="#231F20"></path>
                <path d="M142.129825,162.040732 C142.129825,162.040732 141.04618,169.609804 144.145404,170.72871 C147.244627,171.847616 163.130857,159.035043 162.025539,156.193899 C160.920222,153.352754 155.523672,152.376454 150.647271,156.193899 C147.945305,158.340164 145.099304,160.293812 142.129825,162.040732 Z" id="Path" fill="#231F20"></path>
                <path d="M144.096172,171.804161 C143.894148,171.807969 143.693117,171.774573 143.502826,171.705594 C140.104575,170.489928 141.021563,163.272593 141.140233,162.451197 C141.164012,162.281222 141.263467,162.131792 141.409935,162.045975 C144.342322,160.316895 147.153885,158.384778 149.824652,156.263346 C152.304534,154.101522 155.632779,153.231533 158.832715,153.908676 C160.227791,154.212851 161.397249,155.172384 161.98284,156.493336 C162.123086,156.865703 162.565398,158.015657 159.14557,161.596945 C155.553133,165.364415 147.364966,171.804161 144.096172,171.804161 Z M142.165102,162.867371 C141.906188,165.057761 141.765942,169.931378 143.858834,170.687063 C145.552565,171.28942 153.568123,165.868205 158.368827,160.830308 C160.699056,158.398976 161.109004,157.194261 160.979547,156.876655 C160.509944,155.881234 159.607127,155.167477 158.541437,154.949112 C155.666407,154.384473 152.695237,155.192049 150.482726,157.139501 C147.835847,159.230407 145.057404,161.143761 142.165102,162.867371 Z" id="Shape" fill="#231F20"></path>
                <path d="M110.738255,129.128176 C110.738255,129.128176 129.298775,134.144482 143.155456,131.588198 L141.902515,162.520302 C141.902515,162.520302 147.158497,164.445537 152.881678,157.001296 C152.881678,157.001296 158.413732,118.999302 154.835417,117.170329 C151.257101,115.341356 118.457647,117.501897 118.457647,117.501897 L110.738255,129.128176 Z" id="Path" fill="#FFFFFF"></path>
                <path d="M143.159055,162.743187 C142.533262,162.75375 141.909587,162.667384 141.310008,162.487134 C141.084584,162.403876 140.938549,162.183953 140.9487,161.943021 L142.170771,131.771427 C128.356051,134.03323 110.290647,129.242902 110.1525,129.189558 C109.981334,129.146193 109.84467,129.017057 109.791192,128.848154 C109.711661,128.690543 109.711661,128.504326 109.791192,128.346716 L117.516809,116.749643 C117.614806,116.608132 117.770761,116.518102 117.941877,116.504259 C121.310543,116.290881 151.012192,114.370482 154.625273,116.237537 C158.238354,118.104591 153.902657,150.143239 152.967507,156.533899 C152.949908,156.625651 152.913739,156.7128 152.86124,156.789952 C149.003745,161.85767 145.295023,162.743187 143.159055,162.743187 Z M142.096384,161.548273 C143.339709,161.793657 147.409738,162.060379 151.98985,156.213832 C154.66778,137.810013 156.240533,118.221948 154.210832,117.197736 C151.416007,115.778775 127.644061,116.96302 118.366945,117.571147 L111.215171,128.240027 C114.817625,129.125544 130.65142,132.710288 142.680853,130.50183 C142.844872,130.466469 143.015723,130.514338 143.137802,130.629857 C143.268072,130.73618 143.339289,130.89904 143.329082,131.067281 L142.096384,161.548273 Z" id="Shape" fill="#231F20"></path>
                <path d="M99.9843615,123.482306 C99.9843615,123.482306 95.0771608,153.700985 94.119139,154.181663 C93.1611172,154.662342 66.442953,177.9272 66.442953,177.9272 L74.330666,184.891702 C74.330666,184.891702 104.135789,166.796813 105.828295,161.445255 C107.5208,156.093697 120.805369,123.482306 120.805369,123.482306 L99.9843615,123.482306 Z" id="Path" fill="#FFFFFF"></path>
                <path d="M74.8684008,184.890891 C74.7349324,184.891702 74.6059863,184.842377 74.5072206,184.752238 L66.6356176,177.808909 C66.5134563,177.705556 66.442953,177.553341 66.442953,177.392949 C66.442953,177.232558 66.5134563,177.080343 66.6356176,176.97699 C70.9804025,173.201355 92.2050486,154.717809 94.2552772,153.277949 C95.0626211,151.763429 98.1538984,133.941152 99.9385533,122.944883 C99.9801982,122.676291 100.209592,122.477587 100.480324,122.475595 L121.269429,122.475595 C121.450015,122.475595 121.618076,122.5683 121.715593,122.720904 C121.821572,122.870364 121.841732,123.064674 121.768707,123.232855 C121.641232,123.56349 108.490025,155.848367 106.843468,161.106525 C105.133174,166.577996 76.398105,184.069637 75.1764662,184.816231 C75.0832447,184.870794 74.976148,184.896748 74.8684008,184.890891 Z M67.8253876,177.424946 L74.9321385,183.685674 C83.4304952,178.523507 104.474551,164.956819 105.738682,160.797221 C107.268386,155.891029 118.337496,128.640332 120.387724,123.606152 L100.915864,123.606152 C96.0505551,153.597918 95.1794735,154.035209 94.8501622,154.195193 C93.9684577,154.707144 78.3952188,168.199172 67.8678794,177.403615 L67.8253876,177.424946 Z" id="Shape" fill="#231F20"></path>
                <path d="M88.590604,151.969417 C88.590604,151.969417 105.66899,163.473833 115.645686,161.51225 C144.385005,155.733534 159.060403,116.491281 159.060403,116.491281 C159.060403,116.491281 139.750669,113.935922 129.495056,111.401769 L99.682973,120.838572 L88.590604,151.969417 Z" id="Path" fill="#231F20"></path>
                <path d="M113.635792,161.737227 C103.535651,161.737227 89.4683623,152.351914 88.8250411,151.917611 C88.6238212,151.782263 88.5401638,151.529966 88.6213228,151.30323 L99.7078899,120.160492 C99.7616154,120.006324 99.8842224,119.885195 100.040272,119.832117 L129.847484,110.415146 C129.942078,110.388362 130.042384,110.388362 130.136978,110.415146 C140.23712,112.915039 159.440255,115.457303 159.633251,115.478489 C159.794288,115.500999 159.936275,115.594516 160.019244,115.732715 C160.083071,115.877998 160.083071,116.042922 160.019244,116.188204 C159.869136,116.580137 144.91192,155.7416 116.23052,161.493473 C115.375886,161.659198 114.506726,161.740809 113.635792,161.737227 Z M89.7685788,151.313823 C92.213199,152.892145 107.191859,162.277338 116.058968,160.497753 C142.199249,155.254332 156.802638,121.463403 158.818378,116.463616 C155.323,115.997535 139.132752,113.741275 130.029758,111.506201 L100.619261,120.796059 L89.7685788,151.313823 Z" id="Shape" fill="#231F20"></path>
                <path d="M137.919463,78.508549 C137.919463,78.508549 136.368207,72.2945572 117.742442,70.3154434 C113.24165,69.7846465 108.678802,70.3770556 104.465833,72.0391877 C103.984409,74.9120949 99.5767033,110.642548 97.6510067,120.442353 C97.6510067,120.442353 122.749253,125.890236 132.869859,111.685306 C132.901954,111.685306 136.485889,81.6155449 137.919463,78.508549 Z" id="Path" fill="#F99E3B"></path>
                <path d="M115.771812,77.1735815 C115.771812,77.1735815 96.9850062,79.3407369 92.2140904,81.713772 C87.4431747,84.0868072 71.4765101,102.225898 71.4765101,102.225898 L78.7813121,109.388347 C78.7813121,109.388347 91.1432849,97.1114112 94.5783442,95.518552 C98.0134035,93.9256927 112.198926,97.0897396 112.198926,97.0897396 L115.771812,77.1735815 Z" id="Path" fill="#F99E3B"></path>
                <path d="M137.416107,78.1802929 L147.868771,95.6774884 L159.1675,81.1718183 L165.100671,87.7574786 C165.100671,87.7574786 155.119235,107.471416 150.289162,107.374568 C139.815079,107.170111 125.838926,93.1702027 125.838926,93.1702027 L137.416107,78.1802929 Z" id="Path" fill="#F99E3B"></path>
                <path d="M74.4525743,184.452467 C73.8611108,177.31884 70.4462459,175.204382 68.0022739,175.983955 C65.558302,176.763528 63.8955083,176.987789 64.587409,183.918513 C65.2793098,190.849237 69.1963607,200.8235 73.135731,199.937136 C77.0751013,199.050772 75.0440378,191.543377 74.4525743,184.452467 Z" id="Path" fill="#231F20"></path>
                <path d="M73.1631074,200.999085 C72.4571434,200.980754 71.7756904,200.745436 71.2180325,200.327417 C68.0020278,198.109847 65.2280856,190.348351 64.587095,184.484583 C63.9240013,177.746581 65.4049106,176.936315 68.0683372,176.094065 L68.3556778,176.008774 C69.5018448,175.65284 70.7548501,175.838501 71.7374559,176.509859 C73.7930465,177.821211 75.119234,180.774418 75.4618324,184.9217 C75.5833996,186.424957 75.7712762,187.960198 75.9591527,189.442132 C76.6775043,195.167302 77.2853402,200.103528 73.7488403,200.924455 C73.5565346,200.967426 73.3603836,200.992418 73.1631074,200.999085 L73.1631074,200.999085 Z M69.5492465,176.883008 C69.2785086,176.883008 69.0096375,176.926238 68.753534,177.010945 L68.4661934,177.106898 C66.3774481,177.757243 65.1507247,178.173037 65.7364575,184.388631 C66.2890356,189.900572 68.930359,197.438179 71.8479715,199.463844 C72.3170462,199.84294 72.937477,199.999418 73.5388606,199.8903 C76.1359777,199.293262 75.5723481,194.783491 74.9203059,189.559407 C74.7324293,188.077474 74.5445527,186.531571 74.4229856,185.006992 C73.9919746,179.910845 72.2126731,178.0451 71.1848778,177.394755 C70.6919874,177.064425 70.1051836,176.889385 69.5050403,176.89367 L69.5492465,176.883008 Z" id="Shape" fill="#231F20"></path>
                <path d="M123.130831,41.2636374 C117.981549,40.314318 112.664539,41.421475 108.325865,44.3464644 C106.920105,45.2828025 105.736746,46.5146659 104.858811,47.9556279 C102.382343,52.252251 104.083569,57.5370974 102.554619,62.113001 C101.02567,66.6889046 95.8358562,70.1799109 92.4657074,73.3701535 C88.5894979,77.0330247 84.8209609,80.9644348 82.4952352,85.7659112 C78.6297929,93.7683717 80.7940099,101.094114 86.2960739,107.582015 C87.0392785,108.494115 87.901074,109.303281 88.8586791,109.988124 C90.7873945,111.140379 92.9588453,111.828142 95.2005885,111.996795 C99.3459793,112.544615 105.321802,112.952794 108.982667,110.428528 C111.599108,108.613205 113.601816,104.381031 113.741791,101.298204 C113.881765,98.2153766 112.61123,94.853269 113.494144,91.7811835 C114.807748,87.2160215 120.342114,84.8636203 121.655718,80.3091998 C122.592469,77.0222831 121.052752,73.55276 119.125415,70.7384719 C117.639535,68.5901603 115.809102,66.0766358 116.605879,63.5738528 C117.079638,62.0915179 118.382475,61.0495868 119.34076,59.8357907 C120.53827,58.292578 121.223312,56.4150851 121.300399,54.4650119 C121.386537,52.7356211 120.525157,51.1458705 120.589761,49.4809291 C122.054107,50.1469056 123.819935,49.4809291 125.284281,49.3305472 C127.147015,49.1264576 129.009749,48.8794018 130.872483,48.6001213 C130.481725,46.6355535 129.415365,44.86886 127.857654,43.605297 C126.482762,42.4736612 124.86551,41.6724769 123.130831,41.2636374 Z" id="Path" fill="#FFFFFF"></path>
                <path d="M100.25595,112.408481 C98.3729572,112.388923 96.4931409,112.249219 94.6279951,111.990224 C92.3129837,111.801117 90.0719612,111.085781 88.0763682,109.898941 C87.0779562,109.187733 86.1817632,108.343379 85.4127559,107.389401 C79.2155613,100.075271 77.8944955,92.557376 81.546222,85.0394806 C83.9091039,80.1598195 87.7756378,76.1273963 91.6099506,72.4917807 C92.3939977,71.7517881 93.2639679,71.0010711 94.1876399,70.2181804 C97.0982807,67.7086404 100.406315,64.8559155 101.534054,61.4776886 C102.073245,59.5043161 102.322873,57.4632734 102.27514,55.4183292 C102.339582,52.662125 102.414765,49.8094001 103.875455,47.2462375 C104.794902,45.7347479 106.038374,44.4454956 107.516442,43.471203 C111.960237,40.4514187 117.414367,39.2959551 122.703328,40.253844 C124.517609,40.6816756 126.20841,41.522159 127.643899,42.7097613 C129.328363,44.0524858 130.472192,45.9560564 130.86601,48.0720263 C130.888037,48.2152511 130.853368,48.361413 130.769347,48.4795584 C130.681691,48.5922033 130.555483,48.6685806 130.414915,48.694049 C128.55683,48.9728868 126.666525,49.2195509 124.819181,49.423317 C124.443268,49.423317 124.056614,49.5412868 123.659221,49.6163586 C122.675828,49.8582813 121.655565,49.9128576 120.651917,49.7772265 C120.722979,50.3043224 120.823378,50.8270585 120.952647,51.3430079 C121.210363,52.2205092 121.33703,53.1311723 121.32856,54.0455894 C121.243549,56.0972373 120.523032,58.0719886 119.266409,59.6974166 C118.976418,60.0727751 118.654207,60.4159601 118.342737,60.7698696 C117.599978,61.4725908 117.014359,62.3241402 116.624277,63.268685 C115.936893,65.413591 117.483507,67.6550177 118.847534,69.7034029 L119.062341,70.0036898 C121.61855,73.7465507 122.48852,77.1140531 121.661511,80.0204007 C120.963387,82.4226953 119.180486,84.2244164 117.462026,85.9725147 C115.743567,87.7206131 114.143251,89.3292926 113.52031,91.463474 C113.149331,93.2678281 113.149331,95.1286301 113.52031,96.9329842 C113.731863,98.226672 113.82533,99.5368695 113.799559,100.847438 C113.659934,103.871755 111.715927,108.354609 108.816027,110.381545 C106.442404,111.990224 103.306216,112.408481 100.25595,112.408481 Z M119.105303,40.9938366 C115.194962,41.0074299 111.375959,42.1753209 108.128643,44.3506144 C106.79014,45.2340073 105.664099,46.4023371 104.831349,47.7717394 C103.499542,50.0989624 103.4351,52.6942986 103.370658,55.4397783 C103.427894,57.6122262 103.160012,59.7810349 102.57587,61.8744962 C101.362208,65.5422854 97.9252893,68.4808065 94.9072448,71.0761428 C93.9943132,71.8590334 93.1350834,72.599026 92.372517,73.328294 C88.6133868,76.8888379 84.8542566,80.8354649 82.5343362,85.5542581 C79.1081576,92.6538968 80.3862618,99.7857092 86.250505,106.756654 C86.9586602,107.632221 87.7824311,108.407877 88.6993098,109.062427 C90.5575381,110.154377 92.6398113,110.810774 94.7891007,110.982118 C97.1197614,111.282405 104.229888,112.226164 108.160864,109.502133 C110.706332,107.74331 112.553676,103.582193 112.68256,100.804539 C112.699695,99.5551278 112.609865,98.3065394 112.414051,97.0724031 C112.005916,95.127357 112.005916,93.1189578 112.414051,91.1739117 C113.112175,88.771617 114.895077,86.9591715 116.613537,85.2217976 C118.331996,83.4844238 119.932312,81.8650198 120.555253,79.7201138 C121.285598,77.1355021 120.46933,74.0790111 118.106448,70.614988 L117.891641,70.3039766 C116.387989,68.1590707 114.669529,65.6280816 115.528759,63.0005718 C115.956042,61.9045784 116.619756,60.9159678 117.472766,60.1049487 C117.773497,59.7724883 118.074227,59.4400279 118.342737,59.0968429 C119.460234,57.6415517 120.101527,55.8777889 120.17934,54.0455894 C120.184986,53.2322184 120.069149,52.4225523 119.835648,51.6432947 C119.599394,50.805458 119.476578,49.939801 119.470476,49.0694075 C119.47336,48.888594 119.569148,48.7219637 119.724057,48.6282842 C119.878965,48.5346046 120.07123,48.5270379 120.233042,48.6082527 C121.262496,48.9196702 122.361258,48.9196702 123.390711,48.6082527 C123.809586,48.533181 124.22846,48.4581093 124.625854,48.4152112 C126.279871,48.2221697 127.955369,48.0076791 129.620127,47.7717394 C129.163669,46.1506887 128.21872,44.7091471 126.913553,43.6427954 C125.6068,42.5611601 124.066217,41.7975121 122.413338,41.4120932 L122.413338,41.4120932 C121.33011,41.1478742 120.220297,41.0075533 119.105303,40.9938366 L119.105303,40.9938366 Z" id="Shape" fill="#231F20"></path>
                <path d="M122.818792,55.810834 C122.712592,55.0684096 122.403542,54.3704032 121.926211,53.7948912 C121.635868,53.3020584 121.27331,52.8562657 120.850812,52.4726062 C120.409814,52.090202 119.820199,51.9306736 119.248468,52.0390701 C118.752717,52.1770451 118.340754,52.5250196 118.119299,52.9928495 C117.901445,53.4571635 117.78763,53.9641025 117.785926,54.4777105 C117.752502,56.7629157 118.933745,58.8917875 120.883074,60.0594875 L120.71101,59.8860731" id="Path" fill="#FFFFFF"></path>
                <path d="M121.360674,60.0593945 C121.267175,60.0612572 121.175207,60.0351006 121.096254,59.984191 C119.017977,58.7246217 117.75677,56.4367029 117.785723,53.9786527 C117.788472,53.3878615 117.918432,52.8048338 118.166487,52.2704584 C118.45463,51.6661187 118.987418,51.219057 119.626082,51.0457154 C120.348232,50.9005429 121.096112,51.0983707 121.656824,51.5828834 C122.126611,51.9954631 122.533022,52.477077 122.862576,53.0117503 C123.389386,53.6629768 123.723177,54.4528468 123.825063,55.2893426 C123.830787,55.4318388 123.780489,55.5707981 123.685257,55.6755919 C123.590024,55.7803857 123.457674,55.8424113 123.317378,55.8479973 C123.027361,55.8542811 122.784383,55.6264617 122.767385,55.332316 C122.668988,54.6965399 122.397936,54.1012501 121.984704,53.6133784 C121.717741,53.171052 121.386064,52.7725672 121.001063,52.4316088 C120.694744,52.1484853 120.278403,52.022011 119.869348,52.0878213 C119.535371,52.1987074 119.260354,52.4431374 119.10782,52.764653 C118.929789,53.1550062 118.839468,53.5806957 118.843401,54.0108827 C118.827199,55.915539 119.72744,57.7082835 121.254906,58.8131647 C121.374192,58.8333414 121.484747,58.8894896 121.572209,58.9743151 L121.741438,59.1462089 C121.916825,59.3489932 121.916825,59.6524864 121.741438,59.8552707 C121.649662,59.976176 121.510731,60.0506554 121.360674,60.0593945 Z" id="Path" fill="#231F20"></path>
                <path d="M148.416049,108.381635 L148.321083,108.381635 C137.864243,106.385764 126.489396,92.8030489 126.004013,92.1988932 C125.856663,92.0564107 125.802238,91.8401819 125.864013,91.6426745 C125.925788,91.4451671 126.092826,91.3013483 126.293695,91.2727204 C126.494564,91.2440926 126.693702,91.3357239 126.80595,91.5084296 C126.92202,91.6378915 138.412937,105.382434 148.511016,107.291997 C148.802396,107.31881 149.017347,107.582054 148.991123,107.87997 C148.964899,108.177886 148.707429,108.397659 148.416049,108.370847 L148.416049,108.381635 Z" id="Path" fill="#231F20"></path>
                <path d="M125.060254,64.1512518 L119.798658,63.0796217 C120.406315,64.1677589 121.485265,65.0300211 122.824354,65.4976589 C124.882272,66.331149 125.838926,66.056372 125.838926,66.056372 L125.060254,64.1512518 Z" id="Path" fill="#231F20"></path>
                <path d="M124.837577,67.1050401 C122.287531,66.8772916 120.021026,65.274395 118.823056,62.8515062 C118.754498,62.6476856 118.801288,62.4197904 118.943346,62.26562 C119.078234,62.1059533 119.284,62.0384581 119.479186,62.0898541 L124.651674,63.4608279 C124.833185,63.5073608 124.980944,63.6480966 125.045351,63.835795 L125.810836,66.2730817 C125.905206,66.5770821 125.754193,66.9059318 125.471835,67.0112983 C125.267166,67.0820848 125.052487,67.1138138 124.837577,67.1050401 L124.837577,67.1050401 Z M120.46338,63.5897228 C121.042219,64.269009 121.740975,64.8186152 122.519253,65.2067688 C123.135612,65.5610009 123.805799,65.7950864 124.498577,65.8981145 L124.061157,64.5037053 L120.46338,63.5897228 Z" id="Shape" fill="#231F20"></path>
                <path d="M99.1781719,261.401769 L99.1781719,261.401769 C99.0324935,261.396268 98.8952553,261.335345 98.7974982,261.232662 C98.6997411,261.129979 98.6497241,260.994211 98.6587603,260.856067 L99.576019,242.767843 C99.5938418,242.482173 99.8495247,242.262771 100.150687,242.274718 C100.296366,242.280102 100.433604,242.341025 100.531361,242.443708 C100.629118,242.546391 100.679135,242.682158 100.670099,242.820303 L99.7307374,260.908527 C99.7187638,261.188349 99.4730877,261.407597 99.1781719,261.401769 Z" id="Path" fill="#231F20"></path>
                <path d="M233.95616,85.2264335 C233.689887,85.2294148 233.451801,85.079043 233.366608,84.8540817 L231.573387,79.8930414 C231.523368,79.7565427 231.536792,79.6078634 231.610657,79.4802574 C231.684521,79.3526514 231.812663,79.2567659 231.966422,79.2140469 C232.288611,79.1205256 232.634872,79.2773475 232.740209,79.5644957 L234.53343,84.5145845 C234.638315,84.8018639 234.462437,85.1106071 234.140395,85.2045305 C234.081176,85.2224869 234.018586,85.2299279 233.95616,85.2264335 L233.95616,85.2264335 Z" id="Path" fill="#231F20"></path>
            </g>
        </g>
    </g>
</svg>