<?xml version="1.0" encoding="utf-8"?>
<!-- Generator: Adobe Illustrator 24.0.3, SVG Export Plug-In . SVG Version: 6.00 Build 0)  -->
<svg version="1.1" id="Calque_1" xmlns="http://www.w3.org/2000/svg" xmlns:xlink="http://www.w3.org/1999/xlink" x="0px" y="0px"
	 viewBox="0 0 19 34" style="enable-background:new 0 0 19 34;" xml:space="preserve">
<style type="text/css">
	.st0{fill:#FFFFFF;}
</style>
<g id="Page-1">
	<g id="Home-header-test-2" transform="translate(-1401.000000, -712.000000)">
		
			<g id="left-arrow" transform="translate(1410.500000, 728.882759) rotate(180.000000) translate(-1410.500000, -728.882759) translate(1401.000000, 712.382759)">
			<path id="Path" class="st0" d="M12.6,16.6L0.6,28.4c-0.3,0.3-0.5,0.8-0.5,1.2c0,0.5,0.2,0.9,0.5,1.2l1.1,1
				C2,32.1,2.5,32.3,3,32.3s0.9-0.2,1.3-0.5l14.2-14.1c0.3-0.3,0.5-0.8,0.5-1.2c0-0.5-0.2-0.9-0.5-1.2L4.2,1.3
				C3.9,1,3.4,0.8,2.9,0.8S2,1,1.6,1.3l-1.1,1c-0.7,0.7-0.7,1.8,0,2.5L12.6,16.6z"/>
		</g>
	</g>
</g>
</svg>
