<?xml version="1.0" encoding="UTF-8"?>
<svg width="123px" height="120px" viewBox="0 0 123 120" version="1.1" xmlns="http://www.w3.org/2000/svg" xmlns:xlink="http://www.w3.org/1999/xlink">
    <title>secondstep</title>
    <g id="Page-1" stroke="none" stroke-width="1" fill="none" fill-rule="evenodd" stroke-linecap="round" stroke-linejoin="round">
        <g id="Home-header-test-2" transform="translate(-900.000000, -1068.000000)" stroke-width="4">
            <g id="secondstep" transform="translate(902.800000, 1070.000000)">
                <g id="Group" transform="translate(0.200000, 0.000000)" stroke="#000000">
                    <path d="M109.185358,76.4303544 C114.276903,68.591085 117.294115,59.4452707 117.294115,49.5528593 C117.294115,22.3020657 94.8536011,0.0908023483 67.321542,0.0908023483 C39.600907,0.0908023483 17.160393,22.1154164 17.160393,49.5528593 C17.160393,76.9903022 39.600907,99.0149163 67.1329662,99.0149163 C77.1274808,99.0149163 86.5562682,96.0285279 94.2878739,90.9889976 L117.105539,99.0149163 L109.185358,76.4303544 Z" id="Path"></path>
                    <path d="M63.9271785,110.213873 C57.7041788,113.760209 50.5383004,115.813351 42.8066947,115.813351 C34.3207861,115.813351 26.4006047,113.38691 19.8004535,109.093977 L0.188575748,115.813351 L6.97730267,96.5884758 C2.64006047,90.0557513 0.188575748,82.2164818 0.188575748,73.8172646 C0.188575748,65.9779952 2.45148472,58.6986736 6.22299968,52.3525984" id="Path"></path>
                </g>
                <g id="Group" transform="translate(35.200000, 17.000000)" stroke="#FB8E33">
                    <path d="M0.185294118,30.6352657 L11.3029412,30.6352657 C17.4176471,25.9855072 22.9764706,21.7077295 26.1264706,14.4541063 C28.5352941,8.87439614 27.9794118,6.64251208 27.9794118,0.876811594 C27.9794118,0.876811594 33.5382353,-2.84299517 35.3911765,8.31642512 C35.9470588,12.0362319 35.3911765,21.3357488 33.5382353,25.0555556" id="Path"></path>
                    <path d="M50.2147059,32.4951691 C52.2529412,32.4951691 53.9205882,34.1690821 53.9205882,36.2149758 L53.9205882,36.2149758 C53.9205882,38.2608696 52.2529412,39.9347826 50.2147059,39.9347826 L46.5088235,39.9347826" id="Path"></path>
                    <path d="M48.3617647,39.9347826 C50.4,39.9347826 52.0676471,41.6086957 52.0676471,43.6545894 L52.0676471,43.6545894 C52.0676471,45.7004831 50.4,47.3743961 48.3617647,47.3743961 L44.6558824,47.3743961" id="Path"></path>
                    <path d="M46.5088235,47.3743961 C48.5470588,47.3743961 50.2147059,49.0483092 50.2147059,51.0942029 L50.2147059,51.0942029 C50.2147059,53.1400966 48.5470588,54.8140097 46.5088235,54.8140097 L34.4647059,54.8140097 C30.2029412,54.8140097 25.9411765,54.442029 21.6794118,53.5120773 L18.7147059,52.9541063 L9.45,52.9541063" id="Path"></path>
                    <path d="M33.5382353,25.0555556 L50.2147059,25.0555556 C52.2529412,25.0555556 53.9205882,26.7294686 53.9205882,28.7753623 L53.9205882,28.7753623 C53.9205882,30.821256 52.2529412,32.4951691 50.2147059,32.4951691 L46.5088235,32.4951691" id="Path"></path>
                </g>
            </g>
        </g>
    </g>
</svg>