<?xml version="1.0" encoding="UTF-8"?>
<svg width="193px" height="121px" viewBox="0 0 193 121" version="1.1" xmlns="http://www.w3.org/2000/svg" xmlns:xlink="http://www.w3.org/1999/xlink">
    <title>Sending emails_Outline</title>
    <g id="Page-1" stroke="none" stroke-width="1" fill="none" fill-rule="evenodd">
        <g id="Home-" transform="translate(-1178.000000, -1004.000000)" fill-rule="nonzero">
            <g id="Sending-emails_Outline" transform="translate(1178.358036, 1004.000000)">
                <path d="M181.877202,11.5068493 L181.877202,111.98054 C181.877202,114.593835 179.788571,116.712329 177.212114,116.712329 L5.70306137,116.712329 C3.13336715,116.702657 1.05528376,114.586994 1.05528376,111.98054 L1.05528376,11.5068493 L181.877202,11.5068493 Z" id="Path" fill="#FFFFFF"></path>
                <path d="M179.587105,120 L6.6156344,120 C5.13631986,119.995356 3.71943143,119.400596 2.67667207,118.346562 C1.63391272,117.292528 1.05070099,115.865561 1.05531088,114.379582 L1.05531088,14.0275052 C1.05531088,13.5432507 1.44614356,13.1506849 1.92822625,13.1506849 L184.291971,13.1506849 C184.774054,13.1506849 185.164866,13.5432507 185.164866,14.0275052 L185.164866,114.379582 C185.167176,115.867885 184.580823,117.296155 183.534791,118.350188 C182.488758,119.404221 181.068733,119.997676 179.587105,120 Z M2.80111417,14.9043254 L2.80111417,114.379582 C2.80591408,116.503459 4.51874053,118.224002 6.63309216,118.228823 L179.587105,118.228823 C181.701457,118.224002 183.414283,116.503459 183.419083,114.379582 L183.419083,14.9043254 L2.80111417,14.9043254 Z" id="Shape" fill="#093F68"></path>
                <path d="M7.34689699,1.64383562 L178.855949,1.64383562 C181.432406,1.64383562 183.521037,3.72073602 183.521037,6.28272251 L183.521037,14.7945205 L2.69911937,14.7945205 L2.69911937,6.28272251 C2.69911937,3.72744307 4.77720277,1.65331717 7.34689699,1.64383562 Z" id="Path" fill="#FB8E33"></path>
                <path d="M184.291985,14.7945205 L1.928172,14.7945205 C1.44608914,14.7945205 1.05528376,14.4109807 1.05528376,13.9378604 L1.05528376,5.47405827 C1.06004961,2.459439 3.54388532,0.0141274164 6.61558189,0 L179.587117,0 C182.665633,0.00471707789 185.160066,2.4527754 185.164873,5.47405827 L185.164873,13.9378604 C185.164873,14.4109807 184.774067,14.7945205 184.291985,14.7945205 L184.291985,14.7945205 Z M2.80106025,13.0812003 L183.419096,13.0812003 L183.419096,5.47405827 C183.414296,3.39901438 181.701469,1.71803095 179.587117,1.71332027 L6.61558189,1.71332027 C4.50122948,1.71803095 2.7884024,3.39901438 2.78360249,5.47405827 L2.80106025,13.0812003 Z" id="Shape" fill="#093F68"></path>
                <circle id="Oval" fill="#F56132" cx="10.9182975" cy="6.57534247" r="1.64383562"></circle>
                <path d="M11.7402595,5.17708993 C12.6399089,5.17328986 13.4529233,5.71279232 13.7989713,6.54323592 C14.1450193,7.37367953 13.9556792,8.33086696 13.3195253,8.96702187 C12.6833714,9.60317678 11.7261855,9.79251709 10.8957432,9.44646859 C10.065301,9.10042009 9.52579935,8.28740433 9.52959941,7.38775354 C9.53479481,6.16899897 10.5215069,5.18228533 11.7402595,5.17708993 M11.7402595,3.28767123 C10.0772539,3.28767123 8.57817846,4.28995561 7.9426599,5.82674168 C7.30714134,7.36352776 7.66046967,9.13184845 8.83774466,10.3064189 C10.0150196,11.4809894 11.784146,11.8302476 13.3194629,11.1911928 C14.8547799,10.552138 15.8536055,9.05075743 15.8497934,7.38775354 C15.8445734,5.1218133 14.0062021,3.28767123 11.7402595,3.28767123 L11.7402595,3.28767123 Z" id="Shape" fill="#093F68"></path>
                <circle id="Oval" fill="#FFBC0E" cx="20.7813112" cy="6.57534247" r="1.64383562"></circle>
                <path d="M21.6127199,5.17710887 C22.5115194,5.17710887 23.3216351,5.71907204 23.6647016,6.54982227 C24.007768,7.38057249 23.8160888,8.33620834 23.1791879,8.970399 C22.542287,9.60458966 21.5858425,9.79219194 20.7565628,9.44558598 C19.9272831,9.09898002 19.3888078,8.28656068 19.3926123,7.38776932 C19.3926123,6.79983058 19.6268296,6.23610914 20.0434505,5.82126104 C20.4600715,5.40641293 21.0247865,5.17461653 21.6127199,5.17710887 M21.6127199,3.28768208 C19.9488596,3.2838724 18.4468849,4.28372263 17.808387,5.82020112 C17.1698891,7.35667961 17.5208816,9.1265476 18.6974116,10.3030776 C19.8739416,11.4796076 21.6438096,11.8306002 23.1802881,11.1921023 C24.7167666,10.5536043 25.7166168,9.05162964 25.7128072,7.38776932 C25.7076016,5.12551487 23.8749744,3.29288763 21.6127199,3.28768208 L21.6127199,3.28768208 Z" id="Shape" fill="#093F68"></path>
                <circle id="Oval" fill="#70CC40" cx="32.2881605" cy="6.57534247" r="1.64383562"></circle>
                <path d="M31.4851804,5.17718648 C32.38398,5.17718648 33.1940958,5.71912722 33.5371623,6.54987405 C33.8802288,7.38062087 33.6885496,8.3362528 33.0516486,8.97044087 C32.4147476,9.60462894 31.458303,9.79223045 30.6290231,9.44562591 C29.7997433,9.09902137 29.261268,8.28660535 29.2650724,7.38781767 C29.2702945,6.16539322 30.2627397,5.17718648 31.4851804,5.17718648 M31.4851804,3.28771443 C29.8204761,3.28010862 28.3156069,4.27751663 27.6741275,5.81367518 C27.032648,7.34983372 27.3812971,9.12123985 28.5570747,10.2997279 C29.7328524,11.478216 31.503457,11.830949 33.0410977,11.1930176 C34.5787385,10.5550861 35.5796195,9.05252815 35.5758209,7.38781767 C35.570601,5.12189001 33.7322293,3.28771443 31.466286,3.28771443 L31.4851804,3.28771443 Z" id="Shape" fill="#093F68"></path>
                <rect id="Rectangle" fill="#FB8E33" x="93.1100783" y="21.369863" width="95.3424658" height="59.1780822"></rect>
                <path d="M190.879418,82.1917808 L93.9708754,82.1917808 C93.4954703,82.1917808 93.1100783,81.7950024 93.1100783,81.3055515 L93.1100783,22.2560923 C93.1100783,21.7666414 93.4954703,21.369863 93.9708754,21.369863 L190.879418,21.369863 C191.354823,21.369863 191.740215,21.7666414 191.740215,22.2560923 L191.740215,81.3055515 C191.740215,81.7950024 191.354823,82.1917808 190.879418,82.1917808 Z M94.8316726,80.4193222 L190.018621,80.4193222 L190.018621,23.1423216 L94.8316726,23.1423216 L94.8316726,80.4193222 Z" id="Shape" fill="#093F68"></path>
                <polygon id="Path" fill="#FB8E33" points="140.781311 46.0273973 93.1100783 82.1917808 188.452544 82.1917808"></polygon>
                <path d="M190.842139,82.1917749 L93.9651449,82.1917749 C93.5930979,82.1891956 93.264717,81.9285874 93.1511817,81.545795 C93.0376465,81.1630026 93.1646733,80.7447307 93.4660451,80.5090175 L141.904542,42.9120765 C142.203283,42.6822759 142.604001,42.6822759 142.902742,42.9120765 L191.384264,80.5090175 C191.68691,80.7457388 191.813582,81.1664114 191.697787,81.5502072 C191.581992,81.9340029 191.25019,82.1932136 190.876559,82.1917749 L190.842139,82.1917749 Z M96.6413525,80.3323751 L188.174536,80.3323751 L142.403642,44.8086581 L96.6413525,80.3323751 Z" id="Shape" fill="#093F68"></path>
                <polygon id="Path" fill="#FB8E33" points="140.781311 59.1780822 93.1100783 23.0136986 188.452544 23.0136986"></polygon>
                <path d="M142.424342,62.4656722 C142.244934,62.4643344 142.070371,62.4025834 141.92505,62.2889633 L93.4679053,24.6962603 C93.1670312,24.4622744 93.0387017,24.0465422 93.1493915,23.6644131 C93.261798,23.2784291 93.592502,23.0152935 93.9671973,23.0136986 L190.881487,23.0136986 C191.256183,23.0152935 191.586887,23.2784291 191.699293,23.6644131 C191.811806,24.044539 191.687086,24.4597998 191.389388,24.6962603 L142.923634,62.2889633 C142.780029,62.4061678 142.604333,62.4683195 142.424342,62.4656722 L142.424342,62.4656722 Z M96.6444352,24.8728828 L142.424342,60.3925954 L188.212858,24.8728828 L96.6444352,24.8728828 Z" id="Shape" fill="#093F68"></path>
                <path d="M144.19085,44.6896054 C144.19085,44.855734 144.128956,45.0480936 144.098009,45.2754275 C144.069237,45.4661237 144.053716,45.6590725 144.051588,45.8525061 C144.05111,45.9756913 144.080547,46.0966636 144.136693,46.2022507 C144.221056,46.312976 144.348789,46.3687498 144.477111,46.3508922 C144.64803,46.3482257 144.815622,46.2971169 144.964527,46.2022507 C145.141452,46.0842284 145.290184,45.9191427 145.397786,45.7213519 C145.535589,45.4667951 145.637392,45.1894914 145.69952,44.8994521 C145.785789,44.5136974 145.827399,44.1169218 145.823309,43.7190641 C145.832789,43.0809908 145.727504,42.4473884 145.513838,41.8566742 C145.325175,41.3398147 145.037111,40.8768743 144.67053,40.5014139 C144.295414,40.1284016 143.855266,39.8484125 143.378489,39.6795141 C142.847896,39.4916339 142.294273,39.4001445 141.738294,39.4084621 C141.133949,39.3989558 140.534077,39.5268125 139.974311,39.7844375 C139.458705,40.0197036 138.992273,40.3741032 138.604902,40.8249277 C138.219802,41.280128 137.919832,41.8183762 137.722911,42.4075219 C137.511438,43.0476906 137.406517,43.726529 137.41344,44.4098097 C137.404028,45.1220858 137.519734,45.8293964 137.753858,46.49079 C137.971262,47.0834938 138.301438,47.6148524 138.720954,48.0471534 C139.14445,48.4779532 139.638621,48.8106654 140.175467,49.0264383 C140.764722,49.2586474 141.385057,49.3740123 142.009081,49.3674392 C142.56291,49.3724471 143.113928,49.2780052 143.641539,49.0876436 C144.116999,48.9093923 144.56187,48.6402647 144.95679,48.2919746 L146.68209,48.2919746 C146.138574,49.142097 145.41502,49.8245289 144.577689,50.2767752 C143.737064,50.7301679 142.816733,50.9632939 141.885293,50.9588415 C141.091404,50.9601113 140.304262,50.7940566 139.564262,50.4691347 C138.849751,50.163108 138.193331,49.706132 137.630069,49.122618 C136.47083,47.9091891 135.823688,46.1952637 135.850612,44.4098097 C135.839725,43.5073238 136.000677,42.6127434 136.322555,41.7867253 C136.621942,41.0018068 137.055796,40.2915936 137.599122,39.6970014 C138.149528,39.1031921 138.795618,38.6342208 139.502368,38.3155102 C140.239184,37.9762869 141.027798,37.8039801 141.823399,37.8082984 C142.513159,37.8103028 143.197956,37.9402731 143.850432,38.1930996 C144.498139,38.4366399 145.099267,38.8163684 145.622153,39.3122823 C146.752926,40.3738562 147.391445,41.9620517 147.355189,43.6228844 C147.365209,44.1730107 147.299966,44.7215844 147.16177,45.2491967 C147.050296,45.6631595 146.883304,46.0553523 146.666616,46.4120975 C146.474868,46.7109325 146.242468,46.9735771 145.978044,47.1902792 C145.738967,47.3796293 145.47883,47.5325044 145.204367,47.6449471 C144.965969,47.745732 144.719959,47.8218229 144.469374,47.8722811 C144.274616,47.9057816 144.078275,47.9262192 143.881379,47.9334864 C143.546242,47.9698111 143.211458,47.8603704 142.94523,47.6274599 C142.774632,47.4600889 142.666759,47.2256441 142.643496,46.9716888 L142.643496,46.9716888 C142.413398,47.2292952 142.153071,47.4499491 141.869819,47.6274599 C141.495555,47.8476979 141.076745,47.9532135 140.655146,47.9334864 C140.339517,47.936929 140.027329,47.85919 139.742207,47.7061524 C139.468339,47.5671041 139.225223,47.3610376 139.030425,47.102843 C138.823588,46.8278655 138.665938,46.5101359 138.566218,46.1672762 C138.454808,45.7776119 138.399941,45.3701364 138.403746,44.9606574 C138.404561,44.4552259 138.477716,43.9532713 138.620376,43.4742429 C138.761026,43.012075 138.970336,42.5803734 139.239317,42.1976752 C139.506647,41.8324607 139.838727,41.5346066 140.21415,41.3233137 C140.624159,41.100752 141.074634,40.9899481 141.529401,40.9998 C141.885694,40.9866945 142.240027,41.0643928 142.566128,41.2271339 C142.85536,41.394554 143.084828,41.6693208 143.216017,42.0053156 L143.216017,42.0053156 L143.339805,41.2096467 L144.809792,41.2096467 L144.19085,44.6896054 Z M142.744074,44.2087066 C142.755278,43.7972258 142.655437,43.3916314 142.457814,43.0458058 C142.256511,42.7322958 141.9252,42.5599928 141.583559,42.5911378 C141.135334,42.5737821 140.708897,42.809831 140.446254,43.2206781 C140.154683,43.6712512 140.004891,44.2191207 140.020731,44.7770415 C140.020815,44.9676911 140.036353,45.1579311 140.067152,45.3453765 C140.095492,45.520845 140.150458,45.6894562 140.229624,45.8437625 C140.314268,45.9932601 140.428068,46.1188785 140.562305,46.2109943 C140.729244,46.3092916 140.91573,46.3574644 141.103879,46.3508922 C141.371229,46.3526906 141.635558,46.2869704 141.877556,46.1585326 C142.078863,46.0377028 142.251381,45.8637305 142.380446,45.651403 C142.503773,45.4406618 142.592851,45.2067503 142.643496,44.9606574 C142.700013,44.714629 142.733721,44.4626213 142.744074,44.2087066 L142.744074,44.2087066 Z" id="Shape" fill="#FFFFFF"></path>
                <path d="M85.6686475,39.4520548 L46.3049337,39.4520548 C45.8266063,39.4520548 45.4388454,38.7160845 45.4388454,37.8082192 C45.4388454,36.9003538 45.8266063,36.1643836 46.3049337,36.1643836 L85.6686475,36.1643836 C86.1469749,36.1643836 86.5347358,36.9003538 86.5347358,37.8082192 C86.5347358,38.7160845 86.1469749,39.4520548 85.6686475,39.4520548 Z" id="Path" fill="#093F68"></path>
                <path d="M77.4228427,50.9589041 L20.0301906,50.9589041 C19.5371577,50.9589041 19.1374755,50.2229338 19.1374755,49.3150685 C19.1374755,48.4072032 19.5371577,47.6712329 20.0301906,47.6712329 L77.4228427,47.6712329 C77.9158756,47.6712329 78.3155577,48.4072032 78.3155577,49.3150685 C78.3155577,50.2229338 77.9158756,50.9589041 77.4228427,50.9589041 L77.4228427,50.9589041 Z" id="Path" fill="#093F68"></path>
                <path d="M100.468372,65.7534247 L39.7243871,65.7534247 C39.2489339,65.7534247 38.8635029,65.0174544 38.8635029,64.109589 C38.8635029,63.2017237 39.2489339,62.4657534 39.7243871,62.4657534 L100.468372,62.4657534 C100.943825,62.4657534 101.329256,63.2017237 101.329256,64.109589 C101.329256,65.0174544 100.943825,65.7534247 100.468372,65.7534247 Z" id="Path" fill="#093F68"></path>
                <rect id="Rectangle" fill="#FFBC0E" x="29.0004892" y="90.4109589" width="128.219178" height="18.0821918" rx="9.04109589"></rect>
                <path d="M149.119342,108.493151 L37.0920756,108.493151 C31.7153505,108.493151 27.3566536,104.445314 27.3566536,99.4520548 C27.3566536,94.4587954 31.7153505,90.4109589 37.0920756,90.4109589 L149.128081,90.4109589 C154.504806,90.4109589 158.863503,94.4587954 158.863503,99.4520548 C158.863503,104.445314 154.504806,108.493151 149.128081,108.493151 L149.119342,108.493151 Z M37.0920756,92.0341359 C32.6806512,92.0341359 29.1044852,95.3552513 29.1044852,99.4520548 C29.1044852,103.548858 32.6806512,106.869974 37.0920756,106.869974 L149.128081,106.869974 C153.539505,106.869974 157.115671,103.548858 157.115671,99.4520548 C157.115671,95.3552513 153.539505,92.0341359 149.128081,92.0341359 L37.0920756,92.0341359 Z" id="Shape" fill="#093F68"></path>
                <path d="M75.667018,97.2222824 C75.5397497,97.0057979 75.352064,96.8408595 75.1323044,96.7523754 C74.7727232,96.5872681 74.3750064,96.5517927 73.9960381,96.651023 C73.8644455,96.6875611 73.7399115,96.7499871 73.6284225,96.8353002 C73.5181371,96.9149956 73.4265212,97.0223452 73.3610658,97.1485715 C73.2918048,97.2898732 73.2572426,97.4486879 73.260807,97.6092645 C73.2514956,97.8444818 73.3446341,98.0704526 73.5114539,98.2173794 C73.7013137,98.3684125 73.9094237,98.4893682 74.1297165,98.57672 C74.3803635,98.6780725 74.6477203,98.7794249 74.9652064,98.8807774 C75.2599725,98.9664376 75.5415489,99.0999633 75.8006964,99.2769734 C76.0480361,99.4498281 76.2588681,99.6791937 76.418959,99.9495853 C76.5995886,100.286176 76.6867343,100.6738 76.6696059,101.064463 C76.6792924,101.445954 76.6077546,101.824638 76.4607334,102.170126 C76.3287127,102.473469 76.1341462,102.738526 75.8926003,102.94409 C75.6445134,103.15924 75.3607007,103.318866 75.0571103,103.413997 C74.7338835,103.515775 74.3990018,103.56543 74.0628773,103.561419 C73.6300468,103.565021 73.2000692,103.48391 72.7929326,103.321859 C72.3817151,103.157525 72.0181205,102.874296 71.7402153,102.501825 L72.6926738,101.4883 C72.8429776,101.745225 73.0538008,101.952244 73.3025815,102.087201 C73.5588392,102.239964 73.8468575,102.316195 74.1380714,102.308334 C74.288005,102.305786 74.4369455,102.280993 74.5808811,102.234623 C74.7227785,102.193227 74.8580442,102.127964 74.9819162,102.041132 C75.0997299,101.951032 75.1993038,101.834946 75.2743377,101.700219 C75.3454539,101.555999 75.3827878,101.394477 75.3829514,101.230312 C75.3963984,100.97843 75.3039507,100.733745 75.1323044,100.566914 C74.945744,100.398203 74.7336071,100.267193 74.505687,100.179932 C74.2327204,100.060956 73.9537609,99.9594354 73.670197,99.8758744 C73.3781047,99.7818377 73.0975282,99.6487861 72.8347071,99.4796784 C72.5858737,99.3128196 72.3745072,99.0860226 72.2164445,98.8162804 C72.0348892,98.4801086 71.9476732,98.0921721 71.9657975,97.7014032 C71.9571348,97.3356286 72.0348728,96.9736566 72.1913798,96.651023 C72.3353879,96.3638906 72.535085,96.1153478 72.7762228,95.9231279 C73.0287141,95.7221964 73.3116241,95.5724384 73.6117127,95.4808626 C73.9251084,95.3885603 74.248147,95.3420929 74.5725262,95.3426547 C74.9412475,95.3385681 75.3081063,95.4008104 75.6586631,95.5269319 C76.0108556,95.6532602 76.3332865,95.8640907 76.6027667,96.1442606 L75.667018,97.2222824 Z" id="Path" fill="#093F68"></path>
                <polygon id="Path" fill="#093F68" points="79.9593933 95.3424658 84.6732106 95.3424658 84.6732106 96.6687642 81.2320403 96.6687642 81.2320403 98.6920955 84.5308751 98.6920955 84.5308751 100.008713 81.265531 100.008713 81.265531 102.235345 84.8909002 102.235345 84.8909002 103.561644 79.9928841 103.561644"></polygon>
                <polygon id="Path" fill="#093F68" points="88.1785714 95.3424658 90.3330087 95.3424658 94.7711494 101.443997 94.7711494 95.3424658 96.3977495 95.3424658 96.3977495 103.561644 94.3294898 103.561644 89.8051715 97.2570508 89.8051715 103.561644 88.1785714 103.561644"></polygon>
                <path d="M99.6854207,95.3424658 L103.274711,95.3424658 C103.864409,95.3424658 104.450329,95.4273842 105.010428,95.5938759 C106.130361,95.9200777 107.042597,96.6624459 107.517574,97.634166 C107.787838,98.2085032 107.919331,98.8282387 107.903289,99.4520548 C107.934817,100.654437 107.344788,101.801634 106.306858,102.556003 C105.845773,102.892819 105.318816,103.148647 104.753285,103.310234 C104.214016,103.471964 103.650093,103.556787 103.081854,103.561644 L99.6854207,103.561644 L99.6854207,95.3424658 Z M102.513996,102.236906 C102.997924,102.240864 103.480421,102.188869 103.949712,102.082192 C104.370678,101.98753 104.767294,101.820052 105.117571,101.589041 C105.458392,101.371506 105.731436,101.078463 105.910429,100.738114 C106.114442,100.334999 106.213403,99.8950562 106.199715,99.4520548 C106.211443,99.0152104 106.123932,98.5808254 105.942572,98.1756648 C105.790431,97.8398817 105.547278,97.5439635 105.235428,97.3150685 C104.918354,97.0877672 104.554045,96.9200855 104.163998,96.8219178 C103.716854,96.7139467 103.255402,96.6618894 102.792568,96.6672039 L101.313994,96.6672039 L101.313994,102.236906 L102.513996,102.236906 Z" id="Shape" fill="#093F68"></path>
                <polygon id="Path" fill="#FFFFFF" points="150.448063 97.8526393 134.205969 93.6986301 138.368107 109.940725 142.026236 106.274466 152.472228 116.712329 157.219667 111.956761 146.781805 101.518898"></polygon>
                <path d="M152.9525,119.999972 C152.721788,120.00129 152.500037,119.910799 152.336233,119.748475 L141.798926,109.220889 L138.500593,112.516179 C138.275551,112.746417 137.9414,112.833216 137.632611,112.741646 C137.334813,112.659114 137.1034,112.424611 137.025023,112.125947 L132.589633,94.7823133 C132.513272,94.4863866 132.598456,94.1721501 132.813857,93.9551692 C133.029258,93.7381882 133.343073,93.6504994 133.639892,93.7243516 L150.99954,98.1556501 C151.30324,98.2319853 151.542234,98.4658457 151.624937,98.7676128 C151.70764,99.0693799 151.621227,99.3922579 151.398812,99.6125154 L148.100478,102.907806 L158.611745,113.452735 C158.7721,113.614257 158.862501,113.832266 158.863475,114.059763 C158.864794,114.290262 158.77422,114.511808 158.611745,114.675462 L153.534048,119.748475 C153.378849,119.902529 153.171145,119.992348 152.9525,119.999972 Z M141.798926,107.130981 C142.029639,107.129648 142.251389,107.220139 142.415194,107.382464 L152.9525,117.910049 L156.797662,114.059763 L146.260356,103.540849 C146.097881,103.377195 146.007307,103.155649 146.008641,102.92515 C146.011838,102.695548 146.101746,102.475632 146.260356,102.309451 L149.098658,99.4824381 L134.655431,95.788244 L138.353036,110.218148 L141.191339,107.382464 C141.353009,107.222257 141.57122,107.131939 141.798926,107.130981 L141.798926,107.130981 Z" id="Shape" fill="#093F68"></path>
            </g>
        </g>
    </g>
</svg>