<?xml version="1.0" encoding="UTF-8"?>
<svg width="141px" height="140px" viewBox="0 0 141 140" version="1.1" xmlns="http://www.w3.org/2000/svg" xmlns:xlink="http://www.w3.org/1999/xlink">
    <title>Social Media_Flatline</title>
    <g id="Page-1" stroke="none" stroke-width="1" fill="none" fill-rule="evenodd">
        <g id="About-view-" transform="translate(-1205.000000, -800.000000)" fill-rule="nonzero">
            <g id="Social-Media_Flatline" transform="translate(1205.602362, 800.000000)">
                <path d="M2.44397923,46.8208057 C2.34109739,47.4251723 2.41024916,48.0449139 2.64416009,48.6148365 C3.46156527,51.1062501 9.55039981,60.6619927 9.39470358,53.2090458 C9.35021895,50.9997794 3.27250557,43.5415091 2.44397923,46.8208057 Z" id="Path" fill="#FFFFFF"></path>
                <path d="M7.02567723,57 C4.86465893,57 1.24142988,50.820114 0.671813645,49.0948497 C0.407581637,48.4507308 0.332510178,47.7511295 0.454537349,47.0700217 L0.454537349,47.0700217 C0.718792304,46.0548339 1.41172752,45.9605269 1.81104612,46.0104542 C4.01904308,46.2379006 8.34695201,51.7354472 8.39393066,53.8102025 C8.44090932,55.8849577 8.04159072,56.8557657 7.1842302,56.9889051 L7.02567723,57 Z M1.02415359,47.2031611 C0.92727995,47.7838858 1.00038546,48.3785803 1.23555755,48.922878 C1.95785443,51.1418675 5.64567913,56.6338667 7.07265589,56.4230627 C7.29580452,56.3897779 7.8184421,56.0624769 7.77146344,53.8212974 C7.73035711,52.0738432 3.58449048,46.7704581 1.72883347,46.6095813 C1.48219551,46.6095813 1.18270656,46.6095813 1.02415359,47.2308984 L1.02415359,47.2031611 Z" id="Shape" fill="#231F20"></path>
                <path d="M69.3976378,70.0601247 L29.6937491,77.402313 C29.6937491,77.402313 16.8259289,58.6526121 16.4222543,59.004903 C12.4795144,62.3600537 7.3976378,66.5260326 7.3976378,66.5260326 C7.3976378,66.5260326 11.1523649,91.7567663 20.9345625,96.7950844 C30.7167602,101.833402 61.2356685,89.4417123 61.2356685,89.4417123 L69.3976378,70.0601247 Z" id="Path" fill="#F99E3B"></path>
                <path d="M100.847793,72.4417617 L121.528568,84.662028 L128.102589,51 L138.26493,54.8445782 C138.26493,54.8445782 140.220701,115.429638 129.116084,113.97419 C118.011467,112.518743 91.3976378,96.6021893 91.3976378,96.6021893 L100.847793,72.4417617 Z" id="Path" fill="#F99E3B"></path>
                <path d="M68.7515528,69.8978477 C68.7515528,69.8978477 55.2835976,69.1913494 45.6636295,93.6887656 C36.0436614,118.186182 29.3976378,133.975596 29.3976378,133.975596 L90.4157209,140 C90.4157209,140 97.7763708,112.616347 100.959206,92.2921993 C102.569863,81.9959457 103.114079,73.5124899 101.080143,71.3163209 C95.0168142,64.7990115 68.7515528,69.8978477 68.7515528,69.8978477 Z" id="Path" fill="#F99E3B"></path>
                <path d="M91.6728177,135 L91.5934291,135 C91.4495634,134.954031 91.3671072,134.794495 91.4081892,134.641554 L104.861903,86.2071642 C104.905305,86.0549418 105.056082,85.9676959 105.200628,86.0111643 C105.270585,86.0319308 105.329675,86.0816621 105.364537,86.1491131 C105.399399,86.2165641 105.407089,86.2960379 105.385867,86.3695642 L91.9321536,134.809554 C91.8934448,134.925461 91.7889816,135.002157 91.6728177,135 L91.6728177,135 Z" id="Path" fill="#231F20"></path>
                <path d="M30.6788836,130.994134 C30.6465,131.001955 30.6127688,131.001955 30.5803851,130.994134 C30.4340143,130.936978 30.3606087,130.770034 30.416221,130.620781 L49.8532589,80.1846851 C49.8787814,80.1121097 49.9326909,80.0535458 50.0021637,80.0229244 C50.0716365,79.992303 50.150463,79.9923609 50.2198922,80.0230845 C50.3633903,80.0800785 50.4344145,80.2446823 50.3785843,80.3908651 L30.9470185,130.832534 C30.8960553,130.934868 30.7915,130.997882 30.6788836,130.994134 Z" id="Path" fill="#231F20"></path>
                <path d="M61.4071287,67.156203 C61.4071287,66.8253721 61.4071287,66.505388 61.4071287,66.1962509 C61.3554207,65.0612104 61.5153317,63.9264563 61.87869,62.8499769 C62.4671605,61.6192674 63.3679948,60.5645541 64.491248,59.7911462 C68.9261892,56.4189916 74.2557218,54.4288993 79.81428,54.0693973 C85.3593752,53.7270578 90.9094761,54.6544779 96.0424929,56.7811266 C98.4130349,57.6621052 100.613532,58.9464895 102.546787,60.5775477 C106.092858,63.8716721 107.856561,68.660265 107.294921,73.4691089 C107.105213,75.0961465 107.029329,77.7373709 106.368059,79.2505158 C105.208127,81.8863167 101.782532,81.794118 99.4680876,82.504591 C97.1536431,83.2150641 95.3378611,84.869219 93.1914442,85.9322169 C91.2564168,86.8975925 88.6330183,86.6806542 86.5028621,86.843358 C81.2994271,87.2446939 75.6190105,87.0548728 71.3261766,84.088241 C68.3938242,82.0652909 67.8843212,78.2959871 66.241987,75.3835898 C65.3097049,73.7565522 64.0738891,73.2738644 62.8651745,72.0915504 C61.6564599,70.9092364 61.4125489,68.8917098 61.4071287,67.156203 Z" id="Path" fill="#F99E3B"></path>
                <path d="M73.1158631,87.8370347 C73.6407257,89.6458657 75.0406325,91.1083141 76.8847922,91.7743427 C78.6711592,92.2366358 80.5786471,91.9821694 82.1624318,91.0702848 C83.7147184,90.1628565 85.0679679,88.9785321 86.1477043,87.5824907 C87.7184705,85.7069582 89.0415832,83.6553007 90.0874309,81.4734351 C90.8273629,80.0826499 91.2686365,78.565581 91.3854911,77.0107917 C91.4942989,75.4581327 90.8678382,73.9404851 89.6775171,72.873098 C86.4551396,70.2301732 77.7786319,70.2843315 74.801064,73.6746407 C72.0113732,76.8591484 71.9430543,84.3059139 73.1158631,87.8370347 Z" id="Path" fill="#231F20"></path>
                <path d="M78.6604619,92.9999441 C78.0758835,93.0025644 77.4945332,92.9130885 76.9377922,92.7347488 C75.0606555,92.0306879 73.6340158,90.4699694 73.100435,88.5367485 L73.100435,88.5367485 C71.9409458,84.8745457 72.0292879,77.1358636 74.7954978,73.8161292 C76.070936,72.2971159 78.4837778,71.2862817 81.4211505,71.0542869 C84.7339768,70.7836264 87.9529398,71.5403712 89.625917,72.9820528 C90.8428256,74.1182395 91.4887789,75.7388618 91.3872364,77.4010005 C91.266293,79.025799 90.8292844,80.6113209 90.1007555,82.0685139 C89.0725563,84.3131723 87.7746612,86.4240606 86.2357914,88.354467 C85.1694373,89.8164974 83.8215499,91.0503861 82.2714426,91.9835277 C81.1737798,92.6240475 79.9309381,92.9738617 78.6604619,92.9999441 Z M73.64153,88.3655143 C74.1242892,90.1216954 75.4138708,91.5430842 77.1144763,92.1934277 C78.7699911,92.6379354 80.5351668,92.3865172 82.0008951,91.4974435 C83.4878485,90.6000204 84.7811131,89.4151279 85.805124,88.0119985 C87.3105233,86.1158687 88.5805092,84.044092 89.5872674,81.8420429 C90.2871765,80.455398 90.7074265,78.9444934 90.8240559,77.3954768 C90.9264461,75.8963791 90.3508615,74.4304583 89.2559848,73.4018529 C87.693435,72.0540738 84.6401134,71.3525659 81.4763643,71.6121791 C78.6825474,71.8441738 76.40774,72.7776765 75.237208,74.1862161 C72.586947,77.356811 72.5206904,84.8193088 73.64153,88.3655143 L73.64153,88.3655143 Z" id="Shape" fill="#231F20"></path>
                <path d="M99.87947,62 C101.344224,59.5019733 102.998153,57.0696841 104.127798,54.4401823 C105.257442,51.8106805 105.824967,48.814144 105.019622,46.135339 C104.747657,45.0299965 104.096166,44.058959 103.181923,43.3962747 C102.194707,42.7385103 100.912965,42.7515011 99.938925,43.4291434 C99.4986113,42.1981127 98.7272499,41.1164985 97.7120663,40.30661 C95.4065391,38.1821563 92.5575675,36.7583302 89.491066,36.1980134 C86.312432,35.6355098 83.0407746,36.2811397 80.3025714,38.0112741 C79.1891421,38.7453433 78.1946226,39.6547127 77.0163333,40.2792194 C75.006962,41.3209166 72.6261883,41.3209166 70.616817,40.2792194 C69.8276875,44.4206847 71.2383917,48.6717127 73.7409052,51.9421556 C76.2434188,55.2125984 79.7512617,57.5955845 83.4320646,59.5184077 C85.3504699,60.6062737 87.4409139,61.347736 89.609976,61.7096592 C91.8577126,62.0744541 94.1576689,61.5466264 96.0311122,60.2360425" id="Path" fill="#FFFFFF"></path>
                <path d="M100.509442,61.9988686 C100.459302,62 100.409904,61.9868815 100.367079,61.9613061 C100.301544,61.9244103 100.254067,61.863057 100.235494,61.7912596 C100.216921,61.7194621 100.228836,61.6433527 100.26852,61.580315 C100.65728,60.9417524 101.056992,60.3031898 101.462179,59.6699934 C102.626238,57.9272778 103.658397,56.1032934 104.550362,54.2126983 C105.45382,52.1682249 106.335376,49.1256621 105.442869,46.2655458 C105.179784,45.2561879 104.563571,44.3693319 103.70166,43.7595903 C102.809713,43.1769359 101.647786,43.1769359 100.755839,43.7595903 C100.680148,43.8139662 100.58261,43.8298976 100.493015,43.8025188 C100.405864,43.7744779 100.338323,43.7062803 100.312324,43.6200724 C99.8741348,42.4630269 99.1157207,41.4484814 98.1221227,40.6901971 C95.8316242,38.6395784 92.9954028,37.2665535 89.9417222,36.7300361 C86.7995003,36.2057837 83.5702788,36.8322268 80.8688148,38.4901077 C80.4417256,38.7637773 80.0255875,39.0696434 79.6204003,39.3647774 C78.9591438,39.8778469 78.2538233,40.3338754 77.5123319,40.7277596 C75.5111567,41.7112657 73.1670005,41.7702718 71.1169451,40.8887418 C70.5255909,44.489376 71.6644954,48.4012424 74.2927365,51.728207 C76.4829374,54.4971001 79.5711208,56.8313413 84.0117532,59.0743594 C85.9265577,60.1342293 88.0144861,60.860476 90.1826443,61.2207881 C92.3858696,61.5686758 94.6411423,61.0709003 96.479472,59.8309755 C96.6049917,59.7549022 96.7690185,59.7854315 96.8573403,59.9013057 C96.9456621,60.0171799 96.9289988,60.179985 96.8189531,60.2763595 C94.8617397,61.5997128 92.4598232,62.133907 90.1114628,61.7681275 C87.8789166,61.3992226 85.7282373,60.6549024 83.7544045,59.568038 C79.2371151,57.2874575 76.0887013,54.8995555 73.8492208,52.0555374 C71.0402881,48.5139299 69.8630551,44.264001 70.6241499,40.4111614 C70.6417904,40.3239716 70.7007626,40.2502348 70.7829395,40.2126167 C70.8619128,40.1725211 70.9558393,40.1725211 71.0348126,40.2126167 C72.9897348,41.1840292 75.3000611,41.1840292 77.2549833,40.2126167 C77.9683861,39.8335534 78.6463196,39.393623 79.2809191,38.8979291 C79.6915818,38.5974291 80.118671,38.2861969 80.5621867,38.0071612 C83.3898655,36.2793167 86.7689037,35.6353595 90.0512322,36.198795 C93.2112093,36.7516932 96.1464424,38.1713723 98.5163589,40.2931078 C99.4775507,41.0522511 100.239732,42.0254923 100.739413,43.1317598 C101.78408,42.6039882 103.036854,42.6633289 104.024714,43.2873759 C105.006318,43.9654916 105.709093,44.9643406 106.006846,46.1045637 C106.948632,49.1256621 106.006846,52.3023767 105.092437,54.4327072 C104.190242,56.3478347 103.145241,58.1951903 101.965925,59.9597612 C101.560738,60.5929577 101.161026,61.2261542 100.772266,61.8647168 C100.719059,61.9560513 100.616307,62.0084983 100.509442,61.9988686 L100.509442,61.9988686 Z" id="Path" fill="#231F20"></path>
                <path d="M79.7234417,68.7242015 L76.0269438,75.9837904 C76.0269438,75.9837904 73.2021574,84.6559039 80.1041258,84.9879316 C87.0060942,85.3199593 91.281894,78.6906603 91.281894,78.6906603 L98.4155831,62.3312612 C98.4155831,62.3312612 94.5535704,58.4200873 99.3976378,48.4930216 C93.4976699,49.2385059 87.5093641,48.3783926 82.0406493,46 C82.0406493,46 75.3869532,56.36039 74.4876559,61.554654 C73.5883587,66.748918 79.7234417,68.7242015 79.7234417,68.7242015 Z" id="Path" fill="#FFFFFF"></path>
                <path d="M80.7023499,85 C80.5512216,85 80.4000933,85 80.2435676,85 C78.4570155,84.922335 77.1454379,84.2732779 76.3412196,83.0750185 C74.5438726,80.401125 75.9472066,75.9631274 76.0119759,75.7745125 L79.4933237,68.8456887 C78.2465154,68.346414 73.6964747,66.1828902 74.4898982,61.5729201 C75.3696807,56.4525804 81.6522991,46.5502982 81.922171,46.1286885 C81.9953565,46.0130466 82.1390199,45.968515 82.2622096,46.023286 C87.5657893,48.3357356 93.3668927,49.177394 99.0860254,48.4641847 C99.1893316,48.443966 99.2946561,48.4872671 99.3558973,48.5751347 C99.4115513,48.6667978 99.4115513,48.7830364 99.3558973,48.8746995 C96.9486398,53.8286143 96.8083064,57.195945 97.1105629,59.137569 C97.234474,60.2590566 97.6733255,61.3192226 98.3735635,62.1886923 C98.4545599,62.274153 98.4760135,62.4020431 98.4275379,62.5104471 L91.4486499,78.6370209 C91.3838807,78.7479709 87.2656351,85 80.7023499,85 Z M82.2622096,46.6557007 C81.3500425,48.1091449 75.8338604,57.0739001 75.0404369,61.6838701 C74.2092314,66.4990975 79.8981316,68.4074365 79.9736957,68.4240789 C80.0508911,68.4531075 80.113254,68.5131981 80.1464137,68.5905039 C80.1813787,68.6659575 80.1813787,68.7535926 80.1464137,68.8290462 L76.53013,75.9853174 C76.53013,75.9853174 75.1699755,80.30127 76.8107968,82.7421687 C77.5124638,83.7850982 78.6783105,84.3509429 80.2813497,84.4064178 C86.8122503,84.7115302 90.9304958,78.4206686 90.9736754,78.3540986 L97.8608069,62.4383297 C97.2131142,61.6394901 94.6547284,57.6896722 98.6650252,49.1243369 C93.0829633,49.7065121 87.4475175,48.8583733 82.2622096,46.6557007 Z" id="Shape" fill="#231F20"></path>
                <path d="M85.3976378,54 C85.3976378,54 80.8507087,58.9059969 81.4525082,60.0426109 C82.0543076,61.1792248 84.4460746,60.9878562 84.4460746,60.9878562" id="Path" fill="#FFFFFF"></path>
                <path d="M83.9457756,62 C83.2650508,62 81.9264444,61.8590891 81.4695822,60.8298271 C80.8847985,59.5248698 84.0280108,55.3159233 85.005696,54.0906113 C85.0485878,54.0326195 85.1069738,54 85.1678821,54 C85.2287905,54 85.2871765,54.0326195 85.3300683,54.0906113 C85.3733132,54.1481295 85.3976378,54.2264256 85.3976378,54.3081042 C85.3976378,54.3897827 85.3733132,54.4680789 85.3300683,54.5255971 C83.4432271,56.9455882 81.6066409,59.9414759 81.8670523,60.5296256 C82.2508166,61.3812175 83.7630307,61.4363565 84.3112654,61.3812175 C84.4366282,61.3741123 84.5436732,61.5014097 84.5534024,61.6691658 C84.558431,61.7498361 84.5389516,61.8298107 84.4993831,61.8909469 C84.4598147,61.9520831 84.4035113,61.9891986 84.3432458,61.9938734 C84.2838537,61.9877469 84.1422264,62 83.9457756,62 Z" id="Path" fill="#231F20"></path>
                <ellipse id="Oval" fill="#231F20" transform="translate(91.734161, 53.893695) rotate(-78.820000) translate(-91.734161, -53.893695) " cx="91.7341612" cy="53.8936951" rx="1.48176099" ry="1"></ellipse>
                <ellipse id="Oval" fill="#231F20" transform="translate(82.738995, 51.634983) rotate(-79.592289) translate(-82.738995, -51.634983) " cx="82.7389954" cy="51.6349831" rx="1.47642146" ry="1"></ellipse>
                <path d="M94.3976378,58.1295582 C95.3361297,57.3412256 96.4219788,56.7190678 97.6015439,56.2938196 C98.2249987,56.0296695 98.9180836,55.9409283 99.5952154,56.0385542 C100.116479,56.1737362 100.583864,56.4474585 100.939921,56.8260752 C102.037492,57.9025207 102.556862,59.3798412 102.354784,60.850579 C102.274619,61.5413173 102.00928,62.2023552 101.58304,62.7732165 C100.849012,63.6547376 99.8208742,64.2851 98.6597684,64.5655057 C97.5119795,64.8334422 96.335104,64.9792109 95.151842,65" id="Path" fill="#FFFFFF"></path>
                <path d="M95.3112119,65.9886382 C95.1895553,65.9524096 95.1056782,65.8364928 95.1056782,65.704594 C95.1056782,65.5726952 95.1895553,65.4567785 95.3112119,65.4205498 C96.4011831,65.3988817 97.4852741,65.2483216 98.5426721,64.9717599 C99.571841,64.7032427 100.486213,64.0857458 101.142009,63.2163666 C101.508923,62.6536934 101.738965,62.0063821 101.812278,61.330313 C101.988447,59.8778705 101.53275,58.4193533 100.569828,57.3536938 C100.273627,57.0002899 99.8856482,56.7438008 99.4527124,56.6151789 C98.8777551,56.5323937 98.2920637,56.6210259 97.7634161,56.8708187 C96.6912676,57.3024832 95.7033865,57.9338715 94.8480177,58.7341488 C94.7316675,58.8226431 94.570149,58.8060748 94.4725754,58.6956366 C94.3750019,58.5851983 94.3724156,58.4160252 94.4665637,58.3024015 C95.3702465,57.4554568 96.4132968,56.7857142 97.5454424,56.3254538 C98.176885,56.028857 98.8779665,55.932066 99.5616992,56.0470904 C100.103644,56.1941481 100.590063,56.5090964 100.956731,56.950351 C102.037925,58.1402614 102.551696,59.772073 102.357212,61.3984836 C102.272554,62.1697116 102.006773,62.9072762 101.583405,63.5458579 C100.856031,64.526261 99.8359081,65.2259105 98.6843551,65.5341675 C97.5851371,65.8169827 96.4594682,65.9731951 95.3275599,66 L95.3112119,65.9886382 Z" id="Path" fill="#231F20"></path>
                <path d="M78.9717043,68 C78.9717043,68 84.6528696,69.8547852 88.3976378,68.732152 C88.3976378,68.732152 82.3697346,75.1805133 75.3976378,74.9961194 L78.9717043,68 Z" id="Path" fill="#231F20"></path>
                <path d="M75.9897014,76 L75.6699768,76 C75.5720994,75.9993846 75.4818773,75.9447451 75.4329395,75.8564475 C75.3858706,75.7670256 75.3858706,75.6587646 75.4329395,75.5693426 L79.1207982,68.1620362 C79.1859675,68.0337413 79.3290463,67.9712414 79.4625728,68.0127417 C79.5176978,68.0127417 85.2947917,69.9420866 89.0322628,68.793667 C89.1556678,68.7527116 89.2899652,68.8048743 89.3575,68.9199931 C89.4229081,69.0361853 89.4072111,69.183343 89.3189125,69.2817453 C89.0598253,69.5516239 83.0953065,76 75.9897014,76 Z M79.5121853,68.6501145 L76.1440513,75.4028218 C81.5462956,75.3339166 86.3862656,71.2799954 88.1612887,69.5918186 C84.7655923,70.1660284 80.5485342,68.971672 79.5121853,68.6501145 L79.5121853,68.6501145 Z" id="Shape" fill="#231F20"></path>
                <path d="M69.1184007,85 C68.9858045,85 68.8716548,84.9078814 68.8456555,84.7799562 C67.5392659,79.815578 65.0100502,75.2442535 61.4815368,71.4699894 C61.4278884,71.4184795 61.3976378,71.3478486 61.3976378,71.2740967 C61.3976378,71.2003449 61.4278884,71.129714 61.4815368,71.0782041 C61.5931179,70.973932 61.7681637,70.973932 61.8797447,71.0782041 C65.4816413,74.9288816 68.0617557,79.5947817 69.3911458,84.6618839 C69.4072279,84.7338436 69.3931444,84.8091436 69.3520798,84.870757 C69.3110152,84.9323705 69.2464378,84.9750937 69.1729497,84.9892662 L69.1184007,85 Z" id="Path" fill="#231F20"></path>
                <path d="M88.691548,89 C88.6254774,89.0017038 88.560963,88.9808174 88.5100401,88.9411285 C88.4478735,88.8958866 88.407919,88.8287768 88.3993605,88.7552251 C88.390802,88.6816734 88.4143758,88.6080067 88.4646631,88.5511582 C93.2177533,83.6333782 99.2749019,79.9955827 106.014204,78.011275 C106.168921,77.9690016 106.331519,78.049104 106.382891,78.192905 C106.407618,78.2630218 106.401049,78.33959 106.364688,78.4050575 C106.328328,78.470525 106.265295,78.5192774 106.190039,78.5401389 C99.5596548,80.4898277 93.5988566,84.0646808 88.9184328,88.8983921 C88.8637027,88.963642 88.7798286,89.0011639 88.691548,89 L88.691548,89 Z" id="Path" fill="#231F20"></path>
                <path d="M84.3151874,54.9958566 C84.2266103,55.0013811 84.137777,55.0013811 84.0492,54.9958566 L84.0492,54.9958566 L77.8040368,54.0001909 C77.3670736,53.9318238 76.9752572,53.6915086 76.7152682,53.3324097 C76.4552791,52.9733107 76.3485476,52.5250276 76.4186857,52.0867327 L76.8453738,49.4056664 C76.9900366,48.4968561 77.8404125,47.8771913 78.7460756,48.0206342 L84.9912388,49.0107376 C85.428202,49.0791047 85.8200184,49.3194198 86.0800074,49.6785188 C86.3399965,50.0376177 86.446728,50.4859008 86.3765899,50.9241957 L85.9443604,53.5885749 C85.8167046,54.3964322 85.1245109,54.9923233 84.309646,54.9958566 L84.3151874,54.9958566 Z M84.1378624,54.4396187 C84.4313787,54.4806396 84.7290356,54.4019563 84.9643528,54.2211422 C85.1996701,54.0403282 85.3530442,53.7724465 85.3902199,53.4773273 L85.8113667,50.796261 C85.8982145,50.1991739 85.4950193,49.6414482 84.9025763,49.5391635 L78.6574132,48.5490602 C78.3725414,48.4997138 78.0799878,48.5701119 77.8483681,48.7437434 C77.6120502,48.9114306 77.4539804,49.1685131 77.4105971,49.4557278 L76.9839089,52.1423565 C76.900333,52.7374539 77.3027203,53.2915991 77.8926993,53.3938916 L84.1378624,54.4396187 Z" id="Shape" fill="#231F20"></path>
                <path d="M95.3143196,57.993823 C95.2257905,58.002059 95.1366876,58.002059 95.0481585,57.993823 L95.0481585,57.993823 L88.7989182,57.0016098 C87.8929436,56.856903 87.2752123,56.0062685 87.4182077,55.1003299 L87.8396294,52.4285604 C87.9027677,51.984429 88.1427269,51.5846363 88.505032,51.3199424 C88.8626958,51.0588646 89.309737,50.9511333 89.7471171,51.0206155 L95.9963574,52.0128286 C96.902332,52.1575354 97.5200633,53.00817 97.3770679,53.9141086 L96.9556462,56.5914211 C96.8925079,57.0355526 96.6525487,57.4353453 96.2902435,57.7000392 C96.0036979,57.8976306 95.662364,58.0003828 95.3143196,57.993823 L95.3143196,57.993823 Z M95.1368789,57.4062554 C95.4235099,57.4506297 95.7161246,57.3809838 95.9519972,57.2122472 C96.1860316,57.0404157 96.3433127,56.7836792 96.3900539,56.4971886 L96.8114756,53.8254191 C96.8951061,53.2323853 96.4924561,52.6801617 95.902092,52.5782238 L89.6528517,51.5860107 C89.0596112,51.5024094 88.507195,51.9049191 88.4052216,52.4950775 L87.9782549,55.166847 C87.8946245,55.7598808 88.2972745,56.3121044 88.8876386,56.4140423 L95.1368789,57.4062554 Z" id="Shape" fill="#231F20"></path>
                <path d="M88.1874339,51.9998857 C88.1344404,52.0018681 88.083146,51.9779862 88.045946,51.9340114 C87.3142515,51.1341086 86.7604274,51.6328715 86.7361724,51.6563981 C86.6933807,51.6966066 86.638561,51.715249 86.5839022,51.7081801 C86.5292435,51.7011111 86.4792765,51.6689168 86.4451116,51.6187556 C86.4094751,51.5694647 86.3927628,51.5053209 86.3988749,51.4412934 C86.4049869,51.377266 86.4333886,51.3189567 86.4774517,51.2799732 C86.772555,51.0023599 87.5365896,50.7106306 88.3289217,51.5811131 C88.3931757,51.6480198 88.4148779,51.7543972 88.3833259,51.8477842 C88.3517739,51.9411712 88.2736309,52.0018458 88.1874339,51.9998857 Z" id="Path" fill="#231F20"></path>
                <path d="M84.4722939,64 C83.0563578,63.963201 81.6530567,63.7561683 80.3022221,63.3847784 C80.1105821,63.3302682 79.9154744,63.2854777 79.7178808,63.2506323 C79.6119227,63.2679666 79.5040654,63.2300376 79.4416467,63.153492 C79.3610971,63.0459223 79.3941511,62.9020092 79.5160174,62.8296912 C79.6647589,62.7418024 79.8188125,62.7788082 80.4509635,62.9360829 C82.5758408,63.4634157 88.1377073,64.8650109 89.8801067,60.1606469 C89.900736,60.1016426 89.9480884,60.0525069 90.0112401,60.024575 C90.0743918,59.9966431 90.1478884,59.9923275 90.2147749,60.0126236 C90.2812766,60.0306674 90.3366988,60.0711677 90.3686457,60.1250662 C90.4005926,60.1789646 90.4063986,60.2417641 90.3847651,60.2994187 C89.2904532,63.2598837 86.7884102,64 84.4722939,64 Z" id="Path" fill="#231F20"></path>
                <path d="M2.3976378,9.88346755 L11.9181301,128 L133.397638,118.122045 L123.888114,1.13686838e-13 L2.3976378,9.88346755 Z M122.242867,95.3233711 L19.2394765,103.701994 L14.1172761,39.8646053 L117.120667,31.4859825 L122.242867,95.3233711 Z" id="Shape" fill="#FFFFFF"></path>
                <path d="M12.137729,127.99959 C12.0671023,128.003291 11.9973172,127.981863 11.9411029,127.938689 C11.8861055,127.889501 11.8527227,127.820434 11.8482516,127.746584 L2.39832957,10.1340536 C2.39323913,10.0612159 2.41636897,9.98896927 2.46353281,9.93333041 C2.51069666,9.87769155 2.57799773,9.84325749 2.65051564,9.83766213 L123.630237,0.000855523679 C123.779268,-0.0108684863 123.910757,0.0992450733 123.925177,0.248848892 L133.396946,117.866868 C133.402036,117.939705 133.378907,118.011952 133.331743,118.067591 C133.284579,118.12323 133.217278,118.157664 133.14476,118.163259 L12.1595764,127.99959 L12.137729,127.99959 Z M2.96730227,10.3590916 L12.3889736,127.433726 L132.827973,117.636341 L123.40084,0.567195296 L2.96730227,10.3590916 Z M19.4456689,103.788295 C19.3812488,103.789136 19.318861,103.765625 19.2708901,103.722408 C19.2146638,103.675868 19.1792697,103.608683 19.172577,103.535791 L14.0538928,39.9872621 C14.0488024,39.9144244 14.0719322,39.8421777 14.1190961,39.7865389 C14.1662599,39.7309 14.233561,39.696466 14.3060789,39.6908706 L116.890329,31.3363281 C116.963634,31.3318782 117.036069,31.3554865 117.092417,31.4028866 C117.146142,31.4507435 117.179405,31.5175978 117.185268,31.5895035 L122.303952,95.1544984 C122.309043,95.2273361 122.285913,95.2995827 122.238749,95.3552216 C122.191585,95.4108605 122.124284,95.4452945 122.051766,95.4508899 L19.4675162,103.788295 L19.4456689,103.788295 Z M14.6228655,40.2177888 L19.6969135,103.239399 L121.724056,94.9404379 L116.666393,31.9188274 L14.6228655,40.2177888 Z" id="Shape" fill="#231F20"></path>
                <circle id="Oval" fill="#D1D3D4" cx="18.3976378" cy="17" r="5"></circle>
                <path d="M14.6699607,25 C14.5195609,25 14.3976378,24.8734601 14.3976378,24.7173651 C14.3976378,24.5612702 14.5195609,24.4347302 14.6699607,24.4347302 L115.102658,16.0009055 C115.19995,15.9928275 115.294003,16.0392329 115.349389,16.1226414 C115.404776,16.20605 115.413081,16.3137898 115.371175,16.4052763 C115.32927,16.4967629 115.243521,16.5580972 115.14623,16.5661753 L14.7135324,25 L14.6699607,25 Z" id="Path" fill="#D1D3D4"></path>
                <path d="M14.6703185,32 C14.5197211,32 14.3976378,31.8774921 14.3976378,31.726371 C14.3976378,31.5752499 14.5197211,31.4527421 14.6703185,31.4527421 L94.1022026,25.0005712 C94.2519712,24.9910169 94.3822872,25.1024129 94.3966977,25.2523099 C94.4027206,25.3249332 94.3796256,25.3969673 94.3325327,25.4524424 C94.2854399,25.5079175 94.2182402,25.5422503 94.1458315,25.5478291 L14.6975866,32 L14.6703185,32 Z" id="Path" fill="#D1D3D4"></path>
                <circle id="Oval" fill="#F99E3B" cx="25.8976378" cy="112.5" r="6.5"></circle>
                <circle id="Oval" fill="#F99E3B" cx="41.8976378" cy="111.5" r="6.5"></circle>
                <path d="M23.5084839,111.976965 L23.9193879,111.976945 C24.3286032,111.976854 24.6603539,112.308572 24.6603737,112.717788 C24.6603737,112.717812 24.6603737,112.717836 24.660302,112.717859 L24.6601847,115.144965 C24.6600933,115.554152 24.3283863,115.885859 23.9191989,115.885951 L23.508295,115.885971 C23.0990796,115.886062 22.767329,115.554344 22.7673092,115.145128 C22.7673092,115.145104 22.7673092,115.14508 22.7673808,115.145057 L22.7674981,112.717951 C22.7675896,112.308764 23.0992965,111.977057 23.5084839,111.976965 Z" id="Rectangle" fill="#FFFFFF" transform="translate(23.713841, 113.931458) rotate(-4.573921) translate(-23.713841, -113.931458) "></path>
                <path d="M25.3976378,112.435356 L25.713203,116 L30.9642079,115.590341 C30.9642079,115.590341 31.8288565,111.310323 31.1156792,111.059636 C30.4025018,110.808949 28.3134602,111.059636 28.3134602,111.059636 C28.3134602,111.059636 29.0960619,108.100309 28.2503472,108.00248 C27.4046325,107.904651 26.4516256,110.723349 25.3976378,112.435356 Z" id="Path" fill="#FFFFFF"></path>
                <path d="M41.3142759,110.252113 L41.4150723,110.079621 C41.6360709,109.720931 41.9581662,109.426361 42.3459566,109.228288 C42.6469481,109.077506 42.9830853,108.999122 43.3242745,109.000154 C44.2824362,108.988797 45.1182804,109.608426 45.3283439,110.485813 C45.3855944,110.741779 45.4075147,111.003594 45.3935651,111.26481 C45.3954824,111.51645 45.3615841,111.767203 45.2927687,112.010421 C45.1723784,112.396461 44.9707686,112.755942 44.6998488,113.067632 C44.4303385,113.389027 44.1413044,113.69557 43.8341857,113.985736 C43.3124161,114.492084 42.7847174,114.998432 42.2629478,115.510345 C42.1087887,115.66058 41.9664879,115.816379 41.8123287,115.972179 L41.8123287,116 L41.6818863,115.905407 C41.0889664,115.460266 40.4960464,115.037382 39.9031265,114.620062 C39.5058701,114.347413 39.1026846,114.063635 38.7172866,113.774294 C38.4397405,113.562094 38.1926157,113.317088 37.9820659,113.045375 C37.7626695,112.755779 37.6055767,112.4288 37.5195883,112.082757 C37.4539806,111.825296 37.4142784,111.562623 37.4010043,111.298195 C37.3528518,110.516093 37.8248354,109.787467 38.5868442,109.467552 C39.3481697,109.138377 40.2456207,109.269973 40.8636568,109.801408 C41.0229941,109.924575 41.1645145,110.066738 41.2846299,110.224292 L41.3142759,110.252113 Z" id="Path" fill="#FFFFFF"></path>
                <polygon id="Rectangle" fill="#D1D3D4" transform="translate(40.005801, 14.124650) rotate(-4.630000) translate(-40.005801, -14.124650) " points="26.4172546 12.4761389 53.5945084 12.4748087 53.5943471 15.7731612 26.4170933 15.7744914"></polygon>
                <path d="M52.6680253,111 C52.5267707,110.997765 52.4104055,110.894936 52.3991235,110.762379 C52.3914978,110.694354 52.4134442,110.626321 52.4599645,110.573773 C52.5064847,110.521226 52.573618,110.488638 52.6460742,110.483432 L72.1057845,109.00088 C72.178044,108.995195 72.2496803,109.01722 72.3044423,109.061959 C72.3592043,109.106699 72.39245,109.17036 72.3966375,109.238502 C72.4093598,109.379452 72.2992651,109.503811 72.1496869,109.517449 L52.6844887,111 L52.6680253,111 Z" id="Path" fill="#D1D3D4"></path>
                <path d="M136.054947,54 C137.356121,53.1063516 138.735365,41.2289513 134.847458,38.4992614 C132.061931,36.48217 129.381214,34.3127 126.816613,32 L127.180941,36.7119645 C127.180941,36.7119645 123.121279,35.2171344 122.548762,37.2535697 C121.976246,39.2900049 122.876658,42.1875923 127.930417,46.3200394 L128.23229,50.2412605 L136.054947,54 Z" id="Path" fill="#FFFFFF"></path>
                <path d="M137.625888,54.9859743 C137.584566,54.9943043 137.541917,54.9943043 137.500595,54.9859743 L128.957856,51.1235041 C128.861688,51.0791584 128.79676,50.9889922 128.787001,50.8862381 L128.462377,47.0237679 C123.746785,43.4040815 121.76487,40.2203025 122.573583,37.5607158 C122.703196,37.1210297 123.020149,36.7557408 123.444942,36.5564736 C124.652316,35.9550318 126.713963,36.4350817 127.602408,36.6889011 L127.232223,32.3077564 C127.223516,32.1918346 127.28785,32.0822745 127.395149,32.0302957 C127.502447,31.9783168 127.631513,31.9941884 127.722007,32.0704903 C130.518827,34.4261226 133.442653,36.6363538 136.481161,38.6918678 C139.049678,40.3748013 139.414168,44.9269983 139.397083,47.5203712 C139.397083,50.6434542 138.736445,54.3900503 137.796743,54.9914921 C137.740306,55.0044755 137.681308,55.0025701 137.625888,54.9859743 Z M129.345127,50.6655255 L137.568937,54.3624613 C138.087196,53.7334304 138.782006,50.9248628 138.799091,47.465193 C138.799091,43.299243 137.853695,40.264445 136.139452,39.1443286 C133.273481,37.2158438 130.513275,35.143849 127.870081,32.9367872 L128.21179,37.0475591 C128.218224,37.1434286 128.175646,37.2362448 128.097887,37.2958607 C128.019036,37.356411 127.913458,37.3731115 127.818824,37.3400033 C127.818824,37.3400033 125.016806,36.3909392 123.701224,37.0420413 C123.422652,37.1740164 123.215458,37.4149073 123.131708,37.704179 C122.391338,40.1430531 124.339082,43.1447442 128.923685,46.6375208 C128.987201,46.6858687 129.026535,46.7580761 129.031893,46.8361622 L129.345127,50.6655255 Z" id="Shape" fill="#231F20"></path>
                <path d="M7.23908793,53.3768629 L7.09147902,53.307489 C2.75972501,51.4237232 3.24796989,58.7239829 3.65105578,60.8638982 C4.0995598,63.1905891 5.45074912,68.7938586 9.14664933,66.4298125 C13.1831855,63.8469721 11.3267195,55.3353389 7.23908793,53.3768629 Z" id="Path" fill="#FFFFFF"></path>
                <path d="M6.97497766,66.9999766 C6.66205589,67.0013364 6.35216113,66.9433043 6.06450156,66.829453 C4.51728726,66.229955 3.37472901,64.079462 2.67253175,60.4439738 C2.35713806,58.7939792 1.91082624,53.8439953 3.93410648,52.4085 C4.65415621,51.8915017 5.58843562,51.8585018 6.70123975,52.3480002 L6.86786283,52.4249999 C9.28389747,53.5634962 11.1346038,56.8249856 11.3726368,60.3009743 C11.5630631,63.0509653 10.6585379,65.2509582 8.90304472,66.3509546 C8.34713905,66.7441797 7.67429283,66.9706634 6.97497766,66.9999766 Z M5.23138617,52.5734994 C4.89733932,52.5670513 4.57126094,52.6681575 4.30900841,52.8594985 C2.67253175,54.0254947 2.91651554,58.4859802 3.27356499,60.3449741 C4.10668039,64.6239602 5.40991089,65.9769558 6.30253453,66.3069547 C6.96902684,66.5654539 7.70692905,66.4334543 8.55789691,65.8944561 C10.1289145,64.9044593 10.9382266,62.8804659 10.7597019,60.3339742 C10.5395214,57.0779848 8.78402823,53.9649949 6.59412491,52.9309983 L6.59412491,52.9309983 L6.45130513,52.8649985 C6.07184422,52.688455 5.65587866,52.5890602 5.23138617,52.5734994 L5.23138617,52.5734994 Z" id="Shape" fill="#231F20"></path>
                <path d="M31.117231,87 C30.968013,87.000455 30.8437174,86.8820259 30.8322397,86.7284585 C30.634938,83.8263722 28.4372168,77.4508339 28.4152944,77.3886059 C28.38899,77.3158856 28.3921841,77.2352922 28.4241553,77.1650327 C28.4561264,77.0947731 28.5141771,77.0407754 28.5851931,77.0152381 C28.7317571,76.965191 28.890644,77.0422229 28.9469128,77.1906079 C29.040083,77.456491 31.1939594,83.7019163 31.3967417,86.6888588 C31.4027652,86.7663491 31.3782382,86.8430693 31.3287166,86.90164 C31.2791951,86.9602107 31.2088702,86.9956748 31.1336728,87 L31.117231,87 Z" id="Path" fill="#231F20"></path>
                <polygon id="Path" fill="#FFFFFF" points="66.3976378 90.8343195 55.3361853 88 54.3976378 90.8343195 65.6043417 94"></polygon>
                <path d="M65.3436159,94.9992218 L65.2690989,94.9992218 L54.5918842,91.645142 C54.5184655,91.6207737 54.4568395,91.5617971 54.4215598,91.48214 C54.3896638,91.4005777 54.3896638,91.3066606 54.4215598,91.2250983 L55.3264085,88.2158304 C55.3740871,88.0595154 55.5139198,87.9704138 55.6510895,88.0089433 L66.1845929,91.0119419 C66.2569542,91.0312753 66.3188987,91.0859966 66.3549174,91.1624052 C66.3969495,91.2337705 66.4087299,91.3239622 66.3868532,91.4069083 L65.6310384,94.7609881 C65.6108775,94.8441035 65.5653923,94.9155368 65.5032951,94.961606 C65.4538026,94.9904638 65.3987244,95.0034387 65.3436159,94.9992218 L65.3436159,94.9992218 Z M55.023018,91.0997122 L65.136033,94.2782514 L65.7534591,91.5573717 L55.7309291,88.7048365 L55.023018,91.0997122 Z" id="Shape" fill="#231F20"></path>
                <path d="M28.7154375,59.9993127 C28.1534671,60.0170458 27.6514712,59.6900017 27.5028107,59.2093013 L25.4595346,53.0719339 C25.351788,52.7845872 25.3857801,52.4702857 25.5531523,52.2063161 C25.7205245,51.9423465 26.005749,51.7531984 26.338689,51.6853833 L28.7639425,51.0512245 C29.0791414,50.9617403 29.4219087,50.9903418 29.7127294,51.1303939 C30.0035501,51.2704459 30.21715,51.5097772 30.3039785,51.7928678 L32.3472546,57.9302352 C32.5393265,58.5117817 32.1655045,59.1216532 31.5105421,59.2952889 L31.5105421,59.2952889 L29.0852886,59.9294477 C28.9668854,59.9697364 28.8420845,59.9933113 28.7154375,59.9993127 Z M29.0974149,51.561776 C29.0371285,51.5536688 28.9758073,51.5536688 28.9155209,51.561776 L26.4902673,52.1959348 C26.3240041,52.2315171 26.1824306,52.3276901 26.1004465,52.4607459 C26.0184623,52.5938016 26.003695,52.7513613 26.0597848,52.8945844 L28.1030609,59.0265775 C28.1432044,59.1739495 28.2517055,59.2994372 28.4018173,59.3721061 C28.5519291,59.444775 28.7296859,59.4578644 28.8912683,59.4081477 L31.3165219,58.7793631 C31.4795165,58.7385514 31.6158218,58.6391689 31.6924362,58.5052775 C31.7760467,58.3765242 31.7957997,58.2228371 31.7470044,58.0807136 L29.7037283,51.9433462 C29.6236637,51.7083404 29.3741181,51.5512943 29.0974149,51.561776 Z" id="Shape" fill="#D1D3D4"></path>
                <path d="M34.651567,59 C34.604677,59.000228 34.5584796,58.9884947 34.5172165,58.9658671 C34.4510063,58.9304777 34.4023171,58.8686468 34.382866,58.7952543 L32.4123926,52.0048646 C32.3927195,51.9497497 32.3927195,51.8893668 32.4123926,51.8342518 C32.8210419,50.6229009 33.1569181,49.1726921 33.4871963,47.7736671 C34.2317218,44.5945818 34.819505,42.0865736 36.0958344,42.0012672 C36.3637784,41.9872008 36.624756,42.0907688 36.8123702,42.2856219 C37.7528234,43.2353665 37.7528234,46.5623162 37.7528234,47.7850413 C38.749256,47.466564 41.4362652,46.6476226 42.6342234,46.8296096 C43.020481,46.8807934 44.2856145,47.6940478 44.3976061,55.8777753 C44.3994983,56.0047987 44.3166173,56.1170668 44.1960475,56.1507558 L34.7299381,58.9943025 L34.651567,59 Z M32.9721862,51.9309324 L34.8418968,58.3630352 L43.8321817,55.6673528 C43.7650065,51.6863874 43.2443984,47.4893124 42.5614503,47.3926318 C41.2403374,47.2106448 37.5848853,48.4333699 37.523308,48.4504312 C37.4355177,48.4779083 37.3400761,48.4607906 37.2668536,48.4044355 C37.193631,48.3480804 37.1515737,48.2593732 37.1538443,48.1660765 C37.2098236,46.9092289 37.1818339,43.4742244 36.3981229,42.6950926 C36.3294455,42.6109059 36.2257197,42.5645396 36.1182261,42.5699766 C35.2505461,42.6268475 34.5955876,45.4135233 34.0134023,47.9044702 C33.7167117,49.286434 33.3808355,50.7138944 32.9721862,51.9309324 L32.9721862,51.9309324 Z" id="Shape" fill="#D1D3D4"></path>
                <path d="M52.6974267,64.9999421 C52.0411262,65.0021101 51.3862037,64.9433399 50.7422044,64.824488 C48.5204231,64.4642553 46.5788662,63.2059439 45.4312494,61.3824897 C45.3841572,61.3013696 45.3867017,61.2028058 45.4379245,61.1239264 C45.4891473,61.045047 45.5812663,60.9978356 45.6795812,61.0000764 C45.7778961,61.0023171 45.8674706,61.0536695 45.9145627,61.1347897 C46.9854678,62.8259226 48.7926206,63.9899848 50.8575405,64.3187671 C52.933782,64.6458978 55.0653823,64.4445455 57.0307706,63.7356399 C57.1748503,63.6886146 57.3322225,63.7602369 57.3822712,63.8956129 C57.43232,64.0309888 57.3560928,64.1788542 57.2120131,64.2258796 C55.7637507,64.7190925 54.2377484,64.980738 52.6974267,64.9999421 L52.6974267,64.9999421 Z" id="Path" fill="#D1D3D4"></path>
            </g>
        </g>
    </g>
</svg>