<?xml version="1.0" encoding="UTF-8"?>
<svg width="300px" height="291px" viewBox="0 0 300 291" version="1.1" xmlns="http://www.w3.org/2000/svg" xmlns:xlink="http://www.w3.org/1999/xlink">
    <title>Team meeting_Flatline</title>
    <g id="Page-1" stroke="none" stroke-width="1" fill="none" fill-rule="evenodd">
        <g id="About-view-" transform="translate(-500.000000, -340.000000)" fill-rule="nonzero">
            <g id="Team-meeting_Flatline" transform="translate(500.000000, 340.202530)">
                <path d="M42.3586164,208.79747 C42.3586164,208.79747 3.96212393,239.26681 1.13038261,242.110298 C-1.70135871,244.953786 42.4666065,292.22231 48.6820388,289.700053 C54.897471,287.177796 71,267.297176 71,267.297176 L42.3586164,208.79747 Z" id="Path" fill="#231F20"></path>
                <path d="M47.7316054,289.79747 C40.2741276,289.79747 9.33098145,257.008919 1.96926583,246.079403 C0.113874083,243.326256 -0.424788036,241.914082 0.32933893,241.213928 C3.15432249,238.377713 39.9509303,209.173 41.5190356,207.926964 C41.6620366,207.818464 41.8448095,207.775322 42.0217869,207.808294 C42.1960306,207.855248 42.3431739,207.971089 42.4287761,208.128703 L70.9419576,266.490661 C71.0401314,266.692863 71.0121796,266.933022 70.870136,267.107745 C70.2117712,267.926569 54.6863319,287.162993 48.4139107,289.655066 C48.1988453,289.748766 47.966523,289.79747 47.7316054,289.79747 Z M41.7464707,209.315404 C36.958363,213.160315 3.83662784,239.445744 1.25104967,242.044619 C0.664506471,244.572292 21.7920318,268.650457 36.8266901,281.526163 C45.3495218,288.824375 47.5999324,288.776907 48.0428324,288.575168 C53.6209779,286.34417 67.7698362,269.125137 69.7688712,266.668666 L41.7464707,209.315404 Z" id="Shape" fill="#231F20"></path>
                <path d="M266.937389,76.7974697 C267.495164,76.5460503 289.485738,53.6549077 289.996043,47.6088684 C290.506347,41.5628292 241.505225,-0.663666639 235.547714,1.91038967 C229.590203,4.48444598 209,37.0492514 209,37.0492514 L265.96425,74.9776718" id="Path" fill="#231F20"></path>
                <path d="M267.132078,76.7974697 C266.866684,76.7974697 266.633351,76.6223178 266.558616,76.3686751 C266.48388,76.1150324 266.585545,75.8426392 266.808477,75.6992132 C268.006997,74.7322699 289.316683,52.707451 289.820061,47.0490422 C290.143661,43.5393963 268.498391,23.1738998 250.580517,10.221635 C238.906932,1.74595942 236.198277,1.86533513 235.670928,2.08021141 C231.128537,3.99022281 216.722327,25.0719736 209.447311,36.3887911 L266.508847,73.8847023 C266.783798,74.0713327 266.858374,74.442728 266.67664,74.7203323 C266.493757,74.9926731 266.124651,75.0672664 265.849661,74.8874583 L208.260776,37.0572951 C207.994616,36.8757896 207.920454,36.5170055 208.092983,36.2455403 C208.943933,34.9085323 229.067083,3.54853267 235.179535,0.981954857 C235.910632,0.659640434 238.127894,-0.271490122 251.263673,9.25469172 C267.25193,20.8699485 291.414093,42.4650149 290.994611,47.1564804 C290.407336,53.6505191 267.563545,76.6542189 267.347811,76.7497194 C267.27941,76.7785597 267.206305,76.7947408 267.132078,76.7974697 Z" id="Path" fill="#231F20"></path>
                <circle id="Oval" fill="#FFFFFF" cx="150.5" cy="149.29747" r="135.5"></circle>
                <path d="M150.5,285.79747 C75.1131316,285.79747 14,224.684338 14,149.29747 C14,73.9106014 75.1131316,12.7974697 150.5,12.7974697 C225.886868,12.7974697 287,73.9106014 287,149.29747 C286.914362,224.648837 225.851367,285.711832 150.5,285.79747 Z M150.5,13.9928459 C75.7733197,13.9928459 15.1953761,74.5707894 15.1953761,149.29747 C15.1953761,224.02415 75.7733197,284.602094 150.5,284.602094 C225.22668,284.602094 285.804624,224.02415 285.804624,149.29747 C285.718988,74.6062898 225.19118,14.0784821 150.5,13.9928459 Z" id="Shape" fill="#231F20"></path>
                <polygon id="Rectangle" fill="#FFFFFF" transform="translate(108.950758, 79.990599) rotate(31.159305) translate(-108.950758, -79.990599) " points="88.6488499 65.8722267 129.252665 65.8722267 129.252665 94.1089717 88.6488499 94.1089717"></polygon>
                <path d="M118.549093,102.79747 C118.439227,102.793924 118.331681,102.765433 118.234857,102.714221 L83.2942151,81.8543783 C83.1557548,81.7729245 83.056139,81.6403766 83.0175481,81.4862477 C82.9789571,81.3321188 83.004595,81.1692049 83.088753,81.0337802 L97.8336798,57.0818289 C98.0057345,56.8051422 98.3713936,56.7151893 98.6555282,56.8796526 L133.704944,77.7394949 C133.842242,77.82274 133.941765,77.9547348 133.982922,78.1081694 C134.020969,78.2622985 133.994863,78.4249973 133.910406,78.560093 L119.16548,102.512044 C119.080466,102.644393 118.945837,102.738409 118.790813,102.773684 L118.549093,102.79747 Z M84.4302997,81.1408147 L118.379889,101.35845 L132.50843,78.4292731 L98.5467541,58.2116379 L84.4302997,81.1408147 Z" id="Shape" fill="#231F20"></path>
                <polygon id="Rectangle" fill="#FFFFFF" transform="translate(93.661027, 103.114675) rotate(31.210000) translate(-93.661027, -103.114675) " points="73.4598734 89.0663693 113.86218 89.0663693 113.86218 117.162981 73.4598734 117.162981"></polygon>
                <path d="M102.929433,125.797354 C102.8208,125.799544 102.713772,125.770654 102.620985,125.713963 L68.2765326,104.850992 C68.1445104,104.767326 68.0507269,104.63483 68.0155385,104.482263 C67.9801528,104.331903 68.005755,104.173608 68.0867187,104.042166 L82.5600285,80.0866227 C82.6430681,79.9515003 82.7747371,79.8535539 82.927793,79.813049 C83.077759,79.7775705 83.235639,79.8032398 83.3667376,79.8844161 L117.71119,100.747386 C117.842853,100.83399 117.939554,100.964668 117.984047,101.116116 C118.02008,101.27032 117.994534,101.432537 117.912867,101.568108 L103.439557,125.511756 C103.331279,125.690091 103.137663,125.79844 102.929433,125.797354 Z M69.4035526,104.149216 L102.727755,124.369883 L116.58417,101.437268 L83.2599673,81.2166012 L69.4035526,104.149216 Z" id="Shape" fill="#231F20"></path>
                <path d="M115.563607,94.7974697 C115.46058,94.7995394 115.35924,94.7689494 115.272243,94.7094107 C115.143705,94.6310594 115.050835,94.4990228 115.015541,94.3444486 C114.980247,94.1898745 115.005655,94.0264508 115.08577,93.8927297 L123.966547,78.0868109 C124.043776,77.9501336 124.168231,77.8521538 124.312504,77.8144485 C124.456776,77.7767432 124.609034,77.8024047 124.735748,77.8857817 C124.994316,78.0634129 125.07663,78.429465 124.922221,78.715027 L116.041444,94.4958172 C115.942707,94.6802184 115.761094,94.7948273 115.563607,94.7974697 L115.563607,94.7974697 Z" id="Path" fill="#D1D3D4"></path>
                <path d="M112.550466,87.7974697 C112.452423,87.7979333 112.355827,87.7747648 112.269549,87.7300845 C112.142221,87.6556701 112.050944,87.5357522 112.015817,87.3967392 C111.980691,87.2577263 112.004597,87.1110187 112.082271,86.9889244 L118.929625,76.1073467 C119.020645,75.9214206 119.213897,75.8012875 119.427965,75.7974697 C119.642034,75.7938305 119.839703,75.9071548 119.937696,76.0897889 C120.03569,76.272423 120.016971,76.4926162 119.889425,76.657602 L113.030366,87.5054905 C112.937274,87.6789756 112.753724,87.7906473 112.550466,87.7974697 L112.550466,87.7974697 Z" id="Path" fill="#D1D3D4"></path>
                <path d="M104.537845,87.7974697 C104.438709,87.799391 104.341198,87.7709946 104.257486,87.7157256 C104.136247,87.6406702 104.049003,87.518194 104.015279,87.3757073 C103.981555,87.2332205 104.004168,87.0826202 104.078056,86.9576107 L111.008539,75.0610386 C111.162848,74.8038172 111.485993,74.7210894 111.737473,74.8744257 C111.990291,75.0355091 112.074652,75.3761391 111.928117,75.6442039 L104.997635,87.5291127 C104.899844,87.6958103 104.725603,87.7974697 104.537845,87.7974697 Z" id="Path" fill="#D1D3D4"></path>
                <path d="M98.5934947,84.7973696 C98.4842575,84.7993755 98.3768096,84.7712075 98.2845682,84.7163829 C98.1501456,84.6397165 98.053782,84.5161697 98.0166987,84.3729499 C97.9796154,84.2297301 98.0048535,84.0785828 98.0868552,83.9527938 L101.905187,78.063902 C101.987072,77.9380463 102.119029,77.8478242 102.271998,77.8131042 C102.424966,77.7783843 102.586402,77.8020139 102.720754,77.8787895 C102.993275,78.0379856 103.080924,78.3713651 102.918467,78.6308091 L99.1001343,84.5312703 C98.9923793,84.6966277 98.8003844,84.7974697 98.5934947,84.7973696 Z" id="Path" fill="#D1D3D4"></path>
                <path d="M104.529364,73.7974697 C104.431369,73.7981352 104.335166,73.7707967 104.251766,73.7185709 C104.005416,73.5592456 103.92699,73.2309172 104.074104,72.974784 L107.038844,68.0162043 C107.201981,67.7929685 107.505257,67.7315328 107.740335,67.874101 C107.975412,68.0166691 108.065781,68.3168404 107.949363,68.5684098 L104.951312,73.5382589 C104.860881,73.6894821 104.703311,73.7862761 104.529364,73.7974697 L104.529364,73.7974697 Z" id="Path" fill="#D1D3D4"></path>
                <path d="M95.5351344,76.7974697 C95.438905,76.7937948 95.3450544,76.7652528 95.2620416,76.7143723 C95.1382599,76.6357493 95.0495246,76.5090494 95.0153768,76.3621744 C94.9812291,76.2152994 95.0044693,76.0602946 95.0799797,75.9312951 L101.986953,64.0664889 C102.147825,63.8032564 102.479339,63.719457 102.737958,63.876652 C102.86174,63.955275 102.950475,64.081975 102.984623,64.22885 C103.018771,64.375725 102.995531,64.5307298 102.92002,64.6597292 L96.001668,76.5245354 C95.9040908,76.6958845 95.7262375,76.7999167 95.5351344,76.7974697 Z" id="Path" fill="#D1D3D4"></path>
                <path d="M101.549967,118.79747 C101.450969,118.799344 101.35376,118.768787 101.271264,118.709771 C101.143188,118.631724 101.050653,118.500199 101.015486,118.346224 C100.980319,118.19225 101.005634,118.02946 101.085461,117.896257 L109.934304,102.151625 C110.023177,101.938842 110.218338,101.800776 110.434829,101.79747 C110.65132,101.794281 110.849971,101.926439 110.944305,102.136473 C111.038639,102.346507 111.011589,102.596414 110.874929,102.777405 L102.026086,118.509522 C101.926504,118.69027 101.744997,118.800008 101.549967,118.79747 L101.549967,118.79747 Z" id="Path" fill="#D1D3D4"></path>
                <path d="M97.5643286,111.79747 C97.4623224,111.796677 97.361852,111.773462 97.2705836,111.729597 C97.142767,111.654638 97.051139,111.533843 97.0158781,111.393813 C96.9806172,111.253783 97.004615,111.106002 97.0825868,110.983015 L103.967969,100.055764 C104.070815,99.8920901 104.256548,99.7936716 104.455205,99.7974697 C104.653862,99.8014925 104.835261,99.9071379 104.931072,100.074722 C105.026883,100.242307 105.022549,100.446371 104.919703,100.610045 L98.0460703,111.548608 C97.9392502,111.704352 97.7581878,111.797887 97.5643286,111.79747 L97.5643286,111.79747 Z" id="Path" fill="#D1D3D4"></path>
                <path d="M89.5276296,111.79747 C89.4336536,111.797916 89.3410654,111.773847 89.2583667,111.72743 C89.136321,111.650124 89.0488301,111.525546 89.0151612,111.381131 C88.9814923,111.236716 89.0044066,111.084307 89.078858,110.957468 L96.0011602,99.0580595 C96.1632574,98.8043514 96.4857989,98.7230456 96.7416333,98.8714021 C96.863679,98.9487083 96.9511699,99.0732862 96.9848388,99.2177013 C97.0185077,99.3621163 96.9955934,99.514525 96.921142,99.6413639 L89.9876205,111.529107 C89.8914117,111.697586 89.7160527,111.799876 89.5276296,111.79747 L89.5276296,111.79747 Z" id="Path" fill="#D1D3D4"></path>
                <polygon id="Rectangle" fill="#FFFFFF" transform="translate(193.763969, 180.871401) rotate(-39.070000) translate(-193.763969, -180.871401) " points="159.401121 178.532006 228.126817 178.532006 228.126817 183.210796 159.401121 183.210796"></polygon>
                <path d="M168.51177,204.797292 L168.452617,204.797292 C168.296241,204.780022 168.152299,204.70328 168.05037,204.582641 L165.12817,201.008433 C164.925544,200.747607 164.967636,200.371417 165.222816,200.162537 L218.106366,156.926541 C218.365369,156.72249 218.738931,156.764878 218.946351,157.021854 L221.868551,160.596061 C221.962437,160.722825 222.008559,160.879052 221.99869,161.03688 C221.981737,161.194356 221.905532,161.339311 221.785736,161.441957 L168.890355,204.677953 C168.780683,204.758668 168.647566,204.80056 168.51177,204.797292 Z M166.417724,200.651012 L168.606417,203.355496 L220.578997,160.881998 L218.390304,158.1656 L166.417724,200.651012 Z" id="Shape" fill="#231F20"></path>
                <polygon id="Rectangle" fill="#FFFFFF" transform="translate(206.102106, 196.064864) rotate(-39.070000) translate(-206.102106, -196.064864) " points="172.771695 178.829729 239.432517 178.829729 239.432517 213.299998 172.771695 213.299998"></polygon>
                <path d="M191.420003,230.79747 L191.300125,230.79747 C191.144407,230.782376 191.001574,230.70478 190.904526,230.582557 L169.134608,203.801991 C168.92646,203.543711 168.963741,203.167101 169.218523,202.954278 L221.197799,160.926819 C221.460241,160.722329 221.838763,160.764808 222.048936,161.022336 L243.866806,187.790962 C243.961939,187.917998 244.008672,188.074561 243.998672,188.232728 C243.976152,188.38886 243.899879,188.532353 243.782891,188.638675 L191.791626,230.654194 C191.689411,230.745445 191.557265,230.796392 191.420003,230.79747 Z M170.441282,203.5035 L191.503918,229.352776 L242.560131,188.077513 L221.497495,162.240177 L170.441282,203.5035 Z" id="Shape" fill="#231F20"></path>
                <path d="M184.395962,217.78739 C184.225516,217.788644 184.06332,217.713855 183.953242,217.58325 L173.136515,204.206135 C173.035421,204.088503 172.987108,203.934255 173.002958,203.779732 C173.018808,203.62521 173.09742,203.484075 173.220272,203.389578 L219.215295,165.924048 C219.330293,165.823773 219.483657,165.779798 219.634084,165.803966 C219.782311,165.822681 219.918548,165.895316 220.016977,166.008105 L230.8696,179.445262 C230.966797,179.56228 231.012727,179.713762 230.996954,179.86528 C230.98118,180.016798 230.905041,180.155481 230.785843,180.24981 L184.802786,217.71534 C184.680379,217.788095 184.535789,217.813702 184.395962,217.78739 Z M174.333055,203.869906 L184.47972,216.418457 L229.577336,179.673417 L219.442637,167.136874 L174.333055,203.869906 Z" id="Shape" fill="#D1D3D4"></path>
                <path d="M208.92393,212.79747 C208.746409,212.797659 208.578218,212.718354 208.465909,212.581504 L203.126345,206.030574 C203.027158,205.914478 202.983213,205.761377 203.005813,205.610643 C203.018467,205.460148 203.092522,205.321389 203.210717,205.226706 L214.721516,195.928225 C214.838973,195.830764 214.991023,195.784708 215.143108,195.800524 C215.295194,195.816341 215.434397,195.892687 215.52908,196.012211 L220.868644,202.563141 C220.966553,202.680061 221.012821,202.831415 220.996931,202.982804 C220.981042,203.134194 220.904345,203.27276 220.784271,203.36701 L209.285526,212.66549 C209.18274,212.747668 209.05572,212.794029 208.92393,212.79747 Z M204.379877,205.754619 L209.008303,211.417694 L219.615112,202.839096 L214.998739,197.176021 L204.379877,205.754619 Z" id="Shape" fill="#D1D3D4"></path>
                <path d="M227,265.236166 C227,265.236166 245.414084,289.351728 250.81523,289.794106 C256.216376,290.236483 301.468898,246.907382 299.963269,242.710772 C298.45764,238.514162 272.013533,215.79747 272.013533,215.79747 L227,265.236166 Z" id="Path" fill="#231F20"></path>
                <path d="M250.434347,289.79747 L250.327074,289.79747 C244.832335,289.344174 228.038218,267.550216 226.143069,265.069021 C225.95231,264.845818 225.95231,264.51685 226.143069,264.293647 L271.042599,214.967967 C271.274334,214.740637 271.645206,214.740637 271.876941,214.967967 C272.949667,215.898415 298.385185,237.775875 299.922758,242.070251 C300.149223,242.69055 300.030031,243.788002 297.419732,247.199645 C288.718734,258.555884 255.786056,289.79747 250.434347,289.79747 Z M227.394583,264.746943 C232.698615,271.641802 246.298393,288.282509 250.422427,288.604587 L250.493942,288.604587 C254.28424,288.604587 281.936724,263.709135 294.320746,249.108256 C298.969224,243.632927 298.861952,242.535475 298.838113,242.416187 C297.646196,239.171547 279.171476,222.757488 271.567043,216.172778 L227.394583,264.746943 Z" id="Shape" fill="#231F20"></path>
                <path d="M199.896685,238.555131 C199.896685,238.555131 201.504132,229.573501 200.838548,227.691636 C200.172965,225.809771 198.565518,221.655003 197.535748,222.803674 C196.505977,223.952345 197.146444,227.691636 197.146444,227.691636 C197.146444,227.691636 195.250159,224.978817 193.479456,222.192679 C191.708753,219.406541 190.063632,219.418761 189.988283,220.384133 C190.341619,222.092266 190.867427,223.762275 191.558055,225.369854 C191.558055,225.369854 189.159443,219.822018 188.230138,221.178427 C187.300833,222.534837 189.172001,227.447238 189.172001,227.447238 C189.172001,227.447238 186.459435,221.459485 185.404548,223.487989 C184.349661,225.516493 185.605479,229.79346 186.35897,231.272068 C187.11246,232.750676 193.429223,243.79747 193.429223,243.79747 L200.800874,238.212974" id="Path" fill="#FFFFFF"></path>
                <path d="M192.911816,244.788184 L192.788179,244.788184 C192.613459,244.751475 192.461614,244.646434 192.367811,244.497386 C192.120535,244.049073 186.185928,233.507666 185.394647,232.041562 C184.603366,230.575459 183.305171,226.080215 184.455001,223.790185 C184.639321,223.349648 185.069831,223.055738 185.555376,223.038958 C186.112735,223.124238 186.611721,223.425502 186.940118,223.875001 C186.775036,223.057921 186.874453,222.210715 187.224484,221.451689 C187.429594,221.127625 187.800632,220.941153 188.188858,220.967027 C188.445014,221.007013 188.684754,221.116095 188.881229,221.282057 C188.870214,221.169227 188.870214,221.055624 188.881229,220.942793 C188.911156,220.420166 189.280162,219.975461 189.796147,219.840186 C190.884159,219.573622 192.268901,220.56718 193.505277,222.46948 C194.296558,223.681136 195.12493,224.965491 195.78021,225.946933 C195.6887,224.919765 195.94978,223.892061 196.522036,223.026842 C196.779201,222.727933 197.181312,222.588849 197.572956,222.663345 C197.993324,222.748161 198.994789,222.942026 200.812263,228.115797 C201.380996,229.727299 200.515532,235.543248 200.095164,238.087726 C200.331115,238.02642 200.581304,238.112956 200.725716,238.305824 C200.936121,238.56716 200.891952,238.945909 200.626806,239.153983 L193.369276,244.691251 C193.235646,244.781069 193.071373,244.815877 192.911816,244.788184 L192.911816,244.788184 Z M185.592467,224.262731 L185.592467,224.262731 C184.764095,225.9227 185.728469,229.860582 186.51975,231.447851 C187.150302,232.659507 191.799077,240.886651 193.122,243.225147 L198.63624,239.020701 C198.63024,238.984589 198.63024,238.947764 198.63624,238.911652 C199.229701,235.519015 200.020982,229.69095 199.575886,228.442944 C198.339509,224.807976 197.572956,224.0204 197.338044,223.826535 C196.83113,224.541412 196.917676,226.698159 197.140224,228.067331 C197.190103,228.343958 197.035327,228.616985 196.769311,228.721625 C196.50045,228.828546 196.191891,228.737829 196.027485,228.503527 C196.027485,228.503527 194.123465,225.777301 192.392538,223.038958 C191.156162,221.063959 190.204152,220.91856 190.080514,220.95491 C190.435623,222.56139 190.944799,224.131401 191.601257,225.644019 C191.661655,225.791735 191.659015,225.957029 191.59393,226.102821 C191.528845,226.248612 191.406763,226.362696 191.255072,226.419479 C191.106256,226.482819 190.937467,226.483688 190.78798,226.421884 C190.638493,226.36008 190.521344,226.240993 190.463791,226.092331 C189.917306,224.686231 189.154268,223.370461 188.201222,222.190799 C187.892128,223.075308 188.485588,225.656135 189.264506,227.71595 C189.374724,228.026763 189.217084,228.367703 188.905956,228.49141 C188.598673,228.610541 188.250122,228.471774 188.114675,228.17638 C187.547869,226.720439 186.690403,225.389929 185.592467,224.262731 L185.592467,224.262731 Z" id="Shape" fill="#231F20"></path>
                <path d="M222.549899,194.769623 C222.549899,194.769623 213.80776,197.178908 211.886678,196.745236 C209.965596,196.311565 205.685717,195.179201 206.682734,194.082976 C207.679752,192.986751 211.448963,193.22768 211.448963,193.22768 C211.448963,193.22768 208.579499,191.685737 205.649241,190.264259 C202.718983,188.842781 202.573078,187.276745 203.52146,187.120142 C205.244996,187.284656 206.947595,187.619609 208.603816,188.119995 C208.603816,188.119995 202.889205,186.373263 204.141556,185.361364 C205.393907,184.349464 210.439787,185.638431 210.439787,185.638431 C210.439787,185.638431 204.250985,183.638725 206.111273,182.434082 C207.971562,181.229439 212.385187,182.000411 213.917189,182.578639 C215.449191,183.156868 227,188.095902 227,188.095902 L222.136501,195.673104" id="Path" fill="#FFFFFF"></path>
                <path d="M211.914911,197.796893 C211.668926,197.801594 211.423237,197.777541 211.182886,197.72523 C205.914708,196.530841 205.614698,195.551443 205.494693,195.14535 C205.379528,194.779234 205.476412,194.379746 205.746702,194.106232 C206.545498,193.471923 207.533045,193.119089 208.554797,193.102946 C207.522762,192.565471 206.226718,191.908557 204.954675,191.263587 C202.962608,190.296133 201.85857,189.077856 202.014576,188.002906 C202.102463,187.493845 202.50917,187.098691 203.02261,187.023508 C203.179132,187.104568 203.371336,187.065043 203.482765,186.928882 C203.594195,186.79272 203.594195,186.597382 203.482765,186.46122 C203.371336,186.325059 203.179132,186.285534 203.02261,186.366594 C202.951096,185.999887 203.095395,185.624626 203.394622,185.399139 C204.119181,184.977662 204.960123,184.797711 205.794704,184.885552 C205.32161,184.609248 204.976755,184.158758 204.834671,183.631444 C204.803359,183.161492 205.052453,182.717105 205.470693,182.496775 C207.618765,181.182947 212.166919,182.019019 213.690971,182.592326 C215.215022,183.165633 226.171393,187.871524 226.639409,188.07457 C226.79939,188.144581 226.921668,188.279323 226.97542,188.44483 C227.022778,188.609423 227.001132,188.786089 226.915418,188.93453 L222.115256,196.459178 C221.935951,196.734364 221.569918,196.818841 221.287228,196.65028 C221.085487,196.528066 220.976787,196.297578 221.011219,196.06503 C218.040172,196.924039 214.994738,197.503865 211.914911,197.796893 Z M206.694734,194.906473 C206.898741,195.109519 207.798771,195.754489 211.494897,196.614448 C212.76694,196.913046 218.443132,195.57533 221.719243,194.667595 L221.827246,194.667595 L225.427368,188.958417 C223.027287,187.907355 214.458997,184.240582 213.174953,183.762827 C211.530898,183.153689 207.570764,182.568438 205.97471,183.571725 C205.890707,183.571725 205.878706,183.655332 205.878706,183.655332 C207.145825,184.555024 208.564111,185.222402 210.066848,185.626073 C210.380144,185.723549 210.556592,186.053496 210.462862,186.366594 C210.369993,186.677232 210.045135,186.857448 209.730837,186.772686 C207.618765,186.223267 205.014677,185.92467 204.186649,186.294931 C205.43996,187.100666 206.812771,187.705244 208.254787,188.086514 C208.586169,188.178864 208.779588,188.521101 208.686801,188.850922 C208.594014,189.180744 208.250158,189.373252 207.918775,189.280902 C206.35693,188.790581 204.748316,188.462368 203.118613,188.301504 C203.118613,188.408999 203.346621,189.30479 205.38669,190.296133 C208.254787,191.693567 211.098883,193.234329 211.134884,193.246272 C211.388065,193.37929 211.51156,193.671803 211.429831,193.944886 C211.348102,194.21797 211.083917,194.395548 210.798873,194.368998 C209.466828,194.177896 207.318755,194.309278 206.694734,194.906473 Z" id="Shape" fill="#231F20"></path>
                <path d="M240.433166,249.834368 C238.321546,253.959759 236.530601,258.240663 235.076112,262.639363 C233.621623,267.038063 217.605901,257.870277 216.434045,257.274142 C215.26219,256.678006 200.781405,235.050202 200.781405,235.050202 L191,242.060758 C191,242.060758 204.021944,264.42777 207.118991,267.098458 C210.216037,269.769146 229.563609,278.866177 236.594741,279.736535 C243.625874,280.606894 258.190362,272.022539 267.780444,262.365141 C277.370526,252.707742 288.62273,232.904114 286.805158,225.619335 C284.987587,218.334557 279.200056,214.340448 276.98788,212.862031 C274.775704,211.383615 263.033234,200.474331 261.120001,199.270137 C259.206768,198.065943 226.299155,185.79747 226.299155,185.79747 L222.795546,196.182154 C222.795546,196.182154 252.486536,208.927535 254.244319,210.048271 C256.002102,211.169006 269.167539,229.124613 269.167539,229.124613 C269.167539,229.124613 258.848036,232.27221 253.825799,235.825179 C248.803561,239.378148 240.433166,249.834368 240.433166,249.834368 Z" id="Path" fill="#F99E3B"></path>
                <path d="M271.980103,247.27287 C271.36856,239.758715 267.14507,233.000469 260.639718,229.126477 C257.791527,227.320141 254.411202,226.52773 251.051293,226.878773 C247.643973,227.295692 244.787324,229.635499 243.723841,232.880498 C241.909874,232.355299 239.952686,232.722578 238.456126,233.869017 C234.443193,236.787503 234.644431,242.624475 235.520411,246.943363 C236.073793,250.009982 237.133759,252.964445 238.657365,255.687053 C242.768176,262.158457 250.300044,265.649327 257.928916,264.619032 C266.356247,263.210018 272.392309,255.758511 271.980103,247.27287 L271.980103,247.27287 Z" id="Path" fill="#FFFFFF"></path>
                <path d="M254.813183,265.796773 C247.87561,265.828297 241.416532,262.284735 237.743733,256.432177 C236.191609,253.667298 235.113449,250.664661 234.553512,247.547517 C233.635293,243.052511 233.376309,237.012347 237.708417,233.957148 C239.191749,232.84746 241.072803,232.402112 242.899884,232.728045 C244.16457,229.543561 247.076168,227.299218 250.492847,226.875172 C253.97116,226.527701 257.466029,227.352183 260.416671,229.216321 C267.060192,233.156148 271.369574,240.055096 271.976809,247.723103 L271.976809,247.723103 C272.428848,256.465962 266.224745,264.159808 257.544295,265.621187 C256.639457,265.745949 255.726644,265.804634 254.813183,265.796773 L254.813183,265.796773 Z M241.722681,233.793267 C240.519848,233.82661 239.358208,234.236219 238.402967,234.963842 C234.635916,237.69128 234.871357,243.216392 235.707171,247.371931 C236.238138,250.361805 237.268698,253.242204 238.756128,255.893713 C242.727075,262.119094 249.98904,265.464217 257.332398,264.450613 C265.415285,263.106359 271.20456,255.955804 270.799606,247.816749 L270.799606,247.816749 C270.220484,240.538508 266.125648,233.992242 259.816298,230.258133 C257.094802,228.532901 253.869604,227.76618 250.657655,228.080864 C247.50764,228.474829 244.86539,230.633189 243.865191,233.629387 C243.816122,233.782656 243.711133,233.912109 243.57089,233.992265 C243.420479,234.056025 243.250421,234.056025 243.100009,233.992265 C242.654282,233.854316 242.189458,233.787158 241.722681,233.793267 L241.722681,233.793267 Z" id="Shape" fill="#231F20"></path>
                <path d="M260.088674,260.000646 C259.883773,261.057133 260.036371,262.153135 260.521596,263.11001 C260.867518,263.562977 261.154601,264.05949 261.375739,264.587255 C261.469836,265.078218 261.445748,265.585081 261.305535,266.0645 C261.01416,267.366973 260.650865,268.651675 260.21738,269.912486 C260.130634,270.080817 260.10574,270.275143 260.147177,270.460497 C260.264183,270.817895 260.755607,270.829808 261.130026,270.770242 C263.57545,270.40093 266.114479,269.983966 268.150382,268.494807 C270.60413,266.402867 272.015169,263.306784 271.999877,260.048299 C271.999877,257.510773 271.414847,253.114777 268.31419,252.816945 C264.546599,252.483373 260.626901,256.498145 260.088674,260.000646 Z" id="Path" fill="#FFFFFF"></path>
                <path d="M260.341758,271.794405 C259.837689,271.832296 259.368831,271.515851 259.183106,271.012399 C259.096449,270.688133 259.116912,270.341763 259.241039,270.031789 C259.670127,268.748624 260.026102,267.438734 260.306999,266.109348 C260.421217,265.707466 260.448946,265.28308 260.388104,264.86807 C260.281678,264.562084 260.129017,264.276924 259.93623,264.024 C259.820365,263.850221 259.7045,263.66403 259.600221,263.477838 C259.042316,262.360733 258.866097,261.069964 259.102001,259.828479 C259.658154,255.881212 263.806128,251.425022 267.826651,251.822231 C270.978185,252.144964 272.055731,256.253596 271.997799,259.989845 C272.004358,263.57465 270.522593,266.976943 267.954103,269.274609 C265.822183,270.962748 263.029831,271.409608 260.793633,271.757166 L260.341758,271.794405 Z M260.260653,270.553126 C260.364281,270.570772 260.46986,270.570772 260.573489,270.553126 C262.798101,270.193155 265.323962,269.795946 267.212565,268.293999 C269.503747,266.232358 270.816547,263.18284 270.7928,259.977432 C270.7928,259.307142 270.7928,253.386242 267.66444,253.075923 C264.269589,252.715952 260.712527,256.675631 260.20272,260.027083 L260.20272,260.027083 C260.019605,260.989613 260.141947,261.990094 260.550316,262.869611 L260.839979,263.316472 C261.522258,264.164098 261.733926,265.335703 261.396132,266.394843 C261.10522,267.774242 260.737659,269.133795 260.295412,270.466237 L260.260653,270.553126 Z" id="Shape" fill="#231F20"></path>
                <path d="M146.243292,232.856514 C152.787985,232.234965 158.717884,236.586062 159.820959,242.819203 C160.924034,249.052343 156.82448,255.043979 150.434229,256.538226 L150.898531,260.908065 C151.002539,261.503842 150.753333,262.105797 150.251935,262.469913 C149.750536,262.834029 149.080134,262.899893 148.512494,262.640805 C147.944854,262.381718 147.574155,261.840666 147.550669,261.236978 L147.086367,256.867138 C140.507271,256.645952 135.229347,251.565594 135.007245,245.240166 C134.785143,238.914739 139.694689,233.503752 146.243292,232.856514 L146.243292,232.856514 Z" id="Path" fill="#FFFFFF"></path>
                <path d="M149.856465,262.79747 C148.679926,262.79747 147.694455,261.941023 147.57555,260.815707 L147.173035,256.95772 C140.381513,256.488839 135.093399,251.100348 135.001222,244.554866 C134.909045,238.009384 140.043481,232.485233 146.81931,231.83976 L146.81931,231.83976 C153.497872,231.315655 159.51292,235.716894 160.766716,242.045143 C162.020512,248.373393 158.109597,254.592283 151.698273,256.465211 L152.112985,260.323198 C152.240718,261.534194 151.323407,262.615558 150.063821,262.738838 L149.856465,262.79747 Z M146.941284,233.012401 C140.733713,233.639523 136.086726,238.773709 136.298516,244.77098 C136.510305,250.768251 141.508794,255.587613 147.746313,255.808532 C148.051318,255.818816 148.301457,256.044266 148.331789,256.33622 L148.79529,260.698443 C148.822412,260.979627 148.968209,261.23784 149.198695,261.412893 C149.429181,261.587946 149.724218,261.664543 150.015031,261.624829 C150.305304,261.595779 150.570758,261.454349 150.75025,261.233118 C150.929741,261.011886 151.007794,260.729928 150.966429,260.452189 L150.502927,256.07824 C150.471698,255.784303 150.677433,255.51551 150.978626,255.45674 C157.066607,254.052462 160.97955,248.350875 159.927335,242.41749 C158.875121,236.484104 153.21813,232.351093 146.990074,232.965495 L146.941284,233.012401 Z" id="Shape" fill="#231F20"></path>
                <circle id="Oval" fill="#231F20" cx="148" cy="244.79747" r="9"></circle>
                <path d="M147.53666,253.796894 C142.467282,253.852547 138.260663,249.865948 138.011582,244.770009 C137.7625,239.67407 141.560035,235.291221 146.610366,234.845892 L146.610366,234.845892 C149.965417,234.504078 153.246807,235.989574 155.218471,238.742807 C157.190134,241.49604 157.552528,245.098729 156.169141,248.193776 C154.785754,251.288823 151.866757,253.406016 148.511706,253.74783 C148.187859,253.782534 147.862332,253.798914 147.53666,253.796894 Z M146.756623,236.060228 C142.857532,236.459821 139.781965,239.575805 139.41097,243.502413 C139.039975,247.429021 141.476891,251.07252 145.231275,252.204509 C148.985659,253.336497 153.01175,251.641666 154.847149,248.156592 C156.682548,244.671518 155.816017,240.366947 152.777533,237.875599 C151.088401,236.49236 148.923232,235.839538 146.756623,236.060228 L146.756623,236.060228 Z" id="Shape" fill="#231F20"></path>
                <path d="M57.1010391,140.338352 C63.3954103,142.201933 67.1503129,148.591817 65.6828685,154.942431 C64.2154241,161.293044 58.0296386,165.423219 51.5452561,164.381943 L50.2444492,168.698696 C49.9419277,169.52893 49.0383839,169.980348 48.1856959,169.727268 C47.333008,169.474187 46.8279835,168.604702 47.0349816,167.746117 L48.3479456,163.429364 C42.3521656,160.751934 39.4856918,153.914485 41.7997632,147.809872 C44.1138346,141.705259 50.8119842,138.434593 57.1010391,140.338352 L57.1010391,140.338352 Z" id="Path" fill="#FFFFFF"></path>
                <path d="M49.0979172,170.789496 C48.8797564,170.793017 48.6624891,170.760785 48.4547183,170.694078 C47.8843859,170.52583 47.404902,170.13623 47.123018,169.612019 C46.841134,169.087809 46.7802499,168.472503 46.9539209,167.903092 L48.1450299,164.122142 C42.1387811,161.157076 39.4284979,154.058525 41.9273498,147.837305 C44.4262017,141.616086 51.2901148,138.37363 57.673902,140.398765 L57.673902,140.398765 C64.1400539,142.227568 68.0946761,148.75022 66.731791,155.338613 C65.3689058,161.927007 59.1521471,166.339865 52.4925778,165.446071 L51.3610243,169.238949 C51.1876352,169.805814 50.7982183,170.281463 50.2771151,170.562878 C49.912375,170.745671 49.5043214,170.824091 49.0979172,170.789496 Z M53.8623532,141.042838 C48.4143832,141.082733 43.7248626,144.905872 42.5811761,150.239836 C41.4374896,155.5738 44.1464615,160.987612 49.0979172,163.263377 C49.373488,163.383485 49.5165083,163.690374 49.4314277,163.979014 L48.1450299,168.248984 C48.0608881,168.514181 48.0866374,168.802106 48.2164965,169.048112 C48.3448611,169.293703 48.5690993,169.475065 48.8358732,169.549058 C49.3884066,169.719843 49.9746838,169.410295 50.1460931,168.857276 L51.4324908,164.575379 C51.5135454,164.291104 51.7974227,164.115378 52.0876008,164.169851 C56.3874486,164.821585 60.6905936,163.013106 63.237999,159.483682 C65.7854044,155.954258 66.1501182,151.29543 64.183053,147.411631 C62.2159877,143.527832 58.2468289,141.069997 53.8980865,141.042838 L53.8623532,141.042838 Z" id="Shape" fill="#231F20"></path>
                <circle id="Oval" fill="#231F20" cx="54" cy="152.79747" r="9"></circle>
                <path d="M53.5037756,161.79747 C52.5738506,161.796202 51.6490338,161.65995 50.7582511,161.392975 C45.993874,159.95625 43.1457849,155.085933 44.229664,150.228897 C45.3135431,145.371861 49.9619637,142.174603 54.8850958,142.899922 C59.808228,143.625241 63.3371679,148.027258 62.9743764,152.990531 C62.6115849,157.953804 58.4800456,161.795821 53.5037756,161.79747 L53.5037756,161.79747 Z M53.5037756,144.024224 C49.8599476,144.04042 46.6530442,146.432043 45.5981358,149.920039 C44.2920322,154.288035 46.7710269,158.888445 51.1373513,160.199473 C55.5036758,161.5105 60.1066144,159.036504 61.4224354,154.671426 C62.7382564,150.306347 60.2695056,145.700431 55.9061096,144.379689 C55.1185801,144.144576 54.301135,144.024843 53.479262,144.024224 L53.5037756,144.024224 Z" id="Shape" fill="#231F20"></path>
                <path d="M136.997576,49.1411228 C137.12715,55.7643465 132.047017,61.3223726 125.455635,61.768825 C118.864254,62.2152774 113.084857,57.3927971 112.324984,50.8122653 L107.808317,50.8122653 C107.181255,50.8659365 106.577521,50.5608296 106.247509,50.0234853 C105.917497,49.4861411 105.917497,48.8082142 106.247509,48.27087 C106.577521,47.7335258 107.181255,47.4284188 107.808317,47.48209 L112.324984,47.48209 C113.228331,41.0397253 118.93903,36.3898351 125.412411,36.8257579 C131.885792,37.2616806 136.92517,42.6354898 136.961346,49.1411228 L136.997576,49.1411228 Z" id="Path" fill="#FFFFFF"></path>
                <path d="M124.090761,62.7974697 C117.839552,62.7900226 112.491233,58.2721074 111.393208,52.0713884 L107.420722,52.0713884 C106.577549,52.1334736 105.770678,51.7154086 105.330291,50.9882702 C104.889903,50.2611317 104.889903,49.3469459 105.330291,48.6198074 C105.770678,47.892669 106.577549,47.474604 107.420722,47.5366892 L111.393208,47.5366892 C112.582075,40.7554348 118.813084,36.0848674 125.600943,36.8870203 C132.388803,37.6891732 137.378146,43.6857017 136.977474,50.5601007 C136.576802,57.4344998 130.925146,62.8013733 124.090761,62.7974697 Z M107.420722,48.7459423 C107.018742,48.7025809 106.627466,48.8942392 106.413011,49.2395483 C106.198556,49.5848574 106.198556,50.0232202 106.413011,50.3685293 C106.627466,50.7138384 107.018742,50.9054967 107.420722,50.8621353 L111.873267,50.8621353 C112.1739,50.866008 112.425284,51.0934535 112.461339,51.3942066 C113.291547,57.5397829 118.705297,61.9865067 124.84676,61.567294 C130.988222,61.1480813 135.757286,56.0062846 135.757286,49.8040388 C135.757286,43.601793 130.988222,38.4599963 124.84676,38.0407836 C118.705297,37.6215709 113.291547,42.0682947 112.461339,48.213871 C112.425284,48.5146241 112.1739,48.7420696 111.873267,48.7459423 L107.420722,48.7459423 Z" id="Shape" fill="#231F20"></path>
                <circle id="Oval" fill="#231F20" cx="124" cy="49.7974697" r="9"></circle>
                <path d="M124.5,58.7974697 C119.253295,58.7974697 115,54.5441748 115,49.2974697 C115,44.0507646 119.253295,39.7974697 124.5,39.7974697 C129.746705,39.7974697 134,44.0507646 134,49.2974697 C133.993247,54.541375 129.743905,58.7907165 124.5,58.7974697 L124.5,58.7974697 Z M124.5,41.0355342 C121.152286,41.0355342 118.134443,43.0528093 116.854476,46.1461688 C115.57451,49.2395282 116.284664,52.7993661 118.653609,55.1648016 C121.022555,57.5302372 124.583441,58.2351132 127.6749,56.950562 C130.766358,55.6660109 132.779153,52.6451797 132.774203,49.2974697 C132.767431,44.7325466 129.064928,41.0355342 124.5,41.0355342 Z" id="Shape" fill="#231F20"></path>
                <path d="M270,123.80315 C269.964947,130.124669 265.082042,135.346396 258.809658,135.769982 C252.537275,136.193568 247.003893,131.675273 246.128594,125.415231 L241.752169,125.415231 C241.144578,125.467383 240.559589,125.170911 240.239824,124.648774 C239.920059,124.126637 239.920059,123.467896 240.239824,122.945759 C240.559589,122.423622 241.144578,122.127149 241.752169,122.179302 L246.128594,122.179302 C247.004399,115.917206 252.541175,111.398553 258.81544,111.825358 C265.089706,112.252164 269.970856,117.479495 270,123.80315 Z" id="Path" fill="#FFFFFF"></path>
                <path d="M258.078757,136.797455 C251.828532,136.793951 246.481467,132.272824 245.393207,126.071372 L241.420722,126.071372 C240.577549,126.133457 239.770678,125.715392 239.330291,124.988254 C238.889903,124.261116 238.889903,123.346931 239.330291,122.619793 C239.770678,121.892655 240.577549,121.47459 241.420722,121.536675 L245.393207,121.536675 C246.582348,114.753896 252.815776,110.083038 259.604919,110.887497 C266.394062,111.691955 271.381992,117.692454 270.976996,124.568148 C270.571999,131.443842 264.914677,136.807757 258.078757,136.797455 L258.078757,136.797455 Z M241.420722,122.745928 C241.018742,122.702566 240.627466,122.894224 240.413011,123.239533 C240.198556,123.584842 240.198556,124.023205 240.413011,124.368514 C240.627466,124.713823 241.018742,124.905481 241.420722,124.862119 L245.90927,124.862119 C246.209904,124.865992 246.461288,125.093437 246.497342,125.39419 C247.327551,131.539763 252.741299,135.986484 258.882761,135.567272 C265.024223,135.148059 269.793286,130.006266 269.793286,123.804023 C269.793286,117.601781 265.024223,112.459988 258.882761,112.040775 C252.741299,111.621563 247.327551,116.068284 246.497342,122.213857 C246.461288,122.51461 246.209904,122.742055 245.90927,122.745928 L241.420722,122.745928 Z" id="Shape" fill="#231F20"></path>
                <circle id="Oval" fill="#231F20" cx="258" cy="123.79747" r="9"></circle>
                <path d="M257.512381,133.797454 C253.667822,133.802403 250.199297,131.489658 248.725757,127.938695 C247.252217,124.387733 248.064205,120.298706 250.78272,117.58019 C253.501236,114.861674 257.590263,114.049687 261.141225,115.523226 C264.692188,116.996766 267.004934,120.465292 266.999984,124.309851 C266.993223,129.546905 262.749435,133.790693 257.512381,133.797454 L257.512381,133.797454 Z M257.512381,116.035776 C254.164723,116.030825 251.143938,118.043589 249.859407,121.135 C248.574876,124.226411 249.279741,127.787242 251.64514,130.156151 C254.010539,132.525059 257.570322,133.235203 260.663633,131.955256 C263.756945,130.67531 265.774189,127.657512 265.774189,124.309851 C265.76746,119.747782 262.074434,116.049277 257.512381,116.035776 L257.512381,116.035776 Z" id="Shape" fill="#231F20"></path>
                <path d="M243.964505,96.6610714 C243.964505,96.6610714 234.737339,103.026636 232.682899,103.525657 C230.62846,104.024678 220,103.683883 220,103.683883 L230.094068,88.993183 C230.094068,88.993183 237.219292,87.4717766 240.888783,87.8612566 C244.558273,88.2507367 243.964505,96.6610714 243.964505,96.6610714 Z" id="Path" fill="#FFFFFF"></path>
                <path d="M227.577275,103.783285 C224.282714,103.783285 220.834642,103.663225 220.586664,103.663225 C220.371783,103.647495 220.179966,103.520501 220.0789,103.327059 C219.9737,103.136971 219.9737,102.904844 220.0789,102.714756 L230.116095,88.2235825 C230.204371,88.099904 230.334942,88.014256 230.482158,87.9834636 C230.765561,87.9834636 237.685321,86.4587089 241.393179,86.8669109 C245.573375,87.3111308 245.006569,95.8233445 244.935718,96.1835228 C244.922945,96.3681899 244.827085,96.5365357 244.675932,96.6397486 C243.731255,97.2880695 235.370862,102.978887 233.280764,103.495142 C231.389713,103.740117 229.482897,103.83645 227.577275,103.783285 L227.577275,103.783285 Z M221.673043,102.486643 C225.132923,102.58269 231.603962,102.678738 233.044595,102.330566 C234.485227,101.982393 241.121584,97.6362419 243.813914,95.8113385 C243.931999,93.4821856 243.684021,88.31963 241.263286,88.0554993 C238.098617,87.7193329 232.170768,88.8598975 230.942688,89.1120223 L221.673043,102.486643 Z" id="Shape" fill="#231F20"></path>
                <path d="M203.860596,60.8927078 C204.164505,62.5277233 204.245856,64.1986686 204.102288,65.8569935 C203.837578,67.4879459 205,73.3688983 205,73.3688983 L194.123874,82.7974697 C194.123874,82.7974697 191.430738,68.5117554 192.109777,66.1308031 C193.475118,62.6083661 195.011627,59.159526 196.713428,55.7974697 L203.860596,60.8927078 Z" id="Path" fill="#FFFFFF"></path>
                <path d="M194.858,82.7889871 C194.793389,82.8002973 194.72721,82.8002973 194.662599,82.7889871 C194.459163,82.7203852 194.306748,82.5547982 194.259585,82.3511412 C193.966484,80.8837659 191.389636,67.9850635 192.134602,65.4999924 C193.57751,61.9614495 195.20802,58.497461 197.019621,55.1218622 C197.100569,54.9715048 197.241967,54.8601831 197.410423,54.8141867 C197.583588,54.7734366 197.766484,54.8080165 197.911137,54.9088561 L205.531768,59.997335 C205.620197,60.063179 205.691331,60.1483247 205.739381,60.2458421 C206.113724,61.9803241 206.216647,63.759506 206.044695,65.5236598 C205.824869,66.707027 206.655323,71.1683213 206.985061,72.765867 C207.035751,72.9817047 206.955201,73.2066762 206.777448,73.3457169 L195.199951,82.6824841 C195.100661,82.7525178 194.980807,82.7898471 194.858,82.7889871 L194.858,82.7889871 Z M197.801224,56.1868926 C196.112165,59.2916699 194.599621,62.4836394 193.270369,65.7484995 C192.794079,67.3342116 194.125247,75.4166095 195.224377,81.0494373 L205.739381,72.5765282 C205.44628,71.2038223 204.579189,66.7306943 204.847865,65.2396517 C204.962625,63.757304 204.888795,62.2669068 204.628039,60.8020247 L197.801224,56.1868926 Z" id="Shape" fill="#231F20"></path>
                <path d="M279.926272,46.7878651 C280.924468,52.8474688 271.489135,87.2488414 269.623459,89.1693064 C267.757782,91.0897714 242.802871,99.7974697 242.802871,99.7974697 L238.667486,85.4238033 C238.667486,85.4238033 256.409239,77.2648092 257.466852,76.382111 C258.524465,75.4994129 261.031839,62.3782236 261.031839,62.3782236 C261.031839,62.3782236 245.274596,59.9925528 239.416134,54.9826442 C233.557671,49.9727355 228.24584,33.6308907 225.310667,32.9748313 C222.375495,32.3187718 213.522443,37.6388176 212.239048,39.8932765 C210.955652,42.1477354 207.830347,62.4378654 207.830347,62.4378654 L193,57.8096641 C193,57.8096641 197.182918,36.8157612 199.630876,30.8038709 C202.078834,24.7919805 230.372949,11.1220869 233.593321,10.8000214 C236.813693,10.4779558 278.928075,40.7401896 279.926272,46.7878651 Z" id="Path" fill="#F99E3B"></path>
                <path d="M225,45.7616743 C225.402646,49.8345697 227.052656,53.6816277 229.722525,56.7724121 C229.722525,56.7724121 228.990534,58.8131954 230.454517,59.3589863 C231.259353,59.6881078 232.12454,59.8417849 232.992874,59.8098571 C232.992874,59.8098571 241.918446,64.4253495 246.463877,62.1828609 C251.009307,59.9403723 244.763768,41.6207826 236.924376,41.7987579 C229.084984,41.9767332 225,45.7616743 225,45.7616743 Z" id="Path" fill="#FFFFFF"></path>
                <path d="M243.62207,63.7917788 C239.101716,63.7917788 233.713941,61.1975812 232.72435,60.6934954 C231.796729,60.6996842 230.87637,60.5286283 230.012137,60.1894096 C228.865329,59.634371 228.333827,58.2864767 228.79042,57.0911263 C226.067208,53.8256681 224.39673,49.8030636 224.001287,45.558627 C223.989328,45.3734052 224.061169,45.1926619 224.196762,45.066836 C224.367803,44.8947092 228.656031,40.9849706 236.914841,40.800549 C242.534742,40.6161274 247.042879,48.7552686 248.447854,54.533813 C249.522966,58.9353425 249.009844,62.1319841 247.067314,63.1401557 C245.981838,63.6141278 244.804473,63.836811 243.62207,63.7917788 Z M232.797653,59.4886074 C232.890411,59.4700568 232.98589,59.4700568 233.078648,59.4886074 C233.176386,59.4886074 242.107141,64.1114429 246.517541,61.9475625 C247.86143,61.2836446 248.154642,58.4804359 247.250571,54.7920033 C245.747859,48.6446156 241.422979,41.9931422 237.024796,41.9931422 L236.927058,41.9931422 C232.739079,41.9393834 228.643254,43.2314964 225.235222,45.6815748 C225.683476,49.6500979 227.309855,53.3905355 229.902183,56.4149136 C230.057863,56.5833024 230.10944,56.8239506 230.036572,57.0419472 C230.036572,57.0419472 229.511233,58.5910888 230.427521,58.9476373 C231.175268,59.2532378 231.978932,59.3957152 232.785436,59.3656597 L232.797653,59.4886074 Z" id="Shape" fill="#231F20"></path>
                <path d="M224.111296,46.4283128 C227.169124,50.2280258 232.160965,51.9083987 236.900594,50.7334957 C236.900594,50.7334957 238.085886,59.663202 245.636194,62.7974697 C245.636194,62.7974697 259.480402,57.4869557 262.336955,47.2089229 C265.193508,36.9308901 258.378081,28.4269712 250.353656,24.8787435 C242.32923,21.3305159 222.333358,26.0141764 224.111296,46.4283128 Z" id="Path" fill="#FFFFFF"></path>
                <path d="M246.123124,62.7849707 C246.049318,62.8016361 245.972706,62.8016361 245.8989,62.7849707 C239.278393,60.0206082 237.390191,53.0920571 236.953545,50.9511466 C232.161124,51.8396063 227.267122,50.0266565 224.219984,46.2340855 C224.160561,46.1464061 224.124052,46.0453191 224.113773,45.9400044 C223.205076,35.4824799 227.913779,29.7890694 232.032419,26.8600215 C238.381497,22.3076458 246.64238,21.9547485 251.067852,23.9662633 C259.057306,27.4952367 266.291479,36.1765113 263.317561,46.8810639 C260.426252,57.268009 246.913809,62.5497058 246.335547,62.7732075 C246.265814,62.7883357 246.194109,62.7923064 246.123124,62.7849707 Z M237.425595,49.6101367 C237.721213,49.613904 237.968404,49.8351561 238.003857,50.1277195 C238.003857,50.2100622 239.25479,58.5266762 246.134925,61.5615933 C247.881512,60.8322721 259.635568,55.679971 262.18464,46.5399298 C264.969737,36.5058821 258.125006,28.3539536 250.584001,25.0249554 C246.370951,23.1545995 238.523112,23.707472 232.705091,27.8481341 C228.869681,30.5772068 224.444208,35.8941934 225.258495,45.6929762 C228.163421,49.2241251 232.856119,50.7603895 237.295781,49.6336632 L237.425595,49.6101367 Z" id="Shape" fill="#231F20"></path>
                <path d="M195.489245,72.927337 L226.346403,72.927337 C227.887968,72.927337 229.137653,74.1770222 229.137653,75.718587 L229.137653,98.4475408 C229.137653,99.9891056 227.887968,101.238791 226.346403,101.238791 L195.489245,101.238791 C193.947681,101.238791 192.697995,99.9891056 192.697995,98.4475408 L192.697995,75.718587 C192.697995,74.1770222 193.947681,72.927337 195.489245,72.927337 Z" id="Rectangle" fill="#FFFFFF" transform="translate(210.917824, 87.083064) rotate(-145.470000) translate(-210.917824, -87.083064) "></path>
                <path d="M217.676008,108.79747 C216.887194,108.794842 216.117198,108.555656 215.465048,108.110667 L190.687886,91.0131313 C188.91294,89.7852081 188.466462,87.3471216 189.690551,85.5669819 L202.091148,67.4934771 C203.315789,65.7155787 205.742537,65.2633546 207.522418,66.4813608 L232.299581,83.5668473 C233.156504,84.1525648 233.744961,85.0569072 233.934447,86.0793112 C234.123932,87.1017152 233.898782,88.1576731 233.308931,89.0129968 L220.908334,107.086502 C220.179974,108.158416 218.969544,108.79913 217.676008,108.79747 L217.676008,108.79747 Z M205.311458,66.9874189 C204.416815,66.9936313 203.583722,67.4451855 203.088483,68.1923193 L190.67587,86.265824 C189.836075,87.5015737 190.147202,89.185186 191.372802,90.037162 L216.149965,107.122649 C216.740022,107.533597 217.469428,107.690957 218.17582,107.559702 C218.882212,107.428446 219.506961,107.019468 219.910999,106.423806 L232.323613,88.3503016 C233.163407,87.1145519 232.852281,85.4309396 231.62668,84.5789636 L206.849517,67.4693791 C206.397605,67.1556947 205.861082,66.9874189 205.311458,66.9874189 L205.311458,66.9874189 Z" id="Shape" fill="#231F20"></path>
                <path d="M196.930272,75.8406964 L224.912142,75.8406964 C225.724967,75.8406964 226.383892,76.4996213 226.383892,77.3124464 L226.383892,96.8438484 C226.383892,97.6566735 225.724967,98.3155984 224.912142,98.3155984 L196.930272,98.3155984 C196.117447,98.3155984 195.458522,97.6566735 195.458522,96.8438484 L195.458522,77.3124464 C195.458522,76.4996213 196.117447,75.8406964 196.930272,75.8406964 Z" id="Rectangle" fill="#FFFFFF" transform="translate(210.921207, 87.078147) rotate(-145.470000) translate(-210.921207, -87.078147) "></path>
                <path d="M216.966898,103.79747 C216.499587,103.793898 216.043656,103.65598 215.65579,103.400864 L193.009375,88.2365096 C192.497501,87.8947128 192.149139,87.3643759 192.043922,86.7667338 C191.92221,86.1771804 192.056023,85.5646341 192.413416,85.0753251 L203.140666,69.7593276 C203.886895,68.754162 205.307144,68.4977137 206.37076,69.1760832 L206.37076,69.1760832 L229.017175,84.3404371 C230.044252,85.0707468 230.30629,86.4606967 229.613133,87.5016217 L218.885884,102.817619 C218.443336,103.425996 217.729937,103.790263 216.966898,103.79747 Z M205.131166,69.8993062 C204.762333,69.9093027 204.419025,70.0859097 204.201471,70.3775666 L193.474222,85.6818992 C193.310767,85.926321 193.246966,86.221867 193.295435,86.5101062 C193.357141,86.7975816 193.527401,87.051689 193.772201,87.2216644 L216.418617,102.386018 C216.662395,102.555224 216.96566,102.620923 217.259633,102.568215 C217.553606,102.515506 217.813375,102.348856 217.980027,102.106061 L228.707277,86.7900635 C228.881235,86.5543993 228.950052,86.2597467 228.897983,85.9735214 C228.836277,85.6860461 228.666017,85.4319386 228.421217,85.2619633 L205.774801,70.0392849 C205.577973,69.934324 205.354892,69.885808 205.131166,69.8993062 Z" id="Shape" fill="#231F20"></path>
                <path d="M227.899676,96.2228191 C227.899676,96.2228191 220.064921,97.5946045 219.225483,96.0992348 C218.386045,94.6038652 220.053728,92.3175562 221.542332,91.8602944 C223.030935,91.4030326 231,90.7974697 231,90.7974697" id="Path" fill="#FFFFFF"></path>
                <path d="M222.802139,97.7974697 C221.162367,97.7974697 219.744186,97.5586031 219.323164,96.8420032 C218.945378,96.1605133 218.895868,95.3243933 219.190209,94.5966569 C219.689413,93.2963018 220.68807,92.293879 221.926855,91.8496908 C223.444752,91.3839008 231.078554,90.8225643 231.41094,90.7986776 C231.71305,90.7781044 231.97454,91.0227521 231.998155,91.3480709 C232.010359,91.5073069 231.961634,91.6649979 231.86329,91.7845422 C231.764946,91.9040865 231.625536,91.9750883 231.477417,91.9810674 C229.261509,92.148274 223.389354,92.6379506 222.226003,92.9962506 C221.321072,93.3319869 220.5943,94.071896 220.231686,95.0266169 C220.050406,95.4007485 220.050406,95.8468184 220.231686,96.22095 C220.619469,96.8061732 224.375433,96.7345132 228.264351,96.0656867 C228.409835,96.0417166 228.558187,96.0811358 228.67667,96.1752453 C228.795153,96.2693548 228.874026,96.4104186 228.895885,96.5673066 C228.918121,96.7241328 228.881553,96.8840514 228.79425,97.0117715 C228.706947,97.1394915 228.576085,97.2245142 228.430544,97.2480765 C226.569018,97.5761253 224.688051,97.7597281 222.802139,97.7974697 Z" id="Path" fill="#231F20"></path>
                <path d="M196.034844,69.4625413 C196.034844,69.6537995 195.649777,78.0241593 197.439821,78.6766873 C199.229865,79.3292154 199.146607,77.2141245 199.365159,75.3015423 C199.583711,73.3889601 199.000906,70.1375703 200,67.7974697" id="Path" fill="#FFFFFF"></path>
                <path d="M198.080518,79.7974697 C197.773282,79.7887976 197.469153,79.740035 197.177902,79.6527483 C195.109406,79.0293327 194.871216,74.0865382 195.046725,70.0677346 C195.052735,69.7587908 195.32614,69.5062926 195.673541,69.4888487 L195.673541,69.4888487 C195.834106,69.4827758 195.990497,69.5352082 196.106479,69.6339976 C196.22246,69.732787 196.287967,69.8693597 196.287822,70.0120725 L196.287822,70.1122642 C196.062168,75.3667665 196.764203,78.3502551 197.541455,78.5951684 C197.795241,78.6838799 198.077458,78.6838799 198.331244,78.5951684 C198.732407,78.37252 198.845234,77.3706021 198.945525,76.491141 C198.945525,76.2350953 198.945525,75.9679172 199.033279,75.7118715 C199.086433,74.9927488 199.086433,74.2713048 199.033279,73.552182 C198.839231,71.7134581 199.100231,69.8592924 199.797996,68.119561 C199.868636,67.9845425 199.997243,67.8802809 200.155077,67.8300749 C200.312911,67.7798689 200.486816,67.7879034 200.63793,67.852383 C200.789112,67.9128339 200.906355,68.0249872 200.963016,68.163356 C201.019677,68.3017249 201.010945,68.4545575 200.938802,68.5871227 C200.326017,70.174377 200.103722,71.8598802 200.286913,73.5299172 C200.345716,74.3008818 200.345716,75.074496 200.286913,75.8454606 C200.286913,76.1015063 200.211695,76.3575519 200.186622,76.6024652 C200.048722,77.8381638 199.910823,79.0182003 199.008207,79.5302916 C198.736577,79.7007132 198.413079,79.7938818 198.080518,79.7974697 L198.080518,79.7974697 Z" id="Path" fill="#231F20"></path>
                <polygon id="Rectangle" fill="#FFFFFF" transform="translate(94.910791, 212.216395) rotate(44.770000) translate(-94.910791, -212.216395) " points="72.9968664 185.504324 116.824716 185.504324 116.824716 238.928467 72.9968664 238.928467"></polygon>
                <path d="M91.7340596,246.796393 C91.5764879,246.794151 91.4261858,246.729791 91.3158904,246.617331 L60.1682631,215.746986 C60.0600856,215.634854 60.0004597,215.484915 60.0004597,215.329174 C59.9940588,215.168841 60.0547349,215.01295 60.1682631,214.899425 L97.8273814,176.974024 C97.9395502,176.861028 98.0922392,176.79747 98.2515243,176.79747 C98.4108095,176.79747 98.5634985,176.861028 98.6756673,176.974024 L129.823295,207.844369 C129.936387,207.956442 130,208.109001 130,208.26815 C130,208.427299 129.936387,208.579858 129.823295,208.691931 L92.1641764,246.653144 C92.0445829,246.754394 91.8905362,246.805699 91.7340596,246.796393 Z M61.4347182,215.317237 L91.7340596,245.351957 L128.55684,208.274119 L98.2574982,178.239398 L61.4347182,215.317237 Z" id="Shape" fill="#231F20"></path>
                <path d="M117.445242,209.79747 C117.293924,209.797842 117.148668,209.737617 117.041484,209.630066 L96.1647957,188.764545 C96.0226679,188.621435 95.9671607,188.412847 96.0191831,188.217356 C96.0712054,188.021864 96.2228539,187.869167 96.4170039,187.816785 C96.611154,187.764403 96.8183097,187.820294 96.9604374,187.963404 L117.837126,208.816968 C118.054291,209.043896 118.054291,209.403138 117.837126,209.630066 C117.730919,209.731776 117.591684,209.791254 117.445242,209.79747 L117.445242,209.79747 Z" id="Path" fill="#D1D3D4"></path>
                <path d="M111.429095,216.79747 C111.280626,216.801558 111.137669,216.740399 111.037559,216.629751 L90.1675044,195.775175 C90.0602732,195.667415 90,195.521035 90,195.368374 C90,195.215712 90.0602732,195.069332 90.1675044,194.961572 C90.3926752,194.742769 90.7491351,194.742769 90.9743059,194.961572 L111.832496,215.828112 C111.939727,215.935872 112,216.082252 112,216.234914 C112,216.387575 111.939727,216.533955 111.832496,216.641715 C111.722822,216.743874 111.578379,216.799568 111.429095,216.79747 Z" id="Path" fill="#D1D3D4"></path>
                <path d="M105.441602,222.79747 C105.292005,222.800881 105.147016,222.745022 105.037947,222.641793 L84.1666158,201.766858 C84.0600263,201.661168 84,201.51679 84,201.366107 C84,201.215423 84.0600263,201.071045 84.1666158,200.965356 C84.2715058,200.857954 84.4147911,200.79747 84.5643345,200.79747 C84.713878,200.79747 84.8571632,200.857954 84.9620533,200.965356 L105.833384,221.840291 C105.939974,221.945981 106,222.090359 106,222.241042 C106,222.391726 105.939974,222.536103 105.833384,222.641793 C105.727959,222.743199 105.587341,222.799017 105.441602,222.79747 L105.441602,222.79747 Z" id="Path" fill="#D1D3D4"></path>
                <path d="M99.4288369,228.79747 C99.2814442,228.795987 99.1406232,228.735812 99.0371368,228.630087 L78.1583346,207.779251 C77.9472218,207.549967 77.9472218,207.195543 78.1583346,206.966259 C78.2652389,206.858205 78.4104557,206.79747 78.5619044,206.79747 C78.7133531,206.79747 78.8585699,206.858205 78.9654742,206.966259 L99.8324067,227.817096 C99.9959446,227.981247 100.044965,228.228581 99.9565355,228.443397 C99.8681065,228.658213 99.6597123,228.79804 99.4288369,228.79747 L99.4288369,228.79747 Z" id="Path" fill="#D1D3D4"></path>
                <path d="M84.4450142,226.79705 C84.3029518,226.799986 84.1656382,226.745481 84.0637323,226.645706 L72.1631176,214.747719 C72.0586947,214.642866 72,214.500437 72,214.351895 C72,214.203353 72.0586947,214.060924 72.1631176,213.956072 C72.3784824,213.744602 72.7218704,213.744602 72.9372352,213.956072 L84.83785,225.854059 C84.9415826,225.956914 85,226.097419 85,226.244061 C85,226.390703 84.9415826,226.531209 84.83785,226.634064 C84.73679,226.743561 84.5932921,226.803097 84.4450142,226.79705 L84.4450142,226.79705 Z" id="Path" fill="#D1D3D4"></path>
                <path d="M48.809791,223.688086 C50.4510577,221.950901 53.1743447,221.819115 55.5936934,221.819115 C57.1986594,221.730006 58.8071296,221.916483 60.347288,222.370221 C62.3855591,223.279298 64.1707034,224.660323 65.5507113,226.395698 C68.0794778,229.10331 70.7541346,232.110436 70.9851277,235.788475 C71.289066,240.580709 66.8880397,244.869758 62.0371848,245.636515 C57.1863299,246.403273 52.31116,244.342612 48.4450651,241.323505 C46.2907923,239.863637 44.7381809,237.691867 44.0683539,235.201427 C43.7472487,232.639397 44.5675173,230.06585 46.3174971,228.144863 C48.0677185,226.277751 50.0774577,224.664319 52.2868449,223.352629" id="Path" fill="#FFFFFF"></path>
                <path d="M60.3352507,245.79747 C55.2195738,245.79747 50.8964665,243.043183 48.6148265,241.238651 C45.9729277,239.149192 44.4838574,237.047862 44.0755639,234.81594 C43.725343,232.095039 44.6037345,229.359605 46.4772902,227.336628 C48.2248138,225.423468 50.2479871,223.775351 52.4816058,222.445396 C52.7608626,222.26538 53.1344687,222.339251 53.32221,222.611603 C53.5030884,222.883994 53.4280511,223.24961 53.1540892,223.430766 C51.0140741,224.701501 49.0723721,226.273171 47.3899462,228.096432 C45.7591115,229.855901 44.9909409,232.233988 45.2884357,234.602246 C45.6486946,236.549241 46.9936613,238.413133 49.3953876,240.312641 C51.7971138,242.212149 56.7806958,245.346337 62.3527007,244.455942 C66.6157649,243.779243 70.974898,239.956483 70.6866909,235.326433 C70.4825441,232.002294 68.1048351,229.20052 65.4869535,226.386875 C64.1804758,224.741752 62.4969839,223.427381 60.5754233,222.552243 C59.1197255,222.12537 57.5999028,221.95262 56.0841952,222.041751 C53.6824689,222.041751 51.2807427,222.172342 49.8276983,223.70382 C49.7149573,223.816195 49.5614895,223.879405 49.4013919,223.879405 C49.2412943,223.879405 49.0878265,223.816195 48.9750855,223.70382 C48.74478,223.468977 48.74478,223.095756 48.9750855,222.860913 C50.7523629,220.985149 53.5863999,220.818942 56.1802643,220.818942 C57.8344298,220.729055 59.4918868,220.92183 61.0797858,221.388795 C63.1838474,222.327838 65.0289118,223.752885 66.4596526,225.543968 C69.2336465,228.523821 71.755459,231.47993 71.983623,235.219586 C72.3198647,240.478848 67.4203431,244.835844 62.6409079,245.595647 C61.8796421,245.72824 61.1082389,245.795764 60.3352507,245.79747 L60.3352507,245.79747 Z" id="Path" fill="#231F20"></path>
                <path d="M68.5675132,182.79747 C69.2521264,182.498525 69.969553,182.282891 70.7046564,182.155119 C71.5571124,182.058161 75.1110136,181.767285 78.1726513,181.209773 C81.2342891,180.652261 83.2393617,180.143229 82.7591048,179.210002 C82.2788479,178.276776 76.827932,178.070739 76.827932,178.070739 C78.666757,176.520635 80.6261198,175.122347 82.6870663,173.8894 C84.2839205,173.21069 85.0883508,172.677418 84.9922994,171.889629 C84.896248,171.101841 84.8122031,170.265573 80.9581414,172.50774 C80.9581414,172.50774 84.668126,169.526264 83.1433103,168.944512 C81.6184946,168.362761 78.7609661,170.604928 78.7609661,170.604928 C78.7609661,170.604928 82.110758,167.73253 81.4744176,166.968981 C80.8380772,166.205432 76.9960219,167.962806 76.9960219,167.962806 C76.9960219,167.962806 80.7900515,165.878197 79.7935184,165.078289 C78.7969853,164.27838 75.7953797,165.187367 71.941318,167.805249 C68.0872563,170.423131 62,175.416498 62,175.416498 L68.5675132,182.79747 Z" id="Path" fill="#FFFFFF"></path>
                <path d="M69.1111017,182.79747 C68.9418976,182.795547 68.7814738,182.721579 68.6698028,182.593995 L62.1457352,175.280877 C62.0391844,175.159397 61.9873897,174.999133 62.0026112,174.83802 C62.0140961,174.6748 62.0916764,174.523417 62.2172972,174.419102 C62.2172972,174.419102 68.3239199,169.451927 72.1286321,166.878571 C76.1480303,164.149617 79.2848306,163.156182 80.6325813,164.209463 C80.9037408,164.418702 81.0480498,164.753594 81.0142452,165.095176 C80.9804755,165.353339 80.8774091,165.597434 80.7160703,165.801352 C81.302903,165.626049 81.9383316,165.766246 82.397777,166.172394 C82.7317329,166.591313 82.6601709,167.177799 82.171164,167.943821 C82.6997146,167.781212 83.2646851,167.781212 83.7932357,167.943821 C84.1812411,168.062093 84.4682007,168.391868 84.5327095,168.793627 C84.5584317,169.254032 84.418783,169.708431 84.1391186,170.07432 C84.5231283,169.926972 84.9478086,169.926972 85.3318183,170.07432 C85.7462457,170.328579 85.9957587,170.78384 85.9878032,171.27123 C86.1428542,172.575861 84.7951034,173.270069 83.3400098,173.868524 C81.7711891,174.758231 80.2826323,175.783474 78.8912397,176.932612 C81.0977342,177.112149 83.2803748,177.483191 83.6620387,178.297089 C83.8235524,178.616847 83.8235524,178.994705 83.6620387,179.314463 C83.2923018,180.092454 82.075748,180.511372 78.6646267,181.145734 C76.0049063,181.612529 72.9754489,181.899787 71.6754062,182.019478 L71.1983263,182.019478 C70.5298301,182.144559 69.877628,182.345327 69.2542257,182.617933 C69.2199505,182.687419 69.1711303,182.74866 69.1111017,182.79747 Z M63.5054129,174.96968 L69.3257877,181.504807 C69.9334404,181.250236 70.5705625,181.073303 71.2221803,180.978167 L71.7111872,180.978167 C72.9873759,180.858476 75.9810523,180.571218 78.6049917,180.104423 C81.2289312,179.637628 82.5409009,179.254617 82.7436599,178.907513 C80.9828734,178.424985 79.1659871,178.179463 77.34073,178.177398 C77.0929017,178.172653 76.8762664,178.008396 76.8040151,177.770449 C76.7209433,177.535049 76.7922602,177.272631 76.9829201,177.112149 C78.8491373,175.541958 80.8440461,174.132585 82.9464188,172.899027 C84.2941696,172.32451 84.9024464,171.905592 84.8666654,171.546519 C84.877757,171.439084 84.877757,171.330788 84.8666654,171.223353 C84.8666654,171.223353 84.3299505,171.13957 81.8133541,172.599799 C81.539879,172.750015 81.1977893,172.673157 81.0142452,172.420263 C80.8426929,172.159564 80.8998329,171.810301 81.1454422,171.618333 C82.338142,170.648837 83.4592797,169.427989 83.4473527,169.044978 C82.5528279,168.793627 80.5252383,170.026444 79.6903485,170.672775 C79.5687059,170.769958 79.4134879,170.814491 79.2590388,170.796521 C79.1045898,170.77855 78.9636432,170.699558 78.8673857,170.577022 C78.6651839,170.323156 78.6966448,169.954816 78.9389477,169.739185 C79.9381981,168.966644 80.7975499,168.027333 81.4793981,166.962355 C80.2064147,167.160906 78.9738936,167.565112 77.8297369,168.159264 C77.5333175,168.307997 77.1728744,168.187425 77.0246646,167.88996 C76.8764549,167.592494 76.9966026,167.230779 77.293022,167.082046 C78.2607392,166.600558 79.1367458,165.952374 79.8811805,165.16699 C79.1774876,164.831856 76.8159421,165.286681 72.8919599,167.95579 C69.6597436,170.002505 64.9724336,173.748833 63.5054129,174.96968 Z" id="Shape" fill="#231F20"></path>
                <polygon id="Path" fill="#231F20" points="66.2556468 183.79747 69 182.045479 62.3819302 173.79747 58 176.664364"></polygon>
                <path d="M65.7288913,183.797443 C65.5936531,183.798775 65.4625041,183.750869 65.3597248,183.662563 L57.1933145,176.616575 C57.0554774,176.505906 56.9836998,176.33201 57.0031378,176.155833 C57.0135325,175.979443 57.1043423,175.817732 57.2492488,175.717566 L61.5897518,172.885685 C61.8310912,172.731026 62.1497241,172.784372 62.3280848,173.009299 L68.8835867,181.145336 C68.9744239,181.27635 69.0142307,181.4363 68.9954554,181.594841 C68.9680856,181.753325 68.8744123,181.892427 68.7381575,181.97692 L66.0197497,183.707513 C65.9329312,183.763907 65.8322519,183.795026 65.7288913,183.797443 Z M58.4909906,176.256971 L65.7736387,182.538801 L67.6082843,181.415039 L61.7799285,174.155536 L58.4909906,176.256971 Z" id="Shape" fill="#231F20"></path>
                <path d="M85.8412674,240.598907 C85.8412674,240.598907 82.4290871,234.968265 82.0916187,232.823258 C81.7541503,230.678252 82.4165882,227.216991 82.9790355,227.156054 C83.5414828,227.095116 84.9538505,229.983562 84.6663774,231.689818 C84.6663774,231.689818 87.6785952,223.048854 89.3159418,222.817291 C90.9532884,222.585727 90.5658247,224.438233 90.1908598,225.498549 C90.1908598,225.498549 91.5907287,222.902603 92.3406584,223.536355 C93.0905881,224.170107 92.6656279,226.668552 92.6656279,226.668552 C92.6656279,226.668552 93.7155296,223.877606 94.5779488,224.426045 C95.440368,224.974485 94.9154171,227.387617 94.9154171,227.387617 C94.9154171,227.387617 96.0028153,224.547921 96.6402555,225.717924 C97.2776958,226.887928 97.1402087,238.941402 95.6403492,242.573288 C94.1404897,246.205174 85.8412674,240.598907 85.8412674,240.598907 Z" id="Path" fill="#FFFFFF"></path>
                <path d="M92.9945984,244.793001 C89.9850346,244.793001 85.6242382,241.88765 85.108313,241.513933 C85.0359423,241.469356 84.9766671,241.407028 84.9363379,241.333102 C84.7889307,241.091994 81.5214044,235.642954 81.1283185,233.424761 C80.8115163,231.414519 81.084194,229.357308 81.9144903,227.493506 C82.0598,227.293066 82.2811356,227.158391 82.528687,227.119788 C82.8533531,227.099065 83.1669981,227.23939 83.3639944,227.493506 C83.8984836,228.136471 84.2953839,228.878602 84.5309681,229.675533 C85.6733739,226.746071 87.3685568,223.033009 88.7443573,222.840122 C89.3165286,222.703695 89.917804,222.900392 90.292133,223.346449 C90.4179809,223.503419 90.5099321,223.6839 90.5623795,223.876887 C90.7803967,223.668606 91.0522326,223.522712 91.3485513,223.454948 C91.6558732,223.395977 91.9736618,223.480629 92.2084266,223.684 C92.5388836,224.007029 92.7432253,224.43371 92.7857715,224.88954 C92.9649622,224.693716 93.1877496,224.541079 93.43682,224.44349 C93.738331,224.342196 94.0709005,224.386906 94.3335471,224.564044 C94.7096461,224.840186 94.9573904,225.252647 95.0214474,225.709307 C95.1917033,225.569543 95.4020778,225.485274 95.6233601,225.468199 C96.0353776,225.444631 96.4164763,225.682636 96.569223,226.058914 C97.3676787,227.541727 97.0605804,239.74179 95.6110762,243.24991 C95.3349584,243.959709 94.7340872,244.50026 93.989597,244.708613 C93.6633692,244.780922 93.3286298,244.809312 92.9945984,244.793001 Z M85.9559044,240.561557 C87.5528158,241.634487 91.7170693,244.045566 93.6824986,243.466907 C94.0634676,243.362352 94.369816,243.084139 94.5055222,242.719473 C95.8936067,239.356017 95.9918781,228.903987 95.5987923,226.830459 C95.3333068,227.239448 95.1149509,227.676121 94.9477438,228.132442 C94.8527646,228.465342 94.5007835,228.659648 94.161572,228.566436 C93.8223606,228.473224 93.6243712,228.127791 93.7193504,227.794891 C93.9107148,227.063335 93.9107148,226.296197 93.7193504,225.564642 C93.2650245,226.113467 92.9154612,226.738326 92.6875,227.409118 C92.5730965,227.698354 92.2570336,227.858615 91.950464,227.782835 C91.6460054,227.705705 91.4533422,227.411582 91.5082424,227.107733 C91.6852715,226.313429 91.6852715,225.490958 91.5082424,224.696654 C91.0024871,225.185357 90.5868712,225.756394 90.279849,226.384409 C90.1373802,226.687349 89.7716499,226.819585 89.4629675,226.679766 C89.154285,226.539948 89.0195423,226.181022 89.1620111,225.878083 C89.4631412,225.331932 89.5379447,224.692817 89.3708379,224.093884 C89.2971343,224.009496 89.0637396,224.033607 88.9654681,224.093884 C88.253,224.310881 86.3858421,228.144497 84.8994861,232.46033 C84.8180754,232.79323 84.4770937,232.998331 84.1378822,232.918435 C83.7986708,232.838539 83.589682,232.503901 83.6710928,232.171 C83.7176666,230.942993 83.3882094,229.729464 82.7252299,228.68699 C82.2861719,230.177553 82.1566766,231.739483 82.3444279,233.280097 C82.6638102,234.835243 84.9977576,238.994355 85.9559044,240.561557 Z" id="Shape" fill="#231F20"></path>
                <polygon id="Path" fill="#231F20" points="85 243.7461 85.8235294 240.79747 95 242.739251 94 247.79747"></polygon>
                <path d="M93.4383253,247.788431 C93.3615827,247.800483 93.2834532,247.800483 93.2067106,247.788431 L84.3474506,243.782081 C84.0812217,243.669082 83.9416297,243.372412 84.0231902,243.092942 L84.8338414,240.231263 C84.9081813,239.93098 85.2057335,239.744704 85.5055238,239.810771 L94.5384948,241.702983 C94.8481619,241.773005 95.0476112,242.077331 94.9901434,242.392122 L94.0057811,247.321218 C93.9695043,247.492422 93.8589915,247.638182 93.7046821,247.718349 C93.6235173,247.764842 93.5316651,247.78901 93.4383253,247.788431 Z M85.3318129,242.929417 L93.0677418,246.375112 L93.797328,242.730852 L85.7950421,241.107287 L85.3318129,242.929417 Z" id="Shape" fill="#231F20"></path>
                <path d="M45.8515774,228.301939 C45.8515774,228.301939 37.3524508,223.295603 32.5962777,222.495067 C32.5962777,222.495067 41.5483731,204.572623 42.6211941,203.377794 C43.6940151,202.182964 68.8457079,184.618969 68.8457079,184.618969 L60.072416,174.79747 C60.072416,174.79747 34.2531901,191.895481 28.8771648,197.738198 C23.5011394,203.580915 12.558365,218.982268 15.4907425,228.755974 C18.4231199,238.52968 21.4508593,250.430183 34.1697485,261.542098 C43.7856353,270.051869 55.9887351,275.054076 68.798027,275.736674 C77.2852333,276.202657 86.5949357,273.920533 89.265068,271.268011 C91.9352004,268.615489 96,245.758399 96,245.758399 L84.3300913,242.639894 L80.3725738,261.362874 L70.8363869,257.778385 C70.8363869,257.778385 69.5490017,249.832768 60.0008946,241.970789 C54.8769334,237.858292 50.1406036,233.282793 45.8515774,228.301939 L45.8515774,228.301939 Z" id="Path" fill="#F99E3B"></path>
                <path d="M48.0154331,260.785448 C50.5956044,260.896229 53.1506286,260.239347 55.3567914,258.898028 C60.9166148,255.52934 65.7231719,251.933684 69.1786321,246.235585 C70.5058157,244.061468 71.569954,241.385631 70.6612516,239.068165 C69.4655907,236.069794 65.1731678,234.707984 64.4199014,231.661831 C64.1688126,230.634501 64.5155543,229.511605 64.1688126,228.508166 C63.7473158,227.50522 62.848211,226.782101 61.7774907,226.584908 C61.2964653,226.499095 60.8212642,226.383395 60.3546542,226.238483 C59.4978298,225.743262 58.7528549,225.076243 58.1665946,224.279388 C56.1528597,222.375148 53.3782857,221.495134 50.6339306,221.890248 C47.9247732,222.30771 45.3659307,223.405118 43.1969194,225.07975 C37.1229617,229.451876 31.0011776,238.22002 32.1370555,246.104183 C33.3088033,253.725539 40.1718972,260.486806 48.0154331,260.785448 Z" id="Path" fill="#FFFFFF"></path>
                <path d="M48.0677157,261.79747 L47.4966178,261.79747 C39.6559187,261.500422 32.3149303,254.668366 31.1489386,246.660009 C29.9591512,238.794233 36.0984543,229.71651 42.4043276,225.177648 C44.6440562,223.454941 47.2841712,222.32674 50.0784565,221.898261 C52.991148,221.473332 55.9380737,222.406143 58.0738279,224.429093 L58.5854365,224.999421 C58.9799187,225.498038 59.4795788,225.903718 60.0488751,226.187604 C60.3165519,226.277182 60.5911189,226.344738 60.8698284,226.389596 L61.381437,226.496532 C62.6344894,226.751222 63.6758269,227.617089 64.1536417,228.801608 C64.3338122,229.410046 64.3983788,230.046782 64.3440077,230.678939 C64.3126276,231.11587 64.336613,231.55501 64.4153949,231.985941 C64.7604333,233.387997 66.0216079,234.421717 67.3541698,235.550492 C68.7347177,236.510574 69.8516104,237.801644 70.6022895,239.305152 C71.4470386,241.420119 70.9473278,243.939068 69.0912595,247.004582 C65.4267142,253.040555 60.2154453,256.712042 55.135053,259.80132 C53.0096877,261.107123 50.5630929,261.798157 48.0677157,261.79747 L48.0677157,261.79747 Z M51.3872226,223.003272 C51.0064907,223.003272 50.6138608,223.003272 50.1974352,223.062681 C47.5971508,223.467244 45.1414904,224.521755 43.0587107,226.128195 C37.0383863,230.465066 31.1608365,239.067515 32.3506239,246.481781 C33.5404113,253.896047 40.2746081,260.32412 47.568005,260.597403 L47.568005,260.597403 C50.0200541,260.715197 52.4504636,260.089775 54.5401593,258.803245 C59.489675,255.809023 64.5700673,252.220708 68.1037359,246.41049 C69.7575404,243.689549 70.2215575,241.515173 69.5195829,239.756662 C68.8358597,238.445529 67.8386818,237.323175 66.6165016,236.489157 C65.2006546,235.300973 63.7253182,234.112789 63.2850968,232.318632 C63.1792809,231.782907 63.1432888,231.235765 63.178016,230.69082 C63.2194465,230.204381 63.1792337,229.714446 63.0590372,229.241236 C62.7015936,228.442802 61.9786736,227.867018 61.1196837,227.696598 L60.6794624,227.613425 C60.3186384,227.550296 59.9642378,227.454856 59.6205516,227.328261 C58.8726557,226.965521 58.2205769,226.432351 57.7168917,225.77174 C57.5622194,225.593513 57.407547,225.415285 57.2409767,225.248939 C55.6684465,223.749545 53.5605163,222.940883 51.3872226,223.003272 L51.3872226,223.003272 Z" id="Shape" fill="#231F20"></path>
                <path d="M71.5840534,96.6126966 C74.2828702,95.7341886 77.1791893,95.5998737 79.9517251,96.2246515 C79.9517251,96.2246515 81.0520981,93.8728633 82.7933477,93.5788898 C84.5345973,93.2849162 84.1597449,94.0022117 84.1597449,94.0022117 C84.1597449,94.0022117 85.5986942,92.2971652 86.408859,92.9439069 C86.408859,92.9439069 88.1138325,93.6729613 88.3193967,94.7195071 C88.3193967,94.7195071 90.5926948,93.9434169 90.9554551,95.2251415 C91.3182155,96.5068661 89.4318617,99.12911 86.5176871,101.504416 C83.6035124,103.879722 80.0968292,105.749394 79.0448243,105.79643 C77.9928193,105.843465 70,104.279526 70,104.279526 L71.5840534,96.6126966 Z" id="Path" fill="#FFFFFF"></path>
                <path d="M79.526962,107.79747 C78.2668037,107.79747 71.7979913,106.459257 70.489827,106.186658 C70.1640436,106.11804 69.9509006,105.793454 70.0097667,105.455597 L71.5819641,97.3767547 C71.619415,97.1670934 71.7606332,96.9930745 71.9540109,96.9182928 C74.5981972,96.004325 77.4272265,95.8164367 80.1630419,96.3730949 C80.7792474,95.0955018 81.8702892,94.1299839 83.1874218,93.6966687 C83.6998875,93.5356714 84.2471535,93.5356714 84.7596192,93.6966687 C85.5157142,92.9779987 86.4518318,92.4575825 87.1599207,93.0647347 C87.9423463,93.4250935 88.614607,93.999201 89.1041649,94.7251102 C89.786311,94.5269161 90.5131206,94.5705433 91.1684242,94.8490189 C91.5519004,95.0483928 91.8322993,95.4102623 91.9365206,95.8402878 C92.4285824,97.6741354 89.9802749,100.796633 87.3519448,103.088942 C84.7236147,105.381252 80.8951339,107.685952 79.5629665,107.760297 L79.526962,107.79747 Z M71.3059295,105.096262 C74.3663138,105.728196 78.8788806,106.570774 79.5389635,106.558384 C80.1990464,106.545993 83.547467,104.823663 86.6078514,102.184409 C89.6682358,99.5451556 91.0604106,97.1165466 90.808379,96.1996228 C90.7923427,96.1008004 90.7291825,96.0169599 90.6403579,95.9765873 C90.0867092,95.832347 89.5031581,95.8713567 88.9721483,96.0881051 C88.8156691,96.1607275 88.6365657,96.1607275 88.4800865,96.0881051 C88.3324542,95.9940959 88.2284102,95.8419183 88.1920503,95.6668158 C88.0840368,95.0844452 87.0999132,94.4277296 86.6438559,94.2418666 C86.5935615,94.2221222 86.5453136,94.1972157 86.4998378,94.1675215 C86.3558197,94.0436128 85.6477308,94.5268565 85.1196645,95.1835721 C84.9751554,95.3837193 84.7267154,95.4721461 84.4934424,95.4064622 C84.2601694,95.3407783 84.0896117,95.1343722 84.0635318,94.8861915 C83.8456669,94.8889867 83.6285958,94.9138882 83.4154504,94.9605366 C82.2152997,95.195963 81.2911836,96.7943842 81.0151489,97.438709 C80.8881388,97.7052979 80.5984144,97.8445451 80.3190615,97.7732623 C77.7898085,97.1834416 75.1555672,97.2816412 72.6741013,98.0582521 L71.3059295,105.096262 Z" id="Shape" fill="#231F20"></path>
                <path d="M84.5774552,105.79747 C84.4723401,105.799783 84.3687786,105.769272 84.2789962,105.709402 C84.0129954,105.530518 83.9220826,105.154689 84.0723708,104.855221 L91.924138,90.108025 C92.0881341,89.8096337 92.4399009,89.7092164 92.7162023,89.8819181 C92.9888841,90.0613764 93.0806494,90.4463092 92.9228277,90.7486613 L85.0710605,105.483296 C84.9691526,105.676457 84.7812746,105.795987 84.5774552,105.79747 Z" id="Path" fill="#231F20"></path>
                <path d="M85.9425873,96.1400057 C86.8201753,95.9325285 87.7190911,95.8223292 88.6221677,95.8115124 C89.0232013,95.7567575 89.4298422,95.8635376 89.7480418,96.1071563 C90.0193192,96.4100857 90.0770279,96.8418169 89.8944054,97.202134 C89.7098904,97.5544592 89.4244353,97.8472929 89.0725173,98.0452668 C87.9843281,98.6313287 86.8170886,99.066246 85.6048251,99.3373404 C85.3286127,99.4032552 85.0659235,99.5143337 84.8279719,99.6658337 C84.5473352,99.9034028 84.3045036,100.180162 84.1074125,100.487067 C83.2477836,101.458679 82.1895096,102.245519 81,102.79747" id="Path" fill="#FFFFFF"></path>
                <path d="M81.5556198,103.79747 C81.3520052,103.800724 81.1638244,103.679105 81.0682622,103.482429 C80.9973971,103.341142 80.9809302,103.174793 81.0225051,103.020191 C81.0640799,102.865588 81.1602689,102.735479 81.2897884,102.658652 C82.3924429,102.077254 83.3729989,101.25229 84.1696284,100.235775 L84.3025441,100.041945 C84.4923083,99.7238937 84.7279688,99.4415998 85.0003515,99.2060526 C85.2819036,98.9990146 85.5924155,98.8435291 85.919685,98.7457061 L86.6507213,98.5034184 C87.5416555,98.276032 88.3965667,97.9044684 89.1871958,97.4010096 C89.444177,97.2374354 89.6579114,97.0036697 89.8074691,96.7226042 C89.8984843,96.5501869 89.8984843,96.33776 89.8074691,96.1653427 C89.6745534,96.0199701 89.3422641,96.0199701 89.0985854,96.0199701 C88.2547522,96.0338425 87.415037,96.151692 86.5953398,96.3712872 C86.2988154,96.4471254 86.0019382,96.2468933 85.9307613,95.923055 C85.8940206,95.7687535 85.9155812,95.6047734 85.990587,95.4680478 C86.0655928,95.3313221 86.1877368,95.233348 86.3295084,95.1961921 C87.2323032,94.9522799 88.1576617,94.822213 89.0875091,94.8085319 C89.6318386,94.7488547 90.1751116,94.9323542 90.5938869,95.3173359 C91.020184,95.8330941 91.1207079,96.5788078 90.848642,97.2071795 C90.6252336,97.7079114 90.2754863,98.1282693 89.840698,98.4186177 C88.9543628,98.9799732 87.9942239,99.3885815 86.9940869,99.630056 L86.2852032,99.8723436 C86.073851,99.92483 85.8717973,100.014863 85.6870826,100.13886 C85.5109827,100.303253 85.3579665,100.495101 85.232954,100.708236 L85.088962,100.926295 C84.1943659,102.069209 83.0931768,102.997251 81.8546801,103.652031 C81.7696081,103.730514 81.6658905,103.780931 81.5556198,103.79747 L81.5556198,103.79747 Z" id="Path" fill="#231F20"></path>
                <path d="M100.55148,73.2008088 C99.2687179,75.0079236 98.410347,77.1067011 98.0460264,79.3268192 C97.1235641,83.5899492 96.5655312,87.2440606 97.4310515,87.3515345 C98.2965718,87.4590084 100.095943,83.3988845 100.095943,83.3988845 C100.095943,83.3988845 100.665364,92.7610524 102.145859,92.796877 C103.626355,92.8327017 103.51247,91.2325352 103.51247,91.2325352 C103.51247,91.2325352 104.446321,93.214831 105.17518,92.4266893 C105.599497,91.8683975 105.731781,91.1256341 105.528221,90.4443935 C105.528221,90.4443935 106.496238,92.2595077 107.042882,91.5549568 C107.366539,91.0361332 107.458047,90.3949987 107.293427,89.7995503 C107.293427,89.7995503 108.557542,91.4594245 108.921972,90.1936212 C109.286402,88.9278179 108.318385,79.3507023 107.179543,75.6249416 C106.611341,73.5838449 105.800173,71.6259388 104.765197,69.7974697 L100.55148,73.2008088 Z" id="Path" fill="#FFFFFF"></path>
                <path d="M102.610257,92.7965351 L102.610257,92.7965351 C101.482886,92.7965351 100.637358,90.155583 100.18641,85.0276357 C99.2957871,86.6619469 98.5179014,87.4791024 97.9316687,87.3962026 C97.677594,87.3671235 97.4476554,87.2247836 97.3003412,87.0053891 C96.8944878,86.4014045 96.7028348,84.9802644 98.0444058,78.715405 C98.4268836,76.415836 99.3232635,74.244401 100.659906,72.3794886 L100.727548,72.3084316 L104.876271,68.9213809 C105.002817,68.8238408 105.160335,68.7814127 105.315946,68.8029526 C105.469766,68.8375856 105.606149,68.9302885 105.699252,69.0634949 C106.751982,70.9210276 107.577708,72.9105029 108.15692,74.9849121 C109.182827,78.4548626 110.344019,88.3199437 109.904344,89.8476693 C109.823091,90.2806509 109.503651,90.6208775 109.092637,90.7121962 C108.829143,90.7619464 108.557394,90.7115697 108.326025,90.5700822 C108.256647,90.8722136 108.12589,91.1550102 107.942719,91.3990806 C107.750108,91.6608583 107.445053,91.8032828 107.131013,91.7780513 C106.876761,91.7563027 106.633968,91.6575736 106.432043,91.4938233 C106.334945,91.7961248 106.16845,92.0686439 105.947273,92.2872932 C105.714599,92.5503112 105.37047,92.6708116 105.034103,92.6070497 C104.67443,92.5175344 104.353234,92.3050905 104.120933,92.0030652 C104.071377,92.0797929 104.014734,92.1511959 103.951828,92.2162362 C103.604118,92.6021622 103.115838,92.8133685 102.610257,92.7965351 Z M100.558442,82.291941 L100.659906,82.291941 C100.91254,82.341254 101.099446,82.5670466 101.110854,82.8367113 C101.381423,87.2067172 102.091666,91.2214381 102.666625,91.6240945 C102.847295,91.6162828 103.019303,91.5406445 103.151394,91.4109234 C103.303442,91.2006095 103.379363,90.9403617 103.365595,90.6766677 C103.356771,90.3950044 103.534547,90.1443661 103.793996,90.0726832 C104.05084,89.9992821 104.32099,90.1287292 104.436597,90.3805969 C104.608115,90.8045316 104.884481,91.1725404 105.23703,91.446452 C105.63161,90.9964242 105.383588,90.0963688 105.383588,90.084526 C105.310427,89.7998782 105.447762,89.5020548 105.70574,89.3859114 C105.963718,89.269768 106.263733,89.3706933 106.409495,89.6226555 C106.586012,89.9535276 106.806146,90.2565409 107.06337,90.5227109 C107.199805,90.1773351 107.223589,89.7942354 107.131013,89.4331701 C107.067509,89.1650712 107.188931,88.8864692 107.423621,88.7617836 C107.65831,88.637098 107.943891,88.699468 108.111825,88.9120854 C108.291534,89.1385511 108.500195,89.3378195 108.731879,89.5042271 C108.710549,84.7101977 108.127446,79.9371617 106.995728,75.2928258 C106.488798,73.5336088 105.816584,71.8317093 104.989008,70.2122499 L101.392696,73.1492728 C100.215963,74.8653924 99.4186951,76.835781 99.0590393,78.9167332 C97.9316687,83.9736234 97.9316687,85.5605633 98.0782269,86.0224338 C98.8637474,84.9494497 99.5224355,83.7803089 100.039852,82.5406405 C100.158669,82.3672153 100.355871,82.2726435 100.558442,82.291941 L100.558442,82.291941 Z" id="Shape" fill="#231F20"></path>
                <path d="M59,24.9211285 C59,24.9211285 47.5994897,9.63693631 43.4042916,8.80849227 C39.2090934,7.98004823 3.89358351,54.1087728 4,59.9318939 C4.10689867,65.7550151 29.4439994,77.7974697 29.4439994,77.7974697 L59,24.9211285 Z" id="Path" fill="#231F20"></path>
                <path d="M29.4464425,77.7851323 C29.3631055,77.8015822 29.2773362,77.8015822 29.1939992,77.7851323 C26.5012705,76.4923355 3.14425332,65.3958298 3,59.3867188 C3,53.9521842 31.2856723,17.179298 40.517885,9.4584283 C42.4653048,7.83046199 43.246677,7.73469926 43.7155003,7.81849165 C48.0791633,8.65641549 58.7058248,22.5300402 59.8959147,24.1101252 C60.0346951,24.3078257 60.0346951,24.5707933 59.8959147,24.7684939 L29.8431391,77.4379924 C29.7717734,77.6084531 29.6253774,77.7365608 29.4464425,77.7851323 Z M43.5111414,8.99158502 C43.4269937,8.99158502 42.7538115,9.06340706 40.5779905,11.0265429 C29.9513291,20.554934 4.20211102,54.9457225 4.20211102,59.3747485 C4.20211102,63.8037745 21.7889953,72.9012333 29.1699569,76.4085431 L58.7058248,24.5171167 C55.3399139,20.1240017 46.6847145,9.61404273 43.4870992,8.955674 L43.5111414,8.99158502 Z" id="Shape" fill="#231F20"></path>
                <path d="M35.5074064,35.7058559 C35.5074064,35.7058559 46.865693,22.9439861 54.9787548,19.4341734 C63.0918166,15.9243607 70.3816413,15.7452886 75.416512,19.9475133 C80.4513827,24.149738 93.4084197,36.0401238 95.8662002,41.4361623 C98.3239807,46.8322009 108,70.6368487 108,70.6368487 L96.4627489,76.009011 C96.4627489,76.009011 85.1163933,49.5660345 84.2573632,47.357479 C83.3983331,45.1489234 68.4010997,35.5864746 67.8761369,35.0731346 C67.3511741,34.5597947 64.2968449,47.5604273 59.1068716,52.8370844 C53.9168982,58.1137416 36.2590578,71.1263124 36.2590578,71.1263124 C36.2590578,71.1263124 48.3212717,85.8818514 50.421123,87.9352112 C52.5209743,89.9885709 76.4783686,94.6683212 76.4783686,94.6683212 L73.3285917,106.79747 C73.3285917,106.79747 47.8201708,102.845946 43.8710187,101.174607 C39.9218665,99.5032672 18.0523925,85.76247 17.0382598,72.8095899 C16.0241271,59.8567098 35.5074064,35.7058559 35.5074064,35.7058559 Z" id="Path" fill="#F99E3B"></path>
                <path d="M61.7702686,40.5570115 C63.2052483,42.4161682 64.3914939,44.4592504 65.2982142,46.6332259 C66.6582016,49.3036828 67.2220606,52.3172794 66.9210692,55.3067241 C66.4271568,58.2495181 64.2163109,61.0612565 61.288116,61.3710243 C62.4640979,64.8737832 60.2062127,68.8411938 56.9840224,70.5449166 C53.761832,72.2486395 49.8458124,72.0341848 46.4001855,70.9738259 C37.7220835,68.1492266 31.1991283,60.8361805 29.301409,51.8039652 C27.8314316,44.6554777 31.82977,35.6245551 39.2972549,33.5157513 C47.0587353,31.3354626 56.7135465,34.2425142 61.7702686,40.5570115 Z" id="Path" fill="#FFFFFF"></path>
                <path d="M51.984242,72.7913936 C50.1937714,72.7769752 48.4149615,72.4971944 46.7040699,71.9608997 C37.8858877,69.0664728 31.253423,61.6206783 29.2981928,52.4205645 C27.84965,45.3020453 31.7396883,35.7513654 39.6365829,33.520896 C47.5334775,31.2904267 57.4980501,34.3632541 62.5796316,40.7343288 L62.5796316,40.7343288 C64.0626409,42.6382998 65.284773,44.737589 66.2126704,46.9748973 C67.1822595,49.1935025 68.42053,52.5392065 67.8598037,55.9442315 C67.4042137,58.7085898 65.4066264,61.6865037 62.4160865,62.362763 C63.2221304,66.1355782 60.7455895,69.9321218 57.7433678,71.5456528 C55.9508147,72.4269523 53.9748177,72.8543748 51.984242,72.7913936 L51.984242,72.7913936 Z M45.1503909,33.9241681 C43.3952026,33.918361 41.6470489,34.1497679 39.9519914,34.6124023 C32.674232,36.6767729 29.0996023,45.5037367 30.4430089,52.1358237 C32.3089528,60.9059384 38.627709,68.0057726 47.0311602,70.7744799 C50.8627895,71.9608997 54.4607829,71.8066652 57.1475962,70.3829613 C59.8344094,68.9592575 62.1941323,65.3050843 61.1310888,61.9593802 C61.0710531,61.791816 61.0973486,61.6048731 61.2011796,61.4610839 C61.292886,61.3095843 61.4478256,61.2090494 61.6217243,61.1882073 C64.3786283,60.8916024 66.294443,58.1153799 66.7033059,55.6357623 C67.1121687,53.1561448 66.5981697,50.6527989 65.1379451,47.3308233 C64.2340979,45.2042928 63.0555693,43.2094089 61.6334061,41.3987239 C57.9185947,36.7835506 51.4235158,33.9241681 45.1503909,33.9241681 Z" id="Shape" fill="#231F20"></path>
                <path d="M37.6099992,32.8060405 C35.9104809,32.7300067 34.2237513,33.1609911 32.7264812,34.0538518 C31.6084209,34.5198174 30.6259724,35.3134712 29.8843414,36.3498245 C29.4245604,37.1763062 29.1535941,38.1142251 29.0948581,39.0825312 C28.8109379,41.1526029 29.1687012,43.2680512 30.109908,45.0845034 C31.0790283,46.9019744 32.900509,47.9483533 34.8016944,47.7797758 C35.5985848,47.6214511 36.3628698,47.3043552 37.0573609,46.8439173 C38.8049225,45.8429309 40.268555,44.3272357 41.2867357,42.4640998 C42.9559289,38.9327939 41.6814773,33.3176432 37.6099992,32.8060405 Z" id="Path" fill="#FFFFFF"></path>
                <path d="M34.2217451,47.7974697 C32.1900609,47.7261787 30.3324146,46.6006825 29.2887048,44.808678 C28.2184779,42.9094262 27.7970311,40.6971688 28.091365,38.5236056 C28.1731149,37.4724146 28.4973565,36.4563285 29.0372635,35.5594129 C29.8845757,34.4448636 31.0160381,33.5933738 32.3060013,33.099502 C33.9910063,32.1677032 35.8899994,31.7214596 37.8017913,31.8080487 L37.8017913,31.8080487 C39.6867234,32.022635 41.3324287,33.2162266 42.1601084,34.9690343 C43.2799639,37.2338447 43.2799639,39.9117629 42.1601084,42.1765733 C41.0397541,44.1181765 39.4087302,45.6955751 37.4545627,46.7274085 C36.6573512,47.2247411 35.7757948,47.5627649 34.8563352,47.7236724 C34.6471475,47.7662014 34.434894,47.7908846 34.2217451,47.7974697 L34.2217451,47.7974697 Z M37.131281,33.0380042 C35.638792,33.1388161 34.1830764,33.5576871 32.8567776,34.2679597 C31.7718848,34.6668935 30.8121078,35.3595882 30.0789492,36.2727871 C29.6388665,37.0178154 29.383928,37.8625996 29.3365984,38.732698 C29.0550028,40.6197514 29.3919546,42.5494282 30.2944703,44.2182993 C31.2144623,45.7885661 32.9078776,46.7033671 34.6887076,46.5921134 C35.4592104,46.4474109 36.1976341,46.1598331 36.8678662,45.7434441 C38.6278569,44.8219986 40.1006075,43.4114086 41.1184227,41.6722915 C42.0532689,39.7694606 42.0532689,37.5237416 41.1184227,35.6209107 C40.4638416,34.2459482 39.1644094,33.3157539 37.6820573,33.1609997 L37.6820573,33.1609997 C37.5012237,33.1047812 37.3173102,33.0596039 37.131281,33.0257046 L37.131281,33.0380042 Z" id="Shape" fill="#231F20"></path>
            </g>
        </g>
    </g>
</svg>