<?xml version="1.0" encoding="UTF-8"?>
<svg width="101px" height="121px" viewBox="0 0 101 121" version="1.1" xmlns="http://www.w3.org/2000/svg" xmlns:xlink="http://www.w3.org/1999/xlink">
    <title>thirdstep</title>
    <g id="Page-1" stroke="none" stroke-width="1" fill="none" fill-rule="evenodd" stroke-linejoin="round">
        <g id="Home-header-test-2" transform="translate(-1223.000000, -1068.000000)" stroke-width="4">
            <g id="thirdstep" transform="translate(1225.200000, 1070.000000)">
                <g id="Group" transform="translate(0.800000, 0.000000)" stroke="#000000">
                    <path d="M71.7176471,20.7904762 L71.7176471,13.2984127 C71.7176471,10.1142857 69.2705882,7.67936508 66.0705882,7.67936508 L62.3058824,7.67936508 L62.3058824,0.187301587 L32.1882353,0.187301587 L32.1882353,7.67936508 L28.4235294,7.67936508 C25.2235294,7.67936508 22.7764706,10.1142857 22.7764706,13.2984127 L22.7764706,20.7904762 L71.7176471,20.7904762 Z" id="Path" stroke-linecap="round"></path>
                    <polyline id="Path" stroke-linecap="square" points="41.6 9.55238095 41.6 11.4253968 52.8941176 11.4253968 52.8941176 9.55238095"></polyline>
                    <path d="M83.0117647,13.2984127 L90.5411765,13.2984127 C92.6117647,13.2984127 94.3058824,14.984127 94.3058824,17.0444444 L94.3058824,112.568254 C94.3058824,114.628571 92.6117647,116.314286 90.5411765,116.314286 L3.95294118,116.314286 C1.88235294,116.314286 0.188235294,114.628571 0.188235294,112.568254 L0.188235294,17.0444444 C0.188235294,14.984127 1.88235294,13.2984127 3.95294118,13.2984127 L11.4823529,13.2984127" id="Path" stroke-linecap="square"></path>
                </g>
                <g id="Group" transform="translate(24.800000, 36.000000)" stroke="#FB8E33" stroke-linecap="round">
                    <g transform="translate(0.000000, 50.142857)">
                        <rect id="Rectangle" x="0.185185185" y="0.185714286" width="12.962963" height="13"></rect>
                        <line x1="26.1111111" y1="5.75714286" x2="48.3333333" y2="5.75714286" id="Path"></line>
                    </g>
                    <g transform="translate(0.000000, 24.142857)" id="Path">
                        <polyline points="0.185185185 5.75714286 5.74074074 11.3285714 13.1481481 0.185714286"></polyline>
                        <line x1="26.1111111" y1="7.61428571" x2="48.3333333" y2="7.61428571"></line>
                    </g>
                    <g id="Path">
                        <polyline points="0.185185185 5.75714286 5.74074074 11.3285714 13.1481481 0.185714286"></polyline>
                        <line x1="26.1111111" y1="7.61428571" x2="48.3333333" y2="7.61428571"></line>
                    </g>
                </g>
            </g>
        </g>
    </g>
</svg>