<?xml version="1.0" encoding="UTF-8"?>
<svg width="21px" height="22px" viewBox="0 0 21 22" version="1.1" xmlns="http://www.w3.org/2000/svg" xmlns:xlink="http://www.w3.org/1999/xlink">
    <title>world-wide-web</title>
    <g id="Page-1" stroke="none" stroke-width="1" fill="none" fill-rule="evenodd">
        <g id="Personnal-view-" transform="translate(-1139.000000, -818.000000)" fill="#000000" fill-rule="nonzero">
            <g id="world-wide-web" transform="translate(1139.000000, 818.136364)">
                <path d="M17.9246074,3.7925874 C15.9414199,1.90379465 13.3046484,0.863636364 10.5,0.863636364 C7.69535156,0.863636364 5.05853906,1.90379465 3.07539258,3.79254833 C1.09216406,5.68130202 0,8.19255693 0,10.8636559 C0,13.5347549 1.09216406,16.0459707 3.07539258,17.9347244 C5.05853906,19.8234781 7.69535156,20.8636364 10.5,20.8636364 C13.3046895,20.8636364 15.9414199,19.8234781 17.9246484,17.9346853 C19.9077949,16.0459707 21,13.5347158 21,10.8636168 C21,8.19251787 19.9077949,5.68130202 17.9246074,3.7925874 Z M3.94635937,4.6220812 C4.86966211,3.74274355 5.95358203,3.07203911 7.13499609,2.63426482 C6.82032422,3.00840618 6.52587305,3.43844608 6.25603125,3.9221189 C5.94263086,4.48383875 5.67221484,5.10075401 5.44699805,5.75970061 C4.66679883,5.63638006 3.94389844,5.48473914 3.29806641,5.30677004 C3.50047852,5.06981645 3.71642578,4.84106601 3.94635937,4.6220812 Z M2.55236133,6.31618608 C3.30774609,6.54653809 4.17161719,6.74079628 5.11423828,6.89466377 C4.85173828,7.95583772 4.69723242,9.09775401 4.66035937,10.2771313 L1.25245312,10.2771313 C1.34925,8.86177699 1.79558203,7.5109931 2.55236133,6.31618608 Z M2.48530078,15.3026489 C1.76937305,14.134717 1.34633789,12.8229175 1.25241211,11.4501805 L4.66269727,11.4501805 C4.70297461,12.5958468 4.8544043,13.7053021 5.10804492,14.7387025 C4.14606445,14.8872184 3.26049609,15.0765547 2.48530078,15.3026489 Z M3.94635938,17.1052306 C3.68467969,16.8559723 3.44096484,16.594253 3.21500977,16.3218306 C3.88450781,16.1450334 4.63296094,15.9953065 5.43863086,15.8752282 C5.66544727,16.5433154 5.93877539,17.1683948 6.25599023,17.7370287 C6.55007227,18.2641 6.87339844,18.7272259 7.22026758,19.1239455 C6.00579492,18.6871087 4.89185156,18.005623 3.94635938,17.1052306 Z M9.88410938,19.54004 C8.948625,19.2904692 8.06367188,18.4768739 7.34376562,17.1865589 C7.0919707,16.735308 6.87081445,16.2430023 6.68136328,15.7183138 C7.69567969,15.6119855 8.77500586,15.5491338 9.88410938,15.5343681 L9.88410938,19.54004 L9.88410938,19.54004 Z M9.88410937,14.3612018 C8.65413281,14.3771784 7.45528711,14.4507332 6.33256641,14.5763194 C6.08491406,13.6012784 5.9359043,12.5459248 5.89501172,11.4502195 L9.88415039,11.4502195 L9.88415039,14.3612018 L9.88410937,14.3612018 Z M9.88410938,10.2770922 L5.89267383,10.2770922 C5.93003906,9.15076192 6.08142773,8.06595512 6.33679102,7.06610942 C7.45233398,7.19892217 8.64867773,7.27970358 9.88410938,7.30282863 L9.88410938,10.2770922 Z M9.88410938,6.12958415 C8.77069922,6.10821692 7.69375195,6.03907616 6.68661328,5.92626344 C6.87491602,5.40704367 7.09434961,4.91969897 7.34376563,4.47254966 C8.06363086,3.18223464 8.948625,2.3686393 9.88410938,2.1190685 L9.88410938,6.12958415 Z M18.4864395,6.37849088 C19.2195527,7.55790725 19.6523906,8.88626922 19.7476289,10.2770922 L16.3397227,10.2770922 C16.3032598,9.11130872 16.151707,7.98220495 15.8947031,6.93149978 C16.8435176,6.78556199 17.7180937,6.59989757 18.4864395,6.37849088 Z M17.0535996,4.6220812 C17.3008828,4.85758948 17.5318828,5.10446496 17.7473379,5.36075452 C17.0880937,5.53220017 16.3539551,5.67770827 15.5651426,5.79481787 C15.3375879,5.12262906 15.0629883,4.49383877 14.7440098,3.9221189 C14.474168,3.43844608 14.1797168,3.00840618 13.8650449,2.63426482 C15.046377,3.07203911 16.1303379,3.74274355 17.0535996,4.6220812 Z M11.1158906,11.4502195 L15.1050293,11.4502195 C15.0638496,12.5544404 14.9128301,13.6178019 14.6616504,14.5991319 C13.5462715,14.4670614 12.3504609,14.3870222 11.1158906,14.3645221 L11.1158906,11.4502195 Z M11.1158906,10.2770922 L11.1158906,7.30673489 C12.3465645,7.29134423 13.5463535,7.2184144 14.6701406,7.09329697 C14.9213613,8.08560359 15.0702891,9.16095726 15.1073262,10.2770922 L11.1158906,10.2770922 Z M11.1158086,2.1190685 L11.1158496,2.1190685 C12.051334,2.3686393 12.9362871,3.18223464 13.6561934,4.47254966 C13.9095879,4.92673024 14.1320156,5.42247339 14.3222871,5.95099005 C13.3066172,6.05692776 12.2260605,6.11931069 11.1158086,6.13356853 L11.1158086,2.1190685 L11.1158086,2.1190685 Z M11.1158906,19.54004 L11.1158906,15.5377666 C12.2282344,15.5585479 13.3043613,15.6270636 14.3111309,15.7391732 C14.1233203,16.2560492 13.904625,16.7412846 13.6562344,17.1865589 C12.9363281,18.4768739 12.051375,19.2904692 11.1158906,19.54004 Z M17.0535996,17.1052306 C16.1081484,18.005662 14.9942051,18.6871087 13.7796914,19.1239064 C14.1265605,18.7271869 14.4498867,18.2641 14.7439687,17.7370287 C15.0565078,17.1768323 15.3263086,16.5617139 15.5511562,15.9047595 C16.3495254,16.0302675 17.0881348,16.1854632 17.7461074,16.3680026 C17.5310625,16.6237062 17.3004316,16.8701129 17.0535996,17.1052306 Z M18.4818867,15.3562037 C17.7175605,15.1221798 16.8412617,14.9252654 15.8845313,14.7698745 C16.1427656,13.7276849 16.2966562,12.6073702 16.3373848,11.4502195 L19.7476699,11.4502195 C19.6521855,12.8438941 19.2178301,14.1749514 18.4818867,15.3562037 Z" id="Shape"></path>
            </g>
        </g>
    </g>
</svg>