<?xml version="1.0" encoding="UTF-8"?>
<svg width="38px" height="38px" viewBox="0 0 38 38" version="1.1" xmlns="http://www.w3.org/2000/svg" xmlns:xlink="http://www.w3.org/1999/xlink">
    <title>bricklayer</title>
    <g id="Page-1" stroke="none" stroke-width="1" fill="none" fill-rule="evenodd">
        <g id="Home-" transform="translate(-942.000000, -1651.000000)" fill="#FFFFFF" fill-rule="nonzero" stroke="#FFFFFF">
            <g id="bricklayer" transform="translate(943.000000, 1652.000000)">
                <path d="M0.6,36 L35.4,36 C35.5591313,36 35.7117463,35.936792 35.8242691,35.8242693 C35.9367919,35.7117466 36,35.5591317 36,35.4000006 L36,25.4316026 C36,24.2957393 35.4430173,23.2320771 34.5094234,22.5850921 C33.5758295,21.9381072 32.3843202,21.7900532 31.3207762,22.1888787 L29.6740725,22.8064191 C28.9248816,23.0840143 28.0822972,22.8378387 27.6004027,22.2005607 C27.0321128,21.4465584 26.1434804,21.0022425 25.199304,21.0000121 L24.1146427,21.0000121 L25.1410402,18.8594392 C25.2211724,18.6922889 25.2195504,18.497486 25.136646,18.3316932 L22.736646,13.5316978 C22.6350241,13.3284195 22.4272645,13.2000124 22.2,13.2000203 L19.8,13.2000203 L19.8,10.2000232 C19.9591313,10.2000278 20.1117463,10.1368152 20.2242691,10.0242925 C20.3367919,9.9117698 20.4000046,9.75915494 20.4,9.6000238 L20.4,2.3999977 C20.4,1.07451557 19.3254834,0 18,0 C16.6745166,0 15.6,1.07451557 15.6,2.3999977 L15.6,5.50814472 L15.2061405,5.5869119 C13.9041018,5.84583657 12.5591527,5.79139713 11.2823002,5.4280868 C9.77616016,4.99622685 8.16272112,5.14619213 6.76197525,5.84824015 C5.90405908,6.27462607 4.89596617,6.27461247 4.0380615,5.8482034 C3.44827942,5.5542267 2.79842866,5.40082962 2.139441,5.40003457 L0.6,5.40003457 C0.440868704,5.40003 0.288253697,5.46324257 0.175730879,5.57576529 C0.0632080598,5.688288 0,5.84090286 0,6.000034 L0,35.4000058 C0,35.5591361 0.0632100669,35.7117496 0.175732735,35.8242711 C0.288255403,35.9367927 0.440869613,36 0.6,36 L0.6,36 Z M20,9 L17,9 L17,4 L20,4 L20,9 Z M16,11 L16,13.3333333 L13.7777778,13.3333333 C13.5673479,13.3333257 13.3749782,13.4581661 13.280884,13.6557978 L11.212216,18 L11,18 L11,11 L16,11 Z M5,26 L5,19 L9.76373549,19 L13,26 L5,26 Z M2,26 L2,19 L6,19 L6,26 L2,26 Z M10,18 L2,18 L2,11 L10,11 L10,18 Z M2,28 L10,28 L10,35 L2,35 L2,28 Z M11,28 L15.0826384,28 L15.8187319,29.5539663 C16.2197841,30.4007071 17.0798627,30.9337985 18.0166148,30.9162517 C18.9533669,30.898705 19.792878,30.3337778 20.1619386,29.4726117 L20.868051,28 L25,28 L25,35 L11,35 L11,28 Z M34,35 L26,35 L26,28 L34,28 L34,35 Z M23.8746781,21 C24.4723207,21.0015896 25.0348091,21.3190401 25.3945405,21.8577619 C26.2413941,23.1216718 27.7218712,23.6099555 29.0383543,23.0595467 L30.7750031,22.3243785 C31.5080108,22.0140816 32.3292226,22.1292537 32.9726743,22.6325943 C33.6161261,23.1359349 34,23.9634503 34,24.8471348 L34,26 L20,26 L22.1239134,21 L23.8746781,21 Z M22.6960053,16 L25,19.9251613 L19.744905,29.2608284 C19.7403311,29.2690315 19.7359711,29.2773031 19.731825,29.2856434 C19.5221191,29.7099474 19.0392258,29.9896251 18.4988998,29.9997178 C17.9585738,30.0098105 17.4617524,29.7484327 17.2304132,29.332367 L12,19.9266306 L14.3048379,16 L16.5281804,16 L16.5281804,18.7999996 C16.5281804,19.7278379 17.4111817,20.4799994 18.5004191,20.4799994 C19.5896565,20.4799994 20.4726578,19.7278379 20.4726578,18.7999996 L20.4726578,16 L22.6960053,16 Z M19,17.3846154 C19,17.7244829 18.7761424,18 18.5,18 C18.2238576,18 18,17.7244829 18,17.3846154 L18,10 L19,10 L19,17.3846154 Z M18.5,2 C19.3280258,2.0006172 19.9990494,2.44795284 20,2.99997 L20,3 L17,3 L17,2.99997125 C17.0009496,2.44795482 17.6719706,2.00061893 18.5,2 L18.5,2 Z M1.91334542,6.26596807 C2.37293889,6.26668199 2.8261596,6.40364681 3.23748802,6.6661284 C4.40021043,7.40600624 5.76649197,7.40600624 6.92921437,6.6661284 C8.03006634,5.9598001 9.29806189,5.80893431 10.4817304,6.24345092 C11.9018609,6.76076768 13.3977301,6.8382769 14.8458709,6.46958109 L15,6.43011891 L15,10 L1,10 L1,6.26596807 L1.91334542,6.26596807 Z" id="Shape"></path>
            </g>
        </g>
    </g>
</svg>