<?xml version="1.0" encoding="UTF-8"?>
<svg width="70px" height="70px" viewBox="0 0 70 70" version="1.1" xmlns="http://www.w3.org/2000/svg" xmlns:xlink="http://www.w3.org/1999/xlink">
    <title>home-decoration</title>
    <g id="Page-1" stroke="none" stroke-width="1" fill="none" fill-rule="evenodd">
        <g id="Home-" transform="translate(-1075.000000, -680.000000)" fill="#000000" fill-rule="nonzero">
            <g id="home-decoration" transform="translate(1075.000000, 680.000000)">
                <path d="M68.6328125,0 L35.8203125,0 C35.0652148,0 34.453125,0.61223812 34.453125,1.3675187 L34.453125,20.7862842 L21.7855859,20.7862842 C23.9436914,15.9285843 24.2161719,11.1972431 24.2280664,10.9714657 C24.2548633,10.4597402 23.9933203,9.97604889 23.550625,9.71827161 C23.1076562,9.46035759 22.5581836,9.47170799 22.1265625,9.74767326 C21.9666016,9.84996366 18.9762891,11.7858231 16.197207,15.2399019 C15.7557422,8.96941837 13.4427344,4.19773539 13.3344531,3.97742813 C13.1043555,3.50973673 12.6287109,3.21353218 12.1076758,3.21353218 C12.1074023,3.21353218 12.1069922,3.21353218 12.1067188,3.21353218 C11.5854102,3.21380569 11.1096289,3.51083075 10.8800781,3.97906915 C10.7727539,4.19814564 8.49296875,8.91813642 8.03878906,15.1336456 C5.24972656,11.7077378 2.24423828,9.83396369 2.08318359,9.73495534 C1.65046875,9.4688362 1.10591797,9.46473365 0.669101563,9.72415194 C0.232285156,9.98357024 -0.024609375,10.4639796 0.0019140625,10.971329 C0.0150390625,11.2219952 0.35,17.0323086 3.23380859,22.3999562 L1.78171875,22.3999562 C1.36185547,22.3999562 0.965097656,22.5930499 0.706015625,22.9234424 C0.446933594,23.2538349 0.353828125,23.6851503 0.45390625,24.0930811 L3.6903125,37.2960639 C1.58525391,37.7392767 0,39.610726 0,41.8462088 C0,43.8325298 1.25207031,45.530988 3.0078125,46.1958756 L3.0078125,68.6324813 C3.0078125,69.3876251 3.61990234,70 4.375,70 C5.13009766,70 5.7421875,69.3876251 5.7421875,68.6324813 L5.7421875,46.4957724 L38.28125,46.4957724 L38.28125,68.6324813 C38.28125,69.3876251 38.8933398,70 39.6484375,70 C40.4035352,70 41.015625,69.3876251 41.015625,68.6324813 L41.015625,46.4957724 C43.5788281,46.4957724 45.6640625,44.4100329 45.6640625,41.8462088 C45.6640625,41.163817 45.5151758,40.5160234 45.2499414,39.9316827 L68.6328125,39.9316827 C69.3879102,39.9316827 70,39.3193078 70,38.564164 L70,1.36765545 C70,0.61223812 69.3879102,0 68.6328125,0 Z M36.6763086,23.5214583 C38.0332422,23.5214583 39.1372461,24.6257297 39.1372461,25.982992 C39.1372461,27.3402543 38.0333789,28.4443889 36.6764453,28.4443889 L20.3259766,28.4443889 C19.9174609,28.4443889 19.5850977,28.1119451 19.5850977,27.7033305 L19.5850977,24.2625167 C19.5850977,23.8539021 19.9174609,23.5214583 20.3259766,23.5214583 L36.6763086,23.5214583 L36.6763086,23.5214583 Z M39.7883008,31.1794263 L39.7883008,37.1965085 L26.3266992,37.1965085 C24.6681641,37.1965085 23.3188867,35.8469043 23.3188867,34.1879674 C23.3188867,32.5290305 24.6681641,31.1794263 26.3266992,31.1794263 L36.6764453,31.1794263 L39.7883008,31.1794263 Z M21.4379102,37.1966453 L19.0307031,37.1966453 C17.3720312,37.1966453 16.0227539,35.8469043 16.0227539,34.1881042 C16.0227539,32.5291672 17.3720312,31.179563 19.0305664,31.179563 L20.3259766,31.179563 L21.4379102,31.179563 C20.8973242,32.0551852 20.5845117,33.0856106 20.5845117,34.1881042 C20.5845117,35.2905977 20.8973242,36.3208863 21.4379102,37.1966453 Z M16.1225586,20.1535333 C16.2080078,20.0679266 16.2844336,19.9705593 16.3467773,19.8600638 C17.7369336,17.3966156 19.5603516,15.4379186 21.0311719,14.098434 C20.6197852,16.1261907 19.8570312,18.8154162 18.4638672,21.3295994 C18.03375,21.6037869 17.6680273,21.9697349 17.3939063,22.3999562 L15.8213672,22.3999562 C15.9501562,21.6456329 16.0492773,20.8965062 16.1225586,20.1535333 Z M12.1101367,8.42938524 C12.8039844,10.6432613 13.5336523,13.7948448 13.5354327,17.2620517 C13.53625,18.9237237 13.3713672,20.647481 13.0446094,22.4002297 L11.1905664,22.4002297 C10.8620313,20.6489853 10.6953711,18.9264588 10.694547,17.2658808 C10.6926367,13.7979901 11.4188867,10.6442185 12.1101367,8.42938524 Z M3.18623047,14.0214427 C4.66210938,15.3311153 6.50289063,17.2714876 7.90753906,19.7603717 C7.96113281,19.8552775 8.02525391,19.9402004 8.09621094,20.0169182 C8.17113281,20.8046089 8.27585938,21.5995475 8.41339844,22.400093 L6.40322266,22.400093 C6.20511719,22.090897 6.01603516,21.7771882 5.8384375,21.4622487 C4.38511719,18.8868007 3.60226562,16.0971993 3.18623047,14.0214427 Z M3.52460938,25.1352671 L5.67164063,25.1352671 L10.0761719,25.1352671 L10.94625,25.1352671 L14.1600977,25.1352671 L16.8507227,25.1352671 L16.8507227,27.7033305 C16.8507227,28.0881503 16.9145703,28.4582008 17.0305078,28.8044565 C14.8475195,29.6185404 13.2883789,31.7243825 13.2883789,34.1879674 C13.2883789,35.290461 13.6011914,36.3208863 14.1417773,37.1965085 L6.48115234,37.1965085 L3.52460938,25.1352671 Z M41.015625,43.760735 L4.6484375,43.760735 C3.59296875,43.760735 2.734375,42.9019333 2.734375,41.8462088 C2.734375,40.7904844 3.59296875,39.9316827 4.6484375,39.9316827 L5.40134766,39.9316827 C5.40339844,39.9316827 5.40558594,39.9319562 5.40763672,39.9319562 C5.40914063,39.9319562 5.41064453,39.9316827 5.41201172,39.9316827 L19.0305664,39.9316827 L41.015625,39.9316827 C42.0710938,39.9316827 42.9296875,40.7904844 42.9296875,41.8462088 C42.9296875,42.9017965 42.0710938,43.760735 41.015625,43.760735 Z M67.265625,37.1966453 L67.265625,37.1966453 L42.5226758,37.1966453 L42.5226758,29.8120443 C42.5226758,29.0880799 41.9599414,28.4971751 41.2481836,28.4491752 C41.645625,27.7149544 41.8717578,26.8748877 41.8717578,25.982992 C41.8717578,23.2900742 39.8131836,21.0694973 37.1875,20.8118568 L37.1875,2.73503739 L67.265625,2.73503739 L67.265625,37.1966453 Z" id="Shape"></path>
                <path d="M63.6111111,6 L41.3888889,6 C40.6218056,6 40,6.61234182 40,7.36775033 L40,18.3799186 C40,19.1353271 40.6218056,19.7476689 41.3888889,19.7476689 C42.1559722,19.7476689 42.7777778,19.1353271 42.7777778,18.3799186 L42.7777778,8.73550067 L62.2222222,8.73550067 L62.2222222,32.2644993 L53.1944444,32.2644993 C52.4273611,32.2644993 51.8055556,32.8768412 51.8055556,33.6322497 C51.8055556,34.3876582 52.4273611,35 53.1944444,35 L63.6111111,35 C64.3781944,35 65,34.3876582 65,33.6321129 L65,7.36775033 C65,6.61234182 64.3781944,6 63.6111111,6 Z" id="Path"></path>
                <path d="M48.5605,32.4395 C48.2815,32.1605 47.8945,32 47.5,32 C47.1055,32 46.7185,32.1605 46.4395,32.4395 C46.1605,32.7185 46,33.1055 46,33.5 C46,33.896 46.1605,34.2815 46.4395,34.5605 C46.7185,34.841 47.1055,35 47.5,35 C47.8945,35 48.2815,34.841 48.5605,34.5605 C48.8395,34.2815 49,33.896 49,33.5 C49,33.1055 48.8395,32.71835 48.5605,32.4395 Z" id="Path"></path>
                <path d="M59.8114139,22.9473684 L53.7185455,12.6842105 C53.4672381,12.2608211 53.0027556,12 52.5,12 C51.9972444,12 51.5327619,12.2608211 51.2814545,12.6842105 L45.1885861,22.9473684 C44.937138,23.3707579 44.937138,23.8924 45.1885861,24.3157895 C45.4398935,24.7391789 45.9043761,25 46.4071316,25 L58.5930091,25 C59.0956239,25 59.5602472,24.7391789 59.8114139,24.3157895 C60.062862,23.8924 60.062862,23.3707579 59.8114139,22.9473684 Z M48.8442227,22.2631579 L52.5,16.1052632 L56.1557773,22.2631579 L48.8442227,22.2631579 Z" id="Shape"></path>
            </g>
        </g>
    </g>
</svg>