<?xml version="1.0" encoding="UTF-8"?>
<svg width="34px" height="34px" viewBox="0 0 34 34" version="1.1" xmlns="http://www.w3.org/2000/svg" xmlns:xlink="http://www.w3.org/1999/xlink">
    <title>renovation</title>
    <g id="Page-1" stroke="none" stroke-width="1" fill="none" fill-rule="evenodd">
        <g id="Home-" transform="translate(-622.000000, -1656.000000)" fill="#FFFFFF" fill-rule="nonzero">
            <g id="renovation" transform="translate(622.000000, 1656.000000)">
                <path d="M25.0384718,20.3428218 L21.4608372,16.7651845 L24.1638356,14.062184 L26.2768812,16.1752313 C26.7158263,16.6141767 27.2995369,16.8560283 27.9203686,16.8560283 C28.5412002,16.8560283 29.1248444,16.6141767 29.5638559,16.1752313 L33.3203224,12.4186955 C34.2265016,11.5125156 34.2265016,10.0379646 33.3203224,9.13178474 L24.8682063,0.679662175 C23.9620271,-0.22651767 22.4875436,-0.22651767 21.5812317,0.679662175 L17.8247651,4.43619798 C16.918586,5.34237783 16.918586,6.81692887 17.8247651,7.72310871 L19.9377444,9.83608955 L17.234746,12.53909 L13.6571778,8.96145268 C14.384525,6.52228428 13.7293613,3.86849085 11.9029913,2.04211944 C10.0222346,0.161361303 7.28231433,-0.479990371 4.75256973,0.368283214 C4.44623788,0.471013701 4.20876927,0.715919993 4.11553495,1.02530677 C4.02230063,1.33462713 4.08492169,1.67004516 4.28347626,1.92491239 L7.05460743,5.48183098 L5.48184274,7.05466328 L1.92492687,4.28339718 C1.67005983,4.08477605 1.33464206,4.02222135 1.02538834,4.11545574 C0.7160018,4.20869013 0.471095694,4.44609252 0.368365286,4.75249101 C-0.480040463,7.28230395 0.161310721,10.0221599 2.04220024,11.9029844 C3.86857025,13.7294223 6.52242806,14.3846528 8.96159459,13.6572387 L12.5392292,17.2348096 L8.91384852,20.860193 C8.72711426,20.6739235 8.47423941,20.5693336 8.21047394,20.5693336 C7.94631003,20.5693336 7.69297034,20.6742555 7.50616967,20.8611227 L1.16709919,27.2002644 C0.414451197,27.9527138 0,28.9532569 0,30.0174837 C0,31.0817104 0.414451197,32.08232 1.16703278,32.8348357 L1.16703278,32.8349021 C1.94378623,33.6116562 2.96405125,34 3.98438268,34 C5.00471411,34 6.02497913,33.6116562 6.80173258,32.8349021 L13.1408031,26.4957604 C13.5298106,26.1068189 13.5298106,25.4760923 13.1408031,25.0870844 L13.1398734,25.0861547 L16.7651876,21.4608377 L20.3427558,25.0384086 C19.6154086,27.477577 20.2705723,30.1313704 22.0969423,31.9578082 C23.4287853,33.2897186 25.1912725,34 27.0050253,34 C27.7526265,34 28.5090596,33.8792734 29.2474303,33.6316445 C29.5537621,33.528914 29.7912307,33.2840077 29.8844651,32.9746209 C29.9776994,32.6652341 29.9150783,32.3298825 29.7165237,32.0750153 L26.9453926,28.5180967 L28.5181573,26.9453308 L32.0750731,29.7164641 C32.3298738,29.9149524 32.6652251,29.9775071 32.9746117,29.8844055 C33.2839982,29.7911711 33.5289043,29.5537688 33.6316347,29.2473703 C34.4800405,26.7175573 33.8386893,23.9777014 31.9577998,22.0968768 C30.1314297,20.2705718 27.4777048,19.6155405 25.0384718,20.3428218 L25.0384718,20.3428218 Z M19.1362214,6.07962014 C19.1362214,6.02835451 19.1488386,5.92947559 19.2335065,5.84487401 L22.989973,2.0883382 C23.0745745,2.00373662 23.173387,1.99105303 23.2247854,1.99105303 C23.2761838,1.99105303 23.3749298,2.00367022 23.4595977,2.0883382 L31.9117139,10.5404608 C31.9963154,10.6250623 32.0089325,10.7238749 32.0089325,10.7752733 C32.0089325,10.8265389 31.9963154,10.9254179 31.9116474,11.0100194 L28.1551809,14.7665552 C28.0705794,14.8511568 27.971767,14.8638404 27.9203686,14.8638404 C27.8689701,14.8638404 27.7702241,14.8512232 27.6855562,14.7665552 L19.2334401,6.31443269 C19.1488386,6.22983111 19.1362214,6.131085 19.1362214,6.07962014 Z M9.92800417,11.8062305 C9.6449809,11.5231406 9.21998115,11.4371445 8.84896966,11.5876211 C6.9890645,12.3427931 4.87010872,11.913543 3.45080878,10.494242 C2.4695242,9.51295668 1.96105185,8.2033588 1.99518464,6.86354606 L4.95165555,9.16704646 C5.34810063,9.47576917 5.91268623,9.4410387 6.26815868,9.08556598 L9.08550858,6.26814752 C9.44098102,5.9126748 9.47584429,5.34815517 9.166989,4.95164339 L6.86362317,1.99517022 C8.20277082,1.9611038 9.51296536,2.46964295 10.4942499,3.45086188 C11.9135499,4.8700965 12.3426668,6.98898749 11.5875618,8.84889406 C11.4369525,9.21983944 11.5230814,9.64483951 11.806171,9.92792941 L15.8260046,13.9478325 L13.9477049,15.8260672 L9.92800417,11.8062305 Z M5.39305763,31.4262261 C4.61630418,32.2027809 3.35239477,32.2029138 2.57570773,31.4261597 C2.19945014,31.0499018 1.99219636,30.5495971 1.99219636,30.0174837 C1.99219636,29.4853703 2.19945014,28.9850655 2.57570773,28.6088077 L8.21047394,22.9739707 L11.0278238,25.7913892 L5.39305763,31.4262261 Z M10.3225235,22.2687362 L21.3464857,11.2447656 L22.7552271,12.653508 L11.7311984,23.6774787 L10.3225235,22.2687362 Z M32.004749,27.1363816 L29.048278,24.8329476 C28.6517002,24.5240921 28.0871145,24.558889 27.7317749,24.9144281 L24.914425,27.7317802 C24.5589526,28.0872529 24.5240893,28.6517725 24.8329446,29.0482843 L27.1363768,32.0047575 C25.7972292,32.0398864 24.4869682,31.5303511 23.5057501,30.5491322 C22.0864501,29.1298312 21.6573332,27.0109402 22.4124382,25.1510336 C22.5630475,24.7800882 22.4769186,24.3550882 22.193829,24.0719983 L18.1739954,20.0521616 L20.0522951,18.1738605 L24.0721286,22.1937636 C24.3552183,22.4769199 24.7802181,22.5629824 25.1511632,22.412373 C27.0111347,21.657201 29.1300241,22.0864511 30.549324,23.5056857 C31.5304758,24.486971 32.0388817,25.7965689 32.004749,27.1363816 L32.004749,27.1363816 Z" id="Shape"></path>
            </g>
        </g>
    </g>
</svg>