<?xml version="1.0" encoding="UTF-8"?>
<svg width="39px" height="43px" viewBox="0 0 39 43" version="1.1" xmlns="http://www.w3.org/2000/svg" xmlns:xlink="http://www.w3.org/1999/xlink">
    <title>Shape</title>
    <g id="Page-1" stroke="none" stroke-width="1" fill="none" fill-rule="evenodd">
        <g id="Home-" transform="translate(-1259.000000, -1649.000000)" fill="#FFFFFF" fill-rule="nonzero" stroke="#FFFFFF" stroke-width="0.5">
            <path d="M1289.32829,1679.12145 L1285.50523,1677.85301 L1284.13277,1675.12019 C1285.36921,1673.86729 1286.22769,1672.20951 1286.51718,1670.48038 L1286.68834,1669.45898 L1288.15217,1669.45898 C1289.48273,1669.45898 1290.56522,1668.38129 1290.56522,1667.05664 L1290.56522,1662.01172 C1290.56522,1655.38846 1285.15276,1650 1278.5,1650 C1271.83019,1650 1266.43478,1655.373 1266.43478,1662.01172 L1266.43478,1667.05664 C1266.43478,1668.10054 1267.1073,1668.99069 1268.04348,1669.32125 L1268.04348,1670.25977 C1268.04348,1671.58442 1269.12597,1672.66211 1270.45652,1672.66211 L1271.1629,1672.66211 C1271.51158,1673.41621 1271.9629,1674.11465 1272.51211,1674.74206 C1272.62601,1674.87243 1272.74481,1674.99879 1272.86651,1675.12171 L1271.49477,1677.85301 L1267.67163,1679.12153 C1263.2264,1680.59721 1260,1685.25608 1260,1690.19922 C1260,1690.64149 1260.36011,1691 1260.80435,1691 L1296.19565,1691 C1296.63981,1691 1297,1690.64149 1297,1690.19922 C1297,1685.25608 1293.77368,1680.59721 1289.32829,1679.12145 Z M1288.95652,1667.05664 C1288.95652,1667.49819 1288.59569,1667.85742 1288.15217,1667.85742 L1286.92458,1667.85742 C1287.12904,1666.28068 1287.2653,1664.60281 1287.32008,1662.95023 C1287.32168,1662.90363 1287.32297,1662.8583 1287.32442,1662.8125 L1288.95652,1662.8125 L1288.95652,1667.05664 Z M1268.84783,1667.85742 C1268.40431,1667.85742 1268.04348,1667.49819 1268.04348,1667.05664 L1268.04348,1662.8125 L1269.67614,1662.8125 C1269.6788,1662.89602 1269.68161,1662.97994 1269.68475,1663.06443 C1269.68483,1663.06731 1269.68499,1663.07011 1269.68507,1663.07299 C1269.68507,1663.07323 1269.68507,1663.07347 1269.68507,1663.07371 C1269.74138,1664.68104 1269.87586,1666.31536 1270.07566,1667.85734 L1268.84783,1667.85734 L1268.84783,1667.85742 Z M1270.45652,1671.06055 C1270.013,1671.06055 1269.65217,1670.70132 1269.65217,1670.25977 L1269.65217,1669.45898 L1270.31158,1669.45898 L1270.48274,1670.4807 C1270.5154,1670.67489 1270.55554,1670.86836 1270.60195,1671.06055 L1270.45652,1671.06055 Z M1269.65354,1661.21094 L1268.07404,1661.21094 C1268.48145,1655.84402 1272.98032,1651.60156 1278.5,1651.60156 C1283.99514,1651.60156 1288.51381,1655.84346 1288.92588,1661.21094 L1287.34654,1661.21094 C1287.28863,1656.78846 1283.67123,1653.20312 1279.21997,1653.20312 L1277.78019,1653.20312 C1273.32901,1653.20312 1269.71137,1656.78846 1269.65354,1661.21094 Z M1277.78011,1654.80469 L1279.21989,1654.80469 C1282.82409,1654.80469 1285.74122,1657.73963 1285.73913,1661.32385 C1285.73913,1661.57585 1285.73712,1661.79527 1285.73286,1661.9949 C1285.73286,1661.99746 1285.73278,1662.00011 1285.73278,1662.00275 L1284.7267,1661.85965 C1281.99352,1661.47111 1279.41285,1660.1865 1277.46006,1658.24236 C1277.30916,1658.09221 1277.10462,1658.00781 1276.8913,1658.00781 C1274.73115,1658.00781 1272.66333,1658.98765 1271.29642,1660.64302 C1271.63328,1657.38232 1274.40209,1654.80469 1277.78011,1654.80469 Z M1272.26952,1671.06055 C1271.86687,1669.72701 1271.40613,1665.80318 1271.3043,1663.28872 L1272.38688,1661.85164 C1273.38113,1660.53228 1274.92797,1659.71252 1276.57343,1659.61842 C1278.73849,1661.66971 1281.53939,1663.02431 1284.49923,1663.44504 L1285.68339,1663.61352 C1285.60424,1665.28595 1285.44249,1666.96423 1285.21075,1668.50774 C1285.21067,1668.50822 1285.21059,1668.50878 1285.21051,1668.50934 C1285.13683,1669.00558 1285.07876,1669.32493 1284.93044,1670.21692 C1284.50446,1672.76061 1282.59799,1675.06085 1280.08127,1675.6873 C1279.04551,1675.94475 1277.95433,1675.94467 1276.91913,1675.6873 C1275.34768,1675.2962 1273.90677,1674.2137 1272.97687,1672.66211 L1274.61661,1672.66211 C1274.94864,1673.59414 1275.84268,1674.26367 1276.8913,1674.26367 L1278.5,1674.26367 C1279.83321,1674.26367 1280.91304,1673.1887 1280.91304,1671.86133 C1280.91304,1670.53668 1279.83055,1669.45898 1278.5,1669.45898 L1276.8913,1669.45898 C1275.81935,1669.45898 1274.93851,1670.1483 1274.61524,1671.06055 L1272.26952,1671.06055 Z M1276.82366,1677.30792 C1277.37536,1677.42363 1277.93784,1677.48281 1278.5,1677.48281 C1278.94006,1677.48281 1279.3802,1677.44614 1279.81535,1677.37503 L1278.39407,1678.87145 L1276.82366,1677.30792 Z M1277.28825,1680.03562 L1274.73702,1682.7216 C1274.03466,1681.38318 1273.43116,1679.99022 1272.93617,1678.56419 L1273.89422,1676.65657 L1277.28825,1680.03562 Z M1282.96944,1676.38526 L1284.06367,1678.56411 C1283.56787,1679.99254 1282.96421,1681.38598 1282.26258,1682.7228 L1279.53198,1680.00431 L1282.96944,1676.38526 Z M1276.08696,1671.86133 C1276.08696,1671.41922 1276.44714,1671.06055 1276.8913,1671.06055 L1278.5,1671.06055 C1278.94352,1671.06055 1279.30435,1671.41978 1279.30435,1671.86133 C1279.30435,1672.30352 1278.94408,1672.66211 1278.5,1672.66211 L1276.8913,1672.66211 C1276.44779,1672.66211 1276.08696,1672.30288 1276.08696,1671.86133 Z M1261.64087,1689.39844 C1261.95963,1685.43145 1264.61149,1681.82569 1268.18038,1680.64085 L1271.5662,1679.51752 C1272.18651,1681.22518 1272.95499,1682.88496 1273.85562,1684.46154 C1273.85714,1684.46426 1273.85859,1684.46699 1273.86012,1684.46963 C1273.86012,1684.46971 1273.8602,1684.46971 1273.8602,1684.46979 C1274.51824,1685.62203 1275.25888,1686.74801 1276.06186,1687.81697 L1277.05137,1689.39844 L1261.64087,1689.39844 Z M1278.5,1688.68462 L1277.40914,1686.94108 C1277.39692,1686.92154 1277.38389,1686.90256 1277.37005,1686.88414 C1276.71869,1686.01914 1276.11109,1685.1145 1275.5577,1684.18855 L1278.42624,1681.16849 L1281.44882,1684.17766 C1280.89173,1685.11033 1280.28203,1686.01874 1279.63011,1686.88398 C1279.5907,1686.93628 1279.6466,1686.85388 1278.5,1688.68462 Z M1279.94863,1689.39844 L1280.93806,1687.81705 C1281.74458,1686.74401 1282.49053,1685.60898 1283.15516,1684.4432 C1283.15918,1684.43616 1283.16297,1684.42895 1283.16699,1684.4219 C1283.16747,1684.42102 1283.16795,1684.42022 1283.16843,1684.41934 C1284.05764,1682.85782 1284.81807,1681.21245 1285.4338,1679.51752 L1288.81954,1680.64085 C1292.38851,1681.82569 1295.04037,1685.43145 1295.35913,1689.39844 L1279.94863,1689.39844 Z" id="Shape"></path>
        </g>
    </g>
</svg>