<?xml version="1.0" encoding="utf-8"?>
<!-- Generator: Adobe Illustrator 24.0.3, SVG Export Plug-In . SVG Version: 6.00 Build 0)  -->
<svg version="1.1" id="Calque_1" xmlns="http://www.w3.org/2000/svg" xmlns:xlink="http://www.w3.org/1999/xlink" x="0px" y="0px"
	 viewBox="0 0 60 60" style="enable-background:new 0 0 60 60;" xml:space="preserve">
<title>Architect</title>
<g id="Page-1">
	<g id="Home-" transform="translate(-629.000000, -680.000000)">
		<g id="Architect" transform="translate(629.000000, 680.000000)">
			<path id="Shape" d="M52.4,18.4h-2c-1.6,0-2.9,1.3-2.9,2.9v0.2c-1.1,0.4-2,1.5-2,2.7v1c0,0.8,0.3,1.5,0.9,2.1l1,1l-1,8.9
				c-2.8-4.5-7.5-7.9-12.8-9.1l-0.4-1.3c1.5-0.4,2.6-1.4,3.2-2.7h0.4c2.1,0,3.9-1.7,3.9-3.9v-4.8c1.1,0,2-0.9,2-2v-2c0-1-0.9-2-2-2
				h-0.2C39.6,4.1,34.8,0,29.1,0S18.4,4.1,17.5,9.7h-0.2c-1.1,0-2,0.9-2,2v2c0,1,0.9,2,2,2v4.8c0,2.1,1.7,3.9,3.9,3.9h0.4
				c0.6,1.3,1.7,2.3,3.2,2.7l-0.4,1.3c-2.2,0.5-4.3,1.5-6.2,2.7l-1.9-6v-0.1c-0.5-2.1-3.4-3.1-6.6-2.4c-2,0.4-3.7,1.5-4.5,2.7
				c-0.4,0.7-0.6,1.5-0.4,2.2c0.1,0.4,0.3,0.8,0.6,1.1l6.7,9.9c-0.9,2.2-1.5,4.6-1.5,7c0,4.1,2.4,7.7,5.8,9.4v1.3
				c0,2.1,1.7,3.9,3.9,3.9h2.9h2.9h15.6V47.3c1.5,1.9,3.6,3,6,3c4.2,0,7.5-3.4,7.5-7.5V21.3C55.3,19.7,54,18.4,52.4,18.4L52.4,18.4z
				 M47.5,24.2c0-0.5,0.4-0.9,0.9-0.9h0.9v-2c0-0.5,0.4-0.9,0.9-0.9h2c0.5,0,0.9,0.4,0.9,0.9v5.8h-4.4L47.7,26
				c-0.2-0.2-0.3-0.4-0.3-0.7V24.2z M32,56.1v2h-2.5c0.3-0.6,0.5-1.2,0.5-2H32z M32.9,54.2h-5.8v-4.5l1.1-1.1
				c0.2-0.2,0.4-0.3,0.7-0.3H30c0.5,0,0.9,0.4,0.9,0.9v0.9h2c0.5,0,0.9,0.4,0.9,0.9v2C33.9,53.7,33.4,54.2,32.9,54.2z M31.3,27.1
				l0.6,1.7l-2.8,3.5l-2.8-3.5l0.6-1.7H31.3L31.3,27.1z M26.2,32L26.2,32h-5.9l0,0c1.4-0.9,2.9-1.5,4.5-1.8L26.2,32z M20.3,33.9h2.5
				c-0.3,0.6-0.5,1.2-0.5,2v0.9h2v-0.9c0-1,0.9-2,2-2c1.1,0,2,0.9,2,2s-0.9,2-2,2h-5.8c-1.1,0-2-0.9-2-2S19.2,33.9,20.3,33.9z
				 M18.3,39.2c0.6,0.3,1.2,0.5,2,0.5h5.8c0.7,0,1.4-0.2,2-0.5v7.5c-0.4,0.2-0.9,0.3-1.3,0.7l-1.1,1.1h-3.5c-1.4,0-2.7-0.3-3.9-0.9
				V39.2z M32,47.2c-0.5-0.4-1.2-0.8-2-0.8V35.8c0-0.4-0.1-0.9-0.3-1.3l2.2-2.7V47.2z M36.8,22.3v-3.9c1.1,0,2,0.9,2,2
				C38.7,21.4,37.9,22.3,36.8,22.3z M38.7,17c-0.6-0.3-1.2-0.5-2-0.5v-0.9h2V17z M38.6,9.7H32V2.4C35.3,3.4,37.9,6.2,38.6,9.7z
				 M30,2v7.7h-2V2c0.3,0,0.7-0.1,0.9-0.1C29.2,1.9,29.7,2,30,2z M26.1,2.4v7.3h-6.6C20.2,6.2,22.8,3.4,26.1,2.4z M17.3,11.6h23.3v2
				H17.4L17.3,11.6z M21.3,15.5v0.9c-0.7,0-1.4,0.2-2,0.5v-1.5L21.3,15.5L21.3,15.5z M19.3,20.3c0-1,0.9-2,2-2v3.9
				C20.1,22.3,19.3,21.4,19.3,20.3z M23.2,22.3v-6.8h11.7v6.8c0,1.6-1.3,2.9-2.9,2.9h-5.8C24.5,25.2,23.2,23.8,23.2,22.3L23.2,22.3z
				 M6.9,26.2c0.5-0.8,1.8-1.5,3.3-1.8c0.5-0.1,1.1-0.2,1.5-0.2c1.4,0,2.3,0.4,2.7,0.9l0.1,0.3c0,0.2,0,0.4-0.2,0.7
				c-0.5,0.8-1.8,1.5-3.3,1.8c-2,0.4-3.5,0-4.1-0.6L6.7,27v-0.1C6.6,26.7,6.7,26.5,6.9,26.2L6.9,26.2z M9.5,30
				c0.6,0,1.3-0.1,1.9-0.2c1.5-0.3,2.9-1,3.9-1.9l1.9,5.7c-0.4,0.6-0.7,1.4-0.7,2.2v5.6L8.7,30C8.9,30,9.3,30,9.5,30L9.5,30z
				 M12.5,45.5c0-1.8,0.3-3.5,0.9-5.1l3,4.5v1.3c-0.4-0.3-0.9-0.8-1.2-1.3l-1.5,1.2c2,2.7,5.2,4.3,8.6,4.3h2.9v3.9h-3.9
				C16.5,54.2,12.5,50.3,12.5,45.5z M23.2,58h-2.9c-1.1,0-2-0.9-2-2v-0.4c0.9,0.3,1.9,0.4,2.9,0.4H28c0,1-0.9,2-2,2H23.2z
				 M47.7,48.4c-2.1,0-4.1-1.2-5.1-3.1l-1-2.1v-3.6h-2v18.4h-5.8V56c1.1-0.4,2-1.5,2-2.7v-2c0-1.3-0.9-2.3-2-2.7V30.3
				c5.3,1.4,9.7,5.1,12,10.1l0.2,0.3l-0.4,3.8l2,0.3l1.9-15.6h4v13.7C53.3,45.9,50.8,48.4,47.7,48.4z"/>
		</g>
	</g>
</g>
</svg>
