<?xml version="1.0" encoding="utf-8"?>
<!-- Generator: Adobe Illustrator 24.0.3, SVG Export Plug-In . SVG Version: 6.00 Build 0)  -->
<svg version="1.1" id="Calque_1" xmlns="http://www.w3.org/2000/svg" xmlns:xlink="http://www.w3.org/1999/xlink" x="0px" y="0px"
	 viewBox="0 0 60 60" style="enable-background:new 0 0 60 60;" xml:space="preserve">
<style type="text/css">
	.st0{stroke:#000000;stroke-width:0.5;stroke-miterlimit:10;}
</style>
<path class="st0" d="M56.8,26.6L56.8,26.6L56.7,7.8c0-4-3.2-7.3-7.3-7.3h-4.5c-4,0-7.3,3.2-7.3,7.3v3.9h-1c-0.2,0-0.5,0.1-0.6,0.3
	l-0.6,0.7c-1.3,1.6-2,3.4-2.2,5.5C32,18.3,31,19.3,31,20.7v1.7c0,0.5,0.4,0.8,0.8,0.8l0,0H49c0.5,0,0.8-0.4,0.8-0.8l0,0v-1.7
	c0-1.4-1.1-2.6-2.5-2.7c-0.2-2-0.9-3.9-2.2-5.5l-0.6-0.7c-0.2-0.2-0.4-0.3-0.6-0.3h-1V7.7c0-1.1,0.9-2,2-2h4.5c1.1,0,2,0.9,2,2v18.9
	H27l0,0c0-2.3-1.9-4.1-4.1-4.1c-1.2,0-2.3,0.5-3,1.4c-0.7-0.4-1.5-0.6-2.3-0.6c-1.1-2.9-4.3-4.5-7.3-3.4c-1.6,0.6-2.8,1.9-3.4,3.4
	c-2,0.1-3.5,1.6-3.6,3.4c-1.6,0.1-2.7,1.3-2.7,2.7v1.4c0,1.5,1.2,2.7,2.7,2.7h0.1v9.2c0,4.5,2.6,8.6,6.6,10.6l-0.9,2
	c-0.7,1.6,0.1,3.4,1.7,4.1s3.4-0.1,4.1-1.7l0,0l1.4-3.1H44l1.4,3.1c0.7,1.6,2.6,2.3,4.1,1.6c1.6-0.7,2.3-2.5,1.7-4l-0.9-2
	c4-2,6.6-6.1,6.6-10.6v-9.2h0.1c1.5,0,2.7-1.2,2.7-2.7v-1.4C59.5,27.8,58.3,26.6,56.8,26.6z M48.2,20.7v0.8H32.6v-0.8
	c0-0.6,0.5-1.1,1.1-1.1h13.6C47.7,19.7,48.2,20.1,48.2,20.7z M44,13.6c1,1.3,1.7,2.8,1.8,4.4H34.9c0.2-1.7,0.8-3.1,1.8-4.4l0.3-0.4
	h6.5L44,13.6z M49.5,4.2h-4.5c-2,0-3.5,1.6-3.5,3.5v3.9h-2.1V7.8c0-3.1,2.6-5.6,5.6-5.6h4.5c3.1,0,5.6,2.6,5.6,5.6v18.9H53V7.8
	C53,5.8,51.4,4.2,49.5,4.2z M6.8,24.8c0.1,0,0.2,0,0.4,0c0.4,0.1,0.8-0.2,0.9-0.6C8.6,22,10.7,20.5,13,21c1.6,0.4,2.8,1.6,3.1,3.1
	c0.1,0.4,0.5,0.7,1,0.6l0,0c0.8-0.2,1.6,0,2.2,0.6c0.3,0.3,0.8,0.4,1.2,0c0.1-0.1,0.1-0.1,0.2-0.2c0.7-1.3,2.3-1.7,3.5-1
	c0.8,0.5,1.3,1.3,1.3,2.3l0,0H4.8C4.8,25.5,5.7,24.8,6.8,24.8z M13.3,56.9c-0.2,0.6-0.8,0.9-1.4,0.9c-0.8,0-1.5-0.7-1.5-1.5
	c0-0.2,0-0.4,0.1-0.6l0.9-2h0.1c0.2,0.1,0.3,0.1,0.5,0.1c0.1,0,0.1,0,0.2,0.1c0.2,0.1,0.4,0.1,0.7,0.2c0.1,0,0.1,0,0.2,0
	c0.2,0,0.3,0.1,0.5,0.1c0.1,0,0.2,0,0.2,0c0.2,0,0.3,0,0.5,0h0.1L13.3,56.9z M48.7,53.7l0.9,2c0.3,0.8,0,1.7-0.8,2
	c-0.2,0.1-0.4,0.1-0.6,0.1c-0.6,0-1.2-0.4-1.4-0.9l-1.1-2.6h0.1c0.2,0,0.3,0,0.5,0c0.1,0,0.2,0,0.2,0c0.2,0,0.3-0.1,0.5-0.1
	c0.1,0,0.1,0,0.2,0c0.2,0,0.4-0.1,0.7-0.2c0.1,0,0.1,0,0.2-0.1C48.3,53.9,48.4,53.8,48.7,53.7C48.6,53.7,48.6,53.7,48.7,53.7
	L48.7,53.7z M55.1,42.5c0,4.1-2.6,8-6.4,9.5c-0.3,0.1-0.6,0.2-0.9,0.3h-0.1c-0.3,0.1-0.6,0.2-0.9,0.2h-0.1c-0.3,0.1-0.6,0.1-0.9,0.1
	l0,0c-0.3,0-0.7,0-1,0H15.2c-0.3,0-0.7,0-1,0h-0.1c-0.3,0-0.6-0.1-0.9-0.1h-0.1c-0.3-0.1-0.6-0.1-0.9-0.2h-0.1
	c-0.3-0.1-0.6-0.2-0.9-0.3c-3.8-1.7-6.3-5.4-6.3-9.5v-9.2h50.2L55.1,42.5z M57.9,30.6c0,0.6-0.5,1.1-1.1,1.1H3.2
	c-0.6,0-1.1-0.5-1.1-1.1v-1.4c0-0.6,0.5-1.1,1.1-1.1h53.6c0.6,0,1.1,0.5,1.1,1.1L57.9,30.6z"/>
</svg>
