<?xml version="1.0" encoding="utf-8"?>
<!-- Generator: Adobe Illustrator 24.0.3, SVG Export Plug-In . SVG Version: 6.00 Build 0)  -->
<svg version="1.1" id="Calque_1" xmlns="http://www.w3.org/2000/svg" xmlns:xlink="http://www.w3.org/1999/xlink" x="0px" y="0px"
	 viewBox="0 0 60 56.7" style="enable-background:new 0 0 60 56.7;" xml:space="preserve">
<title>Combined Shape</title>
<g id="Page-1">
	<g id="Home-" transform="translate(-1544.000000, -661.000000)">
		<path id="Combined-Shape" d="M1596.4,661c1.8,0,3.3,1.2,3.7,2.9l0,0.1h1.3c1.1,0,2,0.9,2.1,2l0,0.1v2.3c0,0.8-0.5,1.5-1.1,1.8
			l-0.1,0v11.5c0.9,0.2,1.7,1,1.7,2l0,0.1v8c0,1.1-0.9,2.1-2,2.1l-0.1,0h-1c-1.1,0-2.1-0.9-2.1-2l0-0.1v-8c0-1,0.7-1.8,1.6-2l0.1,0
			v-11.3h-0.4c-0.4,1.7-1.9,2.9-3.7,3l-0.1,0h-3.9v1.9h2.4c1.3,0,2.4,1.1,2.4,2.4l0,0.1v3.9c0,1.3-1.1,2.4-2.4,2.5l-0.1,0h-2.4v2.4
			h2.4c1.3,0,2.4,1.1,2.4,2.4l0,0.1v3.9c0,1.3-1.1,2.4-2.4,2.5l-0.1,0h-2.4v2.4h2.4c1.3,0,2.4,1.1,2.4,2.4l0,0.1v3.9
			c0,1.3-1.1,2.4-2.4,2.5l-0.1,0h-2.4v2.4h2.4c1.3,0,2.4,1.1,2.4,2.4l0,0.1v3.9c0,1.3-1.1,2.4-2.4,2.5l-0.1,0h-42.1
			c-1.3,0-2.4-1.1-2.4-2.4l0-0.1v-3.9c0-1.3,1.1-2.4,2.4-2.5l0.1,0h2.4v-2.4h-2.4c-1.3,0-2.4-1.1-2.4-2.4l0-0.1v-3.9
			c0-1.3,1.1-2.4,2.4-2.5l0.1,0h2.4v-2.4h-2.4c-1.3,0-2.4-1.1-2.4-2.4l0-0.1v-3.9c0-1.3,1.1-2.4,2.4-2.5l0.1,0h2.4V684h-2.4
			c-1.3,0-2.4-1.1-2.4-2.4l0-0.1v-3.9c0-1.3,1.1-2.4,2.4-2.5l0.1,0h2.4v-1.9h-3.9c-1.8,0-3.3-1.2-3.7-2.9l0-0.1h-1.3
			c-1.1,0-2-0.9-2.1-2l0-0.1V666c0-1.1,0.9-2,2-2.1l0.1,0h1.3c0.4-1.7,1.9-2.9,3.7-3l0.1,0H1596.4z M1594.8,710.7h-42.1
			c-0.4,0-0.7,0.3-0.7,0.7l0,0v3.9c0,0.4,0.3,0.7,0.7,0.7l0,0h42.1c0.4,0,0.7-0.3,0.7-0.7l0,0v-3.9
			C1595.5,711,1595.2,710.7,1594.8,710.7z M1556,712.1c0.7,0,1.3,0.6,1.3,1.3c0,0.7-0.6,1.3-1.3,1.3s-1.3-0.6-1.3-1.3
			C1554.7,712.7,1555.2,712.1,1556,712.1z M1591.6,712.1c0.7,0,1.3,0.6,1.3,1.3c0,0.7-0.6,1.3-1.3,1.3c-0.7,0-1.3-0.6-1.3-1.3
			C1590.3,712.7,1590.9,712.1,1591.6,712.1z M1590.7,706.5h-33.9v2.4h33.9V706.5z M1569.2,699.5h-8v0h-8.5c-0.4,0-0.7,0.3-0.7,0.7
			l0,0v3.9c0,0.4,0.3,0.7,0.7,0.7l0,0h42.1c0.4,0,0.7-0.3,0.7-0.7l0,0v-3.9c0-0.4-0.3-0.7-0.7-0.7l0,0L1569.2,699.5L1569.2,699.5z
			 M1556,700.8c0.7,0,1.3,0.6,1.3,1.3c0,0.7-0.6,1.3-1.3,1.3s-1.3-0.6-1.3-1.3C1554.7,701.4,1555.2,700.8,1556,700.8z M1591.6,700.8
			c0.7,0,1.3,0.6,1.3,1.3c0,0.7-0.6,1.3-1.3,1.3c-0.7,0-1.3-0.6-1.3-1.3C1590.3,701.4,1590.9,700.8,1591.6,700.8z M1590.7,695.3
			h-33.9v2.4h6.6c0.1,0,0.2,0,0.3,0.1h2.9c0.1,0,0.2-0.1,0.3-0.1l0,0h23.7V695.3z M1594.8,688.2h-42.1c-0.4,0-0.7,0.3-0.7,0.7l0,0
			v3.9c0,0.4,0.3,0.7,0.7,0.7l0,0h42.1c0.4,0,0.7-0.3,0.7-0.7l0,0v-3.9C1595.5,688.5,1595.2,688.2,1594.8,688.2z M1556,689.5
			c0.7,0,1.3,0.6,1.3,1.3c0,0.7-0.6,1.3-1.3,1.3s-1.3-0.6-1.3-1.3C1554.7,690.1,1555.2,689.5,1556,689.5z M1591.6,689.5
			c0.7,0,1.3,0.6,1.3,1.3c0,0.7-0.6,1.3-1.3,1.3c-0.7,0-1.3-0.6-1.3-1.3C1590.3,690.1,1590.9,689.5,1591.6,689.5z M1601.9,683.4h-1
			c-0.2,0-0.3,0.1-0.3,0.3l0,0v8c0,0.2,0.1,0.3,0.3,0.3l0,0h1c0.2,0,0.3-0.1,0.3-0.3l0,0v-8C1602.2,683.6,1602.1,683.4,1601.9,683.4
			z M1585.3,684h-3.3c0,0,0,0-0.1,0l0,0h-25v2.4h33.9V684h-5.3C1585.3,684,1585.3,684,1585.3,684z M1594.8,677h-42.1
			c-0.4,0-0.7,0.3-0.7,0.7l0,0v3.9c0,0.4,0.3,0.7,0.7,0.7l0,0h29.2c0.1,0,0.1,0,0.2,0h3.2c0,0,0.1,0,0.1,0l0,0h9.4
			c0.4,0,0.7-0.3,0.7-0.7l0,0v-3.9C1595.5,677.3,1595.2,677,1594.8,677z M1556,678.4c0.7,0,1.3,0.6,1.3,1.3c0,0.7-0.6,1.3-1.3,1.3
			s-1.3-0.6-1.3-1.3C1554.7,679,1555.2,678.4,1556,678.4z M1591.6,678.4c0.7,0,1.3,0.6,1.3,1.3c0,0.7-0.6,1.3-1.3,1.3
			c-0.7,0-1.3-0.6-1.3-1.3C1590.3,679,1590.9,678.4,1591.6,678.4z M1590.7,673.4h-33.9v1.9h33.9V673.4z M1596.4,662.8h-45.3
			c-1.1,0-2,0.9-2.1,2l0,0.1v4.7c0,1.1,0.9,2.1,2,2.1l0.1,0h45.3c1.1,0,2-0.9,2.1-2l0-0.1v-4.7
			C1598.5,663.7,1597.5,662.8,1596.4,662.8z M1547.3,665.7h-1.2c-0.2,0-0.3,0.1-0.3,0.3l0,0v2.3c0,0.2,0.1,0.3,0.3,0.3l0,0h1.2
			V665.7z M1601.4,665.7h-1.2v2.9h1.2c0.2,0,0.3-0.1,0.3-0.3l0,0V666C1601.7,665.9,1601.6,665.7,1601.4,665.7z"/>
	</g>
</g>
</svg>
