<?xml version="1.0" encoding="utf-8"?>
<!-- Generator: Adobe Illustrator 24.0.3, SVG Export Plug-In . SVG Version: 6.00 Build 0)  -->
<svg version="1.1" id="Calque_1" xmlns="http://www.w3.org/2000/svg" xmlns:xlink="http://www.w3.org/1999/xlink" x="0px" y="0px"
	 viewBox="0 0 60 60" style="enable-background:new 0 0 60 60;" xml:space="preserve">
<title>Carpentry</title>
<g id="Page-1">
	<g id="Home-" transform="translate(-1225.000000, -680.000000)">
		<g id="Carpentry" transform="translate(1225.000000, 680.000000)">
			<path id="Shape" d="M58.8,13.6h-3.5c-0.5,0-1,0.3-1.1,0.8l-1.2,4h-5.2v-7.9c0-0.7,0.6-1.3,1.3-1.3h2.6c1.2,0,2.2,1,2.2,2.2
				c0,0.6,0.5,1.2,1.2,1.2h2.5c0.6,0,1.2-0.5,1.2-1.2v-3c0-4.7-3.8-8.6-8.6-8.6h-9.3c-0.5,0-1,0.3-1.1,0.8l-0.1,0.5h-0.3l-0.4-0.7
				c-0.2-0.4-0.6-0.6-1-0.6h-4c-0.6,0-1.2,0.5-1.2,1.2v8.2c0,0.6,0.5,1.2,1.2,1.2h4c0.4,0,0.8-0.2,1-0.6l0.4-0.7h0.2l0.2,1.5v7.8H36
				V18c0-0.2-0.1-0.4-0.2-0.6L32.1,11c-0.2-0.4-0.6-0.6-1-0.6s-0.8,0.2-1,0.6l-3.8,6.5c-0.1,0.2-0.2,0.4-0.2,0.6v0.5h-2.6l2.9-17.2
				c0.1-0.3,0-0.7-0.3-1S25.5,0,25.2,0H10.8c-0.6,0-1.2,0.5-1.2,1.2v17.3H7l-1.2-4c-0.1-0.5-0.6-0.8-1.1-0.8H1.2
				c-0.6,0-1.2,0.5-1.2,1.2v44C0,59.5,0.5,60,1.2,60h57.7c0.6,0,1.2-0.5,1.2-1.2v-44C60,14.2,59.5,13.6,58.8,13.6z M52.3,20.9
				l-2.5,8.7h-0.6V23c0-0.8-0.3-1.5-0.7-2.1H52.3z M38.6,6.9c-0.4,0-0.8,0.2-1,0.6l-0.4,0.7h-2.1V2.3h2.1l0.4,0.7
				c0.2,0.4,0.6,0.6,1,0.6h1.9c0.5,0,1-0.3,1.1-0.8l0.1-0.5h8.4c3.4,0,6.2,2.8,6.2,6.2v1.8h-0.3C55.6,8.5,53.8,7,51.7,7h-2.6
				c-1.6,0-2.9,1-3.4,2.4h-3.8l-0.2-1.6c-0.1-0.6-0.6-1-1.2-1H38.6z M45.8,21.9c0.6,0,1.1,0.5,1.1,1.1v6.6h-6.2V23
				c0-0.6,0.5-1.1,1.1-1.1H45.8z M42,19.6v-7.7h3.5v7.7H42z M36,20.9H39c-0.5,0.6-0.7,1.3-0.7,2.1v6.6H36V20.9z M31.1,13.9l1.7,3
				h-3.4L31.1,13.9z M28.5,19.2h5.2v10.3h-5.2V19.2z M26.1,20.9v8.7h-4.5l1.4-8.7H26.1z M16.3,2.3h3.2L19,5.2h-2.8V2.3z M12,2.3h2v4
				c0,0.6,0.5,1.2,1.2,1.2H20c0.6,0,1.1-0.4,1.2-1l0.7-4.2h1.9l-1.3,8.1H12V2.3z M12,12.7h10.1l-2.8,16.8H12V12.7z M9.6,20.9v6.6
				l-1.9-6.6H9.6z M57.7,43.6H40.3c-0.6,0-1.2,0.5-1.2,1.2s0.5,1.2,1.2,1.2h17.4v7H37.3c-0.6,0-1.2,0.5-1.2,1.2s0.5,1.2,1.2,1.2
				h20.3v2.3H2.3V16h1.5L5,20c0,0,0,0,0,0l3.2,11c0.1,0.5,0.6,0.8,1.1,0.8h41.3c0.5,0,1-0.3,1.1-0.8L56.2,16h1.5V43.6z"/>
			<path id="Path" d="M7.3,52.7c-0.2-0.2-0.6-0.4-0.9-0.4c-0.3,0-0.7,0.1-0.9,0.4c-0.2,0.2-0.4,0.6-0.4,0.9c0,0.3,0.1,0.7,0.4,0.9
				c0.2,0.2,0.6,0.4,0.9,0.4c0.3,0,0.7-0.1,0.9-0.4c0.2-0.2,0.4-0.6,0.4-0.9C7.7,53.2,7.6,52.9,7.3,52.7z"/>
			<path id="Path_1_" d="M7.3,36.4C7.1,36.1,6.8,36,6.4,36c-0.3,0-0.7,0.1-0.9,0.4s-0.4,0.6-0.4,0.9c0,0.3,0.1,0.7,0.4,0.9
				c0.2,0.2,0.6,0.4,0.9,0.4c0.3,0,0.7-0.1,0.9-0.4c0.2-0.2,0.4-0.6,0.4-0.9C7.7,36.9,7.6,36.6,7.3,36.4z"/>
			<path id="Path_2_" d="M54.5,36.4c-0.2-0.2-0.6-0.4-0.9-0.4c-0.3,0-0.7,0.1-0.9,0.4c-0.2,0.2-0.4,0.6-0.4,0.9
				c0,0.3,0.1,0.7,0.4,0.9c0.2,0.2,0.6,0.4,0.9,0.4c0.3,0,0.7-0.1,0.9-0.4c0.2-0.2,0.4-0.6,0.4-0.9C54.9,36.9,54.7,36.6,54.5,36.4z"
				/>
			<path id="Path_3_" d="M33.9,52.7c-0.2-0.2-0.6-0.4-0.9-0.4s-0.7,0.1-0.9,0.4c-0.2,0.2-0.4,0.6-0.4,0.9c0,0.3,0.1,0.7,0.4,0.9
				c0.2,0.2,0.6,0.4,0.9,0.4s0.7-0.1,0.9-0.4c0.2-0.2,0.4-0.6,0.4-0.9C34.3,53.2,34.1,52.9,33.9,52.7z"/>
			<path id="Path_4_" d="M25.4,48L8.9,48c-0.6,0-1.2,0.6-1.2,1.3c0,0.7,0.5,1.3,1.2,1.3l16.5,0c0.6,0,1.2-0.6,1.2-1.3
				C26.6,48.6,26.1,48,25.4,48z"/>
			<path id="Path_5_" d="M19.4,39.4H6.3c-0.7,0-1.2,0.6-1.2,1.3S5.7,42,6.3,42h13.1c0.7,0,1.2-0.6,1.2-1.3S20,39.4,19.4,39.4z"/>
			<path id="Path_6_" d="M35.6,43.7h-0.1c-0.7,0-1.2,0.6-1.2,1.3s0.6,1.3,1.2,1.3h0.1c0.7,0,1.2-0.6,1.2-1.3S36.3,43.7,35.6,43.7z"
				/>
		</g>
	</g>
</g>
</svg>
