<?xml version="1.0" encoding="utf-8"?>
<!-- Generator: Adobe Illustrator 24.0.3, SVG Export Plug-In . SVG Version: 6.00 Build 0)  -->
<svg version="1.1" id="Capa_1" xmlns="http://www.w3.org/2000/svg" xmlns:xlink="http://www.w3.org/1999/xlink" x="0px" y="0px"
	 viewBox="0 0 60 60" style="enable-background:new 0 0 60 60;" xml:space="preserve">
<g>
	<g>
		<path d="M51.8,42.1h-1.6c-1.1,0-2.1,0.3-3.1,0.7c-1.4,0.7-3,0.7-4.5,0c-0.6-0.3-1.2-0.5-1.8-0.6l1.9-14.9h2.1c0.6,0,1-0.5,1-1v-4
			c0-0.6-0.5-1-1-1h-4v-3c0-0.3-0.1-0.6-0.3-0.7L36,13V9.9l1.5-1.2l2.6,5.1l1.8-0.9L39,7.3l1.2-1h3.6c0.6,0,1-0.5,1-1v-4
			c0-0.6-0.5-1-1-1H34c-4.9,0-8.9,4-8.9,8.9c0,0.6,0.5,1,1,1h1.9v2.6l-2.7,2.9c-0.2,0.2-0.3,0.5-0.3,0.7v5h-1.9v-7.9
			c0-0.1,0-0.3-0.1-0.4c0,0,0-0.1-0.1-0.1c0-0.1-0.1-0.1-0.1-0.2L19.1,8V1.5c0-0.6-0.5-1-1-1h-5.9c-0.6,0-1,0.5-1,1V8l-3.8,4.7
			c0,0.1-0.1,0.1-0.1,0.2c0,0,0,0.1-0.1,0.1c-0.1,0.1-0.1,0.3-0.1,0.4v7.9H3.3c-0.6,0-1,0.5-1,1v4c0,0.6,0.5,1,1,1h2.1l3.9,29.8
			c0,0.4,0.4,0.7,0.9,0.7h23.2c1.1,1.3,2.8,1.9,4.4,1.9h1.6c1.1,0,2.1-0.3,3.1-0.7c1.4-0.7,3-0.7,4.5,0c1,0.5,2,0.7,3.1,0.7h1.6
			c3.2,0,5.9-2.7,5.9-5.9V48C57.7,44.7,55,42.1,51.8,42.1z M40.9,2.5h1.9v1.9h-1.9V2.5z M43.8,23.3v1.9H30v-1.9H43.8z M27.1,8.4
			C27.6,5,30.6,2.5,34,2.5h5V5l-4.3,3.4H27.1z M34,10.4v1.9h-4v-1.9H34z M27.1,16.7l2.4-2.4h5.1l4.3,4.3v2.6H27.1V16.7z M26,23.3H28
			v6.9c0,0.4,0.2,0.7,0.6,0.9l5.9,3c0.3,0.2,0.6,0.4,0.6,0.7c0.1,0.4,0.1,0.6-0.1,1c-0.3,0.6-1,0.8-1.6,0.6l0,0l-4-2
			c-0.5-0.3-1.1,0-1.3,0.5c-0.1,0.1-0.1,0.3-0.1,0.5v9.9c0,1.1-0.9,1.9-1.9,1.9v-8.9h-1.9v8.9h-1.9v-8.9h-1.9v8.9h-1.9v-8.9h-2.2
			v8.9c-1.1,0-1.9-0.9-1.9-1.9V23.3H26z M13.2,2.5h4v5h-4V2.5z M12.7,9.4h5l2.4,3h-9.7L12.7,9.4z M9.2,14.4h11.9v6.9H9.2V14.4z
			 M4.3,25.2v-1.9h7.9v1.9H4.3z M31.9,48v5.9c0,0.6,0.1,1.4,0.4,1.9H11.1L7.4,27.1h4.8v17.8c0,2.2,1.8,4,4,4H26c2.2,0,4-1.8,4-4
			v-8.3l2.6,1.3c1.6,0.7,3.4,0.1,4.2-1.5l0,0c0.4-0.7,0.5-1.7,0.2-2.5c-0.3-0.8-0.8-1.5-1.6-1.8L30,29.5v-2.4h10.7L38.8,42h-0.9
			C34.6,42.1,31.9,44.7,31.9,48z M55.7,53.9c0,2.2-1.8,4-4,4h-1.6c-0.7,0-1.6-0.2-2.2-0.6c-1.9-1-4.2-1-6.3,0
			c-0.7,0.4-1.5,0.6-2.2,0.6h-1.6c-2.2,0-4-1.8-4-4v-1.6c1.1,1,2.5,1.5,4,1.6h1.6c1.1,0,2.1-0.3,3.1-0.7c1.4-0.7,3-0.7,4.5,0
			c1,0.5,2,0.7,3.1,0.7h1.6c1.5,0,2.9-0.6,4-1.6L55.7,53.9L55.7,53.9z M51.8,52h-1.6c-0.7,0-1.6-0.2-2.2-0.6c-1.9-1-4.2-1-6.3,0
			C41,51.8,40.2,52,39.5,52h-1.6c-2.2,0-4-1.8-4-4c0-2.2,1.8-4,4-4h1.6c0.7,0,1.6,0.2,2.2,0.6c1.9,1,4.2,1,6.3,0
			c0.7-0.4,1.5-0.6,2.2-0.6h1.6c2.2,0,4,1.8,4,4C55.7,50.2,53.9,52,51.8,52z"/>
	</g>
</g>
<g>
	<g>
		<rect x="52.5" y="47.1" width="2.1" height="2.1"/>
	</g>
</g>
<g>
	<g>
		<rect x="41.8" y="47.1" width="2.1" height="2.1"/>
	</g>
</g>
<g>
	<g>
		<rect x="37.5" y="48.2" width="2.1" height="2.1"/>
	</g>
</g>
<g>
	<g>
		<rect x="48.2" y="48.2" width="2.1" height="2.1"/>
	</g>
</g>
</svg>
