<?xml version="1.0" encoding="utf-8"?>
<!-- Generator: Adobe Illustrator 24.0.3, SVG Export Plug-In . SVG Version: 6.00 Build 0)  -->
<svg version="1.1" id="Capa_1" xmlns="http://www.w3.org/2000/svg" xmlns:xlink="http://www.w3.org/1999/xlink" x="0px" y="0px"
	 viewBox="0 0 60 60" style="enable-background:new 0 0 60 60;" xml:space="preserve">
<g>
	<g>
		<path d="M20.4,32.3c0.5,0,0.9-0.4,0.9-0.9c0-0.5-0.4-0.9-0.9-0.9h-4v-2.7c0-0.5-0.4-0.9-0.9-0.9s-0.9,0.4-0.9,0.9v2.7h-3.1V20.3
			c0-0.7-0.5-1.2-1.2-1.2H1.3c-0.7,0-1.3,0.6-1.3,1.4v38.2c0,0.8,0.6,1.4,1.3,1.4H20c0.7,0,1.3-0.6,1.3-1.4v-9.2
			c0-0.5-0.4-0.9-0.9-0.9s-0.9,0.4-0.9,0.9v8.9H1.8V20.9h8v2.2h-3c-0.5,0-0.9,0.4-0.9,0.9c0,0.5,0.4,0.9,0.9,0.9h3v3.2H7.1
			c-0.5,0-0.9,0.4-0.9,0.9c0,0.5,0.4,0.9,0.9,0.9h2.7v7.8c0,0.5,0.4,0.9,0.9,0.9h8.9v6.9c0,0.5,0.4,0.9,0.9,0.9s0.9-0.4,0.9-0.9V38
			c0-0.7-0.6-1.2-1.2-1.2h-3.7v-4.5L20.4,32.3z M14.6,36.8h-3.1v-4.5h3.1L14.6,36.8L14.6,36.8z"/>
		<path d="M50.6,40.7v-4.4v-8c0,0,0,0,0,0v-2.6V16c0,0,0,0,0,0v-0.7v-4.6h1.7c0.8,0,1.5-0.7,1.5-1.5V9.1h4.6c0.4,0,0.8-0.1,1-0.3
			c0.1,0,0.1-0.1,0.1-0.1c0,0,0,0,0,0C59.8,8.4,60,8,60,7.6V2.8c0-0.8-0.7-1.5-1.6-1.5h-4.6V1.2c0-0.8-0.7-1.5-1.5-1.5H41.1
			c-0.8,0-1.5,0.7-1.5,1.5v0.1h-1.7h-9.9c0,0,0,0,0,0h-0.7H14.7c-0.9,0-1.6,0.7-1.6,1.5v4.9c0,0.8,0.7,1.5,1.6,1.5h4.2v3.1l-3.3,3.5
			h-0.8c-0.8,0-1.4,0.6-1.4,1.4v4.1c0,0.8,0.6,1.4,1.4,1.4h9.9c0.8,0,1.4-0.6,1.4-1.4v-4.1c0-0.8-0.6-1.4-1.4-1.4h-0.8l-3.3-3.5V9.1
			h6.7h10.6h1.7v0.1c0,0.8,0.7,1.5,1.5,1.5h1.7v4.6v10.6v10.6V46H40c-1.2,0-2.2,1-2.2,2.2V54h-1c-1.7,0-3.1,1.4-3.1,3.1v1.6
			c0,0.8,0.7,1.5,1.5,1.5h23.3c0.8,0,1.5-0.7,1.5-1.5v-1.6c0-1.7-1.4-3.1-3.1-3.1h-1v-5.8c0-1.2-1-2.2-2.2-2.2h-3.1L50.6,40.7
			C50.6,40.7,50.6,40.7,50.6,40.7L50.6,40.7z M58.2,3.1v3l-3.1-3L58.2,3.1z M53.8,4.3l3.1,3h-3.1V4.3z M14.8,7.3V3.1h0.5l4.4,4.3
			L14.8,7.3z M24.4,17.4v3.4h-9.2v-3.4H24.4z M21.5,15.6H18l1.7-1.8L21.5,15.6z M17.9,3.1h8l-4,3.9L17.9,3.1z M27.4,7.3l-3.3,0
			l4-3.9l4,3.9H27.4z M30.3,3.1h7.7h0.4l-4,3.9L30.3,3.1z M37.9,7.3h-1.5l3.1-3v3H37.9z M53.7,47.8c0.3,0,0.5,0.2,0.5,0.5V54H49
			c-0.5,0-0.9,0.4-0.9,0.9c0,0.5,0.4,0.9,0.9,0.9h7.9c0.7,0,1.3,0.6,1.3,1.3v1.3H35.5v-1.3c0-0.7,0.6-1.3,1.3-1.3h7.9
			c0.5,0,0.9-0.4,0.9-0.9c0-0.5-0.4-0.9-0.9-0.9h-5.1v-5.8c0-0.2,0.2-0.5,0.5-0.5h3.7h6H53.7z M48.5,16l-3.9,4v-4.8v-3.3L48.5,16z
			 M45.8,10.7h3.1v3.1L45.8,10.7z M48.8,18.1v7.7v0.4l-3.9-4L48.8,18.1z M48.5,28.3l-3.9,4v-6.6v-1.5L48.5,28.3z M48.8,30.5v5.8v2.2
			l-3.9-4L48.8,30.5z M48.5,40.7l-3.9,4v-8L48.5,40.7z M48.8,42.9V46h-3.1L48.8,42.9z M49.7,8.9h-6c0,0,0,0,0,0h0h-2.3V1.5H52v7.3
			H49.7z"/>
		<path d="M17.4,42.5c0-0.7-0.6-1.3-1.3-1.3H5.2c-0.7,0-1.3,0.6-1.3,1.3v3.6c0,0.7,0.6,1.3,1.3,1.3h10.9c0.7,0,1.3-0.6,1.3-1.3V42.5
			z M9.8,45.7H5.7V43h4.1L9.8,45.7L9.8,45.7z M15.6,45.7h-4.1V43h4.1L15.6,45.7L15.6,45.7z"/>
		<path d="M16.1,50.1H5.2c-0.7,0-1.3,0.6-1.3,1.3V55c0,0.7,0.6,1.3,1.3,1.3h10.9c0.7,0,1.3-0.6,1.3-1.3v-3.6
			C17.4,50.7,16.8,50.1,16.1,50.1L16.1,50.1z M9.8,54.6H5.7v-2.7h4.1L9.8,54.6L9.8,54.6z M15.6,54.6h-4.1v-2.7h4.1L15.6,54.6
			L15.6,54.6z"/>
	</g>
</g>
</svg>
