<?xml version="1.0" encoding="utf-8"?>
<!-- Generator: Adobe Illustrator 24.0.3, SVG Export Plug-In . SVG Version: 6.00 Build 0)  -->
<svg version="1.1" id="Calque_1" xmlns="http://www.w3.org/2000/svg" xmlns:xlink="http://www.w3.org/1999/xlink" x="0px" y="0px"
	 viewBox="0 0 60 60" style="enable-background:new 0 0 60 60;" xml:space="preserve">
<path d="M30,60c-0.2,0-0.4,0-0.6-0.1l-28.7-15C0.3,44.6,0,44.2,0,43.8V15.6c0-0.4,0.2-0.8,0.6-1.1c0.4-0.2,0.8-0.2,1.2-0.1
	l28.7,14.4c0.4,0.2,0.7,0.6,0.7,1.1v28.7c0,0.4-0.2,0.8-0.6,1.1C30.4,59.9,30.2,60,30,60z M2.5,43l26.2,13.7V30.8L2.5,17.7V43z"/>
<path d="M30,60c-0.2,0-0.4-0.1-0.6-0.2c-0.4-0.2-0.6-0.6-0.6-1.1V30c0-0.5,0.3-0.9,0.7-1.1l28.7-14.4c0.4-0.2,0.8-0.2,1.2,0.1
	c0.4,0.2,0.6,0.6,0.6,1.1v28.1c0,0.5-0.3,0.9-0.7,1.1l-28.7,15C30.4,60,30.2,60,30,60L30,60z M31.3,30.8v25.9L57.5,43V17.7
	L31.3,30.8z M58.7,43.8L58.7,43.8L58.7,43.8z"/>
<path d="M1.2,16.9c-0.5,0-0.9-0.3-1.1-0.7c-0.3-0.6-0.1-1.4,0.6-1.7L29.5,0.1c0.4-0.2,0.8-0.2,1.1,0l28.7,14.4
	c0.6,0.3,0.9,1.1,0.6,1.7c-0.3,0.6-1.1,0.9-1.7,0.6L30,2.7l-28.2,14C1.6,16.8,1.4,16.9,1.2,16.9L1.2,16.9z"/>
<path d="M45,37.5c-0.7,0-1.2-0.6-1.2-1.2v-13l-28-14c-0.6-0.3-0.9-1.1-0.6-1.7c0.3-0.6,1-0.9,1.6-0.6l28.7,14.4
	c0.4,0.2,0.7,0.6,0.7,1.1v13.7C46.2,36.9,45.7,37.5,45,37.5L45,37.5z"/>
</svg>
