<?xml version="1.0" encoding="utf-8"?>
<!-- Generator: Adobe Illustrator 24.0.3, SVG Export Plug-In . SVG Version: 6.00 Build 0)  -->
<svg version="1.1" id="Calque_1" xmlns="http://www.w3.org/2000/svg" xmlns:xlink="http://www.w3.org/1999/xlink" x="0px" y="0px"
	 viewBox="0 0 60 60" style="enable-background:new 0 0 60 60;" xml:space="preserve">
<g id="Out_line">
	<path d="M52,27.6l7.5-14.4c1.2-2.4,0.3-5.3-2-6.5c-2.4-1.2-5.3-0.3-6.5,2l-7.5,14.4c-0.7,1.4-0.7,3,0,4.4L41.1,32l-3.3-1.6
		c-0.5-0.2-1.1-0.1-1.3,0.4l-6.2,10.8c-0.9,1.6-1.4,3.5-1.5,5.4c-0.8-0.4-1.7-0.6-2.6-0.6h-0.1c-0.5-1.8-2.1-3-3.9-3v-8.1h1
		c6.1,0,11.1-5,11.1-11.1v-4c0-1.7-1.4-3-3-3h-7.8c-3.6,0-7,1.7-9.1,4.6c-1.1-0.4-2.3-0.6-3.5-0.6H3.1c-1.7,0-3,1.4-3,3v4
		c0,6.1,5,11.1,11.1,11.1h5v4.2c-0.7,0.2-1.3,0.5-1.8,1.1c-2.1-0.7-4.4,0.5-5,2.7c0,0.1-0.1,0.2-0.1,0.3c-2.1-0.6-4.4,0.6-5,2.8v0.1
		H2.1v2h3c0.6,0,1-0.5,1-1l0,0c0-1.1,0.9-2,2-2s2,0.9,2,2h2c0-1-0.3-1.9-1-2.6c-0.2-1.1,0.5-2.2,1.6-2.4c0.1,0,0.3,0,0.4,0h0.1
		c1.1,0.1,1.9,0.9,1.9,2h2c0-1-0.4-2-1.1-2.7c0.7-0.5,1.7-0.4,2.4,0.2c-0.2,0.5-0.3,1-0.3,1.5h2c0-1.1,0.9-2,2-2
		c0.9,0,1.6,0.6,1.9,1.4c-2.4,0.9-3.9,3.1-3.9,5.7h2c0-2.2,1.8-4,4-4c1.2,0,2.4,0.5,3.1,1.5c-1.3,0.7-2.1,2.1-2.1,3.5h2
		c0-1.1,0.9-2,2-2s2,0.9,2,2h2c0-0.6-0.1-1.2-0.4-1.7c0.9-0.4,1.9-0.4,2.8,0c-0.2,0.5-0.4,1.1-0.4,1.7h2c0-1.1,0.9-2,2-2s2,0.9,2,2
		h2c0-0.5-0.1-1-0.3-1.5c0.8-0.7,2.1-0.6,2.8,0.2c0.3,0.4,0.5,0.8,0.5,1.3c0,0.6,0.5,1,1,1l0,0h8.1v-2H50c-0.6-2.2-2.8-3.5-4.9-2.9
		c-0.3,0.1-0.5,0.2-0.8,0.3c0.2-0.4,0.5-0.8,0.7-1.2l5.1-10.9c0.2-0.5,0-1.1-0.5-1.3l-3.8-1.9l2.3-4.4C50,29.9,51.3,29,52,27.6z
		 M20.3,43.9c-0.2,0.1-0.3,0.2-0.5,0.3c-0.4-0.4-1-0.6-1.5-0.8v-5.2c0-0.6-0.5-1-1-1l0,0h-2c-5,0-9.1-4.1-9.1-9.1v-1h-2v1
		c0,3.3,1.5,6.5,4,8.6c-3.6-1.3-6.1-4.7-6.1-8.6v-4c0-0.6,0.5-1,1-1H11c5.1,0,9.3,4.2,9.3,9.3V43.9z M16.4,22.6
		c1.8-2.2,4.4-3.4,7.2-3.4h7.8c0.6,0,1,0.5,1,1v4c0,3.8-2.4,7.3-6.1,8.6c2.6-2.1,4-5.2,4-8.6v-1h-2v1c0,3.8-2.4,7.3-6,8.6v-0.2
		C22.3,28.4,20,24.6,16.4,22.6z M48.2,37.8l-4.7,10c-0.3,0.6-0.7,1.2-1.1,1.8c-1.2-0.3-2.4-0.1-3.4,0.6c-0.8-0.5-1.7-0.8-2.7-0.8
		h-0.1l3-5.6l-1.8-1L33.5,50c-0.6-0.4-1.3-0.6-2-0.7c-0.2-0.3-0.3-0.5-0.5-0.8c-0.4-2.1,0-4.2,1.1-6l5.7-10l2.4,1.2l-1.9,3.6
		c-0.7,1.4-0.2,3.1,1.2,3.8s3.1,0.2,3.8-1.2l0,0l2-3.7L48.2,37.8z M41.5,39.1c-0.1,0.3-0.4,0.4-0.7,0.4c-0.2,0-0.3,0-0.4-0.1
		c-0.3-0.2-0.5-0.7-0.3-1l4.8-9.1c0.3,0.2,0.6,0.4,1,0.6c0.1,0.1,0.3,0.1,0.4,0.2L41.5,39.1z M46.7,27.9c-1.4-0.6-2.1-2.3-1.5-3.7
		c0-0.1,0.1-0.1,0.1-0.2l7.5-14.4c0.7-1.3,2.3-1.9,3.6-1.3c1.4,0.6,2.1,2.3,1.5,3.7c0,0.1-0.1,0.1-0.1,0.2l-7.5,14.4
		C49.6,28,48,28.5,46.7,27.9L46.7,27.9z"/>
</g>
</svg>
