<?xml version="1.0" encoding="utf-8"?>
<!-- Generator: Adobe Illustrator 24.0.3, SVG Export Plug-In . SVG Version: 6.00 Build 0)  -->
<svg version="1.1" id="Calque_1" xmlns="http://www.w3.org/2000/svg" xmlns:xlink="http://www.w3.org/1999/xlink" x="0px" y="0px"
	 viewBox="0 0 60 60" style="enable-background:new 0 0 60 60;" xml:space="preserve">
<title>Combined Shape</title>
<g id="Page-1">
	<g id="Home-" transform="translate(-1525.000000, -589.000000)">
		<path id="Combined-Shape" d="M1583,589c1.1,0,2,0.9,2,1.9l0,0.1v2c0,1.1-0.9,2-1.9,2l-0.1,0h-2v7h2c1.1,0,2,0.9,2,1.9l0,0.1v2
			c0,1.1-0.9,2-1.9,2l-0.1,0v26.7l1.7,2.5c0.2,0.3,0.3,0.7,0.3,1l0,0.1v8.7c0,1.1-0.9,2-1.9,2l-0.1,0h-56c-1.1,0-2-0.9-2-1.9l0-0.1
			v-8.7c0-0.4,0.1-0.7,0.3-1l0-0.1l1.7-2.5V608c-1.1,0-2-0.9-2-1.9l0-0.1v-2c0-1.1,0.9-2,1.9-2l0.1,0h2v-7h-2c-1.1,0-2-0.9-2-1.9
			l0-0.1v-2c0-1.1,0.9-2,1.9-2l0.1,0H1583z M1571,645h-32v2h32V645z M1533.5,641h-4.9v0l-1.5,0v6h10v-6H1533.5L1533.5,641z
			 M1574.2,641l-1.2,0v6h10v-6l-3.9,0v0L1574.2,641L1574.2,641z M1573,616h-36v18.7l1.7,2.5c0.2,0.3,0.3,0.7,0.3,1l0,0.1v4.7h3.6
			c-0.4-0.6-0.6-1.3-0.6-2c0-2.2,1.8-4,3.9-4l0.1,0h2.3c-0.5-0.4-0.9-0.8-1.3-1.3c-0.9-1.2-1.2-2.7-0.9-4.1c0.3-1,0.7-1.9,1.3-2.8
			c0.2-0.3,0.3-0.6,0.5-0.8c1.4-2.6,0.2-4.1,0.1-4.2c-0.3-0.3-0.3-0.8-0.1-1.1c0.2-0.4,0.6-0.6,1-0.5c1.6,0.1,3.1,0.6,4.5,1.3
			c0.3-1.5,1-2.9,2.2-3.8c1.7-1.3,3.9-1.8,6-1.4c0.4,0.1,0.7,0.4,0.8,0.8c0.1,0.4-0.1,0.8-0.4,1c-1,0.8-1.6,1.9-1.7,3.1
			c-0.2,1-0.1,2.1,0.2,3.1c0.3,0.5,0.6,0.9,1,1.3c0.3,0.3,0.7,0.7,1,1.1c1.6,2.1,2,4.5,1,6.4c-0.4,0.8-1,1.5-1.7,2l-0.1,0.1h2.3
			c2.2,0,4,1.8,4,4c0,0.7-0.2,1.3-0.5,1.9l-0.1,0.1h3.6v-4.7c0-0.4,0.1-0.7,0.3-1l0-0.1l1.7-2.5V616z M1564,639h-18
			c-1.1,0-2,0.9-2,2c0,1.1,0.9,2,1.9,2l0.1,0h18c1.1,0,2-0.9,2-2S1565.1,639,1564,639z M1535.5,636h-6.9l-1.5,2.3v0.7l1.5,0v-0.1
			h4.9v0.1l3.5,0v-0.7L1535.5,636z M1581.5,636h-6.9l-1.5,2.3v0.7l1.2,0v-0.1h4.9v0.1l3.9,0v-0.7L1581.5,636z M1555,632.3
			c-1.1,0.9-2,2.1-2,2.7c0,1.1,0.9,2,1.9,2l0.1,0h0c1.1,0,2-0.9,2-2C1557,634.4,1556.1,633.3,1555,632.3z M1559.2,620.1
			c-0.9,0.1-1.7,0.5-2.4,1c-1.1,0.9-1.7,2.5-1.7,4.7c0,0.6-0.4,1-1,1c-0.6,0-1-0.4-1-1c0-0.1-0.4-0.9-2.6-1.4l-0.1,0
			c0.3,1.5,0,3.1-0.8,4.5c-0.2,0.3-0.3,0.6-0.5,0.9c-0.5,0.7-0.8,1.4-1,2.2c-0.2,0.9,0,1.8,0.6,2.6c0.7,0.9,1.6,1.5,2.6,1.9
			c-0.2-0.4-0.3-0.9-0.3-1.4c0-2,2.8-4.3,3.4-4.8c0.4-0.3,0.9-0.3,1.2,0c0.6,0.4,3.4,2.7,3.4,4.8c0,0.5-0.1,0.9-0.3,1.4
			c1.2-0.4,2.3-1.2,2.9-2.4c0.9-1.8-0.3-3.6-0.8-4.3c-0.2-0.3-0.5-0.6-0.8-0.9c-0.6-0.6-1.1-1.2-1.5-2c-0.5-1.3-0.6-2.7-0.3-4.1
			C1558.4,621.8,1558.7,620.9,1559.2,620.1z M1535,608h-6v26h6V608z M1581,608h-6v26h6V608z M1573,608h-36v6h36V608z M1541.4,608.5
			c0.4,0,0.8,0.4,0.8,1l0,0.1v2.1c0,0.6-0.4,1.1-0.8,1.1c-0.4,0-0.8-0.4-0.8-1l0-0.1v-2.1C1540.5,609,1540.9,608.5,1541.4,608.5z
			 M1544.6,608.5c0.4,0,0.8,0.4,0.8,1l0,0.1v2.1c0,0.6-0.4,1.1-0.8,1.1c-0.4,0-0.8-0.4-0.8-1l0-0.1v-2.1
			C1543.8,609,1544.2,608.5,1544.6,608.5z M1549.1,608.5c0.4,0,0.8,0.4,0.8,1l0,0.1v2.1c0,0.6-0.4,1.1-0.8,1.1c-0.4,0-0.8-0.4-0.8-1
			l0-0.1v-2.1C1548.3,609,1548.7,608.5,1549.1,608.5z M1553.4,608.5c0.4,0,0.8,0.4,0.8,1l0,0.1v2.1c0,0.6-0.4,1.1-0.8,1.1
			c-0.4,0-0.8-0.4-0.8-1l0-0.1v-2.1C1552.5,609,1552.9,608.5,1553.4,608.5z M1556.6,608.5c0.4,0,0.8,0.4,0.8,1l0,0.1v2.1
			c0,0.6-0.4,1.1-0.8,1.1c-0.4,0-0.8-0.4-0.8-1l0-0.1v-2.1C1555.8,609,1556.2,608.5,1556.6,608.5z M1561.1,608.5
			c0.4,0,0.8,0.4,0.8,1l0,0.1v2.1c0,0.6-0.4,1.1-0.8,1.1c-0.4,0-0.8-0.4-0.8-1l0-0.1v-2.1C1560.3,609,1560.7,608.5,1561.1,608.5z
			 M1565.4,608.5c0.4,0,0.8,0.4,0.8,1l0,0.1v2.1c0,0.6-0.4,1.1-0.8,1.1c-0.4,0-0.8-0.4-0.8-1l0-0.1v-2.1
			C1564.5,609,1564.9,608.5,1565.4,608.5z M1568.6,608.5c0.4,0,0.8,0.4,0.8,1l0,0.1v2.1c0,0.6-0.4,1.1-0.8,1.1c-0.4,0-0.8-0.4-0.8-1
			l0-0.1v-2.1C1567.8,609,1568.2,608.5,1568.6,608.5z M1583,604h-56v2h56V604z M1579,595h-48v7h48V595z M1583,591h-56v2h56V591z"/>
	</g>
</g>
</svg>
