<?xml version="1.0" encoding="utf-8"?>
<!-- Generator: Adobe Illustrator 24.0.3, SVG Export Plug-In . SVG Version: 6.00 Build 0)  -->
<svg version="1.1" id="Capa_1" xmlns="http://www.w3.org/2000/svg" xmlns:xlink="http://www.w3.org/1999/xlink" x="0px" y="0px"
	 viewBox="0 0 60 60" style="enable-background:new 0 0 60 60;" xml:space="preserve">
<g>
	<g>
		<g>
			<path d="M59,9H1c-0.6,0-1,0.4-1,1v40c0,0.6,0.4,1,1,1h58c0.6,0,1-0.4,1-1V10C60,9.4,59.6,9,59,9z M58,49H2V11h56V49z"/>
			<path d="M10,19h8v-6H4v14h6V19z M8,25H6V15h10v2H8V25z"/>
			<path d="M56,33h-6v8h-8v6h14V33z M54,45H44v-2h8v-8h2V45z"/>
		</g>
	</g>
</g>
</svg>
