<?xml version="1.0" encoding="utf-8"?>
<!-- Generator: Adobe Illustrator 24.0.3, SVG Export Plug-In . SVG Version: 6.00 Build 0)  -->
<svg version="1.1" id="Capa_1" xmlns="http://www.w3.org/2000/svg" xmlns:xlink="http://www.w3.org/1999/xlink" x="0px" y="0px"
	 viewBox="0 0 60 60" style="enable-background:new 0 0 60 60;" xml:space="preserve">
<g>
	<g>
		<path d="M59,37c-1.7,0-3-1.3-3-3c0-0.6-0.4-1-1-1s-1,0.4-1,1c0,1.3-0.8,2.4-2,2.8V7c0-0.6-0.4-1-1-1H9C8.4,6,8,6.4,8,7v14.8
			c-1.2-0.4-2-1.5-2-2.8c0-0.6-0.4-1-1-1s-1,0.4-1,1c0,1.7-1.3,3-3,3c-0.6,0-1,0.4-1,1s0.4,1,1,1c1.7,0,3,1.3,3,3c0,0.6,0.4,1,1,1
			s1-0.4,1-1c0-1.3,0.8-2.4,2-2.8V53c0,0.6,0.4,1,1,1h42c0.6,0,1-0.4,1-1V39.2c1.2,0.4,2,1.5,2,2.8c0,0.6,0.4,1,1,1s1-0.4,1-1
			c0-1.7,1.3-3,3-3c0.6,0,1-0.4,1-1S59.6,37,59,37z M5,24c-0.3-0.4-0.6-0.7-1-1c0.4-0.3,0.7-0.6,1-1c0.3,0.4,0.6,0.7,1,1
			C5.6,23.3,5.3,23.6,5,24z M50,46v6H29.4l7.3-7.3c0.4-0.4,0.4-1,0-1.4c-0.4-0.4-1-0.4-1.4,0L26.6,52h-3.2l13.3-13.3
			c0.4-0.4,0.4-1,0-1.4c-0.4-0.4-1-0.4-1.4,0L20.6,52H10V8h29.6l-7.3,7.3c-0.4,0.4-0.4,1,0,1.4c0.4,0.4,1,0.4,1.4,0c0,0,0,0,0,0
			L42.4,8h3.2L32.3,21.3c-0.4,0.4-0.4,1,0,1.4c0.4,0.4,1,0.4,1.4,0c0,0,0,0,0,0L48.4,8H50V46z M55,39c-0.3-0.4-0.6-0.7-1-1
			c0.4-0.3,0.7-0.6,1-1c0.3,0.4,0.6,0.7,1,1C55.6,38.3,55.3,38.6,55,39z"/>
	</g>
</g>
<g>
	<g>
		<path d="M49,45c-1.7,0-3-1.3-3-3c0-0.6-0.4-1-1-1s-1,0.4-1,1c0,1.7-1.3,3-3,3c-0.6,0-1,0.4-1,1s0.4,1,1,1c1.7,0,3,1.3,3,3
			c0,0.6,0.4,1,1,1s1-0.4,1-1c0-1.7,1.3-3,3-3c0.6,0,1-0.4,1-1S49.6,45,49,45z M45,47c-0.3-0.4-0.6-0.7-1-1c0.4-0.3,0.7-0.6,1-1
			c0.3,0.4,0.6,0.7,1,1C45.6,46.3,45.3,46.6,45,47z"/>
	</g>
</g>
<g>
	<g>
		<path d="M19,14c-1.7,0-3-1.3-3-3c0-0.6-0.4-1-1-1s-1,0.4-1,1c0,1.7-1.3,3-3,3c-0.6,0-1,0.4-1,1s0.4,1,1,1c1.7,0,3,1.3,3,3
			c0,0.6,0.4,1,1,1s1-0.4,1-1c0-1.7,1.3-3,3-3c0.6,0,1-0.4,1-1S19.6,14,19,14z M15,16c-0.3-0.4-0.6-0.7-1-1c0.4-0.3,0.7-0.6,1-1
			c0.3,0.4,0.6,0.7,1,1C15.6,15.3,15.3,15.6,15,16z"/>
	</g>
</g>
</svg>
