<?xml version="1.0" encoding="utf-8"?>
<!-- Generator: Adobe Illustrator 24.0.3, SVG Export Plug-In . SVG Version: 6.00 Build 0)  -->
<svg version="1.1" id="Calque_1" xmlns="http://www.w3.org/2000/svg" xmlns:xlink="http://www.w3.org/1999/xlink" x="0px" y="0px"
	 viewBox="0 0 60 60" style="enable-background:new 0 0 60 60;" xml:space="preserve">
<title>Heating engineer</title>
<g id="Page-1">
	<g id="Home-" transform="translate(-926.000000, -680.000000)">
		<g id="Heating-engineer" transform="translate(926.000000, 680.000000)">
			<path id="Path" d="M27.4,7.7h2.1c0-0.2,0.1-0.3,0.4-0.6c0.6-0.5,1-1.2,1-2s-0.3-1.5-1-2c-0.3-0.3-0.4-0.4-0.4-0.6
				s0.1-0.3,0.4-0.6c0.6-0.5,1-1.2,1-2h-2.1c0,0.2-0.1,0.3-0.4,0.6c-0.6,0.5-1,1.2-1,2s0.3,1.5,1,2c0.3,0.3,0.4,0.4,0.4,0.6
				s-0.1,0.3-0.4,0.6C27.8,6.3,27.4,7,27.4,7.7z"/>
			<path id="Path_1_" d="M36,7.7h2.1c0-0.2,0.1-0.3,0.4-0.6c0.6-0.5,1-1.2,1-2s-0.3-1.5-1-2c-0.3-0.3-0.4-0.4-0.4-0.6
				s0.1-0.3,0.4-0.6c0.6-0.5,1-1.2,1-2h-2.1c0,0.2-0.1,0.3-0.4,0.6c-0.6,0.5-1,1.2-1,2s0.3,1.5,1,2c0.3,0.3,0.4,0.4,0.4,0.6
				S37.3,5.5,37,5.8C36.4,6.3,36,7,36,7.7z"/>
			<path id="Path_2_" d="M42,7.7h2.1c0-0.2,0.1-0.3,0.4-0.6c0.6-0.5,1-1.2,1-2s-0.3-1.5-1-2c-0.3-0.3-0.4-0.4-0.4-0.6
				s0.1-0.3,0.4-0.6c0.6-0.5,1-1.2,1-2h-2.1c0,0.2-0.1,0.3-0.4,0.6c-0.6,0.5-1,1.2-1,2s0.3,1.5,1,2c0.3,0.3,0.4,0.4,0.4,0.6
				S43.3,5.5,43,5.8C42.4,6.3,42,7,42,7.7z"/>
			<path id="Path_3_" d="M14.6,7.7h2.1c0-0.2,0.1-0.3,0.4-0.6c0.6-0.5,1-1.2,1-2s-0.3-1.5-1-2c-0.3-0.3-0.4-0.4-0.4-0.6
				S16.7,2.3,17,2c0.6-0.5,1-1.2,1-2h-2.1c0,0.2-0.1,0.3-0.4,0.6c-0.6,0.5-1,1.2-1,2s0.3,1.5,1,2c0.3,0.3,0.4,0.4,0.4,0.6
				s-0.1,0.3-0.4,0.6C14.9,6.3,14.6,7,14.6,7.7z"/>
			<path id="Path_4_" d="M20.6,7.7h2.1c0-0.2,0.1-0.3,0.4-0.6c0.6-0.5,1-1.2,1-2s-0.3-1.5-1-2c-0.3-0.3-0.4-0.4-0.4-0.6
				S22.7,2.3,23,2c0.6-0.5,1-1.2,1-2h-2.1c0,0.2-0.1,0.3-0.4,0.6c-0.6,0.5-1,1.2-1,2s0.3,1.5,1,2c0.3,0.3,0.4,0.4,0.4,0.6
				s-0.1,0.3-0.4,0.6C20.9,6.3,20.6,7,20.6,7.7z"/>
			<path id="Shape" d="M59,36.7c0.6,0,1-0.5,1-1v-8.1c0-0.6-0.4-1-1-1h-5V12.5c0-1.7-1.3-3-3-3s-3,1.4-3,3v1h-4v-1c0-1.7-1.3-3-3-3
				s-3,1.4-3,3v1h-4c0-2.2-1.8-4-4-4s-4,1.8-4,4h-4v-1c0-1.7-1.3-3-3-3s-3,1.4-3,3v1h-4v-1c0-1.7-1.3-3-3-3s-3,1.4-3,3v14.2H1
				c-0.6,0-1,0.5-1,1v8.1c0,0.6,0.4,1,1,1h1V58H0v2h6v-2H4V36.7h2v14.2c0,1.7,1.3,3,3,3s3-1.4,3-3v-1h4v1c0,1.7,1.3,3,3,3s3-1.4,3-3
				v-1h4c0,2.2,1.8,4,4,4s4-1.8,4-4h4v1c0,1.7,1.3,3,3,3s3-1.4,3-3v-1h4v1c0,1.7,1.3,3,3,3s3-1.4,3-3V36.7h2V58h-2v2h6v-2h-2V36.7
				H59z M2,34.7v-6.1h4v6.1H2z M10,50.9c0,0.6-0.4,1-1,1s-1-0.5-1-1V12.5c0-0.6,0.4-1,1-1s1,0.5,1,1V50.9z M12,47.9V15.5h4v32.4H12z
				 M20,50.9c0,0.6-0.4,1-1,1s-1-0.5-1-1V12.5c0-0.6,0.4-1,1-1s1,0.5,1,1V50.9z M22,47.9V15.5h4v32.4H22z M32,49.9c0,1.1-0.9,2-2,2
				s-2-0.9-2-2V13.5c0-1.1,0.9-2,2-2s2,0.9,2,2V49.9z M34,47.9V15.5h4v32.4H34z M42,50.9c0,0.6-0.4,1-1,1s-1-0.5-1-1V12.5
				c0-0.6,0.4-1,1-1s1,0.5,1,1V50.9z M44,47.9V15.5h4v32.4H44z M52,50.9c0,0.6-0.4,1-1,1s-1-0.5-1-1V12.5c0-0.6,0.4-1,1-1s1,0.5,1,1
				V50.9z M54,34.7v-6.1h4v6.1H54z"/>
		</g>
	</g>
</g>
</svg>
