<?xml version="1.0" encoding="utf-8"?>
<!-- Generator: Adobe Illustrator 24.0.3, SVG Export Plug-In . SVG Version: 6.00 Build 0)  -->
<svg version="1.1" id="Calque_1" xmlns="http://www.w3.org/2000/svg" xmlns:xlink="http://www.w3.org/1999/xlink" x="0px" y="0px"
	 viewBox="0 0 60 60" style="enable-background:new 0 0 60 60;" xml:space="preserve">
<title>home-decoration</title>
<g id="Page-1">
	<g id="Home-" transform="translate(-1075.000000, -680.000000)">
		<g id="home-decoration" transform="translate(1075.000000, 680.000000)">
			<path id="Shape" d="M58.8,0H30.7c-0.6,0-1.2,0.5-1.2,1.2v16.6H18.7c1.8-4.2,2.1-8.2,2.1-8.4c0-0.4-0.2-0.9-0.6-1.1
				c-0.4-0.2-0.9-0.2-1.2,0c-0.1,0.1-2.7,1.7-5.1,4.7c-0.4-5.4-2.4-9.5-2.5-9.7c-0.2-0.4-0.6-0.7-1.1-0.7c0,0,0,0,0,0
				C9.9,2.8,9.5,3,9.3,3.4c-0.1,0.2-2,4.2-2.4,9.6c-2.4-2.9-5-4.5-5.1-4.6c-0.4-0.2-0.8-0.2-1.2,0C0.2,8.6,0,9,0,9.4
				c0,0.2,0.3,5.2,2.8,9.8H1.5c-0.4,0-0.7,0.2-0.9,0.4c-0.2,0.3-0.3,0.7-0.2,1L3.2,32C1.4,32.3,0,34,0,35.9c0,1.7,1.1,3.2,2.6,3.7
				v19.2c0,0.6,0.5,1.2,1.2,1.2s1.2-0.5,1.2-1.2v-19h27.9v19c0,0.6,0.5,1.2,1.2,1.2s1.2-0.5,1.2-1.2v-19c2.2,0,4-1.8,4-4
				c0-0.6-0.1-1.1-0.4-1.6h20c0.6,0,1.2-0.5,1.2-1.2V1.2C60,0.5,59.5,0,58.8,0z M31.4,20.2c1.2,0,2.1,0.9,2.1,2.1
				c0,1.2-0.9,2.1-2.1,2.1h-14c-0.4,0-0.6-0.3-0.6-0.6v-2.9c0-0.4,0.3-0.6,0.6-0.6H31.4L31.4,20.2z M34.1,26.7v5.2H22.6
				c-1.4,0-2.6-1.2-2.6-2.6c0-1.4,1.2-2.6,2.6-2.6h8.9H34.1z M18.4,31.9h-2.1c-1.4,0-2.6-1.2-2.6-2.6c0-1.4,1.2-2.6,2.6-2.6h1.1h1
				c-0.5,0.8-0.7,1.6-0.7,2.6S17.9,31.1,18.4,31.9z M13.8,17.3c0.1-0.1,0.1-0.2,0.2-0.3c1.2-2.1,2.8-3.8,4-4.9c-0.4,1.7-1,4-2.2,6.2
				c-0.4,0.2-0.7,0.5-0.9,0.9h-1.3C13.7,18.6,13.8,17.9,13.8,17.3z M10.4,7.2c0.6,1.9,1.2,4.6,1.2,7.6c0,1.4-0.1,2.9-0.4,4.4H9.6
				c-0.3-1.5-0.4-3-0.4-4.4C9.2,11.8,9.8,9.1,10.4,7.2z M2.7,12c1.3,1.1,2.8,2.8,4,4.9c0,0.1,0.1,0.2,0.2,0.2c0.1,0.7,0.2,1.4,0.3,2
				H5.5c-0.2-0.3-0.3-0.5-0.5-0.8C3.8,16.2,3.1,13.8,2.7,12z M3,21.5h1.8h3.8h0.7h2.8h2.3v2.2c0,0.3,0.1,0.6,0.2,0.9
				c-1.9,0.7-3.2,2.5-3.2,4.6c0,0.9,0.3,1.8,0.7,2.6H5.6L3,21.5z M35.2,37.5H4c-0.9,0-1.6-0.7-1.6-1.6c0-0.9,0.7-1.6,1.6-1.6h0.6
				c0,0,0,0,0,0c0,0,0,0,0,0h11.7h18.8c0.9,0,1.6,0.7,1.6,1.6C36.8,36.8,36.1,37.5,35.2,37.5z M57.7,31.9L57.7,31.9H36.4v-6.3
				c0-0.6-0.5-1.1-1.1-1.2c0.3-0.6,0.5-1.3,0.5-2.1c0-2.3-1.8-4.2-4-4.4V2.3h25.8V31.9z"/>
			<path id="Path" d="M54.5,5.1h-19c-0.7,0-1.2,0.5-1.2,1.2v9.4c0,0.6,0.5,1.2,1.2,1.2c0.7,0,1.2-0.5,1.2-1.2V7.5h16.7v20.2h-7.7
				c-0.7,0-1.2,0.5-1.2,1.2c0,0.6,0.5,1.2,1.2,1.2h8.9c0.7,0,1.2-0.5,1.2-1.2V6.3C55.7,5.7,55.2,5.1,54.5,5.1z"/>
			<path id="Path_1_" d="M41.6,27.8c-0.2-0.2-0.6-0.4-0.9-0.4c-0.3,0-0.7,0.1-0.9,0.4c-0.2,0.2-0.4,0.6-0.4,0.9
				c0,0.3,0.1,0.7,0.4,0.9c0.2,0.2,0.6,0.4,0.9,0.4c0.3,0,0.7-0.1,0.9-0.4c0.2-0.2,0.4-0.6,0.4-0.9C42,28.4,41.9,28,41.6,27.8z"/>
			<path id="Shape_1_" d="M51.3,19.7L46,10.9c-0.2-0.4-0.6-0.6-1-0.6s-0.8,0.2-1,0.6l-5.2,8.8c-0.2,0.4-0.2,0.8,0,1.2
				c0.2,0.4,0.6,0.6,1,0.6h10.4c0.4,0,0.8-0.2,1-0.6C51.5,20.5,51.5,20,51.3,19.7z M41.9,19.1l3.1-5.3l3.1,5.3H41.9z"/>
		</g>
	</g>
</g>
</svg>
