<?xml version="1.0" encoding="utf-8"?>
<!-- Generator: Adobe Illustrator 24.0.3, SVG Export Plug-In . SVG Version: 6.00 Build 0)  -->
<svg version="1.1" id="Layer_1" xmlns="http://www.w3.org/2000/svg" xmlns:xlink="http://www.w3.org/1999/xlink" x="0px" y="0px"
	 viewBox="0 0 60 60" style="enable-background:new 0 0 60 60;" xml:space="preserve">
<g>
	<g>
		<g>
			<path d="M38.3,0.3c-0.5-0.4-1.2-0.4-1.7,0c-0.5,0.5-13,11.9-18.8,25.1c-0.6-0.2-1.3-0.4-2.3-0.4c-2.2,0-3.4,0.8-4.3,1.5
				c-0.8,0.6-1.5,1-2.9,1c-1.4,0-2.1-0.5-2.9-1C4.6,25.8,3.4,25,1.3,25C0.6,25,0,25.6,0,26.3c0,0.7,0.6,1.3,1.3,1.3
				c1.4,0,2.1,0.5,2.9,1C5.1,29.2,6.2,30,8.4,30c2.2,0,3.4-0.8,4.3-1.5c0.8-0.6,1.5-1,2.9-1c1.4,0,2.1,0.5,2.9,1
				c0.9,0.7,2.1,1.5,4.3,1.5c2.2,0,3.4-0.8,4.3-1.5c0.8-0.6,1.5-1,2.9-1c0.7,0,1.3-0.6,1.3-1.3S30.7,25,30,25
				c-2.2,0-3.4,0.8-4.3,1.5c-0.8,0.6-1.5,1-2.9,1c-1.3,0-2-0.4-2.7-0.9C24.8,15.7,34.6,5.8,37.5,3c3.9,3.8,20,20.1,20,34.5
				c0,11-9,20-20,20c-5,0-9.7-1.9-13.3-5.1c1.4-0.3,2.2-0.8,3-1.3c0.8-0.6,1.5-1,2.9-1c0.7,0,1.3-0.6,1.3-1.3c0-0.7-0.6-1.3-1.3-1.3
				c-2.2,0-3.4,0.8-4.3,1.5c-0.8,0.6-1.5,1-2.9,1c-1.4,0-2.1-0.5-2.9-1c-0.9-0.7-2.1-1.5-4.3-1.5c-2.2,0-3.4,0.8-4.3,1.5
				c-0.8,0.6-1.5,1-2.9,1c-1.4,0-2.1-0.5-2.9-1c-0.9-0.7-2.1-1.5-4.3-1.5c-0.7,0-1.3,0.6-1.3,1.3C0,49.4,0.6,50,1.3,50
				c1.4,0,2.1,0.5,2.9,1c0.9,0.7,2.1,1.5,4.3,1.5c2.2,0,3.4-0.8,4.3-1.5c0.8-0.6,1.5-1,2.9-1c1.4,0,2.1,0.5,2.9,1
				c0.5,0.4,1.1,0.7,1.9,1c4.3,5,10.5,7.9,17.1,7.9C49.9,60,60,49.9,60,37.5C60,20.1,39.2,1.1,38.3,0.3z"/>
			<path d="M1.3,42.5c1.4,0,2.1,0.5,2.9,1C5.1,44.2,6.2,45,8.4,45c0.7,0,1.3-0.6,1.3-1.3c0-0.7-0.6-1.3-1.3-1.3
				c-1.4,0-2.1-0.5-2.9-1C4.6,40.8,3.4,40,1.3,40C0.6,40,0,40.6,0,41.3S0.6,42.5,1.3,42.5z"/>
			<path d="M15.6,40c-0.7,0-1.3,0.6-1.3,1.3s0.6,1.3,1.3,1.3c1.4,0,2.1,0.5,2.9,1c0.9,0.7,2.1,1.5,4.3,1.5c2.2,0,3.4-0.8,4.3-1.5
				c0.8-0.6,1.5-1,2.9-1c1.4,0,2.2,0.5,3.1,1.1c1.1,0.7,2.3,1.4,4.4,1.4c0.7,0,1.3-0.6,1.3-1.3c0-0.7-0.6-1.3-1.3-1.3
				c-1.4,0-2.2-0.5-3.1-1.1C33.4,40.8,32.2,40,30,40c-2.2,0-3.4,0.8-4.3,1.5c-0.8,0.6-1.5,1-2.9,1c-1.4,0-2.1-0.5-2.9-1
				C19,40.8,17.8,40,15.6,40z"/>
			<path d="M15.6,32.5c-2.2,0-3.4,0.8-4.3,1.5c-0.8,0.6-1.5,1-2.9,1c-1.4,0-2.1-0.5-2.9-1c-0.9-0.7-2.1-1.5-4.3-1.5
				c-0.7,0-1.3,0.6-1.3,1.3S0.6,35,1.3,35c1.4,0,2.1,0.5,2.9,1c0.9,0.7,2.1,1.5,4.3,1.5c2.2,0,3.4-0.8,4.3-1.5c0.8-0.6,1.5-1,2.9-1
				c0.7,0,1.3-0.6,1.3-1.3C16.9,33.1,16.3,32.5,15.6,32.5z"/>
			<path d="M27.1,36c0.8-0.6,1.5-1,2.9-1c1.4,0,2.1,0.5,2.9,1c0.9,0.7,2.1,1.5,4.3,1.5c2.2,0,3.4-0.8,4.3-1.5c0.8-0.6,1.5-1,2.9-1
				c0.7,0,1.3-0.6,1.3-1.3s-0.6-1.3-1.3-1.3c-2.2,0-3.4,0.8-4.3,1.5c-0.8,0.6-1.5,1-2.9,1c-1.4,0-2.1-0.5-2.9-1
				c-0.9-0.7-2.1-1.5-4.3-1.5c-2.2,0-3.4,0.8-4.3,1.5c-0.8,0.6-1.5,1-2.9,1c-0.7,0-1.3,0.6-1.3,1.3c0,0.7,0.6,1.3,1.3,1.3
				C25,37.5,26.2,36.7,27.1,36z"/>
		</g>
	</g>
</g>
</svg>
