<?xml version="1.0" encoding="utf-8"?>
<!-- Generator: Adobe Illustrator 24.0.3, SVG Export Plug-In . SVG Version: 6.00 Build 0)  -->
<svg version="1.1" id="Calque_1" xmlns="http://www.w3.org/2000/svg" xmlns:xlink="http://www.w3.org/1999/xlink" x="0px" y="0px"
	 viewBox="0 0 60 60" style="enable-background:new 0 0 60 60;" xml:space="preserve">
<title>kitchen</title>
<g id="Page-1">
	<g id="Home-" transform="translate(-775.000000, -680.000000)">
		<g id="kitchen" transform="translate(775.000000, 680.000000)">
			<path id="Shape" d="M59.1,35.3H40.3v-1.9h0.9c0.5,0,0.9-0.4,0.9-0.9c0-0.5-0.4-0.9-0.9-0.9h-0.9v-0.9c0-2.1,1.7-3.8,3.8-3.8
				s3.8,1.7,3.8,3.8c0,0.5,0.4,0.9,0.9,0.9s0.9-0.4,0.9-0.9c0-3.1-2.5-5.7-5.6-5.7s-5.6,2.6-5.6,5.7v4.7H22.7
				c0.5-0.5,0.7-1.2,0.7-1.9v-5.7c0-0.5-0.4-0.9-0.9-0.9H8.4c-0.5,0-0.9,0.4-0.9,0.9v5.7c0,0.7,0.3,1.4,0.7,1.9H0.9
				c-0.5,0-0.9,0.4-0.9,0.9v22.8C0,59.6,0.4,60,0.9,60h58.1c0.5,0,0.9-0.4,0.9-0.9V36.3C60,35.7,59.6,35.3,59.1,35.3z M9.4,28.7
				h12.2v4.7c0,0.5-0.4,0.9-0.9,0.9H10.3c-0.5,0-0.9-0.4-0.9-0.9V28.7z M15,58.1H1.9V46.7H15V58.1z M15,44.8H1.9v-7.6h2.8
				c0,0.5,0.4,0.9,0.9,0.9h5.6c0.5,0,0.9-0.4,0.9-0.9H15V44.8z M43.1,58.1H16.9V37.2h26.2V58.1z M58.1,58.1H45V46.7h13.1V58.1z
				 M58.1,44.8H45v-7.6h2.8c0,0.5,0.4,0.9,0.9,0.9h5.6c0.5,0,0.9-0.4,0.9-0.9h2.8V44.8z"/>
			<path id="Shape_1_" d="M18.9,50.6h22.2c0.5,0,0.9-0.4,0.9-0.9v-9.3c0-0.5-0.4-0.9-0.9-0.9H18.9c-0.5,0-0.9,0.4-0.9,0.9v9.3
				C18,50.2,18.4,50.6,18.9,50.6z M19.8,41.3h20.3v7.4H19.8V41.3z"/>
			<path id="Path" d="M35.1,54h-11c-0.5,0-0.9,0.4-0.9,0.9s0.4,0.9,0.9,0.9h11c0.5,0,0.9-0.4,0.9-0.9S35.6,54,35.1,54z"/>
			<path id="Shape_2_" d="M10.4,14.6h39.3c0.5,0,0.9-0.4,0.9-1V1c0-0.5-0.4-1-0.9-1H10.4C9.8,0,9.4,0.4,9.4,1v12.6
				C9.4,14.1,9.8,14.6,10.4,14.6z M30.9,1.9h17.8v10.7H30.9V1.9z M11.3,1.9h17.8v10.7H11.3V1.9z"/>
			<path id="Path_1_" d="M22.3,6.9h-6.9c-0.5,0-0.9,0.4-0.9,0.9s0.4,0.9,0.9,0.9h6.9c0.5,0,0.9-0.4,0.9-0.9S22.8,6.9,22.3,6.9z"/>
			<path id="Path_2_" d="M44.6,6.9h-6.9c-0.5,0-0.9,0.4-0.9,0.9s0.4,0.9,0.9,0.9h6.9c0.5,0,0.9-0.4,0.9-0.9S45,6.9,44.6,6.9z"/>
			<path id="Path_3_" d="M10.1,23.5c-0.9,0.4-1.5,1.3-1.5,2.2c0,0.5,0.5,0.9,1.1,0.9c0.6,0,1.1-0.4,1.1-0.9c0-0.2,0.1-0.3,0.6-0.7
				c0.9-0.4,1.5-1.3,1.5-2.2c0-0.9-0.6-1.7-1.5-2.2c-0.5-0.4-0.6-0.5-0.6-0.7s0.1-0.3,0.6-0.7c0.9-0.4,1.5-1.3,1.5-2.2
				c0-0.5-0.5-0.9-1.1-0.9c-0.6,0-1.1,0.4-1.1,0.9c0,0.2-0.1,0.3-0.6,0.7c-0.9,0.4-1.5,1.3-1.5,2.2c0,0.9,0.6,1.7,1.5,2.2
				c0.5,0.4,0.6,0.5,0.6,0.7S10.6,23.1,10.1,23.5z"/>
			<path id="Path_4_" d="M16.5,19.4c0.9-0.4,1.5-1.3,1.5-2.2c0-0.5-0.5-0.9-1.1-0.9s-1.1,0.4-1.1,0.9c0,0.2-0.1,0.3-0.6,0.7
				c-0.9,0.4-1.5,1.3-1.5,2.2c0,0.9,0.6,1.7,1.5,2.2c0.5,0.4,0.6,0.5,0.6,0.7s-0.1,0.3-0.6,0.7c-0.9,0.4-1.5,1.3-1.5,2.2
				c0,0.5,0.5,0.9,1.1,0.9c0.6,0,1.1-0.4,1.1-0.9c0-0.2,0.1-0.3,0.6-0.7c0.9-0.4,1.5-1.3,1.5-2.2c0-0.9-0.6-1.7-1.5-2.2
				c-0.5-0.4-0.6-0.5-0.6-0.7S16,19.7,16.5,19.4z"/>
			<path id="Path_5_" d="M21.6,19.4c0.9-0.4,1.5-1.3,1.5-2.2c0-0.5-0.5-0.9-1.1-0.9S21,16.7,21,17.2c0,0.2-0.1,0.3-0.6,0.7
				c-0.9,0.4-1.5,1.3-1.5,2.2c0,0.9,0.6,1.7,1.5,2.2c0.5,0.4,0.6,0.5,0.6,0.7s-0.1,0.3-0.6,0.7c-0.9,0.4-1.5,1.3-1.5,2.2
				c0,0.5,0.5,0.9,1.1,0.9s1.1-0.4,1.1-0.9c0-0.2,0.1-0.3,0.6-0.7c0.9-0.4,1.5-1.3,1.5-2.2c0-0.9-0.6-1.7-1.5-2.2
				C21.1,20.3,21,20.2,21,20S21.1,19.7,21.6,19.4z"/>
		</g>
	</g>
</g>
</svg>
