<?xml version="1.0" encoding="utf-8"?>
<!-- Generator: Adobe Illustrator 24.0.3, SVG Export Plug-In . SVG Version: 6.00 Build 0)  -->
<svg version="1.1" id="Capa_1" xmlns="http://www.w3.org/2000/svg" xmlns:xlink="http://www.w3.org/1999/xlink" x="0px" y="0px"
	 viewBox="0 0 60 60" style="enable-background:new 0 0 60 60;" xml:space="preserve">
<g>
	<g>
		<path d="M58.8,60h-7.2c-0.6,0-1.2-0.5-1.2-1.2v-7.2c0-0.6,0.5-1.2,1.2-1.2h7.2c0.6,0,1.2,0.5,1.2,1.2v7.2C60,59.5,59.5,60,58.8,60
			z M52.8,57.7h4.9v-4.9h-4.9V57.7z"/>
	</g>
	<g>
		<path d="M58.8,0h-7.2c-0.6,0-1.2,0.5-1.2,1.2v2.4H9.6V1.2C9.6,0.5,9,0,8.4,0H1.2C0.5,0,0,0.5,0,1.2v7.2C0,9,0.5,9.6,1.2,9.6h2.4
			v40.9H1.2c-0.6,0-1.2,0.5-1.2,1.2v7.2C0,59.5,0.5,60,1.2,60h7.2c0.6,0,1.2-0.5,1.2-1.2v-2.4h42c0.6,0,1.2-0.5,1.2-1.2
			S52.2,54,51.6,54h-42v-2.4c0-0.6-0.5-1.2-1.2-1.2H6V9.6h2.4C9,9.6,9.6,9,9.6,8.4V6h40.9v2.4c0,0.6,0.5,1.2,1.2,1.2H54v42
			c0,0.6,0.5,1.2,1.2,1.2s1.2-0.5,1.2-1.2v-42h2.4C59.5,9.6,60,9,60,8.4V1.2C60,0.5,59.5,0,58.8,0z M7.2,57.7H2.3v-4.9h4.9V57.7z
			 M7.2,7.2H2.3V2.3h4.9V7.2z M57.7,7.2h-4.9V2.3h4.9V7.2z"/>
		<path d="M10.8,48.1c0,0.6,0.5,1.2,1.2,1.2H23c0.6,0,1.2-0.5,1.2-1.2V11.9c0-0.6-0.5-1.2-1.2-1.2H11.9c-0.6,0-1.2,0.5-1.2,1.2v12.8
			c0,0.6,0.5,1.2,1.2,1.2c0.6,0,1.2-0.5,1.2-1.2V13.1h8.7v33.8h-8.7V35.3c0-0.6-0.5-1.2-1.2-1.2c-0.6,0-1.2,0.5-1.2,1.2L10.8,48.1z"
			/>
		<path d="M49.2,11.9c0-0.6-0.5-1.2-1.2-1.2H28.9c-0.6,0-1.2,0.5-1.2,1.2v13c0,0.6,0.5,1.2,1.2,1.2h19.2c0.6,0,1.2-0.5,1.2-1.2V11.9
			z M46.9,23.7H30.1V13.1h16.8V23.7z"/>
		<path d="M49.2,30.6c0-0.6-0.5-1.2-1.2-1.2H28.9c-0.6,0-1.2,0.5-1.2,1.2v5.9c0,0.6,0.5,1.2,1.2,1.2h19.2c0.6,0,1.2-0.5,1.2-1.2
			V30.6z M46.9,35.3H30.1v-3.6h16.8V35.3z"/>
		<path d="M48.1,41H28.9c-0.6,0-1.2,0.5-1.2,1.2v5.9c0,0.6,0.5,1.2,1.2,1.2h19.2c0.6,0,1.2-0.5,1.2-1.2v-5.9
			C49.2,41.5,48.7,41,48.1,41z M46.9,46.9H30.1v-3.6h16.8V46.9z"/>
		<path d="M11.9,31.2c0.6,0,1.2-0.5,1.2-1.2s-0.5-1.2-1.2-1.2c-0.6,0-1.2,0.5-1.2,1.2v0C10.8,30.7,11.3,31.2,11.9,31.2z"/>
	</g>
</g>
</svg>
