<?xml version="1.0" encoding="utf-8"?>
<!-- Generator: Adobe Illustrator 24.0.3, SVG Export Plug-In . SVG Version: 6.00 Build 0)  -->
<svg version="1.1" id="Capa_1" xmlns="http://www.w3.org/2000/svg" xmlns:xlink="http://www.w3.org/1999/xlink" x="0px" y="0px"
	 viewBox="0 0 60 60" style="enable-background:new 0 0 60 60;" xml:space="preserve">
<style type="text/css">
	.st0{fill:#000002;}
</style>
<path class="st0" d="M58.9,60H1.1C0.5,60,0,59.5,0,58.9V1.1C0,0.5,0.5,0,1.1,0h57.9C59.5,0,60,0.5,60,1.1v57.9
	C60,59.5,59.5,60,58.9,60z M44.9,57.9h13v-13L45.8,56.9c0,0,0,0,0,0c0,0,0,0,0,0L44.9,57.9z M28.3,57.9h13.6l1.7-1.7l-6.8-6.8
	L28.3,57.9z M12.7,57.9h12.5l18.5-18.5l-6.2-6.2L17.8,52.8l0,0L12.7,57.9z M2.1,57.9h7.6l5.9-5.9L9,45.5l-6.9,6.9V57.9z M38.2,47.9
	l6.8,6.8l12.8-12.8V28.3L46,40.1l0,0L38.2,47.9z M10.5,43.9l6.6,6.6l32.7-32.7l-6.6-6.6L30.4,24.1c0,0,0,0,0,0L10.5,43.9z M2.1,35
	v14.3l6.1-6.1c0,0,0,0,0,0c0,0,0,0,0,0l19.9-19.9l-7-7L2.1,35z M39,31.6l6.2,6.2l12.5-12.5c0,0,0,0,0,0V12.7L39,31.6z M2.1,17.6V32
	l8.4-8.3l-7.2-7.2L2.1,17.6z M4.9,15l7.2,7.2l20.3-20H18.5L4.9,15z M22.7,14.8l7,7L49.3,2.1H35.5L22.7,14.8z M44.8,9.7l6.6,6.6
	l6.5-6.5V2.1h-5.5L44.8,9.7z M2.1,2.1v12.5l0.4-0.4c0,0,0-0.1,0.1-0.1c0,0,0.1-0.1,0.1-0.1l12.7-12H2.1z"/>
</svg>
