<?xml version="1.0" encoding="utf-8"?>
<!-- Generator: Adobe Illustrator 24.0.3, SVG Export Plug-In . SVG Version: 6.00 Build 0)  -->
<svg version="1.1" id="Calque_1" xmlns="http://www.w3.org/2000/svg" xmlns:xlink="http://www.w3.org/1999/xlink" x="0px" y="0px"
	 viewBox="0 0 60 60" style="enable-background:new 0 0 60 60;" xml:space="preserve">
<g id="Page-1">
	<g id="_x30_07---Pipe">
		<path id="Shape" d="M58,54.2V20c0-9.9-8.1-18-18-18s-18,8.1-18,18v2.2c-1.2,0.4-2,1.5-2,2.8v10c0,1.3,0.8,2.4,2,2.8V40
			c0,1.1-0.9,2-2,2s-2-0.9-2-2V5.8c1.4-0.5,2.2-1.9,2-3.3C19.7,1,18.5,0,17,0H3C1.5,0,0.3,1,0,2.5s0.6,2.8,2,3.3V40
			c0,9.9,8.1,18,18,18s18-8.1,18-18v-2.2c1.2-0.4,2-1.5,2-2.8V25c0-1.3-0.8-2.4-2-2.8V20c0-1.1,0.9-2,2-2s2,0.9,2,2v34.2
			c-1.4,0.5-2.2,1.9-2,3.3c0.2,1.4,1.5,2.5,3,2.5h14c1.5,0,2.7-1,3-2.5S59.4,54.7,58,54.2z M3,2h14c0.6,0,1,0.4,1,1s-0.4,1-1,1H3
			C2.4,4,2,3.6,2,3S2.4,2,3,2z M20,56c-8.8,0-16-7.2-16-16V6h12v34c0,2.2,1.8,4,4,4s4-1.8,4-4v-2h12v2C36,48.8,28.8,56,20,56z
			 M38,35c0,0.6-0.4,1-1,1H23c-0.6,0-1-0.4-1-1V25c0-0.6,0.4-1,1-1h14c0.6,0,1,0.4,1,1V35z M40,16c-2.2,0-4,1.8-4,4v2H24v-2
			c0-8.8,7.2-16,16-16s16,7.2,16,16v34H44V20C44,17.8,42.2,16,40,16z M57,58H43c-0.6,0-1-0.4-1-1s0.4-1,1-1h14c0.6,0,1,0.4,1,1
			S57.6,58,57,58z"/>
		<path id="Shape_1_" d="M7,8C6.4,8,6,8.4,6,9v2c0,0.6,0.4,1,1,1s1-0.4,1-1V9C8,8.4,7.6,8,7,8z"/>
		<path id="Shape_2_" d="M7,14c-0.6,0-1,0.4-1,1v14c0,0.6,0.4,1,1,1s1-0.4,1-1V15C8,14.4,7.6,14,7,14z"/>
	</g>
</g>
</svg>
