<?xml version="1.0" encoding="utf-8"?>
<!-- Generator: Adobe Illustrator 24.0.3, SVG Export Plug-In . SVG Version: 6.00 Build 0)  -->
<svg version="1.1" id="Capa_1" xmlns="http://www.w3.org/2000/svg" xmlns:xlink="http://www.w3.org/1999/xlink" x="0px" y="0px"
	 viewBox="0 0 60 60" style="enable-background:new 0 0 60 60;" xml:space="preserve">
<g>
	<g>
		<path d="M59.7,3L57,0.3c-0.4-0.4-1-0.4-1.4,0l-8.2,8.2c-0.4,0.4-0.4,1,0,1.4l2.7,2.7c0.2,0.2,0.4,0.3,0.7,0.3s0.5-0.1,0.7-0.3
			l8.2-8.2C60.1,4,60.1,3.4,59.7,3z M50.8,10.5l-1.3-1.3l6.8-6.8l1.3,1.3L50.8,10.5z"/>
	</g>
</g>
<g>
	<g>
		<path d="M52.2,11.8l-4-4c-1.2-1.2-3.1-1.2-4.2,0l-1.3,1.3c-0.2,0.2-0.3,0.4-0.3,0.7c0,0.3,0.1,0.5,0.3,0.7l6.8,6.8
			c0.2,0.2,0.4,0.3,0.7,0.3c0.3,0,0.5-0.1,0.7-0.3l1.3-1.3C53.3,14.9,53.3,13,52.2,11.8z M50.7,14.7l-0.6,0.6l-5.4-5.4l0.6-0.6
			c0.4-0.4,1-0.4,1.4,0l4,4C51.1,13.6,51.1,14.3,50.7,14.7z"/>
	</g>
</g>
<g>
	<g>
		<path d="M51.3,16.5l-7.8-7.8C42,7.1,40,6.3,37.8,6.3c-2.1,0-4.1,0.8-5.7,2.3l-6,6c-0.2,0.2-0.3,0.4-0.3,0.7s0.1,0.5,0.3,0.7
			L44,33.8c0.2,0.2,0.5,0.3,0.7,0.3c0.3,0,0.5-0.1,0.7-0.3l6-6C54.5,24.7,54.5,19.6,51.3,16.5z M49.9,26.4l-5.3,5.3L28.3,15.3
			l5.3-5.3c1.1-1.1,2.6-1.8,4.2-1.8c1.6,0,3.1,0.6,4.2,1.8l7.8,7.8C52.3,20.2,52.3,24,49.9,26.4z"/>
	</g>
</g>
<g>
	<g>
		<path d="M43.3,13.9l-2.7-2.7c-1.5-1.5-4-1.5-5.5,0l-2.7,2.7c-0.4,0.4-0.4,1,0,1.4c0.4,0.4,1,0.4,1.4,0l2.7-2.7
			c0.7-0.7,1.9-0.7,2.7,0l2.7,2.7c0.2,0.2,0.5,0.3,0.7,0.3c0.3,0,0.5-0.1,0.7-0.3C43.7,15,43.7,14.3,43.3,13.9z"/>
	</g>
</g>
<g>
	<g>
		<path d="M12.6,50.1l-2.7-2.7c-0.2-0.2-0.4-0.3-0.7-0.3c-0.3,0-0.5,0.1-0.7,0.3l-8.2,8.2c-0.4,0.4-0.4,1,0,1.4L3,59.7
			C3.2,59.9,3.5,60,3.7,60c0.3,0,0.5-0.1,0.7-0.3l8.2-8.2C13,51.1,13,50.5,12.6,50.1z M3.7,57.6l-1.3-1.3l6.8-6.8l1.3,1.3L3.7,57.6z
			"/>
	</g>
</g>
<g>
	<g>
		<path d="M17.4,49.4l-6.8-6.8c-0.2-0.2-0.4-0.3-0.7-0.3s-0.5,0.1-0.7,0.3l-1.3,1.3c-1.2,1.2-1.2,3.1,0,4.2l4,4
			c0.6,0.6,1.4,0.9,2.1,0.9s1.5-0.3,2.1-0.9l1.3-1.3c0.2-0.2,0.3-0.4,0.3-0.7C17.7,49.9,17.6,49.6,17.4,49.4z M14.7,50.7
			c-0.4,0.4-1,0.4-1.4,0l-4-4c-0.4-0.4-0.4-1,0-1.4l0.6-0.6l5.4,5.4L14.7,50.7z"/>
	</g>
</g>
<g>
	<g>
		<path d="M35.1,42.6L17.4,24.9c-0.4-0.4-1-0.4-1.4,0l-7.3,7.3c-3.1,3.1-3.1,8.2,0,11.3l7.8,7.8c1.5,1.5,3.5,2.3,5.7,2.3
			s4.1-0.8,5.7-2.3l7.3-7.3C35.5,43.6,35.5,43,35.1,42.6z M26.4,49.9c-1.1,1.1-2.6,1.8-4.2,1.8c-1.6,0-3.1-0.6-4.2-1.8l-7.8-7.8
			c-2.3-2.3-2.3-6.1,0-8.5l6.6-6.6L33,43.3L26.4,49.9z"/>
	</g>
</g>
<g>
	<g>
		<path d="M29,21.4c-1.1-1.1-3-1.1-4.1,0l-6.1,6.1c-0.2,0.2-0.3,0.4-0.3,0.7s0.1,0.5,0.3,0.7l2.7,2.7c0.2,0.2,0.5,0.3,0.7,0.3
			s0.5-0.1,0.7-0.3l6.1-6.1c0.6-0.6,0.9-1.3,0.9-2.1C29.9,22.7,29.6,22,29,21.4z M27.6,24.2l-5.4,5.4l-1.3-1.3l5.4-5.4
			c0.4-0.4,1-0.4,1.3,0c0.2,0.2,0.3,0.4,0.3,0.7C27.9,23.8,27.8,24,27.6,24.2z"/>
	</g>
</g>
<g>
	<g>
		<path d="M38.6,31c-1.1-1.1-3-1.1-4.1,0l-6.1,6.1c-0.2,0.2-0.3,0.4-0.3,0.7c0,0.3,0.1,0.5,0.3,0.7l2.7,2.7c0.2,0.2,0.5,0.3,0.7,0.3
			c0.3,0,0.5-0.1,0.7-0.3l6.1-6.1C39.7,34,39.7,32.1,38.6,31z M37.1,33.7l-5.4,5.4l-1.3-1.3l5.4-5.4c0.4-0.4,1-0.4,1.3,0
			C37.5,32.8,37.5,33.4,37.1,33.7z"/>
	</g>
</g>
<g>
	<g>
		<path d="M29.7,42.6L17.4,30.3c-0.4-0.4-1-0.4-1.4,0l-5.5,5.5c-0.4,0.4-0.4,1,0,1.4l12.3,12.3c0.2,0.2,0.5,0.3,0.7,0.3
			c0.3,0,0.5-0.1,0.7-0.3l5.5-5.5C30.1,43.6,30.1,43,29.7,42.6z M23.5,47.3L12.6,36.5l4-4l10.9,10.9L23.5,47.3z"/>
	</g>
</g>
<g>
	<g>
		<path d="M22.9,41.2l-4.1-4.1c-0.4-0.4-1-0.4-1.4,0s-0.4,1,0,1.4l4.1,4.1c0.2,0.2,0.5,0.3,0.7,0.3s0.5-0.1,0.7-0.3
			C23.3,42.3,23.3,41.6,22.9,41.2z"/>
	</g>
</g>
</svg>
