<?xml version="1.0" encoding="utf-8"?>
<!-- Generator: Adobe Illustrator 24.0.3, SVG Export Plug-In . SVG Version: 6.00 Build 0)  -->
<svg version="1.1" id="Capa_1" xmlns="http://www.w3.org/2000/svg" xmlns:xlink="http://www.w3.org/1999/xlink" x="0px" y="0px"
	 viewBox="0 0 60 60" style="enable-background:new 0 0 60 60;" xml:space="preserve">
<style type="text/css">
	.st0{fill:#1D1D1B;stroke:#FFFFFF;stroke-miterlimit:10;}
</style>
<g>
	<path class="st0" d="M43.8,36.1L37.7,30l4.7-4.7l3.6,3.6c0.8,0.8,1.7,1.2,2.8,1.2s2-0.4,2.8-1.2l6.4-6.4c1.6-1.6,1.6-4.1,0-5.6
		L43.5,2.4c-1.6-1.6-4.1-1.6-5.6,0l-6.4,6.4c-1.6,1.6-1.6,4.1,0,5.6l3.6,3.6l-4.7,4.7l-6.1-6.1c1.3-4.2,0.1-8.7-3-11.8
		c-3.2-3.2-7.9-4.4-12.2-2.9C8.7,2,8.2,2.4,8.1,3C7.9,3.6,8,4.1,8.4,4.6l4.7,6.1l-2.7,2.7L4.3,8.6c-0.4-0.4-1-0.5-1.6-0.3
		c-0.5,0.2-1,0.6-1.2,1.1c-1.5,4.4-0.4,9,2.9,12.2c3.1,3.1,7.7,4.3,11.8,3l6.1,6.1l-6.2,6.2c-0.3-0.3-0.8-0.5-1.2-0.5
		c-0.5,0-0.9,0.2-1.2,0.5L3,47.8c-1.4,1.3-2,3-2,4.8s0.7,3.5,2,4.8l0,0c1.3,1.3,3,1.9,4.7,1.9s3.5-0.7,4.8-2l10.9-10.9
		c0.7-0.7,0.7-1.7,0-2.4l0,0l6.2-6.2l6.1,6.1c-1.3,4.2-0.1,8.7,3,11.8c2.3,2.3,5.3,3.5,8.4,3.5c1.3,0,2.6-0.2,3.9-0.7
		c0.5-0.2,1-0.6,1.1-1.2c0.2-0.5,0.1-1.1-0.3-1.6l-4.7-6.1l2.7-2.7l6.1,4.7c0.4,0.4,1,0.5,1.6,0.3c0.5-0.2,1-0.6,1.2-1.1
		c1.5-4.4,0.4-9-2.9-12.2C52.6,36,48,34.8,43.8,36.1L43.8,36.1z M33.8,11.6c0-0.1,0-0.3,0.2-0.4l6.4-6.4c0.1-0.1,0.3-0.2,0.4-0.2
		s0.3,0,0.4,0.2l14.4,14.4c0.1,0.1,0.2,0.3,0.2,0.4c0,0.1,0,0.3-0.2,0.4l-6.4,6.4c-0.1,0.1-0.3,0.2-0.4,0.2s-0.3,0-0.4-0.2L33.9,12
		C33.8,11.9,33.8,11.7,33.8,11.6z M18,21.4c-0.5-0.5-1.2-0.7-1.8-0.4c-3.2,1.3-6.8,0.6-9.2-1.8c-1.6-1.6-2.5-3.9-2.5-6.2l5,4
		c0.7,0.5,1.6,0.5,2.2-0.1l4.8-4.8c0.6-0.6,0.7-1.6,0.1-2.2l-4-5c2.3-0.1,4.6,0.8,6.2,2.5c2.4,2.4,3.2,6,1.8,9.2
		c-0.3,0.7-0.1,1.4,0.4,1.8l6.9,6.9l-3.2,3.2L18,21.4z M10.2,55.1c-1.4,1.4-3.5,1.4-4.8,0c-0.7-0.7-1-1.5-1-2.4s0.4-1.7,1-2.4
		l9.6-9.6l4.8,4.8L10.2,55.1z M18.6,39.4l18.9-18.9l2.4,2.4L21.1,41.8L18.6,39.4z M55.8,47.7l-5-4c-0.7-0.5-1.6-0.5-2.2,0.1
		l-4.8,4.8c-0.6,0.6-0.7,1.6-0.1,2.2l4,5c-2.3,0.1-4.6-0.8-6.2-2.5c-2.4-2.4-3.2-6-1.8-9.2c0.3-0.7,0.1-1.4-0.4-1.8l-6.9-6.9
		l3.2-3.2l6.9,6.9c0.5,0.5,1.2,0.7,1.8,0.4c3.2-1.3,6.8-0.6,9.2,1.8C54.9,43.1,55.8,45.4,55.8,47.7L55.8,47.7z"/>
</g>
</svg>
