<?xml version="1.0" encoding="utf-8"?>
<!-- Generator: Adobe Illustrator 24.0.3, SVG Export Plug-In . SVG Version: 6.00 Build 0)  -->
<svg version="1.1" id="Calque_1" xmlns="http://www.w3.org/2000/svg" xmlns:xlink="http://www.w3.org/1999/xlink" x="0px" y="0px"
	 viewBox="0 0 60 31.3" style="enable-background:new 0 0 60 31.3;" xml:space="preserve">
<title>Combined Shape</title>
<g id="Page-1">
	<g id="Personnal-view-" transform="translate(-1336.000000, -1636.000000)">
		<path id="Combined-Shape" d="M1366.5,1636.2L1366.5,1636.2L1366.5,1636.2L1366.5,1636.2l9.1,0l0,0l0,0l0,0h5.3
			c1.6,0,3.2,0.5,4.4,1.5c0.6,0.5,1.1,1.2,1.5,2l0,0.1l9.6,22.3l0,0c0,0,0,0,0,0c0,0.1,0.1,0.2,0.1,0.3l0,0v3.2
			c0,0.6-0.3,1.1-0.8,1.3c-0.5,0.2-1.1,0.1-1.5-0.3c-1.3-1.2-2.8-2-4.6-2.2c-0.1,0-0.1,0-0.2,0h-2l-1,0.2l0,0
			c-1.7,0.4-3.1,1.3-4.3,2.5c-0.3,0.3-0.6,0.5-1,0.5s-0.8-0.2-1-0.5c-1.6-1.8-3.9-2.8-6.3-2.8c-2.4,0-4.6,1-6.2,2.8
			c-0.3,0.3-0.6,0.5-1,0.5c-0.4,0-0.8-0.2-1-0.5c-1.6-1.8-3.9-2.8-6.3-2.8c-2.4,0-4.7,1-6.3,2.8c-0.3,0.3-0.6,0.5-1,0.5
			s-0.8-0.2-1-0.5c-1.6-1.8-3.9-2.8-6.3-2.8c-2.2,0-4.2,0.8-5.8,2.3c-0.4,0.4-1,0.5-1.5,0.3c-0.5-0.2-0.8-0.7-0.8-1.2l0,0v-3.2
			c0-0.1,0-0.2,0.1-0.4l0,0l0,0l0,0l0,0l3.4-7.9l0,0l0,0l0,0l6.2-14.4c0.4-0.8,0.9-1.5,1.5-2c0,0,0,0,0,0c0.5-0.4,1-0.7,1.5-0.9
			c0.1-0.1,0.3-0.1,0.4-0.1l0.8-0.3l1.4-0.1l1-0.1c0.1,0,0.1,0,0.2,0l0,0l0.4,0l0,0l0,0l3.8,0c0,0,0,0,0,0l0,0L1366.5,1636.2
			C1366.5,1636.2,1366.5,1636.2,1366.5,1636.2z M1381.8,1662.9l-0.1,0.1l0,0c0,0,0,0,0,0l0,0c-0.1,0.1-0.7,0.5-1.2,0.1
			c0,0-2.3-3.3-6.7-3.3c-2.6,0-5,1.2-6.6,3.2c0,0,0,0,0,0c0,0,0,0,0,0c0,0,0,0,0,0c0,0,0,0,0,0c-0.2,0.1-0.3,0.2-0.6,0.2
			c-0.2,0-0.4-0.1-0.6-0.2c0,0,0,0-0.1-0.1c0,0,0,0,0,0c-1.9-2.2-4.2-3.2-6.6-3.2c-2.6,0-5,1.1-6.6,3.1c-0.2,0.2-0.5,0.4-0.8,0.3
			c-0.4-0.1-0.5-0.3-0.6-0.3c-3.3-4-9.4-4.2-12.9-0.4l-0.1,0.1v2.1c1.8-1.5,4.1-2.3,6.4-2.3c2.7,0,5.4,1.1,7.3,3
			c1.9-1.9,4.5-3,7.3-3c2.7,0,5.4,1.1,7.3,3c1.9-1.9,4.5-3,7.3-3c2.7,0,5.4,1.1,7.3,3c1.4-1.4,3.1-2.3,4.9-2.8c0.1,0,0.1,0,0.2,0
			l0,0l1.3-0.2h1.2l0.9,0.1c0.1,0,0.2,0,0.3,0c1.8,0.3,3.4,1,4.8,2.1l0.1,0.1v-2.1C1391.5,1659.1,1385.6,1658.6,1381.8,1662.9z
			 M1347.1,1652.6c-2.1,0-4.1,0.9-5.5,2.4l0,0.1l-1.9,4.4c3.7-2.1,8.4-1.6,11.7,1.2l0.1,0.1l1.2-5.6
			C1351.2,1653.5,1349.2,1652.6,1347.1,1652.6z M1385.9,1652.6c-2.1,0-4.1,0.9-5.5,2.4l0,0.1l1.2,5.6c3.3-2.9,8-3.3,11.7-1.3
			l0.1,0.1l-1.9-4.4C1390,1653.5,1388,1652.6,1385.9,1652.6z M1360,1652.6c-2.1,0-4.1,0.9-5.6,2.4l0,0.1l-1,4.8
			c1.7-1.2,3.7-1.8,5.8-1.8c2.3,0,4.5,0.8,6.3,2.2l0.1,0.1v-5.3C1364.2,1653.5,1362.2,1652.6,1360,1652.6z M1373,1652.6
			c-2.1,0-4.1,0.9-5.5,2.4l0,0.1v5.3c1.8-1.4,4-2.2,6.4-2.2c2.1,0,4.1,0.6,5.8,1.8l0.1,0.1l-1-4.8
			C1377.2,1653.5,1375.1,1652.6,1373,1652.6z M1349.6,1645.3c-1.8,0-3.5,0.8-4.7,2.1l0,0.1l-1.9,4.4c1.3-0.6,2.7-1,4.2-1
			c2.2,0,4.3,0.8,5.9,2.1l0.1,0.1l1.2-5.7C1353.1,1646,1351.4,1645.3,1349.6,1645.3z M1383.4,1645.3c-1.8,0-3.4,0.7-4.6,2l0,0.1
			l1.2,5.7c1.7-1.4,3.8-2.2,6-2.2c1.4,0,2.8,0.3,4.1,0.9l0.1,0l-1.9-4.4C1387,1646.1,1385.2,1645.3,1383.4,1645.3z M1360.9,1645.3
			c-1.8,0-3.5,0.8-4.7,2.1l0,0.1l-1,4.9c1.5-0.9,3.2-1.4,5-1.4c2,0,3.9,0.6,5.5,1.8l0.1,0.1v-5.3
			C1364.4,1646,1362.7,1645.3,1360.9,1645.3z M1372.1,1645.3c-1.8,0-3.5,0.7-4.7,2l0,0.1v5.3c1.6-1.2,3.5-1.9,5.6-1.9
			c1.8,0,3.5,0.5,4.9,1.4l0.1,0l-1-4.9C1375.7,1646.1,1374,1645.3,1372.1,1645.3z M1380.9,1638h-4.2l1.6,7.3
			c1.4-1.2,3.2-1.8,5.1-1.8c1.2,0,2.3,0.2,3.3,0.7l0.1,0l-1.6-3.8c-0.2-0.5-0.6-1-1-1.4C1383.2,1638.4,1382.1,1638,1380.9,1638z
			 M1353.1,1638l-1.2,0.1l-1.7,0.3c-0.1,0-0.1,0.1-0.2,0.1c-0.1,0.1-0.3,0.1-0.4,0.2l-0.1,0c-0.2,0.1-0.3,0.2-0.5,0.3l0,0
			c-0.1,0.1-0.2,0.1-0.2,0.1c-0.4,0.3-0.8,0.8-1,1.3l0,0.1l-1.6,3.8c1.1-0.5,2.2-0.7,3.4-0.7c1.9,0,3.6,0.6,5.1,1.7l0.1,0.1l1.6-7.3
			h-3.1C1353.1,1638,1353.1,1638,1353.1,1638z M1374.9,1638h-7.5v7.1c1.4-1,3-1.5,4.8-1.5c1.5,0,2.9,0.4,4.1,1.1l0.1,0L1374.9,1638z
			 M1365.6,1638h-7.5l-1.4,6.7c1.2-0.7,2.7-1.1,4.2-1.1c1.7,0,3.3,0.5,4.7,1.5l0.1,0V1638z"/>
	</g>
</g>
</svg>
