<?xml version="1.0" encoding="utf-8"?>
<!-- Generator: Adobe Illustrator 24.0.3, SVG Export Plug-In . SVG Version: 6.00 Build 0)  -->
<svg version="1.1" id="Calque_1" xmlns="http://www.w3.org/2000/svg" xmlns:xlink="http://www.w3.org/1999/xlink" x="0px" y="0px"
	 viewBox="0 0 60 70.3" style="enable-background:new 0 0 60 70.3;" xml:space="preserve">
<title>secure-shield</title>
<g id="Page-1">
	<g id="Join-ossito-view-" transform="translate(-1540.000000, -500.000000)">
		<g id="secure-shield" transform="translate(1540.000000, 500.000000)">
			<path id="Shape" d="M58.9,11.7C49.2,9,39.5,4.9,30.8-0.3c-0.5-0.3-1-0.3-1.5,0C20.3,5,11,8.9,1.1,11.7C0.4,11.8,0,12.4,0,13.1
				v15.1C0,43.8,7.2,54.1,13.2,60c6.5,6.4,14,9.9,16.8,9.9c2.7,0,10.3-3.5,16.8-9.9c6-5.9,13.2-16.2,13.2-31.8V13.1
				C60,12.4,59.6,11.8,58.9,11.7z M57,28.2c0,14.5-6.7,24.2-12.3,29.7c-6.4,6.3-13.2,9-14.7,9s-8.3-2.8-14.7-9
				C9.7,52.4,3,42.8,3,28.2v-14c9.5-2.7,18.4-6.5,27-11.5c8.4,4.9,17.7,8.9,27,11.5V28.2z"/>
			<path id="Shape_1_" d="M19.9,31.7c-0.9-0.9-2.1-1.4-3.4-1.4s-2.5,0.5-3.4,1.4c-1.9,1.9-1.9,4.9,0,6.8l8.7,8.7
				c0.9,0.9,2.1,1.4,3.4,1.4s2.5-0.5,3.4-1.4L46.9,29c1.9-1.9,1.9-4.9,0-6.8c-0.9-0.9-2.1-1.4-3.4-1.4c-1.3,0-2.5,0.5-3.4,1.4
				L25.2,37L19.9,31.7z M42.2,24.3c0.3-0.3,0.8-0.5,1.3-0.5c0.5,0,1,0.2,1.3,0.5c0.7,0.7,0.7,1.9,0,2.6L26.6,45.1
				c-0.3,0.3-0.8,0.5-1.3,0.5c-0.5,0-1-0.2-1.3-0.5l-8.7-8.7c-0.7-0.7-0.7-1.9,0-2.6c0.3-0.3,0.8-0.5,1.3-0.5c0.5,0,1,0.2,1.3,0.5
				l6.4,6.4c0.3,0.3,0.7,0.4,1,0.4c0.4,0,0.8-0.2,1-0.4L42.2,24.3z"/>
		</g>
	</g>
</g>
</svg>
