<?xml version="1.0" encoding="utf-8"?>
<!-- Generator: Adobe Illustrator 24.0.3, SVG Export Plug-In . SVG Version: 6.00 Build 0)  -->
<svg version="1.1" id="Calque_1" xmlns="http://www.w3.org/2000/svg" xmlns:xlink="http://www.w3.org/1999/xlink" x="0px" y="0px"
	 viewBox="0 0 60 60" style="enable-background:new 0 0 60 60;" xml:space="preserve">
<title>Combined Shape</title>
<g id="Page-1">
	<g id="Home-" transform="translate(-1500.000000, -591.000000)">
		<path id="Combined-Shape" d="M1553.1,646c0.3,0,0.6,0.1,0.9,0.4c1.3,1.4,3,2.2,4.9,2.2c0.6,0,1.2,0.5,1.2,1.2
			c0,0.7-0.5,1.2-1.2,1.2c-2.1,0-4.2-0.8-5.8-2.2c-1.6,1.4-3.7,2.2-5.8,2.2c-2.1,0-4.2-0.8-5.8-2.2c-1.6,1.4-3.7,2.2-5.8,2.2
			c-2.1,0-4.2-0.8-5.8-2.2c-1.6,1.4-3.7,2.2-5.8,2.2c-2.1,0-4.2-0.8-5.8-2.2c-1.6,1.4-3.7,2.2-5.8,2.2c-2.1,0-4.2-0.8-5.8-2.2
			c-1.6,1.4-3.7,2.2-5.8,2.2c-0.6,0-1.2-0.5-1.2-1.2c0-0.7,0.5-1.2,1.2-1.2c1.9,0,3.6-0.8,4.9-2.2c0.2-0.2,0.5-0.4,0.9-0.4
			s0.6,0.1,0.9,0.4c1.3,1.4,3,2.2,4.9,2.2s3.6-0.8,4.9-2.2c0.2-0.2,0.5-0.4,0.9-0.4c0.3,0,0.6,0.1,0.9,0.4c1.3,1.4,3,2.2,4.9,2.2
			s3.6-0.8,4.9-2.2c0.2-0.2,0.5-0.4,0.9-0.4s0.6,0.1,0.9,0.4c1.3,1.4,3,2.2,4.9,2.2s3.6-0.8,4.9-2.2c0.2-0.2,0.5-0.4,0.9-0.4
			s0.6,0.1,0.9,0.4c1.3,1.4,3,2.2,4.9,2.2c1.9,0,3.6-0.8,4.9-2.2C1552.4,646.1,1552.7,646,1553.1,646z M1534.9,591L1534.9,591
			c0.1,0,0.2,0,0.4,0l0.1,0h23.6c0.6,0,1.1,0.5,1.2,1.1l0,0.1v17.4c0,4.4-2,8.4-5.5,11l-0.2,0.1V635c0,1.4,0.7,2.4,1.3,2.9
			c0.8,0.8,2,1.1,3.1,1c0.6-0.1,1.2,0.4,1.3,1.1c0.1,0.6-0.4,1.2-1.1,1.3c-0.2,0-0.4,0-0.6,0c-1.6,0-3.1-0.6-4.3-1.7
			c-1.3-1.2-2-2.7-2-4.5l0-0.2v-20.4c0-1.1-0.9-2-1.9-2l-0.1,0h-5.2v12.7c0,0.6-0.5,1.2-1.2,1.2c-0.6,0-1.1-0.5-1.2-1.1l0-0.1v-12.7
			h-0.4c-1.1,0-2,0.9-2,1.9l0,0.1V635c0,2.6-1.5,4.8-4,5.8c-2.1,0.8-4.4,0.5-6.1-0.8c-1.7,1.3-4,1.6-6.1,0.8c-2.4-1-3.9-3.1-4-5.7
			l0-0.1v-20.4c0-1.1-0.9-2-1.9-2l-0.1,0h-0.4v12.7c0,0.6-0.5,1.2-1.2,1.2c-0.6,0-1.1-0.5-1.2-1.1l0-0.1v-12.7h-5.2
			c-1.1,0-2,0.9-2,1.9l0,0.1V635c0,1.8-0.7,3.4-2,4.6c-1.3,1.2-3.1,1.8-4.9,1.7c-0.6-0.1-1.1-0.6-1.1-1.3c0.1-0.6,0.6-1.1,1.3-1.1
			c1.1,0.1,2.3-0.3,3.1-1c0.6-0.5,1.2-1.4,1.2-2.8l0-0.1v-14.2c-3.5-2.6-5.6-6.6-5.6-11l0-0.2v-17.4c0-0.6,0.5-1.1,1.1-1.2l0.1,0
			H1534.9z M1511.7,634.1c0.7,0,1.2,0.5,1.3,1.1l0,0.1v4.5c0,0.6-0.6,1.2-1.3,1.2c-0.7,0-1.2-0.5-1.3-1.1l0-0.1v-4.5
			C1510.4,634.6,1511,634.1,1511.7,634.1z M1548.3,633c0.7,0,1.2,0.5,1.3,1.1l0,0.1v4.5c0,0.6-0.6,1.2-1.3,1.2
			c-0.7,0-1.2-0.5-1.3-1.1l0-0.1v-4.5C1547.1,633.6,1547.6,633,1548.3,633z M1524.4,593.5v-0.2l-22.1,0v8.5
			c2.5-3.7,6.8-6.2,11.6-6.2c7.7,0,13.9,6.2,13.9,13.9c0,4.3-2,8.4-5.5,11l-0.2,0.1V635c0,2,1.3,3.2,2.5,3.6
			c1.2,0.5,2.9,0.5,4.3-0.9c0-0.1,0.1-0.1,0.1-0.2c0.2-0.2,0.5-0.3,0.7-0.3l0.1,0h0c0.3,0,0.6,0.1,0.8,0.3c0.1,0,0.1,0.1,0.1,0.2
			c1.3,1.3,3.1,1.3,4.3,0.9c1.2-0.5,2.5-1.6,2.5-3.5l0-0.1v-14.2c-3.5-2.6-5.6-6.8-5.6-11.2c0-7.7,6.3-13.9,13.9-13.9
			c4.8,0,9,2.4,11.5,6.1l0.1,0.1v-8.5h-22.4c-0.1,0-0.3,0-0.4-0.1v0.3H1524.4z M1511.7,621.9c0.7,0,1.2,0.5,1.3,1.1l0,0.1v3.4
			c0,0.7-0.6,1.2-1.3,1.2c-0.7,0-1.2-0.5-1.3-1.1l0-0.1v-3.4C1510.4,622.4,1511,621.9,1511.7,621.9z M1548.3,620.8
			c0.7,0,1.2,0.5,1.3,1.1l0,0.1v3.4c0,0.7-0.6,1.2-1.3,1.2c-0.7,0-1.2-0.5-1.3-1.1l0-0.1V622
			C1547.1,621.4,1547.6,620.8,1548.3,620.8z M1513.9,598c-6.4,0-11.6,5.2-11.6,11.6c0,3,1.1,5.8,3.2,7.9l0.1,0.1v-3.1
			c0-0.5,0.1-1,0.2-1.4c-0.5-1.1-0.7-2.3-0.7-3.6c0-4.9,4-8.8,8.8-8.8s8.8,4,8.8,8.8c0,1.2-0.3,2.4-0.7,3.6c0.1,0.4,0.2,0.8,0.2,1.3
			l0,0.2v3.1c2.1-2.1,3.3-5,3.3-8.1C1525.5,603.2,1520.3,598,1513.9,598z M1546.1,598c-6.4,0-11.6,5.2-11.6,11.6
			c0,3,1.1,5.8,3.2,7.9l0.1,0.1v-3.1c0-0.5,0.1-1,0.2-1.4c-0.5-1.1-0.7-2.3-0.7-3.6c0-4.9,4-8.8,8.8-8.8s8.8,4,8.8,8.8
			c0,1.2-0.3,2.4-0.7,3.6c0.1,0.4,0.2,0.8,0.2,1.3l0,0.2v3.1c2.1-2.1,3.3-5,3.3-8.1C1557.7,603.2,1552.5,598,1546.1,598z
			 M1546.1,603.1c-3.6,0-6.5,2.9-6.5,6.5c0,0.5,0,0.9,0.1,1.3c0.6-0.4,1.4-0.7,2.2-0.7l0.1,0h7.9c0.9,0,1.7,0.3,2.4,0.7
			c0.1-0.4,0.1-0.9,0.1-1.3C1552.5,606,1549.6,603.1,1546.1,603.1z M1513.9,603.1c-3.6,0-6.5,2.9-6.5,6.5c0,0.5,0,0.9,0.1,1.3
			c0.6-0.4,1.4-0.7,2.2-0.7l0.1,0h7.9c0.9,0,1.7,0.3,2.4,0.7c0.1-0.4,0.1-0.9,0.1-1.3C1520.4,606,1517.5,603.1,1513.9,603.1z"/>
	</g>
</g>
</svg>
