<?xml version="1.0" encoding="utf-8"?>
<!-- Generator: Adobe Illustrator 24.0.3, SVG Export Plug-In . SVG Version: 6.00 Build 0)  -->
<svg version="1.1" id="Calque_1" xmlns="http://www.w3.org/2000/svg" xmlns:xlink="http://www.w3.org/1999/xlink" x="0px" y="0px"
	 viewBox="0 0 60 60" style="enable-background:new 0 0 60 60;" xml:space="preserve">
<title>solar-system</title>
<g id="Page-1">
	<g id="plan-view-" transform="translate(-1454.000000, -694.000000)">
		<g id="solar-system" transform="translate(1454.000000, 694.000000)">
			<path id="Shape" d="M43.7,40.4v1.1c0,1.1-0.5,2.1-1.2,2.9c-0.7,0.7-1.8,1.2-2.9,1.2c-0.5,0-1,0.2-1.4,0.6
				c-0.4,0.4-0.6,0.8-0.6,1.4v1.1h6.6c1,0,1.9,0.4,2.5,1s1,1.5,1,2.5s-0.4,1.9-1,2.5s-1.5,1-2.5,1H32.4c-0.6,0-1.1-0.5-1.1-1.1
				s0.5-1.1,1.1-1.1h11.8c0.4,0,0.7-0.2,1-0.4c0.3-0.3,0.4-0.6,0.4-1s-0.2-0.7-0.4-1c-0.3-0.3-0.6-0.4-1-0.4c-9.5,0-18.9,0-28.4,0
				c-0.4,0-0.7,0.2-1,0.4c-0.3,0.3-0.4,0.6-0.4,1s0.2,0.7,0.4,1c0.3,0.3,0.6,0.4,1,0.4h11.8c0.6,0,1.1,0.5,1.1,1.1s-0.5,1.1-1.1,1.1
				H15.8c-1,0-1.9-0.4-2.5-1s-1-1.5-1-2.5s0.4-1.9,1-2.5s1.5-1,2.5-1h6.6v-1.2c0-0.5-0.2-1-0.6-1.4s-0.8-0.6-1.4-0.6
				c-1.1,0-2.1-0.5-2.9-1.2c-0.7-0.7-1.2-1.8-1.2-2.9v-1.1H4.6c-1.3,0-2.4-0.5-3.2-1.3s-1.3-2-1.3-3.2v-1.3c0-0.6,0.5-1.1,1.1-1.1
				s1.1,0.5,1.1,1.1v1.4c0,0.7,0.3,1.3,0.7,1.7s1.1,0.7,1.7,0.7h27.9l0,0h22.9c0.7,0,1.3-0.3,1.7-0.7s0.7-1.1,0.7-1.7v-19
				c0-0.6,0.5-1.1,1.1-1.1s1.1,0.5,1.1,1.1v18.9c0,1.3-0.5,2.4-1.3,3.2s-2,1.3-3.2,1.3L43.7,40.4L43.7,40.4z M35.5,48.6v-1.1
				c0-1.1,0.5-2.1,1.2-2.9c0.7-0.7,1.8-1.2,2.9-1.2c0.5,0,1-0.2,1.4-0.6c0.4-0.4,0.6-0.8,0.6-1.4v-1.1h-8v8.2L35.5,48.6L35.5,48.6z
				 M18.5,40.4v1.1c0,0.5,0.2,1,0.6,1.4s0.8,0.6,1.4,0.6c1.1,0,2.1,0.5,2.9,1.2c0.7,0.7,1.2,1.8,1.2,2.9v1.1h2v-8.2L18.5,40.4
				L18.5,40.4z M7,10.6h5.8c0.7,0,1.4,0.3,1.9,0.8s0.8,1.2,0.8,1.9v1.6c0,0.7-0.3,1.4-0.8,1.9s-1.2,0.8-1.9,0.8H7
				c-0.7,0-1.4-0.3-1.9-0.8s-0.8-1.2-0.8-1.9v-1.6c0-0.7,0.3-1.4,0.8-1.9S6.3,10.6,7,10.6z M12.9,12.7H7c-0.2,0-0.3,0.1-0.4,0.2
				s-0.2,0.3-0.2,0.4v1.6c0,0.2,0.1,0.3,0.2,0.4c0.1,0.2,0.2,0.2,0.4,0.2h5.8c0.2,0,0.3-0.1,0.4-0.2c0.1-0.1,0.2-0.3,0.2-0.4v-1.6
				c0-0.2-0.1-0.3-0.2-0.4C13.2,12.8,13,12.7,12.9,12.7z M47.1,28.9H53c0.7,0,1.4,0.3,1.9,0.8s0.8,1.2,0.8,1.9v1.6
				c0,0.7-0.3,1.4-0.8,1.9s-1.2,0.8-1.9,0.8h-5.8c-0.7,0-1.4-0.3-1.9-0.8s-0.8-1.2-0.8-1.9v-1.6c0-0.7,0.3-1.4,0.8-1.9
				C45.7,29.3,46.4,28.9,47.1,28.9z M53,31.1h-5.8c-0.2,0-0.3,0.1-0.4,0.2c-0.1,0.1-0.2,0.3-0.2,0.4v1.6c0,0.2,0.1,0.3,0.2,0.4
				c0.1,0.1,0.3,0.2,0.4,0.2H53c0.2,0,0.3-0.1,0.4-0.2c0.1-0.1,0.2-0.3,0.2-0.4v-1.6c0-0.2-0.1-0.3-0.2-0.4
				C53.3,31.1,53.2,31.1,53,31.1z M47.1,19.8H53c0.7,0,1.4,0.3,1.9,0.8s0.8,1.2,0.8,1.9v1.6c0,0.7-0.3,1.4-0.8,1.9s-1.2,0.8-1.9,0.8
				h-5.8c-0.7,0-1.4-0.3-1.9-0.8s-0.8-1.2-0.8-1.9v-1.6c0-0.7,0.3-1.4,0.8-1.9C45.7,20.1,46.4,19.8,47.1,19.8z M53,21.9h-5.8
				c-0.2,0-0.3,0.1-0.4,0.2c-0.1,0.1-0.2,0.3-0.2,0.4v1.6c0,0.2,0.1,0.3,0.2,0.4c0.1,0.1,0.3,0.2,0.4,0.2H53c0.2,0,0.3-0.1,0.4-0.2
				c0.1-0.1,0.2-0.3,0.2-0.4v-1.6c0-0.2-0.1-0.3-0.2-0.4C53.3,22,53.2,21.9,53,21.9z M47.1,10.6H53c0.7,0,1.4,0.3,1.9,0.8
				s0.8,1.2,0.8,1.9v1.6c0,0.7-0.3,1.4-0.8,1.9s-1.2,0.8-1.9,0.8h-5.8c-0.7,0-1.4-0.3-1.9-0.8s-0.8-1.2-0.8-1.9v-1.6
				c0-0.7,0.3-1.4,0.8-1.9C45.7,10.9,46.4,10.6,47.1,10.6z M53,12.7h-5.8c-0.2,0-0.3,0.1-0.4,0.2c-0.1,0.1-0.2,0.3-0.2,0.4v1.6
				c0,0.2,0.1,0.3,0.2,0.4c0,0.2,0.2,0.2,0.3,0.2H53c0.2,0,0.3-0.1,0.4-0.2c0.1-0.1,0.2-0.3,0.2-0.4v-1.6c0-0.2-0.1-0.3-0.2-0.4
				S53.2,12.7,53,12.7z M33.8,28.9h5.8c0.7,0,1.4,0.3,1.9,0.8s0.8,1.2,0.8,1.9v1.6c0,0.7-0.3,1.4-0.8,1.9s-1.2,0.8-1.9,0.8h-5.8
				c-0.7,0-1.4-0.3-1.9-0.8c-0.5-0.5-0.8-1.2-0.8-1.9v-1.6c0-0.7,0.3-1.4,0.8-1.9C32.3,29.3,33,28.9,33.8,28.9z M39.6,31.1h-5.8
				c-0.2,0-0.3,0.1-0.4,0.2c-0.1,0.1-0.2,0.3-0.2,0.4v1.6c0,0.2,0.1,0.3,0.2,0.4c0.1,0.1,0.3,0.2,0.4,0.2h5.8c0.2,0,0.3-0.1,0.4-0.2
				c0.1-0.1,0.2-0.3,0.2-0.4v-1.6c0-0.2-0.1-0.3-0.2-0.4C39.9,31.1,39.8,31.1,39.6,31.1z M33.8,19.8h5.8c0.7,0,1.4,0.3,1.9,0.8
				s0.8,1.2,0.8,1.9v1.6c0,0.7-0.3,1.4-0.8,1.9s-1.2,0.8-1.9,0.8h-5.8c-0.7,0-1.4-0.3-1.9-0.8c-0.5-0.5-0.8-1.2-0.8-1.9v-1.6
				c0-0.7,0.3-1.4,0.8-1.9C32.3,20.1,33,19.8,33.8,19.8z M39.6,21.9h-5.8c-0.2,0-0.3,0.1-0.4,0.2c-0.1,0.1-0.2,0.3-0.2,0.4v1.6
				c0,0.2,0.1,0.3,0.2,0.4c0.1,0.1,0.3,0.2,0.4,0.2h5.8c0.2,0,0.3-0.1,0.4-0.2c0.1-0.1,0.2-0.3,0.2-0.4v-1.6c0-0.2-0.1-0.3-0.2-0.4
				C39.9,22,39.8,21.9,39.6,21.9z M33.8,10.6h5.8c0.7,0,1.4,0.3,1.9,0.8s0.8,1.2,0.8,1.9v1.6c0,0.7-0.3,1.4-0.8,1.9
				s-1.2,0.8-1.9,0.8h-5.8c-0.7,0-1.4-0.3-1.9-0.8c-0.5-0.5-0.8-1.2-0.8-1.9v-1.6c0-0.7,0.3-1.4,0.8-1.9
				C32.3,10.9,33,10.6,33.8,10.6z M39.6,12.7h-5.8c-0.2,0-0.3,0.1-0.4,0.2c-0.1,0.1-0.2,0.3-0.2,0.4v1.6c0,0.2,0.1,0.3,0.2,0.4
				c0.1,0.1,0.3,0.2,0.4,0.2h5.8c0.2,0,0.3-0.1,0.4-0.2c0.1-0.1,0.2-0.3,0.2-0.4v-1.6c0-0.2-0.1-0.3-0.2-0.4
				C39.9,12.8,39.8,12.7,39.6,12.7z M20.4,28.9h5.8c0.7,0,1.4,0.3,1.9,0.8s0.8,1.2,0.8,1.9v1.6c0,0.7-0.3,1.4-0.8,1.9
				s-1.2,0.8-1.9,0.8h-5.8c-0.7,0-1.4-0.3-1.9-0.8s-0.8-1.2-0.8-1.9v-1.6c0-0.7,0.3-1.4,0.8-1.9C19,29.3,19.6,28.9,20.4,28.9z
				 M26.2,31.1h-5.8c-0.2,0-0.3,0.1-0.4,0.2c-0.1,0.1-0.2,0.3-0.2,0.4v1.6c0,0.2,0.1,0.3,0.2,0.4c0.1,0.1,0.3,0.2,0.4,0.2h5.8
				c0.2,0,0.3-0.1,0.4-0.2c0.1-0.1,0.2-0.3,0.2-0.4v-1.6c0-0.2-0.1-0.3-0.2-0.4C26.5,31.1,26.4,31.1,26.2,31.1z M20.4,19.8h5.8
				c0.7,0,1.4,0.3,1.9,0.8s0.8,1.2,0.8,1.9v1.6c0,0.7-0.3,1.4-0.8,1.9s-1.2,0.8-1.9,0.8h-5.8c-0.7,0-1.4-0.3-1.9-0.8
				s-0.8-1.2-0.8-1.9v-1.6c0-0.7,0.3-1.4,0.8-1.9C19,20.1,19.6,19.8,20.4,19.8z M26.2,21.9h-5.8c-0.2,0-0.3,0.1-0.4,0.2
				c-0.1,0.1-0.2,0.3-0.2,0.4v1.6c0,0.2,0.1,0.3,0.2,0.4c0.1,0.1,0.3,0.2,0.4,0.2h5.8c0.2,0,0.3-0.1,0.4-0.2
				c0.1-0.1,0.2-0.3,0.2-0.4v-1.6c0-0.2-0.1-0.3-0.2-0.4C26.5,22,26.4,21.9,26.2,21.9z M20.4,10.6h5.8c0.7,0,1.4,0.3,1.9,0.8
				s0.8,1.2,0.8,1.9v1.6c0,0.7-0.3,1.4-0.8,1.9s-1.2,0.8-1.9,0.8h-5.8c-0.7,0-1.4-0.3-1.9-0.8s-0.8-1.2-0.8-1.9v-1.6
				c0-0.7,0.3-1.4,0.8-1.9C19,10.9,19.6,10.6,20.4,10.6z M26.2,12.7h-5.8c-0.2,0-0.3,0.1-0.4,0.2s-0.2,0.3-0.2,0.4v1.6
				c0,0.2,0.1,0.3,0.2,0.4s0.3,0.2,0.4,0.2h5.8c0.2,0,0.3-0.1,0.4-0.2s0.2-0.3,0.2-0.4v-1.6c0-0.2-0.1-0.3-0.2-0.4
				S26.4,12.7,26.2,12.7z M7,28.9h5.8c0.7,0,1.4,0.3,1.9,0.8s0.8,1.2,0.8,1.9v1.6c0,0.7-0.3,1.4-0.8,1.9s-1.2,0.8-1.9,0.8H7
				c-0.7,0-1.4-0.3-1.9-0.8s-0.8-1.2-0.8-1.9v-1.6c0-0.7,0.3-1.4,0.8-1.9C5.6,29.3,6.3,28.9,7,28.9z M12.9,31.1H7
				c-0.2,0-0.3,0.1-0.4,0.2c-0.1,0.1-0.2,0.3-0.2,0.4v1.6c0,0.2,0.1,0.3,0.2,0.4c0.1,0.1,0.3,0.2,0.4,0.2h5.8c0.2,0,0.3-0.1,0.4-0.2
				c0.1-0.1,0.2-0.3,0.2-0.4v-1.6c0-0.2-0.1-0.3-0.2-0.4C13.2,31.1,13,31.1,12.9,31.1z M7,19.8h5.8c0.7,0,1.4,0.3,1.9,0.8
				s0.8,1.2,0.8,1.9v1.6c0,0.7-0.3,1.4-0.8,1.9s-1.2,0.8-1.9,0.8H7c-0.7,0-1.4-0.3-1.9-0.8s-0.8-1.2-0.8-1.9v-1.6
				c0-0.7,0.3-1.4,0.8-1.9S6.3,19.8,7,19.8z M12.9,21.9H7c-0.2,0-0.3,0.1-0.4,0.2c-0.1,0.1-0.2,0.3-0.2,0.4v1.6
				c0,0.2,0.1,0.3,0.2,0.4c0.1,0.1,0.3,0.2,0.4,0.2h5.8c0.2,0,0.3-0.1,0.4-0.2c0.1-0.1,0.2-0.3,0.2-0.4v-1.6c0-0.2-0.1-0.3-0.2-0.4
				C13.2,22,13,21.9,12.9,21.9z M31.4,40.4h-2.8v8.2h2.8V40.4z M2.1,29.7c0,0.6-0.5,1.1-1.1,1.1s-1-0.5-1-1.1V10.8
				c0-1.3,0.5-2.5,1.3-3.3s2-1.3,3.2-1.3h50.8c1.3,0,2.4,0.5,3.2,1.3s1.3,2,1.3,3.2v1.4c0,0.6-0.5,1.1-1.1,1.1s-1.1-0.5-1.1-1.1
				v-1.4c0-0.7-0.3-1.3-0.7-1.7c-0.5-0.4-1.1-0.7-1.7-0.7H4.6C3.9,8.3,3.3,8.6,2.9,9c-0.4,0.4-0.7,1.1-0.7,1.7L2.1,29.7L2.1,29.7z"
				/>
		</g>
	</g>
</g>
</svg>
