<?xml version="1.0" encoding="utf-8"?>
<!-- Generator: Adobe Illustrator 24.0.3, SVG Export Plug-In . SVG Version: 6.00 Build 0)  -->
<svg version="1.1" id="Capa_1" xmlns="http://www.w3.org/2000/svg" xmlns:xlink="http://www.w3.org/1999/xlink" x="0px" y="0px"
	 viewBox="0 0 60 60" style="enable-background:new 0 0 60 60;" xml:space="preserve">
<path d="M59,50.8h-2.1v-2.1c0-0.8-0.4-1.4-1.1-1.8c0-0.1,0-0.2,0-0.3V23.7H58c0.4,0,0.7-0.2,0.9-0.5c0.2-0.3,0.2-0.7,0-1L49.5,7.7
	c-0.2-0.3-0.5-0.4-0.8-0.4H11.3c-0.3,0-0.6,0.2-0.8,0.4L1.2,22.2c-0.2,0.3-0.2,0.7,0,1c0.2,0.3,0.5,0.5,0.9,0.5h2.1v22.9
	c0,0.1,0,0.2,0,0.3c-0.6,0.3-1.1,1-1.1,1.8v2.1H1c-0.5,0-1,0.4-1,1c0,0.5,0.4,1,1,1H59c0.5,0,1-0.4,1-1C60,51.2,59.6,50.8,59,50.8z
	 M47.6,46.7v-8.4h2.2v8.4H47.6z M43.4,46.7v-8.4h2.2v8.4H43.4z M39.3,46.7v-8.4h2.2v8.4H39.3z M22.7,46.7V29.4l5.7-5.7h3.3l5.7,5.7
	v17.3H22.7z M18.5,46.7v-8.4h2.2v8.4H18.5z M14.4,46.7v-8.4h2.2v8.4H14.4z M10.2,46.7v-8.4h2.2v8.4H10.2z M6.1,46.7
	C6.1,46.6,6.1,46.6,6.1,46.7l0-8.4h2.2v8.4H6.1z M15.1,23.7l5.7,5.7v6.9H6.1v-6.9l5.7-5.7H15.1z M36,9.2l3.1,12.6H20.9L24,9.2H36z
	 M48.3,23.7l5.7,5.7v6.9H39.3v-6.9l5.7-5.7H48.3z M34.4,23.7h2.9v2.9L34.4,23.7z M39.3,26.6v-2.9h2.9L39.3,26.6z M22.7,26.6v-2.9
	h2.9L22.7,26.6z M20.7,23.7v2.9l-2.9-2.9H20.7z M51.7,38.2h2.2v8.4c0,0,0,0,0,0.1h-2.2V38.2z M53.9,26.6L51,23.7h2.9V26.6z
	 M56.2,21.8H41.1L38,9.2h10.1L56.2,21.8z M11.9,9.2H22l-3.1,12.6H3.8L11.9,9.2z M9,23.7l-2.9,2.9v-2.9H9z M5.1,48.7
	C5.1,48.6,5.1,48.6,5.1,48.7l49.8-0.1c0,0,0.1,0,0.1,0.1v2.1H5.1V48.7z"/>
</svg>
