<?xml version="1.0" encoding="utf-8"?>
<!-- Generator: Adobe Illustrator 24.0.3, SVG Export Plug-In . SVG Version: 6.00 Build 0)  -->
<svg version="1.1" id="Capa_1" xmlns="http://www.w3.org/2000/svg" xmlns:xlink="http://www.w3.org/1999/xlink" x="0px" y="0px"
	 viewBox="0 0 60 60" style="enable-background:new 0 0 60 60;" xml:space="preserve">
<g>
	<g>
		<path d="M58.9,0H41.6c-0.6,0-1.1,0.5-1.1,1.1s0.5,1.1,1.1,1.1h4.8v9.4h-21V2.2H38c0.6,0,1.1-0.5,1.1-1.1S38.6,0,38,0H1.1
			C0.5,0,0,0.5,0,1.1v11.6v11.6v11.6v11.6v11.6C0,59.5,0.5,60,1.1,60h57.8c0.6,0,1.1-0.5,1.1-1.1V1.1C60,0.5,59.5,0,58.9,0z
			 M36.8,13.7h21v9.4H43.8c-0.6,0-1.1,0.5-1.1,1.1s0.5,1.1,1.1,1.1h2.6v9.4h-21v-9.4h14.8c0.6,0,1.1-0.5,1.1-1.1
			c0-0.6-0.5-1.1-1.1-1.1h-3.3V13.7z M57.8,36.9v9.4h-21v-9.4H57.8z M34.7,13.7v9.4h-21v-9.4C13.6,13.7,34.7,13.7,34.7,13.7z
			 M2.2,2.2h21v9.4h-21V2.2z M2.2,13.7h9.3v9.4H2.2V13.7z M2.2,25.3h21v9.4h-21V25.3z M2.2,36.9h9.3v9.4H2.2V36.9z M23.2,57.8h-21
			v-9.4h15.7c0.6,0,1.1-0.5,1.1-1.1c0-0.6-0.5-1.1-1.1-1.1h-4.2v-9.4h21v9.4H21.5c-0.6,0-1.1,0.5-1.1,1.1c0,0.6,0.5,1.1,1.1,1.1h1.7
			L23.2,57.8L23.2,57.8z M46.4,57.8h-21v-9.4h21V57.8z M57.8,57.8h-9.3v-9.4h9.3V57.8z M57.8,34.7h-9.3v-9.4h9.3V34.7z M57.8,11.6
			h-9.3V2.2h9.3V11.6z"/>
	</g>
</g>
</svg>
