<?xml version="1.0" encoding="utf-8"?>
<!-- Generator: Adobe Illustrator 24.0.3, SVG Export Plug-In . SVG Version: 6.00 Build 0)  -->
<svg version="1.1" id="Calque_1" xmlns="http://www.w3.org/2000/svg" xmlns:xlink="http://www.w3.org/1999/xlink" x="0px" y="0px"
	 viewBox="0 0 60 60" style="enable-background:new 0 0 60 60;" xml:space="preserve">
<path d="M40.6,44.3c-0.4-0.3-0.9-0.2-1.2,0.1L36,48.6c-0.5,0.6,0,1.4,0.7,1.4c0.3,0,0.5-0.1,0.7-0.3l3.4-4.2
	C41,45.2,41,44.6,40.6,44.3z"/>
<path d="M45.5,42.2c-0.4-0.3-0.9-0.2-1.2,0.1l-3.4,4.2c-0.5,0.6,0,1.4,0.7,1.4c0.3,0,0.5-0.1,0.7-0.3l3.4-4.2
	C46,43.1,45.9,42.5,45.5,42.2z"/>
<path d="M13,49.6c0.2,0,0.5-0.1,0.7-0.3l4.6-5.3c0.3-0.4,0.3-0.9-0.1-1.2c-0.4-0.3-0.9-0.3-1.2,0.1l-4.6,5.3
	C11.9,48.7,12.3,49.6,13,49.6z"/>
<path d="M22.9,44.3c-0.4-0.3-0.9-0.2-1.2,0.1L20,46.5c-0.3,0.4-0.2,0.9,0.1,1.2c0.4,0.3,0.9,0.2,1.2-0.1l1.7-2.1
	C23.4,45.2,23.3,44.6,22.9,44.3z"/>
<path d="M51.1,46.4c-0.4-0.3-0.9-0.2-1.2,0.1l-1.7,2.1c-0.3,0.4-0.2,0.9,0.1,1.2c0.4,0.3,0.9,0.2,1.2-0.1l1.7-2.1
	C51.5,47.3,51.5,46.7,51.1,46.4z"/>
<path d="M13.6,42.7c-0.4-0.3-0.9-0.2-1.2,0.1l-1.7,2.1c-0.3,0.4-0.2,0.9,0.1,1.2c0.4,0.3,0.9,0.2,1.2-0.1l1.7-2.1
	C14,43.6,14,43,13.6,42.7z"/>
<path d="M58.8,0.4c-2,0-54.4,0-57.9,0C0.4,0.4,0,0.8,0,1.2v57.6c0,0.5,0.4,0.9,0.9,0.9h49.2c0.5,0,0.9-0.4,0.9-0.9
	c0-0.5-0.4-0.9-0.9-0.9H1.8V41.2h1.7v10.6c0,0.5,0.4,0.9,0.9,0.9h14.7c0.5,0,0.9-0.4,0.9-0.9c0-0.5-0.4-0.9-0.9-0.9H5.2v-9.7h1.7v3
	c0,0.5,0.4,0.9,0.9,0.9s0.9-0.4,0.9-0.9v-3h17.9v9.7h-4c-0.5,0-0.9,0.4-0.9,0.9c0,0.5,0.4,0.9,0.9,0.9h32.8c0.5,0,0.9-0.4,0.9-0.9
	V41.2h1.7V58h-4.3c-0.5,0-0.9,0.4-0.9,0.9c0,0.5,0.4,0.9,0.9,0.9h5.2c0.5,0,0.9-0.4,0.9-0.9c0-6.3,0-51,0-57.6
	C59.7,0.8,59.3,0.4,58.8,0.4z M6.9,39.4c-1.6,0-3.5,0-5.1,0c0-1.1,0-1.9,0-3.1h5.1V39.4z M6.9,34.5H1.8v-3.1h5.1V34.5z M6.9,29.7
	H1.8v-3.1h5.1V29.7z M6.9,24.8H1.8v-3.1h5.1V24.8z M6.9,19.9H1.8v-3.1h5.1V19.9z M6.9,15c-1.1,0-4,0-5.1,0v-3.1h5.1V15z M6.9,10.1
	H1.8V7h5.1V10.1z M6.9,5.2H1.8V2.1h5.1V5.2z M8.6,2.1h42.4v3.1H8.6V2.1z M8.6,11.9h33.7c0.5,0,0.9-0.4,0.9-0.9
	c0-0.5-0.4-0.9-0.9-0.9c-0.1,0-33,0-33.7,0V7h42.4v3.1h-5.2c-0.5,0-0.9,0.4-0.9,0.9c0,0.5,0.4,0.9,0.9,0.9h5.2V15
	c-1.4,0-41.3,0-42.4,0V11.9z M8.6,16.8h42.4v3.1H8.6V16.8z M8.6,21.7h42.4v3.1H8.6V21.7z M8.6,26.5h42.4v3.1H8.6V26.5z M8.6,31.4
	h42.4v3.1H8.6V31.4z M8.6,39.4v-3.1h42.4v3.1C46.9,39.4,12.9,39.4,8.6,39.4z M54.5,50.9H33.1v-4.7c0-0.5-0.4-0.9-0.9-0.9
	c-0.5,0-0.9,0.4-0.9,0.9v4.7h-3v-9.7h3v1.5c0,0.5,0.4,0.9,0.9,0.9c0.5,0,0.9-0.4,0.9-0.9v-1.5h17.9v3c0,0.5,0.4,0.9,0.9,0.9
	s0.9-0.4,0.9-0.9v-3h1.7V50.9z M57.9,39.4c-1.6,0-3.5,0-5.1,0v-3.1h5.1V39.4z M57.9,34.5h-5.1v-3.1h5.1V34.5z M57.9,29.7h-5.1v-3.1
	h5.1V29.7z M57.9,24.8h-5.1v-3.1h5.1V24.8z M57.9,19.9h-5.1v-3.1h5.1V19.9z M57.9,15h-5.1v-3.1h5.1V15z M57.9,10.1h-5.1V7h5.1V10.1z
	 M57.9,5.2h-5.1V2.1h5.1V5.2z"/>
</svg>
